<svg width="140" height="148" viewBox="0 0 140 148" fill="none" xmlns="http://www.w3.org/2000/svg">
<path d="M0.84668 54.1859V42.011L39.996 24.3377L44.7414 25.3196L51.8595 51.8295L13.501 67.1464L0.84668 54.1859Z" fill="#C17B3A" fill-opacity="0.95"/>
<path d="M100.5 24.3377L95.7542 25.3196L88.6362 51.8295L127.39 67.1464L139.847 54.1859V42.011L100.5 24.3377Z" fill="#C17B3A" fill-opacity="0.95"/>
<path d="M134.508 75.5902L122.249 71.8592L77.9591 90.7107L87.2521 93.4599H107.815L134.508 82.6595V75.5902Z" fill="#C17B3A" fill-opacity="0.95"/>
<path d="M114.623 132.067L120.67 93.4599L109.193 98.2393H82.9067L70.4425 93.4599L56.4973 98.2393H30.7049L18.8577 93.4599L25.5218 132.067L70.4425 148L114.623 132.067Z" fill="#C17B3A" fill-opacity="0.95"/>
<path d="M60.94 90.7107L17.8704 71.8592L5.52958 75.5902L4.78913 82.6595L32.8029 93.4599L56.4973 92.6014L60.94 90.7107Z" fill="#C17B3A" fill-opacity="0.95"/>
<path d="M56.4973 0H43.8634L60.2482 60.5895C70.1023 69.6375 72.7208 62.6668 72.7983 58.0505L56.4973 0Z" fill="#C17B3A" fill-opacity="0.95"/>
<path d="M95.7542 0H83.3729L72.7983 38.2002C75.3083 39.6775 78.0275 55.4346 79.0733 63.1285L96.6202 3.11606C97.3129 1.26952 96.3315 0.269296 95.7542 0Z" fill="#C17B3A" fill-opacity="0.95"/>
</svg>
