<svg width="62" height="61" viewBox="0 0 62 61" fill="none" xmlns="http://www.w3.org/2000/svg">
<path d="M30.9355 61C39.0247 61 46.7824 57.7866 52.5023 52.0668C58.2222 46.3469 61.4355 38.5891 61.4355 30.5C61.4355 22.4109 58.2222 14.6531 52.5023 8.93324C46.7824 3.21338 39.0247 0 30.9355 0C22.8464 0 15.0886 3.21338 9.36879 8.93324C3.64893 14.6531 0.435547 22.4109 0.435547 30.5C0.435547 38.5891 3.64893 46.3469 9.36879 52.0668C15.0886 57.7866 22.8464 61 30.9355 61ZM44.3984 24.9004L29.1484 40.1504C28.0285 41.2703 26.2176 41.2703 25.1096 40.1504L17.4846 32.5254C16.3646 31.4055 16.3646 29.5945 17.4846 28.4865C18.6045 27.3785 20.4154 27.3666 21.5234 28.4865L27.123 34.0861L40.3477 20.8496C41.4676 19.7297 43.2785 19.7297 44.3865 20.8496C45.4945 21.9695 45.5064 23.7805 44.3865 24.8885L44.3984 24.9004Z" fill="#C17B3A" fill-opacity="0.8"/>
</svg>
