<svg width="68" height="68" viewBox="0 0 68 68" fill="none" xmlns="http://www.w3.org/2000/svg">
<g clip-path="url(#clip0_294_248)">
<path d="M21.9583 28.8478L29.3809 34.5734C29.6666 36.8817 31.6124 38.6768 33.9998 38.6768C36.5834 38.6768 38.6767 36.5824 38.6767 34C38.6767 33.8998 38.6536 33.8071 38.6472 33.708L49.5251 20.839C50.285 19.9873 50.2978 18.7604 49.5578 18.1026C48.8168 17.4428 47.6014 17.6009 46.8436 18.4525L36.1542 29.8723C35.507 29.5328 34.7808 29.3231 33.9997 29.3231C33.1627 29.3231 32.3892 29.5603 31.7103 29.9451L24.7209 25.0784C23.8196 24.4143 22.4683 24.7221 21.704 25.7636C20.9421 26.8027 21.0538 28.1846 21.9583 28.8478Z" fill="#C17B3A"/>
<path d="M34 0C32.5096 0 31.3016 1.20806 31.3016 2.69848C31.3016 4.18891 32.5097 5.39684 34 5.39684C41.9077 5.3979 49.0405 8.5939 54.2255 13.7745C59.4062 18.9585 62.6022 26.0923 62.6032 34C62.6022 41.9077 59.4062 49.0405 54.2255 54.2255C49.0405 59.4062 41.9077 62.6021 34 62.6032C26.0925 62.6021 18.9585 59.4061 13.7746 54.2255C8.5939 49.0405 5.3979 41.9077 5.39684 34C5.3979 28.2543 7.09285 22.9187 10.0053 18.441L12.5097 20.3129C12.7807 20.5153 13.139 20.5659 13.4563 20.4457C13.7725 20.3256 14.0087 20.0547 14.0783 19.7216L15.7636 11.7498C16.0641 11.2342 16.1926 10.6419 16.1199 10.06L16.8819 6.45721C16.9631 6.0779 16.8145 5.6877 16.5055 5.45474C16.1945 5.22391 15.7783 5.1923 15.4367 5.37784L3.51196 11.8246C3.2126 11.9879 3.01763 12.2894 2.99346 12.6277C2.96809 12.965 3.11777 13.2939 3.38977 13.4973L5.6707 15.2017C2.09127 20.5881 -0.000929378 27.0547 3.09706e-07 34C0.00212531 52.7792 15.2208 67.9979 34 68C52.7793 67.9979 67.998 52.7792 68 34C67.998 15.2208 52.7793 0.002125 34 0Z" fill="#C17B3A"/>
</g>
<defs>
<clipPath id="clip0_294_248">
<rect width="68" height="68" fill="white"/>
</clipPath>
</defs>
</svg>
