<svg width="208" height="77" viewBox="0 0 208 77" fill="none" xmlns="http://www.w3.org/2000/svg">
<path d="M95.1136 58.2727V59.4091H90.4091V58.2727H95.1136ZM91.8182 67V57.0682C91.8182 56.5682 91.9356 56.1515 92.1705 55.8182C92.4053 55.4848 92.7102 55.2348 93.0852 55.0682C93.4602 54.9015 93.8561 54.8182 94.2727 54.8182C94.6023 54.8182 94.8712 54.8447 95.0795 54.8977C95.2879 54.9508 95.4432 55 95.5455 55.0455L95.1591 56.2045C95.0909 56.1818 94.9962 56.1534 94.875 56.1193C94.7576 56.0852 94.6023 56.0682 94.4091 56.0682C93.9659 56.0682 93.6458 56.1799 93.4489 56.4034C93.2557 56.6269 93.1591 56.9545 93.1591 57.3864V67H91.8182ZM100.179 67.1818C99.3911 67.1818 98.6998 66.9943 98.1051 66.6193C97.5142 66.2443 97.0521 65.7197 96.7188 65.0455C96.3892 64.3712 96.2244 63.5833 96.2244 62.6818C96.2244 61.7727 96.3892 60.9792 96.7188 60.3011C97.0521 59.6231 97.5142 59.0966 98.1051 58.7216C98.6998 58.3466 99.3911 58.1591 100.179 58.1591C100.967 58.1591 101.656 58.3466 102.247 58.7216C102.842 59.0966 103.304 59.6231 103.634 60.3011C103.967 60.9792 104.134 61.7727 104.134 62.6818C104.134 63.5833 103.967 64.3712 103.634 65.0455C103.304 65.7197 102.842 66.2443 102.247 66.6193C101.656 66.9943 100.967 67.1818 100.179 67.1818ZM100.179 65.9773C100.777 65.9773 101.27 65.8239 101.656 65.517C102.043 65.2102 102.329 64.8068 102.514 64.3068C102.7 63.8068 102.793 63.2652 102.793 62.6818C102.793 62.0985 102.7 61.5549 102.514 61.0511C102.329 60.5473 102.043 60.1402 101.656 59.8295C101.27 59.5189 100.777 59.3636 100.179 59.3636C99.5805 59.3636 99.0881 59.5189 98.7017 59.8295C98.3153 60.1402 98.0294 60.5473 97.8438 61.0511C97.6581 61.5549 97.5653 62.0985 97.5653 62.6818C97.5653 63.2652 97.6581 63.8068 97.8438 64.3068C98.0294 64.8068 98.3153 65.2102 98.7017 65.517C99.0881 65.8239 99.5805 65.9773 100.179 65.9773ZM109.726 67.1818C108.938 67.1818 108.247 66.9943 107.652 66.6193C107.061 66.2443 106.599 65.7197 106.266 65.0455C105.936 64.3712 105.771 63.5833 105.771 62.6818C105.771 61.7727 105.936 60.9792 106.266 60.3011C106.599 59.6231 107.061 59.0966 107.652 58.7216C108.247 58.3466 108.938 58.1591 109.726 58.1591C110.514 58.1591 111.203 58.3466 111.794 58.7216C112.389 59.0966 112.851 59.6231 113.18 60.3011C113.514 60.9792 113.68 61.7727 113.68 62.6818C113.68 63.5833 113.514 64.3712 113.18 65.0455C112.851 65.7197 112.389 66.2443 111.794 66.6193C111.203 66.9943 110.514 67.1818 109.726 67.1818ZM109.726 65.9773C110.324 65.9773 110.817 65.8239 111.203 65.517C111.589 65.2102 111.875 64.8068 112.061 64.3068C112.247 63.8068 112.339 63.2652 112.339 62.6818C112.339 62.0985 112.247 61.5549 112.061 61.0511C111.875 60.5473 111.589 60.1402 111.203 59.8295C110.817 59.5189 110.324 59.3636 109.726 59.3636C109.127 59.3636 108.635 59.5189 108.249 59.8295C107.862 60.1402 107.576 60.5473 107.391 61.0511C107.205 61.5549 107.112 62.0985 107.112 62.6818C107.112 63.2652 107.205 63.8068 107.391 64.3068C107.576 64.8068 107.862 65.2102 108.249 65.517C108.635 65.8239 109.127 65.9773 109.726 65.9773ZM119.023 67.1818C118.295 67.1818 117.653 66.9981 117.097 66.6307C116.54 66.2595 116.104 65.7367 115.79 65.0625C115.475 64.3845 115.318 63.5833 115.318 62.6591C115.318 61.7424 115.475 60.947 115.79 60.2727C116.104 59.5985 116.542 59.0777 117.102 58.7102C117.663 58.3428 118.311 58.1591 119.045 58.1591C119.614 58.1591 120.063 58.2538 120.392 58.4432C120.725 58.6288 120.979 58.8409 121.153 59.0795C121.331 59.3144 121.47 59.5076 121.568 59.6591H121.682V55.3636H123.023V67H121.727V65.6591H121.568C121.47 65.8182 121.33 66.0189 121.148 66.2614C120.966 66.5 120.706 66.714 120.369 66.9034C120.032 67.089 119.583 67.1818 119.023 67.1818ZM119.205 65.9773C119.742 65.9773 120.197 65.8371 120.568 65.5568C120.939 65.2727 121.222 64.8807 121.415 64.3807C121.608 63.8769 121.705 63.2955 121.705 62.6364C121.705 61.9848 121.61 61.4148 121.42 60.9261C121.231 60.4337 120.951 60.0511 120.58 59.7784C120.208 59.5019 119.75 59.3636 119.205 59.3636C118.636 59.3636 118.163 59.5095 117.784 59.8011C117.409 60.089 117.127 60.4811 116.938 60.9773C116.752 61.4697 116.659 62.0227 116.659 62.6364C116.659 63.2576 116.754 63.822 116.943 64.3295C117.136 64.8333 117.42 65.2348 117.795 65.5341C118.174 65.8295 118.644 65.9773 119.205 65.9773ZM133.46 67.1818C132.733 67.1818 132.091 66.9981 131.534 66.6307C130.977 66.2595 130.542 65.7367 130.227 65.0625C129.913 64.3845 129.756 63.5833 129.756 62.6591C129.756 61.7424 129.913 60.947 130.227 60.2727C130.542 59.5985 130.979 59.0777 131.54 58.7102C132.1 58.3428 132.748 58.1591 133.483 58.1591C134.051 58.1591 134.5 58.2538 134.83 58.4432C135.163 58.6288 135.417 58.8409 135.591 59.0795C135.769 59.3144 135.907 59.5076 136.006 59.6591H136.119V55.3636H137.46V67H136.165V65.6591H136.006C135.907 65.8182 135.767 66.0189 135.585 66.2614C135.403 66.5 135.144 66.714 134.807 66.9034C134.47 67.089 134.021 67.1818 133.46 67.1818ZM133.642 65.9773C134.18 65.9773 134.634 65.8371 135.006 65.5568C135.377 65.2727 135.659 64.8807 135.852 64.3807C136.045 63.8769 136.142 63.2955 136.142 62.6364C136.142 61.9848 136.047 61.4148 135.858 60.9261C135.669 60.4337 135.388 60.0511 135.017 59.7784C134.646 59.5019 134.188 59.3636 133.642 59.3636C133.074 59.3636 132.6 59.5095 132.222 59.8011C131.847 60.089 131.564 60.4811 131.375 60.9773C131.189 61.4697 131.097 62.0227 131.097 62.6364C131.097 63.2576 131.191 63.822 131.381 64.3295C131.574 64.8333 131.858 65.2348 132.233 65.5341C132.612 65.8295 133.081 65.9773 133.642 65.9773ZM143.761 67.1818C142.92 67.1818 142.195 66.9962 141.585 66.625C140.979 66.25 140.511 65.7273 140.182 65.0568C139.856 64.3826 139.693 63.5985 139.693 62.7045C139.693 61.8106 139.856 61.0227 140.182 60.3409C140.511 59.6553 140.97 59.1212 141.557 58.7386C142.148 58.3523 142.837 58.1591 143.625 58.1591C144.08 58.1591 144.528 58.2348 144.972 58.3864C145.415 58.5379 145.818 58.7841 146.182 59.125C146.545 59.4621 146.835 59.9091 147.051 60.4659C147.267 61.0227 147.375 61.7083 147.375 62.5227V63.0909H140.648V61.9318H146.011C146.011 61.4394 145.913 61 145.716 60.6136C145.523 60.2273 145.246 59.9223 144.886 59.6989C144.53 59.4754 144.11 59.3636 143.625 59.3636C143.091 59.3636 142.629 59.4962 142.239 59.7614C141.852 60.0227 141.555 60.3636 141.347 60.7841C141.138 61.2045 141.034 61.6553 141.034 62.1364V62.9091C141.034 63.5682 141.148 64.1269 141.375 64.5852C141.606 65.0398 141.926 65.3864 142.335 65.625C142.744 65.8598 143.22 65.9773 143.761 65.9773C144.114 65.9773 144.432 65.928 144.716 65.8295C145.004 65.7273 145.252 65.5758 145.46 65.375C145.669 65.1705 145.83 64.9167 145.943 64.6136L147.239 64.9773C147.102 65.4167 146.873 65.803 146.551 66.1364C146.229 66.4659 145.831 66.7235 145.358 66.9091C144.884 67.0909 144.352 67.1818 143.761 67.1818ZM150.756 55.3636V67H149.415V55.3636H150.756ZM153.212 67V58.2727H154.553V67H153.212ZM153.893 56.8182C153.632 56.8182 153.407 56.7292 153.217 56.5511C153.032 56.3731 152.939 56.1591 152.939 55.9091C152.939 55.6591 153.032 55.4451 153.217 55.267C153.407 55.089 153.632 55 153.893 55C154.155 55 154.378 55.089 154.564 55.267C154.753 55.4451 154.848 55.6591 154.848 55.9091C154.848 56.1591 154.753 56.3731 154.564 56.5511C154.378 56.7292 154.155 56.8182 153.893 56.8182ZM164.145 58.2727L160.918 67H159.554L156.327 58.2727H157.781L160.19 65.2273H160.281L162.69 58.2727H164.145ZM169.261 67.1818C168.42 67.1818 167.695 66.9962 167.085 66.625C166.479 66.25 166.011 65.7273 165.682 65.0568C165.356 64.3826 165.193 63.5985 165.193 62.7045C165.193 61.8106 165.356 61.0227 165.682 60.3409C166.011 59.6553 166.47 59.1212 167.057 58.7386C167.648 58.3523 168.337 58.1591 169.125 58.1591C169.58 58.1591 170.028 58.2348 170.472 58.3864C170.915 58.5379 171.318 58.7841 171.682 59.125C172.045 59.4621 172.335 59.9091 172.551 60.4659C172.767 61.0227 172.875 61.7083 172.875 62.5227V63.0909H166.148V61.9318H171.511C171.511 61.4394 171.413 61 171.216 60.6136C171.023 60.2273 170.746 59.9223 170.386 59.6989C170.03 59.4754 169.61 59.3636 169.125 59.3636C168.591 59.3636 168.129 59.4962 167.739 59.7614C167.352 60.0227 167.055 60.3636 166.847 60.7841C166.638 61.2045 166.534 61.6553 166.534 62.1364V62.9091C166.534 63.5682 166.648 64.1269 166.875 64.5852C167.106 65.0398 167.426 65.3864 167.835 65.625C168.244 65.8598 168.72 65.9773 169.261 65.9773C169.614 65.9773 169.932 65.928 170.216 65.8295C170.504 65.7273 170.752 65.5758 170.96 65.375C171.169 65.1705 171.33 64.9167 171.443 64.6136L172.739 64.9773C172.602 65.4167 172.373 65.803 172.051 66.1364C171.729 66.4659 171.331 66.7235 170.858 66.9091C170.384 67.0909 169.852 67.1818 169.261 67.1818ZM174.915 67V58.2727H176.21V59.5909H176.301C176.46 59.1591 176.748 58.8087 177.165 58.5398C177.581 58.2708 178.051 58.1364 178.574 58.1364C178.672 58.1364 178.795 58.1383 178.943 58.142C179.091 58.1458 179.203 58.1515 179.278 58.1591V59.5227C179.233 59.5114 179.129 59.4943 178.966 59.4716C178.807 59.4451 178.638 59.4318 178.46 59.4318C178.036 59.4318 177.657 59.5208 177.324 59.6989C176.994 59.8731 176.733 60.1155 176.54 60.4261C176.35 60.733 176.256 61.0833 176.256 61.4773V67H174.915ZM181.997 70.2727C181.77 70.2727 181.567 70.2538 181.389 70.2159C181.211 70.1818 181.088 70.1477 181.02 70.1136L181.361 68.9318C181.687 69.0152 181.974 69.0455 182.224 69.0227C182.474 69 182.696 68.8883 182.889 68.6875C183.086 68.4905 183.266 68.1705 183.429 67.7273L183.679 67.0455L180.452 58.2727H181.906L184.315 65.2273H184.406L186.815 58.2727H188.27L184.565 68.2727C184.399 68.7235 184.192 69.0966 183.946 69.392C183.7 69.6913 183.414 69.9129 183.088 70.0568C182.766 70.2008 182.402 70.2727 181.997 70.2727Z" fill="black"/>
<path d="M0 28.1306V21.81L20.1977 12.6349L22.6459 13.1447L26.3182 26.9073L6.52853 34.859L0 28.1306Z" fill="#C17B3A" fill-opacity="0.95"/>
<path d="M51.4122 12.6349L48.964 13.1447L45.2917 26.9073L65.2854 34.859L71.7119 28.1306V21.81L51.4122 12.6349Z" fill="#C17B3A" fill-opacity="0.95"/>
<path d="M68.9577 39.2427L62.6332 37.3057L39.7833 47.0925L44.5777 48.5197H55.1865L68.9577 42.9127V39.2427Z" fill="#C17B3A" fill-opacity="0.95"/>
<path d="M58.6985 68.5624L61.8183 48.5197L55.8971 51.0009H42.3358L35.9054 48.5197L28.7109 51.0009H15.4043L9.29212 48.5197L12.7302 68.5624L35.9054 76.8342L58.6985 68.5624Z" fill="#C17B3A" fill-opacity="0.95"/>
<path d="M31.0029 47.0925L8.78278 37.3057L2.41597 39.2427L2.03396 42.9127L16.4866 48.5197L28.7109 48.074L31.0029 47.0925Z" fill="#C17B3A" fill-opacity="0.95"/>
<path d="M28.7109 0H22.1929L30.646 31.455C35.7299 36.1523 37.0808 32.5335 37.1208 30.1369L28.7109 0Z" fill="#C17B3A" fill-opacity="0.95"/>
<path d="M48.964 0H42.5763L37.1208 19.8316C38.4157 20.5985 39.8186 28.7788 40.3581 32.7731L49.4108 1.6177C49.7682 0.659073 49.2619 0.139805 48.964 0Z" fill="#C17B3A" fill-opacity="0.95"/>
<path d="M90 40.9536V14.0524H94.8038L105.391 31.42V14.0524H110.342V40.9536H105.464L94.9516 22.9764V40.9536H90Z" fill="#333333"/>
<path d="M131.83 27.54C131.83 26.3206 131.725 25.175 131.516 24.1034C131.319 23.0195 130.992 22.0033 130.537 21.0549C130.093 20.1064 129.453 19.3551 128.615 18.8008C127.79 18.2342 126.817 17.9509 125.696 17.9509C124.784 17.9509 123.971 18.1418 123.257 18.5237C122.543 18.8932 121.957 19.3859 121.502 20.0017C121.046 20.6176 120.67 21.3505 120.375 22.2004C120.079 23.0503 119.87 23.9125 119.747 24.7871C119.623 25.6616 119.562 26.5792 119.562 27.54C119.562 28.4884 119.623 29.3999 119.747 30.2745C119.87 31.1367 120.079 31.9866 120.375 32.8242C120.67 33.6617 121.046 34.3885 121.502 35.0043C121.957 35.6202 122.543 36.1191 123.257 36.5009C123.984 36.8704 124.797 37.0552 125.696 37.0552C126.607 37.0552 127.42 36.8704 128.135 36.5009C128.861 36.1191 129.446 35.6202 129.89 35.0043C130.346 34.3885 130.721 33.6617 131.017 32.8242C131.313 31.9866 131.522 31.1367 131.645 30.2745C131.768 29.3999 131.83 28.4884 131.83 27.54ZM114.333 27.54C114.333 26.222 114.456 24.9287 114.703 23.66C114.961 22.379 115.38 21.1226 115.959 19.8909C116.538 18.6468 117.252 17.5629 118.102 16.6391C118.952 15.703 120.03 14.9516 121.335 14.385C122.641 13.8061 124.095 13.5166 125.696 13.5166C127.297 13.5166 128.751 13.8061 130.056 14.385C131.362 14.9516 132.44 15.703 133.289 16.6391C134.139 17.5629 134.854 18.6468 135.433 19.8909C136.012 21.1226 136.424 22.379 136.671 23.66C136.917 24.9287 137.04 26.222 137.04 27.54C137.04 28.8456 136.917 30.1328 136.671 31.4015C136.424 32.6579 136.012 33.9019 135.433 35.1337C134.854 36.3654 134.139 37.4493 133.289 38.3855C132.44 39.3093 131.362 40.0606 130.056 40.6395C128.751 41.2061 127.297 41.4894 125.696 41.4894C124.095 41.4894 122.641 41.2061 121.335 40.6395C120.03 40.0606 118.952 39.3093 118.102 38.3855C117.252 37.4493 116.538 36.3654 115.959 35.1337C115.38 33.9019 114.961 32.6517 114.703 31.383C114.456 30.1143 114.333 28.8333 114.333 27.54Z" fill="#333333"/>
<path d="M157.881 27.54C157.881 26.3206 157.776 25.175 157.567 24.1034C157.37 23.0195 157.044 22.0033 156.588 21.0549C156.144 20.1064 155.504 19.3551 154.666 18.8008C153.841 18.2342 152.868 17.9509 151.747 17.9509C150.836 17.9509 150.023 18.1418 149.308 18.5237C148.594 18.8932 148.009 19.3859 147.553 20.0017C147.097 20.6176 146.722 21.3505 146.426 22.2004C146.13 23.0503 145.921 23.9125 145.798 24.7871C145.675 25.6616 145.613 26.5792 145.613 27.54C145.613 28.4884 145.675 29.3999 145.798 30.2745C145.921 31.1367 146.13 31.9866 146.426 32.8242C146.722 33.6617 147.097 34.3885 147.553 35.0043C148.009 35.6202 148.594 36.1191 149.308 36.5009C150.035 36.8704 150.848 37.0552 151.747 37.0552C152.659 37.0552 153.472 36.8704 154.186 36.5009C154.913 36.1191 155.498 35.6202 155.941 35.0043C156.397 34.3885 156.773 33.6617 157.068 32.8242C157.364 31.9866 157.573 31.1367 157.696 30.2745C157.82 29.3999 157.881 28.4884 157.881 27.54ZM140.384 27.54C140.384 26.222 140.507 24.9287 140.754 23.66C141.012 22.379 141.431 21.1226 142.01 19.8909C142.589 18.6468 143.304 17.5629 144.153 16.6391C145.003 15.703 146.081 14.9516 147.387 14.385C148.692 13.8061 150.146 13.5166 151.747 13.5166C153.348 13.5166 154.802 13.8061 156.107 14.385C157.413 14.9516 158.491 15.703 159.341 16.6391C160.191 17.5629 160.905 18.6468 161.484 19.8909C162.063 21.1226 162.476 22.379 162.722 23.66C162.968 24.9287 163.091 26.222 163.091 27.54C163.091 28.8456 162.968 30.1328 162.722 31.4015C162.476 32.6579 162.063 33.9019 161.484 35.1337C160.905 36.3654 160.191 37.4493 159.341 38.3855C158.491 39.3093 157.413 40.0606 156.107 40.6395C154.802 41.2061 153.348 41.4894 151.747 41.4894C150.146 41.4894 148.692 41.2061 147.387 40.6395C146.081 40.0606 145.003 39.3093 144.153 38.3855C143.304 37.4493 142.589 36.3654 142.01 35.1337C141.431 33.9019 141.012 32.6517 140.754 31.383C140.507 30.1143 140.384 28.8333 140.384 27.54Z" fill="#333333"/>
<path d="M166.713 40.9536V14.0524H171.517L182.103 31.42V14.0524H187.055V40.9536H182.177L171.664 22.9764V40.9536H166.713Z" fill="#333333"/>
<path d="M195.535 38.5333C195.535 37.6957 195.831 36.9813 196.422 36.39C197.014 35.7988 197.728 35.5032 198.566 35.5032C199.403 35.5032 200.118 35.7988 200.709 36.39C201.3 36.9813 201.596 37.6957 201.596 38.5333C201.596 39.3708 201.3 40.0853 200.709 40.6765C200.118 41.2677 199.403 41.5633 198.566 41.5633C197.74 41.5633 197.026 41.2677 196.422 40.6765C195.831 40.0729 195.535 39.3585 195.535 38.5333ZM201.004 31.1613V33.5817H196.053V29.9788C196.053 29.3753 196.164 28.8148 196.385 28.2975C196.619 27.7802 196.915 27.3306 197.272 26.9488C197.629 26.5669 198.024 26.2036 198.455 25.8587C198.886 25.5015 199.317 25.1504 199.748 24.8055C200.191 24.4483 200.592 24.085 200.949 23.7154C201.306 23.3336 201.596 22.8902 201.817 22.3852C202.051 21.8801 202.168 21.332 202.168 20.7408C202.168 20.051 201.977 19.4783 201.596 19.0225C201.214 18.5668 200.758 18.2527 200.228 18.0802C199.711 17.8955 199.138 17.8031 198.51 17.8031C197.537 17.8031 196.73 18.1295 196.09 18.7823C195.462 19.4228 195.104 20.2296 195.018 21.2027L190.067 20.4452C190.301 18.3635 191.163 16.6514 192.653 15.3088C194.156 13.9662 196.084 13.2949 198.436 13.2949C199.348 13.2949 200.235 13.3935 201.097 13.5905C201.959 13.7876 202.766 14.0894 203.517 14.4959C204.281 14.9023 204.946 15.395 205.513 15.974C206.091 16.5406 206.541 17.2303 206.861 18.0433C207.194 18.8439 207.36 19.7184 207.36 20.6669C207.36 21.5907 207.243 22.4406 207.009 23.2166C206.775 23.9926 206.467 24.6392 206.085 25.1566C205.716 25.6739 205.303 26.1481 204.847 26.5792C204.404 27.0103 203.954 27.3983 203.499 27.7432C203.055 28.0881 202.643 28.4268 202.261 28.7594C201.891 29.092 201.589 29.4615 201.355 29.868C201.121 30.2621 201.004 30.6932 201.004 31.1613Z" fill="#333333"/>
</svg>
