<svg width="69" height="68" viewBox="0 0 69 68" fill="none" xmlns="http://www.w3.org/2000/svg">
<g clip-path="url(#clip0_294_242)">
<path d="M4.88024 33.9817H2.84329V33.9822H2.82178C3.49168 53.0574 17.4273 67.9999 34.5472 67.9999C51.4026 67.9999 65.1616 53.5127 66.2022 34.8398C66.2185 34.5536 66.2413 34.2695 66.2514 33.9817H66.2504C66.2504 33.9745 66.2512 33.9672 66.2514 33.9604L4.88024 33.9817ZM57.8583 44.8231C57.3223 45.8579 56.7369 46.8751 56.1184 47.8473C55.5013 48.8174 54.8346 49.7678 54.1368 50.673C53.4364 51.5799 52.6918 52.4582 51.9244 53.2836C51.1509 54.1147 50.3348 54.9141 49.4985 55.6603C48.6528 56.4131 47.7694 57.1276 46.8724 57.7834C45.9671 58.446 45.0214 59.0688 44.0613 59.6348C43.6211 59.8941 43.1192 60.0314 42.61 60.0314C41.5994 60.0314 40.6528 59.4911 40.14 58.6217C39.3384 57.2617 39.7931 55.5026 41.1531 54.7006C41.9479 54.2324 42.7345 53.7144 43.4908 53.1613C44.2421 52.6117 44.9815 52.0139 45.6881 51.384C46.3901 50.7587 47.077 50.0857 47.7309 49.3837C48.3831 48.6811 49.0125 47.9376 49.6015 47.1745C50.1931 46.4087 50.7598 45.6004 51.2871 44.773C51.8175 43.9393 52.3167 43.0709 52.771 42.1915C53.265 41.2365 54.2408 40.6433 55.3176 40.6433C55.7781 40.6433 56.2198 40.7512 56.6305 40.9642C58.0331 41.6893 58.5838 43.4206 57.8583 44.8231Z" fill="#C17B3A"/>
<path d="M66.321 20.8184H2.77848C1.6954 20.8184 0.814453 21.7925 0.814453 22.9897V28.6297C0.814453 29.8269 1.69527 30.8005 2.77848 30.8005H66.3212C67.3985 30.8005 68.2754 29.8269 68.2754 28.6297V22.9897C68.2752 21.7925 67.3984 20.8184 66.321 20.8184Z" fill="#C17B3A"/>
<path d="M32.5307 17.6556H46.1308L50.5026 8.81609C50.9127 7.98601 51.13 7.05845 51.13 6.13355C51.13 3.81026 49.7966 1.65139 47.7329 0.633516C46.8872 0.213031 45.9803 0 45.0378 0C42.7223 0 40.5644 1.33556 39.5404 3.40279L34.6972 13.2496L32.5303 17.6343H32.5409L32.5307 17.6556Z" fill="#C17B3A"/>
</g>
<defs>
<clipPath id="clip0_294_242">
<rect width="68" height="68" fill="white" transform="translate(0.544922)"/>
</clipPath>
</defs>
</svg>
