<svg width="21" height="21" viewBox="0 0 21 21" fill="none" xmlns="http://www.w3.org/2000/svg">
<path d="M10.6213 5.37226C7.78368 5.37226 5.49477 7.66167 5.49477 10.5C5.49477 13.3383 7.78368 15.6277 10.6213 15.6277C13.4591 15.6277 15.748 13.3383 15.748 10.5C15.748 7.66167 13.4591 5.37226 10.6213 5.37226ZM10.6213 13.8337C8.78755 13.8337 7.28841 12.3387 7.28841 10.5C7.28841 8.66134 8.78315 7.1663 10.6213 7.1663C12.4596 7.1663 13.9544 8.66134 13.9544 10.5C13.9544 12.3387 12.4552 13.8337 10.6213 13.8337ZM17.1535 5.1625C17.1535 5.82746 16.618 6.35854 15.9577 6.35854C15.2929 6.35854 14.762 5.823 14.762 5.1625C14.762 4.50201 15.2974 3.96648 15.9577 3.96648C16.618 3.96648 17.1535 4.50201 17.1535 5.1625ZM20.5489 6.37638C20.473 4.77424 20.1072 3.35508 18.9337 2.18582C17.7647 1.01657 16.3459 0.65062 14.7441 0.570289C13.0932 0.47657 8.14508 0.47657 6.49421 0.570289C4.89689 0.646157 3.47804 1.01211 2.30459 2.18136C1.13113 3.35061 0.769726 4.76978 0.689414 6.37192C0.595716 8.02314 0.595716 12.9724 0.689414 14.6236C0.765265 16.2257 1.13113 17.6449 2.30459 18.8142C3.47804 19.9834 4.89243 20.3494 6.49421 20.4298C8.14508 20.5234 13.0932 20.5234 14.7441 20.4298C16.3459 20.3539 17.7647 19.9879 18.9337 18.8142C20.1027 17.6449 20.4686 16.2257 20.5489 14.6236C20.6426 12.9724 20.6426 8.02761 20.5489 6.37638ZM18.4162 16.3953C18.0682 17.2701 17.3944 17.9439 16.5154 18.2965C15.1992 18.8187 12.076 18.6981 10.6213 18.6981C9.16681 18.6981 6.03911 18.8142 4.72734 18.2965C3.85283 17.9484 3.1791 17.2745 2.82662 16.3953C2.30459 15.0788 2.42506 11.9549 2.42506 10.5C2.42506 9.04514 2.30905 5.91672 2.82662 4.60466C3.17464 3.72995 3.84837 3.05607 4.72734 2.7035C6.04357 2.18135 9.16681 2.30185 10.6213 2.30185C12.076 2.30185 15.2036 2.18582 16.5154 2.7035C17.39 3.0516 18.0637 3.72548 18.4162 4.60466C18.9382 5.92118 18.8177 9.04514 18.8177 10.5C18.8177 11.9549 18.9382 15.0833 18.4162 16.3953Z" fill="#333333" fill-opacity="0.8"/>
</svg>
