<svg width="58" height="61" viewBox="0 0 58 61" fill="none" xmlns="http://www.w3.org/2000/svg">
<path d="M28.9355 23.2372C27.5934 23.2377 26.2815 23.6641 25.1658 24.4625C24.0501 25.2609 23.1807 26.3954 22.6674 27.7225C22.1541 29.0497 22.0201 30.5099 22.2822 31.9186C22.5444 33.3272 23.1909 34.6211 24.1402 35.6365C25.0894 36.652 26.2986 37.3434 27.615 37.6235C28.9314 37.9035 30.2959 37.7595 31.5358 37.2097C32.7757 36.6599 33.8355 35.729 34.5811 34.5347C35.3267 33.3404 35.7247 31.9363 35.7247 30.5C35.7233 28.5738 35.0075 26.7269 33.7345 25.365C32.4615 24.0032 30.7355 23.2379 28.9355 23.2372ZM44.8027 17.6546C44.4572 16.7176 43.9355 15.8666 43.2699 15.1543C42.6043 14.442 41.8091 13.8837 40.9335 13.514C38.2617 12.3852 31.9001 12.6384 28.9355 12.6384C25.971 12.6384 19.6158 12.3756 16.9363 13.514C16.0607 13.8837 15.2655 14.442 14.5999 15.1543C13.9344 15.8666 13.4126 16.7176 13.0672 17.6546C12.0137 20.514 12.2491 27.3288 12.2491 30.4986C12.2491 33.6685 12.0137 40.4751 13.0722 43.344C13.4177 44.281 13.9394 45.1321 14.605 45.8444C15.2706 46.5566 16.0658 47.115 16.9414 47.4847C19.6132 48.6135 25.9749 48.3602 28.9406 48.3602C31.9064 48.3602 38.2591 48.623 40.9386 47.4847C41.8142 47.115 42.6094 46.5566 43.275 45.8444C43.9406 45.1321 44.4623 44.281 44.8078 43.344C45.8701 40.4847 45.6259 33.6698 45.6259 30.5C45.6259 27.3302 45.8701 20.5249 44.8078 17.656L44.8027 17.6546ZM28.9355 41.6652C26.8721 41.6652 24.855 41.0104 23.1393 39.7835C21.4236 38.5567 20.0863 36.8129 19.2967 34.7727C18.507 32.7326 18.3004 30.4876 18.703 28.3218C19.1055 26.1559 20.0992 24.1665 21.5583 22.605C23.0174 21.0435 24.8764 19.9802 26.9002 19.5494C28.924 19.1185 31.0217 19.3397 32.9281 20.1847C34.8345 21.0298 36.4639 22.4609 37.6103 24.297C38.7567 26.1331 39.3686 28.2917 39.3686 30.5C39.3703 31.9667 39.1015 33.4194 38.5778 34.7748C38.0541 36.1303 37.2857 37.3618 36.3166 38.399C35.3474 39.4361 34.1966 40.2585 32.9301 40.8189C31.6635 41.3794 30.3061 41.667 28.9355 41.6652ZM39.7986 21.4725C39.3169 21.4728 38.846 21.3202 38.4453 21.034C38.0447 20.7478 37.7324 20.3409 37.5479 19.8647C37.3634 19.3885 37.315 18.8645 37.4088 18.3588C37.5026 17.8532 37.7344 17.3887 38.0749 17.0241C38.4155 16.6595 38.8494 16.4112 39.3218 16.3105C39.7942 16.2098 40.2839 16.2614 40.729 16.4586C41.174 16.6558 41.5544 16.9898 41.8221 17.4184C42.0897 17.847 42.2326 18.3509 42.2326 18.8664C42.2339 19.2088 42.1721 19.548 42.0506 19.8647C41.9292 20.1814 41.7505 20.4693 41.5249 20.7119C41.2992 20.9546 41.031 21.1471 40.7357 21.2786C40.4403 21.4101 40.1236 21.4778 39.8037 21.478L39.7986 21.4725ZM51.3284 0H6.54269C4.92297 0 3.3696 0.688582 2.22429 1.91427C1.07898 3.13995 0.435547 4.80234 0.435547 6.53571L0.435547 54.4643C0.435547 56.1977 1.07898 57.8601 2.22429 59.0857C3.3696 60.3114 4.92297 61 6.54269 61H51.3284C52.9481 61 54.5015 60.3114 55.6468 59.0857C56.7921 57.8601 57.4355 56.1977 57.4355 54.4643V6.53571C57.4355 4.80234 56.7921 3.13995 55.6468 1.91427C54.5015 0.688582 52.9481 0 51.3284 0ZM49.1502 39.4866C48.9861 42.9764 48.2418 46.0686 45.8612 48.6094C43.4807 51.1501 40.5938 51.963 37.3367 52.1291C33.9765 52.332 23.9022 52.332 20.542 52.1291C17.2811 51.9535 14.4018 51.1556 12.0175 48.6094C9.63316 46.0632 8.88376 42.9696 8.72854 39.4866C8.53896 35.8892 8.53896 25.1067 8.72854 21.5134C8.89267 18.0236 9.62807 14.9314 12.0175 12.3906C14.4069 9.84987 17.2938 9.04652 20.542 8.8804C23.9022 8.67752 33.9765 8.67752 37.3367 8.8804C40.5976 9.05605 43.4858 9.85395 45.8612 12.4002C48.2367 14.9464 48.995 18.0399 49.1502 21.5297C49.3398 25.1135 49.3398 35.8865 49.1502 39.4866Z" fill="#FD0074"/>
</svg>
