<svg width="20" height="21" viewBox="0 0 20 21" fill="none" xmlns="http://www.w3.org/2000/svg">
<path d="M20 10.604C20 7.95184 18.9464 5.4083 17.0711 3.53294C15.1957 1.65757 12.6522 0.604004 10 0.604004C7.34784 0.604004 4.8043 1.65757 2.92893 3.53294C1.05357 5.4083 0 7.95184 0 10.604C0 13.2562 1.05357 15.7997 2.92893 17.6751C4.8043 19.5504 7.34784 20.604 10 20.604C12.6522 20.604 15.1957 19.5504 17.0711 17.6751C18.9464 15.7997 20 13.2562 20 10.604ZM9.02344 5.56494C9.39062 5.19775 9.98438 5.19775 10.3477 5.56494C10.7109 5.93213 10.7148 6.52588 10.3477 6.88916L7.57422 9.6626L14.6875 9.6665C15.207 9.6665 15.625 10.0845 15.625 10.604C15.625 11.1235 15.207 11.5415 14.6875 11.5415H7.57422L10.3477 14.3149C10.7148 14.6821 10.7148 15.2759 10.3477 15.6392C9.98047 16.0024 9.38672 16.0063 9.02344 15.6392L4.64844 11.2681C4.28125 10.9009 4.28125 10.3071 4.64844 9.94385L9.02344 5.56494Z" fill="#C17B3A"/>
</svg>
