<svg width="251" height="250" viewBox="0 0 251 250" fill="none" xmlns="http://www.w3.org/2000/svg">
<path d="M232.074 20.5025C232.073 20.6493 232.011 20.79 231.9 20.8938C231.79 20.9976 231.64 21.0562 231.483 21.0566H231.2C230.763 20.702 230.338 20.3307 229.925 19.9484H231.483C231.64 19.9488 231.79 20.0073 231.9 20.1112C232.011 20.215 232.073 20.3557 232.074 20.5025Z" fill="#F2F2F2"/>
<path d="M246.243 0H98.0575C96.9618 0.00114254 95.9113 0.410167 95.1366 1.13734C94.3618 1.86452 93.926 2.85046 93.9248 3.87884V79.2392C93.926 80.2676 94.3618 81.2535 95.1366 81.9807C95.9113 82.7079 96.9618 83.1169 98.0575 83.118H246.243C247.339 83.1169 248.389 82.7079 249.164 81.9807C249.939 81.2535 250.374 80.2676 250.376 79.2392V3.87884C250.374 2.85046 249.939 1.86452 249.164 1.13734C248.389 0.410167 247.339 0.00114254 246.243 0ZM249.195 79.2392C249.195 79.9739 248.884 80.6785 248.33 81.198C247.776 81.7175 247.026 82.0095 246.243 82.0098H98.0575C97.2747 82.0095 96.524 81.7175 95.9705 81.198C95.417 80.6785 95.1059 79.9739 95.1056 79.2392V3.87884C95.1059 3.14412 95.417 2.43958 95.9705 1.92005C96.524 1.40053 97.2747 1.10853 98.0575 1.10824H246.243C247.026 1.10853 247.776 1.40053 248.33 1.92005C248.884 2.43958 249.195 3.14412 249.195 3.87884V79.2392Z" fill="#3F3D56"/>
<path d="M156.34 32.7817C154.574 28.8031 151.829 25.4895 147.838 23.2952C143.652 20.9845 138.864 19.0617 134.047 18.3691C129.224 17.6999 124.307 17.9582 119.594 19.1282C118.98 19.2778 118.343 19.4385 117.705 19.6158C116.048 20.0175 114.472 20.6727 113.041 21.5553C112.994 21.583 112.947 21.6107 112.899 21.6439C111.069 22.9073 109.818 24.9908 108.79 26.8582C107.816 28.648 107.202 30.6207 107.734 32.6211C108.31 34.4457 109.509 36.0422 111.146 37.1648C112.285 38.0071 113.779 39.071 115.302 39.0932C115.662 39.1007 116.021 39.0443 116.359 38.9269C116.465 38.892 116.566 38.8455 116.66 38.7884C117.274 38.9614 117.909 39.0601 118.549 39.0821C121.141 39.1929 123.733 38.1623 126.395 37.32C127.02 37.1156 127.659 36.9545 128.308 36.8379C129.471 36.6004 130.678 36.6385 131.821 36.9487C132.032 37.0047 132.239 37.0732 132.441 37.1538C134.414 38.0218 136.078 39.4051 137.235 41.1379C138.362 42.7116 139.106 44.5014 140.346 46.0141C140.962 46.7937 141.745 47.4432 142.645 47.9205C143.545 48.3978 144.542 48.6922 145.571 48.7847C148.665 49.1061 152.549 48.951 155.212 47.2055C155.935 46.7422 156.554 46.1512 157.036 45.4656C157.083 45.3991 157.131 45.3326 157.172 45.2661C159.622 41.4814 158.016 36.5442 156.34 32.7817ZM115.55 26.969C116.141 27.0299 116.737 27.0964 117.327 27.1574C116.198 27.3467 115.141 27.811 114.263 28.5039C113.93 28.7698 113.62 29.0608 113.336 29.3739C113.348 29.3517 113.348 29.324 113.36 29.3018C113.533 28.7919 113.817 28.3212 114.194 27.9196C114.571 27.518 115.033 27.1943 115.55 26.969ZM151.144 41.0437C151.251 41.0215 151.363 41.0049 151.469 40.9882C151.639 40.9634 151.8 40.9027 151.941 40.8109C151.941 40.8275 151.947 40.8497 151.947 40.8663C151.948 40.9405 151.954 41.0145 151.965 41.088C151.935 41.1323 151.912 41.1766 151.882 41.221C151.634 41.16 151.392 41.0991 151.144 41.0437ZM149.497 27.5674C150.804 28.7261 151.917 30.0637 152.797 31.5349C151.755 30.34 150.604 29.233 149.355 28.2268C149.449 28.0182 149.497 27.7939 149.497 27.5674ZM148.063 43.2878C148.012 43.3689 147.974 43.4567 147.95 43.5483C147.791 43.5538 147.626 43.5594 147.46 43.5594H147.378C147.372 43.5372 147.36 43.5095 147.354 43.4873C147.319 43.3876 147.289 43.2878 147.254 43.1881C147.525 43.2214 147.791 43.2546 148.063 43.2878ZM135.44 30.8589C135.456 30.7469 135.46 30.6337 135.452 30.5209C135.582 30.6129 135.734 30.6738 135.895 30.6982C135.913 30.7038 135.936 30.7038 135.954 30.7093C136.066 30.7703 136.172 30.8257 136.284 30.8866L136.249 30.9365C135.977 30.9088 135.706 30.8866 135.44 30.8589ZM144.792 28.0994H144.774C144.385 27.8722 143.995 27.645 143.599 27.4289C144.001 27.6395 144.402 27.8666 144.792 28.0994ZM142.619 38.4836C142.558 38.5409 142.507 38.6063 142.466 38.6776C142.436 38.6388 142.412 38.6055 142.383 38.5667C142.457 38.529 142.537 38.501 142.619 38.4836ZM137.329 27.6284C137.198 27.5306 137.053 27.4504 136.898 27.3901C136.138 27.1148 135.359 26.8871 134.566 26.7086C134.448 26.6033 134.33 26.498 134.218 26.3872C134.888 26.5089 135.55 26.6661 136.202 26.8582C137.036 27.1092 137.854 27.4053 138.652 27.7448C138.209 27.7004 137.772 27.6616 137.329 27.6284ZM132.831 20.6797C134.529 20.8926 136.203 21.2524 137.831 21.7547C137.666 21.7159 137.501 21.6827 137.335 21.6439C135.771 21.3114 134.177 20.9568 132.571 20.652C132.659 20.6631 132.742 20.6686 132.831 20.6797Z" fill="#CCCCCC"/>
<path d="M139.19 63.7109C137.701 63.6719 135.848 63.6229 134.421 62.6446C133.996 62.3412 133.647 61.9543 133.398 61.5108C133.149 61.0674 133.006 60.5783 132.98 60.0777C132.954 59.7219 133.016 59.3654 133.162 59.036C133.307 58.7065 133.531 58.4131 133.818 58.1786C134.243 57.8806 134.741 57.6873 135.266 57.6163C135.792 57.5453 136.328 57.5989 136.825 57.7722L135.61 49.434L136.502 49.3192L137.931 59.1218L137.186 58.8009C136.322 58.429 135.136 58.2399 134.399 58.8242C134.218 58.977 134.077 59.1668 133.987 59.379C133.897 59.5912 133.86 59.82 133.88 60.0477C133.902 60.4203 134.009 60.7842 134.194 61.1145C134.379 61.4448 134.638 61.7338 134.952 61.9618C136.063 62.7234 137.54 62.8217 139.215 62.8658L139.19 63.7109Z" fill="#3F3D56"/>
<path d="M131.197 50.1531H126.346V50.9985H131.197V50.1531Z" fill="#3F3D56"/>
<path d="M146.509 50.1531H141.658V50.9985H146.509V50.1531Z" fill="#3F3D56"/>
<path d="M117.918 38.4791C114.011 38.061 110.986 34.5479 110.653 30.9834C110.258 26.7428 112.889 22.7152 116.499 20.3356C120.274 17.847 124.977 16.8078 129.528 16.579C138.405 16.1644 147.13 18.8634 154.004 24.1511C157.414 26.8093 160.599 30.1953 161.806 34.2852C162.854 37.837 162.001 41.8609 158.957 44.3485C158.205 44.9581 157.325 45.4146 156.375 45.6893C155.425 45.9639 154.424 46.0507 153.436 45.9441C151.074 45.7139 148.895 44.5484 147.009 43.2612C143.34 40.7574 140.328 37.2693 135.858 35.9609C132.58 35.0015 128.327 35.846 126.324 38.6279C125.87 39.2648 125.575 39.9901 125.463 40.7493C125.421 40.9113 125.447 41.0819 125.535 41.2267C125.622 41.3715 125.765 41.4797 125.935 41.5293C126.107 41.573 126.291 41.551 126.447 41.4681C126.603 41.3852 126.717 41.248 126.766 41.0864C127.291 37.5825 131.882 36.275 135.103 37.0752C139.8 38.2419 142.952 42.1756 146.806 44.6748C148.8 46.0707 151.15 46.9511 153.621 47.2279C155.763 47.3856 157.889 46.7727 159.567 45.5134C162.859 43.0736 164.118 38.8772 163.39 35.0991C162.547 30.724 159.41 26.9742 155.967 24.0711C148.988 18.248 139.928 15.1065 130.592 15.2729C125.83 15.3755 120.861 16.2982 116.759 18.6605C112.78 20.9519 109.704 24.7855 109.302 29.2415C108.948 33.1638 111.19 37.2662 115.039 38.9845C115.946 39.388 116.92 39.6458 117.918 39.7472C118.78 39.8395 118.773 38.5707 117.918 38.4791Z" fill="#3F3D56"/>
<path d="M232.074 20.5025C232.073 20.6493 232.011 20.79 231.9 20.8938C231.79 20.9976 231.64 21.0562 231.484 21.0566H183.072C182.916 21.0566 182.766 20.9982 182.655 20.8943C182.544 20.7904 182.482 20.6494 182.482 20.5025C182.482 20.3555 182.544 20.2146 182.655 20.1107C182.766 20.0067 182.916 19.9484 183.072 19.9484H231.484C231.64 19.9488 231.79 20.0073 231.9 20.1112C232.011 20.215 232.073 20.3557 232.074 20.5025Z" fill="#3F3D56"/>
<path d="M231.484 29.3684H183.072C182.916 29.3684 182.766 29.31 182.655 29.2061C182.544 29.1021 182.482 28.9612 182.482 28.8143C182.482 28.6673 182.544 28.5263 182.655 28.4224C182.766 28.3185 182.916 28.2601 183.072 28.2601H231.484C231.64 28.2601 231.79 28.3185 231.901 28.4224C232.012 28.5263 232.074 28.6673 232.074 28.8143C232.074 28.9612 232.012 29.1021 231.901 29.2061C231.79 29.31 231.64 29.3684 231.484 29.3684Z" fill="#3F3D56"/>
<path d="M231.484 37.6801H183.072C182.916 37.6801 182.766 37.6218 182.655 37.5178C182.544 37.4139 182.482 37.273 182.482 37.126C182.482 36.9791 182.544 36.8381 182.655 36.7342C182.766 36.6303 182.916 36.5719 183.072 36.5719H231.484C231.64 36.5719 231.79 36.6303 231.901 36.7342C232.012 36.8381 232.074 36.9791 232.074 37.126C232.074 37.273 232.012 37.4139 231.901 37.5178C231.79 37.6218 231.64 37.6801 231.484 37.6801Z" fill="#3F3D56"/>
<path d="M231.484 45.9919H183.072C182.916 45.9919 182.766 45.9335 182.655 45.8296C182.544 45.7257 182.482 45.5847 182.482 45.4378C182.482 45.2908 182.544 45.1499 182.655 45.046C182.766 44.942 182.916 44.8837 183.072 44.8837H231.484C231.64 44.8837 231.79 44.942 231.901 45.046C232.012 45.1499 232.074 45.2908 232.074 45.4378C232.074 45.5847 232.012 45.7257 231.901 45.8296C231.79 45.9335 231.64 45.9919 231.484 45.9919Z" fill="#3F3D56"/>
<path d="M231.484 54.3038H183.072C182.916 54.3038 182.766 54.2454 182.655 54.1415C182.544 54.0376 182.482 53.8966 182.482 53.7497C182.482 53.6027 182.544 53.4618 182.655 53.3579C182.766 53.2539 182.916 53.1956 183.072 53.1956H231.484C231.64 53.1956 231.79 53.2539 231.901 53.3579C232.012 53.4618 232.074 53.6027 232.074 53.7497C232.074 53.8966 232.012 54.0376 231.901 54.1415C231.79 54.2454 231.64 54.3038 231.484 54.3038Z" fill="#3F3D56"/>
<path d="M231.484 62.6156H183.072C182.916 62.6156 182.766 62.5572 182.655 62.4533C182.544 62.3494 182.482 62.2084 182.482 62.0614C182.482 61.9145 182.544 61.7735 182.655 61.6696C182.766 61.5657 182.916 61.5073 183.072 61.5073H231.484C231.64 61.5073 231.79 61.5657 231.901 61.6696C232.012 61.7735 232.074 61.9145 232.074 62.0614C232.074 62.2084 232.012 62.3494 231.901 62.4533C231.79 62.5572 231.64 62.6156 231.484 62.6156Z" fill="#3F3D56"/>
<path d="M56.5124 136.621C54.8671 136.626 53.2786 136.057 52.0547 135.025C51.3696 134.451 50.8167 133.752 50.4298 132.971C50.0428 132.19 49.8302 131.343 49.8047 130.482L23.6059 112.598C22.8153 112.058 22.1588 111.364 21.6815 110.564C21.2042 109.763 20.9175 108.875 20.841 107.96C20.7646 107.046 20.9002 106.127 21.2387 105.266C21.5771 104.405 22.1103 103.624 22.8014 102.975L42.3065 84.6678C43.1102 83.9134 44.1342 83.3997 45.2491 83.1915C46.3639 82.9834 47.5194 83.0902 48.5696 83.4985C49.6197 83.9068 50.5173 84.5981 51.1488 85.4852C51.7802 86.3723 52.1173 87.4152 52.1172 88.482C51.9579 91.2806 50.7826 93.9437 48.7868 96.0284L35.5432 108.459L56.3296 124.01C56.3936 124.006 56.4577 124.003 56.5228 124.003C58.239 124.003 59.8903 124.619 61.1383 125.724C62.3862 126.83 63.1362 128.342 63.2347 129.95C63.3331 131.559 62.7725 133.141 61.6678 134.374C60.563 135.607 58.9977 136.396 57.2927 136.58C57.0336 136.607 56.7731 136.621 56.5124 136.621Z" fill="#FFB8B8"/>
<path d="M87.6446 242.252L94.6743 239.789L87.8973 213.167L77.522 216.803L87.6446 242.252Z" fill="#FFB8B8"/>
<path d="M110.669 241.165L88.5754 248.907L85.3887 240.895L99.2484 236.038C101.432 235.273 103.85 235.354 105.971 236.262C108.091 237.17 109.741 238.832 110.556 240.881L110.669 241.165Z" fill="#2F2E41"/>
<path d="M24.4021 243.46H31.9058L35.4752 216.295L24.4009 216.295L24.4021 243.46Z" fill="#FFB8B8"/>
<path d="M46.377 249.999L22.7941 250L22.7937 241.448L37.5876 241.447C39.9186 241.447 42.1541 242.316 43.8024 243.863C45.4508 245.41 46.3768 247.508 46.3769 249.696L46.377 249.999Z" fill="#2F2E41"/>
<path d="M32.5003 236.047C32.4161 236.047 32.3317 236.044 32.2469 236.036L24.2928 235.325C23.6476 235.267 23.0472 234.99 22.6045 234.546C22.1618 234.102 21.9073 233.521 21.8889 232.913C21.4299 216.746 20.2737 135.15 42.6452 116.451C43.0329 116.131 43.5138 115.927 44.026 115.866C48.0782 115.344 61.7494 114.066 67.536 119.529C67.9032 119.873 68.1575 120.308 68.2688 120.784L93.601 230.715C93.6789 231.053 93.681 231.403 93.607 231.742C93.5331 232.081 93.3848 232.401 93.1716 232.684C92.9583 232.966 92.6848 233.204 92.3684 233.381C92.052 233.559 91.6997 233.673 91.3339 233.716L81.6213 234.855C81.2705 234.897 80.9145 234.872 80.574 234.783C80.2335 234.693 79.9155 234.541 79.6387 234.335C79.3618 234.128 79.1317 233.872 78.9619 233.581C78.792 233.29 78.6858 232.97 78.6495 232.64C77.683 223.804 71.8761 178.918 52.4156 163.008C52.1522 162.79 51.8349 162.639 51.4928 162.566C51.1507 162.494 50.7947 162.504 50.4576 162.594C50.1274 162.68 49.826 162.844 49.5818 163.07C49.3375 163.295 49.1585 163.575 49.0617 163.884C45.4592 174.948 33.8089 212.658 35.1478 233.405C35.1702 233.744 35.1183 234.084 34.9953 234.404C34.8724 234.723 34.681 235.016 34.4329 235.263C34.1849 235.511 33.8855 235.708 33.5531 235.843C33.2207 235.978 32.8624 236.048 32.5003 236.047Z" fill="#B8CCFF"/>
<path d="M47.8089 71.4714C55.8173 71.4714 62.3093 65.3781 62.3093 57.8616C62.3093 50.3451 55.8173 44.2518 47.8089 44.2518C39.8006 44.2518 33.3086 50.3451 33.3086 57.8616C33.3086 65.3781 39.8006 71.4714 47.8089 71.4714Z" fill="#FFB8B8"/>
<path d="M33.5708 83.493C33.5708 83.493 47.036 68.557 58.053 80.6207C65.1416 88.3828 68.8907 98.3475 68.5673 108.566L68.1519 121.695L42.7516 117.961L33.5708 83.493Z" fill="#CAA686" fill-opacity="0.95"/>
<path d="M68.9562 112.435C68.8506 112.435 68.7448 112.432 68.6388 112.428C67.5537 112.386 66.4912 112.123 65.5247 111.658C64.5583 111.193 63.7109 110.536 63.0412 109.734L46.5604 90.0113C45.8589 89.1719 45.4384 88.156 45.3521 87.0923C45.2657 86.0285 45.5174 84.9646 46.0752 84.0351C46.633 83.1056 47.472 82.3522 48.486 81.8702C49.5001 81.3882 50.6436 81.1992 51.7721 81.3272L54.0924 81.5905C55.5741 81.8345 56.9222 82.5473 57.9124 83.6102L70.9132 99.1684L89.857 81.666C89.8604 81.6059 89.8647 81.5458 89.8725 81.4852C90.0309 80.2535 90.5726 79.0928 91.43 78.1485C92.2874 77.2042 93.4225 76.5182 94.6931 76.1761C95.9638 75.8341 97.3137 75.8513 98.574 76.2255C99.8343 76.5998 100.949 77.3145 101.779 78.2803C102.609 79.2461 103.117 80.42 103.239 81.6554C103.362 82.8907 103.094 84.1326 102.469 85.2257C101.843 86.3188 100.888 87.2145 99.7235 87.8009C98.5586 88.3873 97.2353 88.6384 95.9192 88.5227L74.4573 110.184C73.7547 110.894 72.9035 111.461 71.9569 111.848C71.0103 112.235 69.9888 112.435 68.9562 112.435Z" fill="#FFB8B8"/>
<path d="M50.1593 60.2161L56.3892 53.3275C57.9947 51.5522 59.674 49.6186 59.901 47.2998C60.15 44.7579 58.5027 42.2871 56.2507 40.856C53.9987 39.4249 51.2333 38.8864 48.5218 38.6888C43.4928 38.3223 38.201 39.1023 34.0668 41.8148C29.9327 44.5273 27.228 49.4243 28.236 54.0632C29.0297 57.7157 31.9544 61.2147 30.8176 64.7865C29.5738 68.6947 24.473 69.8938 20.3084 71.0592C13.3181 73.0154 6.64323 76.8665 2.97981 82.7869C-0.683617 88.7073 -0.667616 96.8708 4.21582 101.957C7.37798 105.25 12.1472 106.915 16.863 107.166C21.5788 107.416 26.2726 106.374 30.745 104.948C34.8639 103.635 38.9383 101.946 42.181 99.2244C45.4237 96.5029 47.7596 92.6085 47.6585 88.5268C47.5622 84.6369 45.3421 81.0935 44.4301 77.2979C43.7107 74.1196 43.8995 70.8193 44.9773 67.7315C46.0551 64.6437 47.9836 61.8783 50.5673 59.7157" fill="#2F2E41"/>
</svg>
