<svg width="57" height="61" viewBox="0 0 57 61" fill="none" xmlns="http://www.w3.org/2000/svg">
<path d="M34.623 23.4469V33.133C34.623 33.3832 34.4449 33.5738 34.2111 33.5738H32.7639C32.6191 33.5738 32.4967 33.4904 32.4299 33.3951L28.2773 27.4024V33.1449C28.2773 33.3951 28.0992 33.5858 27.8654 33.5858H26.4182C26.1844 33.5858 26.0063 33.3951 26.0063 33.1449V23.4588C26.0063 23.2086 26.1844 23.018 26.4182 23.018H27.8543C27.9768 23.018 28.1215 23.0895 28.1883 23.2086L32.3408 29.2014V23.4588C32.3408 23.2086 32.5189 23.018 32.7527 23.018H34.2C34.4338 23.0061 34.623 23.2086 34.623 23.435V23.4469ZM24.1916 23.0061H22.7443C22.5106 23.0061 22.3324 23.1967 22.3324 23.4469V33.133C22.3324 33.3832 22.5106 33.5738 22.7443 33.5738H24.1916C24.4254 33.5738 24.6035 33.3832 24.6035 33.133V23.4469C24.6035 23.2205 24.4254 23.0061 24.1916 23.0061ZM20.6959 31.1196H16.7326V23.4469C16.7326 23.1967 16.5545 23.0061 16.3207 23.0061H14.8734C14.6397 23.0061 14.4615 23.1967 14.4615 23.4469V33.133C14.4615 33.2522 14.4949 33.3475 14.5729 33.4309C14.6508 33.5024 14.7399 33.55 14.8512 33.55H20.6625C20.8963 33.55 21.0744 33.3594 21.0744 33.1092V31.5604C21.0744 31.334 20.8963 31.1196 20.6848 31.1196H20.6959ZM42.2601 23.0061H36.4377C36.2262 23.0061 36.0258 23.1967 36.0258 23.4469V33.133C36.0258 33.3594 36.2039 33.5738 36.4377 33.5738H42.249C42.4828 33.5738 42.6609 33.3832 42.6609 33.133V31.5723C42.6609 31.3221 42.4828 31.1315 42.249 31.1315H38.2969V29.5112H42.249C42.4828 29.5112 42.6609 29.3205 42.6609 29.0703V27.5096C42.6609 27.2594 42.4828 27.0688 42.249 27.0688H38.2969V25.4365H42.249C42.4828 25.4365 42.6609 25.2459 42.6609 24.9957V23.4469C42.6498 23.2205 42.4717 23.0061 42.249 23.0061H42.2601ZM57 11.1278V49.9676C56.9888 56.0676 52.3131 61.0119 46.6019 61H10.309C4.609 60.9881 -0.0111127 55.9723 2.00773e-05 49.8723V11.0324C0.0111529 4.93244 4.69806 -0.0118926 10.3981 2.14863e-05H46.691C52.391 0.0119355 57.0111 5.01584 57 11.1278ZM49.1625 27.8194C49.1625 17.883 39.8443 9.79338 28.4109 9.79338C16.9775 9.79338 7.65939 17.883 7.65939 27.8194C7.65939 36.7192 15.0404 44.1893 25.0154 45.607C27.4424 46.167 27.1641 47.1201 26.6186 50.6229C26.5295 51.1828 26.1955 52.8151 28.4109 51.8262C30.6264 50.8373 40.3564 44.2965 44.7205 38.9352C47.7264 35.3967 49.1625 31.8106 49.1625 27.8432V27.8194Z" fill="#00B900"/>
</svg>
