<svg width="21" height="20" viewBox="0 0 21 20" fill="none" xmlns="http://www.w3.org/2000/svg">
<g clip-path="url(#clip0_170_2427)">
<path d="M12.7676 7.68751V10.8633C12.7676 10.9453 12.7051 11.0078 12.6231 11.0078H12.1152C12.0645 11.0078 12.0215 10.9805 11.9981 10.9492L10.541 8.98438V10.8672C10.541 10.9492 10.4785 11.0117 10.3965 11.0117H9.88868C9.80665 11.0117 9.74415 10.9492 9.74415 10.8672V7.69141C9.74415 7.60938 9.80665 7.54688 9.88868 7.54688H10.3926C10.4356 7.54688 10.4863 7.57032 10.5098 7.60938L11.9668 9.57423V7.69141C11.9668 7.60938 12.0293 7.54688 12.1113 7.54688H12.6191C12.7012 7.54298 12.7676 7.60938 12.7676 7.6836V7.68751ZM9.10743 7.54298H8.59962C8.51759 7.54298 8.45509 7.60548 8.45509 7.68751V10.8633C8.45509 10.9453 8.51759 11.0078 8.59962 11.0078H9.10743C9.18946 11.0078 9.25196 10.9453 9.25196 10.8633V7.68751C9.25196 7.61329 9.18946 7.54298 9.10743 7.54298ZM7.88087 10.2031H6.49024V7.68751C6.49024 7.60548 6.42774 7.54298 6.34571 7.54298H5.8379C5.75587 7.54298 5.69337 7.60548 5.69337 7.68751V10.8633C5.69337 10.9024 5.70509 10.9336 5.73243 10.9609C5.75977 10.9844 5.79102 11 5.83008 11H7.86915C7.95118 11 8.01368 10.9375 8.01368 10.8555V10.3477C8.01368 10.2734 7.95118 10.2031 7.87696 10.2031H7.88087ZM15.4473 7.54298H13.4043C13.3301 7.54298 13.2598 7.60548 13.2598 7.68751V10.8633C13.2598 10.9375 13.3223 11.0078 13.4043 11.0078H15.4434C15.5254 11.0078 15.5879 10.9453 15.5879 10.8633V10.3516C15.5879 10.2695 15.5254 10.207 15.4434 10.207H14.0566V9.67579H15.4434C15.5254 9.67579 15.5879 9.61329 15.5879 9.53126V9.01954C15.5879 8.93751 15.5254 8.87501 15.4434 8.87501H14.0566V8.33985H15.4434C15.5254 8.33985 15.5879 8.27735 15.5879 8.19532V7.68751C15.584 7.61329 15.5215 7.54298 15.4434 7.54298H15.4473ZM20.6191 3.64844V16.3828C20.6152 18.3828 18.9746 20.0039 16.9707 20H4.23634C2.23634 19.9961 0.615241 18.3516 0.619148 16.3516V3.61719C0.623054 1.61719 2.26759 -0.00389921 4.26759 7.04468e-06H17.002C19.002 0.00391329 20.6231 1.64454 20.6191 3.64844ZM17.8691 9.1211C17.8691 5.86329 14.5996 3.21094 10.5879 3.21094C6.57618 3.21094 3.30665 5.86329 3.30665 9.1211C3.30665 12.0391 5.89649 14.4883 9.39649 14.9531C10.2481 15.1367 10.1504 15.4492 9.95899 16.5977C9.92774 16.7813 9.81055 17.3164 10.5879 16.9922C11.3652 16.668 14.7793 14.5234 16.3106 12.7656C17.3652 11.6055 17.8691 10.4297 17.8691 9.12891V9.1211Z" fill="#333333" fill-opacity="0.8"/>
</g>
<defs>
<clipPath id="clip0_170_2427">
<rect width="20" height="20" fill="white" transform="translate(0.619141)"/>
</clipPath>
</defs>
</svg>
