<svg width="208" height="81" viewBox="0 0 208 81" fill="none" xmlns="http://www.w3.org/2000/svg">
<path d="M0.144531 29.4872V22.9062L20.4065 13.353L22.8625 13.8838L26.5465 28.2135L6.69385 36.4928L0.144531 29.4872Z" fill="#C17B3A" fill-opacity="0.95"/>
<path d="M51.7205 13.353L49.2645 13.8838L45.5805 28.2135L65.6378 36.4928L72.0848 29.4872V22.9062L51.7205 13.353Z" fill="#C17B3A" fill-opacity="0.95"/>
<path d="M69.3218 41.0571L62.9771 39.0403L40.0545 49.2303L44.8641 50.7164H55.5068L69.3218 44.8783V41.0571Z" fill="#C17B3A" fill-opacity="0.95"/>
<path d="M59.03 71.5849L62.1596 50.7164L56.2196 53.2998H42.6152L36.1642 50.7164L28.9468 53.2998H15.5978L9.46624 50.7164L12.9153 71.5849L36.1642 80.1975L59.03 71.5849Z" fill="#C17B3A" fill-opacity="0.95"/>
<path d="M31.2462 49.2303L8.95527 39.0403L2.56819 41.0571L2.18497 44.8783L16.6836 50.7164L28.9468 50.2523L31.2462 49.2303Z" fill="#C17B3A" fill-opacity="0.95"/>
<path d="M28.9468 0.19751H22.4081L30.8881 32.9486C35.9882 37.8394 37.3434 34.0715 37.3835 31.5762L28.9468 0.19751Z" fill="#C17B3A" fill-opacity="0.95"/>
<path d="M49.2645 0.19751H42.8564L37.3835 20.8463C38.6826 21.6448 40.0899 30.1621 40.6312 34.321L49.7126 1.88187C50.0712 0.883738 49.5632 0.343075 49.2645 0.19751Z" fill="#C17B3A" fill-opacity="0.95"/>
<path d="M90.0698 63.6624V35.6527H94.8889L105.509 53.7359V35.6527H110.477V63.6624H105.584L95.0372 44.9444V63.6624H90.0698Z" fill="#333333"/>
<path d="M132.033 49.696C132.033 48.4264 131.928 47.2336 131.718 46.1179C131.52 44.9893 131.193 43.9312 130.735 42.9437C130.291 41.9562 129.648 41.1739 128.808 40.5968C127.98 40.0068 127.004 39.7118 125.879 39.7118C124.965 39.7118 124.149 39.9106 123.433 40.3082C122.716 40.6929 122.129 41.2059 121.672 41.8472C121.215 42.4884 120.838 43.2515 120.541 44.1364C120.245 45.0213 120.035 45.9191 119.911 46.8297C119.787 47.7402 119.726 48.6957 119.726 49.696C119.726 50.6835 119.787 51.6326 119.911 52.5432C120.035 53.4409 120.245 54.3258 120.541 55.1979C120.838 56.07 121.215 56.8267 121.672 57.4679C122.129 58.1092 122.716 58.6286 123.433 59.0262C124.162 59.4109 124.977 59.6033 125.879 59.6033C126.794 59.6033 127.609 59.4109 128.326 59.0262C129.055 58.6286 129.642 58.1092 130.087 57.4679C130.544 56.8267 130.921 56.07 131.217 55.1979C131.514 54.3258 131.724 53.4409 131.848 52.5432C131.971 51.6326 132.033 50.6835 132.033 49.696ZM114.48 49.696C114.48 48.3238 114.604 46.9771 114.851 45.6562C115.11 44.3224 115.531 43.0142 116.111 41.7318C116.692 40.4364 117.409 39.3078 118.261 38.346C119.114 37.3713 120.195 36.589 121.505 35.999C122.815 35.3962 124.273 35.0949 125.879 35.0949C127.486 35.0949 128.944 35.3962 130.254 35.999C131.563 36.589 132.645 37.3713 133.497 38.346C134.35 39.3078 135.066 40.4364 135.647 41.7318C136.228 43.0142 136.642 44.3224 136.889 45.6562C137.136 46.9771 137.26 48.3238 137.26 49.696C137.26 51.0555 137.136 52.3957 136.889 53.7166C136.642 55.0248 136.228 56.3201 135.647 57.6026C135.066 58.8851 134.35 60.0137 133.497 60.9884C132.645 61.9502 131.563 62.7325 130.254 63.3353C128.944 63.9253 127.486 64.2202 125.879 64.2202C124.273 64.2202 122.815 63.9253 121.505 63.3353C120.195 62.7325 119.114 61.9502 118.261 60.9884C117.409 60.0137 116.692 58.8851 116.111 57.6026C115.531 56.3201 115.11 55.0184 114.851 53.6974C114.604 52.3764 114.48 51.0426 114.48 49.696Z" fill="#333333"/>
<path d="M158.167 49.696C158.167 48.4264 158.062 47.2336 157.852 46.1179C157.654 44.9893 157.327 43.9312 156.87 42.9437C156.425 41.9562 155.782 41.1739 154.942 40.5968C154.114 40.0068 153.138 39.7118 152.014 39.7118C151.099 39.7118 150.284 39.9106 149.567 40.3082C148.85 40.6929 148.263 41.2059 147.806 41.8472C147.349 42.4884 146.972 43.2515 146.675 44.1364C146.379 45.0213 146.169 45.9191 146.045 46.8297C145.922 47.7402 145.86 48.6957 145.86 49.696C145.86 50.6835 145.922 51.6326 146.045 52.5432C146.169 53.4409 146.379 54.3258 146.675 55.1979C146.972 56.07 147.349 56.8267 147.806 57.4679C148.263 58.1092 148.85 58.6286 149.567 59.0262C150.296 59.4109 151.111 59.6033 152.014 59.6033C152.928 59.6033 153.743 59.4109 154.46 59.0262C155.189 58.6286 155.776 58.1092 156.221 57.4679C156.678 56.8267 157.055 56.07 157.352 55.1979C157.648 54.3258 157.858 53.4409 157.982 52.5432C158.105 51.6326 158.167 50.6835 158.167 49.696ZM140.615 49.696C140.615 48.3238 140.738 46.9771 140.985 45.6562C141.245 44.3224 141.665 43.0142 142.246 41.7318C142.826 40.4364 143.543 39.3078 144.396 38.346C145.248 37.3713 146.329 36.589 147.639 35.999C148.949 35.3962 150.407 35.0949 152.014 35.0949C153.62 35.0949 155.078 35.3962 156.388 35.999C157.698 36.589 158.779 37.3713 159.631 38.346C160.484 39.3078 161.201 40.4364 161.781 41.7318C162.362 43.0142 162.776 44.3224 163.023 45.6562C163.27 46.9771 163.394 48.3238 163.394 49.696C163.394 51.0555 163.27 52.3957 163.023 53.7166C162.776 55.0248 162.362 56.3201 161.781 57.6026C161.201 58.8851 160.484 60.0137 159.631 60.9884C158.779 61.9502 157.698 62.7325 156.388 63.3353C155.078 63.9253 153.62 64.2202 152.014 64.2202C150.407 64.2202 148.949 63.9253 147.639 63.3353C146.329 62.7325 145.248 61.9502 144.396 60.9884C143.543 60.0137 142.826 58.8851 142.246 57.6026C141.665 56.3201 141.245 55.0184 140.985 53.6974C140.738 52.3764 140.615 51.0426 140.615 49.696Z" fill="#333333"/>
<path d="M167.027 63.6624V35.6527H171.846L182.466 53.7359V35.6527H187.434V63.6624H182.541L171.994 44.9444V63.6624H167.027Z" fill="#333333"/>
<path d="M195.941 61.1423C195.941 60.2702 196.238 59.5263 196.831 58.9107C197.424 58.2951 198.141 57.9873 198.981 57.9873C199.821 57.9873 200.538 58.2951 201.131 58.9107C201.724 59.5263 202.021 60.2702 202.021 61.1423C202.021 62.0144 201.724 62.7582 201.131 63.3738C200.538 63.9894 199.821 64.2972 198.981 64.2972C198.153 64.2972 197.436 63.9894 196.831 63.3738C196.238 62.7454 195.941 62.0015 195.941 61.1423ZM201.428 53.4666V55.9866H196.46V52.2354C196.46 51.6069 196.571 51.0234 196.794 50.4848C197.029 49.9461 197.325 49.478 197.684 49.0804C198.042 48.6829 198.437 48.3045 198.87 47.9454C199.302 47.5735 199.735 47.208 200.167 46.8489C200.612 46.477 201.014 46.0986 201.372 45.7139C201.73 45.3163 202.021 44.8546 202.243 44.3288C202.478 43.803 202.595 43.2323 202.595 42.6167C202.595 41.8985 202.404 41.3021 202.021 40.8276C201.638 40.3531 201.18 40.026 200.649 39.8465C200.13 39.6541 199.556 39.5579 198.925 39.5579C197.949 39.5579 197.14 39.8978 196.497 40.5775C195.867 41.2444 195.509 42.0844 195.422 43.0976L190.455 42.3089C190.69 40.1415 191.555 38.3588 193.05 36.9609C194.557 35.563 196.491 34.864 198.851 34.864C199.766 34.864 200.655 34.9666 201.52 35.1718C202.385 35.377 203.195 35.6912 203.948 36.1144C204.714 36.5377 205.382 37.0507 205.95 37.6534C206.531 38.2434 206.982 38.9616 207.303 39.808C207.637 40.6416 207.804 41.5522 207.804 42.5397C207.804 43.5016 207.686 44.3865 207.451 45.1945C207.217 46.0025 206.908 46.6758 206.525 47.2144C206.154 47.7531 205.74 48.2468 205.283 48.6957C204.838 49.1446 204.387 49.5485 203.93 49.9076C203.485 50.2667 203.071 50.6194 202.688 50.9657C202.317 51.312 202.015 51.6967 201.78 52.1199C201.545 52.5303 201.428 52.9792 201.428 53.4666Z" fill="#333333"/>
</svg>
