<svg width="356" height="77" viewBox="0 0 356 77" fill="none" xmlns="http://www.w3.org/2000/svg">
<path d="M74 28.1306V21.81L94.1977 12.6349L96.6459 13.1447L100.318 26.9073L80.5285 34.859L74 28.1306Z" fill="#C17B3A" fill-opacity="0.95"/>
<path d="M125.412 12.6349L122.964 13.1447L119.292 26.9073L139.285 34.859L145.712 28.1306V21.81L125.412 12.6349Z" fill="#C17B3A" fill-opacity="0.95"/>
<path d="M142.958 39.2427L136.633 37.3057L113.783 47.0925L118.578 48.5197H129.187L142.958 42.9127V39.2427Z" fill="#C17B3A" fill-opacity="0.95"/>
<path d="M132.699 68.5624L135.818 48.5197L129.897 51.0009H116.336L109.905 48.5197L102.711 51.0009H89.4043L83.2921 48.5197L86.7302 68.5624L109.905 76.8342L132.699 68.5624Z" fill="#C17B3A" fill-opacity="0.95"/>
<path d="M105.003 47.0925L82.7828 37.3057L76.416 39.2427L76.034 42.9127L90.4866 48.5197L102.711 48.074L105.003 47.0925Z" fill="#C17B3A" fill-opacity="0.95"/>
<path d="M102.711 0H96.1929L104.646 31.455C109.73 36.1523 111.081 32.5335 111.121 30.1369L102.711 0Z" fill="#C17B3A" fill-opacity="0.95"/>
<path d="M122.964 0H116.576L111.121 19.8316C112.416 20.5985 113.819 28.7788 114.358 32.7731L123.411 1.6177C123.768 0.659073 123.262 0.139805 122.964 0Z" fill="#C17B3A" fill-opacity="0.95"/>
<path d="M163.712 51.9416V25.0404H168.516L179.102 42.4079V25.0404H184.054V51.9416H179.176L168.664 33.9644V51.9416H163.712Z" fill="#333333"/>
<path d="M205.542 38.528C205.542 37.3085 205.437 36.163 205.228 35.0914C205.031 34.0075 204.704 32.9913 204.248 32.0428C203.805 31.0944 203.165 30.343 202.327 29.7888C201.502 29.2222 200.529 28.9389 199.408 28.9389C198.496 28.9389 197.683 29.1298 196.969 29.5116C196.254 29.8811 195.669 30.3738 195.214 30.9897C194.758 31.6056 194.382 32.3385 194.087 33.1884C193.791 34.0383 193.582 34.9005 193.458 35.775C193.335 36.6495 193.274 37.5672 193.274 38.528C193.274 39.4764 193.335 40.3879 193.458 41.2624C193.582 42.1246 193.791 42.9745 194.087 43.8121C194.382 44.6497 194.758 45.3764 195.214 45.9923C195.669 46.6082 196.254 47.107 196.969 47.4889C197.696 47.8584 198.509 48.0431 199.408 48.0431C200.319 48.0431 201.132 47.8584 201.847 47.4889C202.573 47.107 203.158 46.6082 203.602 45.9923C204.058 45.3764 204.433 44.6497 204.729 43.8121C205.024 42.9745 205.234 42.1246 205.357 41.2624C205.48 40.3879 205.542 39.4764 205.542 38.528ZM188.045 38.528C188.045 37.21 188.168 35.9167 188.414 34.648C188.673 33.367 189.092 32.1106 189.671 30.8788C190.25 29.6348 190.964 28.5509 191.814 27.6271C192.664 26.6909 193.742 25.9396 195.047 25.373C196.353 24.7941 197.806 24.5046 199.408 24.5046C201.009 24.5046 202.462 24.7941 203.768 25.373C205.074 25.9396 206.151 26.6909 207.001 27.6271C207.851 28.5509 208.566 29.6348 209.145 30.8788C209.724 32.1106 210.136 33.367 210.383 34.648C210.629 35.9167 210.752 37.21 210.752 38.528C210.752 39.8336 210.629 41.1208 210.383 42.3895C210.136 43.6458 209.724 44.8899 209.145 46.1216C208.566 47.3534 207.851 48.4373 207.001 49.3734C206.151 50.2972 205.074 51.0486 203.768 51.6275C202.462 52.1941 201.009 52.4774 199.408 52.4774C197.806 52.4774 196.353 52.1941 195.047 51.6275C193.742 51.0486 192.664 50.2972 191.814 49.3734C190.964 48.4373 190.25 47.3534 189.671 46.1216C189.092 44.8899 188.673 43.6397 188.414 42.371C188.168 41.1023 188.045 39.8213 188.045 38.528Z" fill="#333333"/>
<path d="M231.593 38.528C231.593 37.3085 231.488 36.163 231.279 35.0914C231.082 34.0075 230.755 32.9913 230.3 32.0428C229.856 31.0944 229.216 30.343 228.378 29.7888C227.553 29.2222 226.58 28.9389 225.459 28.9389C224.548 28.9389 223.735 29.1298 223.02 29.5116C222.306 29.8811 221.721 30.3738 221.265 30.9897C220.809 31.6056 220.434 32.3385 220.138 33.1884C219.842 34.0383 219.633 34.9005 219.51 35.775C219.387 36.6495 219.325 37.5672 219.325 38.528C219.325 39.4764 219.387 40.3879 219.51 41.2624C219.633 42.1246 219.842 42.9745 220.138 43.8121C220.434 44.6497 220.809 45.3764 221.265 45.9923C221.721 46.6082 222.306 47.107 223.02 47.4889C223.747 47.8584 224.56 48.0431 225.459 48.0431C226.37 48.0431 227.183 47.8584 227.898 47.4889C228.625 47.107 229.21 46.6082 229.653 45.9923C230.109 45.3764 230.485 44.6497 230.78 43.8121C231.076 42.9745 231.285 42.1246 231.408 41.2624C231.531 40.3879 231.593 39.4764 231.593 38.528ZM214.096 38.528C214.096 37.21 214.219 35.9167 214.466 34.648C214.724 33.367 215.143 32.1106 215.722 30.8788C216.301 29.6348 217.015 28.5509 217.865 27.6271C218.715 26.6909 219.793 25.9396 221.099 25.373C222.404 24.7941 223.858 24.5046 225.459 24.5046C227.06 24.5046 228.514 24.7941 229.819 25.373C231.125 25.9396 232.203 26.6909 233.053 27.6271C233.903 28.5509 234.617 29.6348 235.196 30.8788C235.775 32.1106 236.187 33.367 236.434 34.648C236.68 35.9167 236.803 37.21 236.803 38.528C236.803 39.8336 236.68 41.1208 236.434 42.3895C236.187 43.6458 235.775 44.8899 235.196 46.1216C234.617 47.3534 233.903 48.4373 233.053 49.3734C232.203 50.2972 231.125 51.0486 229.819 51.6275C228.514 52.1941 227.06 52.4774 225.459 52.4774C223.858 52.4774 222.404 52.1941 221.099 51.6275C219.793 51.0486 218.715 50.2972 217.865 49.3734C217.015 48.4373 216.301 47.3534 215.722 46.1216C215.143 44.8899 214.724 43.6397 214.466 42.371C214.219 41.1023 214.096 39.8213 214.096 38.528Z" fill="#333333"/>
<path d="M240.425 51.9416V25.0404H245.228L255.815 42.4079V25.0404H260.767V51.9416H255.889L245.376 33.9644V51.9416H240.425Z" fill="#333333"/>
<path d="M269.247 49.5212C269.247 48.6836 269.543 47.9692 270.134 47.378C270.725 46.7868 271.44 46.4911 272.277 46.4911C273.115 46.4911 273.829 46.7868 274.421 47.378C275.012 47.9692 275.308 48.6836 275.308 49.5212C275.308 50.3588 275.012 51.0732 274.421 51.6645C273.829 52.2557 273.115 52.5513 272.277 52.5513C271.452 52.5513 270.738 52.2557 270.134 51.6645C269.543 51.0609 269.247 50.3465 269.247 49.5212ZM274.716 42.1493V44.5696H269.765V40.9668C269.765 40.3632 269.876 39.8028 270.097 39.2855C270.331 38.7681 270.627 38.3186 270.984 37.9367C271.341 37.5549 271.735 37.1915 272.167 36.8466C272.598 36.4894 273.029 36.1384 273.46 35.7935C273.903 35.4363 274.304 35.0729 274.661 34.7034C275.018 34.3216 275.308 33.8781 275.529 33.3731C275.763 32.8681 275.88 32.32 275.88 31.7287C275.88 31.039 275.689 30.4662 275.308 30.0105C274.926 29.5547 274.47 29.2406 273.94 29.0682C273.423 28.8834 272.85 28.791 272.222 28.791C271.249 28.791 270.442 29.1175 269.802 29.7703C269.173 30.4108 268.816 31.2176 268.73 32.1907L263.778 31.4331C264.012 29.3515 264.875 27.6394 266.365 26.2968C267.868 24.9542 269.795 24.2829 272.148 24.2829C273.06 24.2829 273.946 24.3814 274.809 24.5785C275.671 24.7756 276.478 25.0774 277.229 25.4838C277.993 25.8903 278.658 26.383 279.224 26.9619C279.803 27.5285 280.253 28.2183 280.573 29.0312C280.906 29.8319 281.072 30.7064 281.072 31.6548C281.072 32.5786 280.955 33.4285 280.721 34.2045C280.487 34.9805 280.179 35.6272 279.797 36.1445C279.428 36.6619 279.015 37.1361 278.559 37.5672C278.116 37.9983 277.666 38.3863 277.211 38.7312C276.767 39.0761 276.354 39.4148 275.973 39.7474C275.603 40.0799 275.301 40.4495 275.067 40.8559C274.833 41.2501 274.716 41.6812 274.716 42.1493Z" fill="#333333"/>
</svg>
