<svg width="281" height="145" viewBox="0 0 281 145" fill="none" xmlns="http://www.w3.org/2000/svg">
<path d="M177.598 80.8809H83.6426V145H177.598V80.8809Z" fill="#545454"/>
<path d="M182.838 73.3811H90.3803C90.0825 73.3816 89.797 73.5003 89.5864 73.7112C89.3758 73.9222 89.2573 74.2082 89.2568 74.5065V137.125C89.2568 137.273 89.2859 137.419 89.3423 137.556C89.3988 137.692 89.4816 137.816 89.5859 137.921C89.6902 138.025 89.8141 138.108 89.9504 138.165C90.0867 138.221 90.2328 138.251 90.3803 138.251H182.838C182.985 138.251 183.131 138.221 183.268 138.165C183.404 138.108 183.528 138.025 183.632 137.921C183.736 137.816 183.819 137.692 183.876 137.556C183.932 137.419 183.961 137.273 183.961 137.125V74.5065C183.961 74.2082 183.842 73.9222 183.632 73.7112C183.421 73.5003 183.135 73.3816 182.838 73.3811ZM183.212 137.125C183.212 137.174 183.203 137.223 183.184 137.269C183.165 137.314 183.138 137.356 183.103 137.391C183.068 137.426 183.027 137.453 182.981 137.472C182.936 137.491 182.887 137.5 182.838 137.5H90.3803C90.3311 137.5 90.2823 137.491 90.2368 137.472C90.1913 137.453 90.15 137.426 90.1152 137.391C90.0804 137.356 90.0528 137.314 90.034 137.269C90.0152 137.223 90.0057 137.174 90.0058 137.125V74.5065C90.006 74.407 90.0455 74.3117 90.1157 74.2414C90.1859 74.1711 90.281 74.1315 90.3803 74.1314H182.838C182.937 74.1315 183.032 74.1711 183.102 74.2414C183.173 74.3117 183.212 74.407 183.212 74.5065V137.125Z" fill="#3F3D56"/>
<path d="M135.875 117.627H94.6697C94.3678 117.627 94.123 117.872 94.123 118.175V121.954C94.123 122.257 94.3678 122.502 94.6697 122.502H135.875C136.177 122.502 136.422 122.257 136.422 121.954V118.175C136.422 117.872 136.177 117.627 135.875 117.627Z" fill="#3F3D56"/>
<path d="M174.977 113.503H161.503C161.356 113.503 161.21 113.532 161.073 113.589C160.937 113.645 160.813 113.728 160.709 113.833C160.605 113.937 160.522 114.061 160.465 114.198C160.409 114.334 160.38 114.481 160.38 114.628V125.126C160.38 125.274 160.409 125.421 160.465 125.557C160.522 125.694 160.605 125.818 160.709 125.922C160.813 126.027 160.937 126.11 161.073 126.166C161.21 126.223 161.356 126.252 161.503 126.252H174.977C175.124 126.252 175.27 126.223 175.407 126.166C175.543 126.11 175.667 126.027 175.771 125.922C175.875 125.818 175.958 125.694 176.015 125.557C176.071 125.421 176.1 125.274 176.1 125.126V114.628C176.1 114.481 176.071 114.334 176.015 114.198C175.958 114.061 175.875 113.937 175.771 113.833C175.667 113.728 175.543 113.645 175.407 113.589C175.27 113.532 175.124 113.503 174.977 113.503ZM175.351 125.126C175.351 125.226 175.312 125.321 175.241 125.392C175.171 125.462 175.076 125.501 174.977 125.502H161.503C161.404 125.501 161.309 125.462 161.239 125.392C161.169 125.321 161.129 125.226 161.129 125.126V114.628C161.129 114.579 161.138 114.53 161.157 114.485C161.176 114.439 161.203 114.398 161.238 114.363C161.273 114.328 161.314 114.3 161.36 114.282C161.405 114.263 161.454 114.253 161.503 114.253H174.977C175.026 114.253 175.075 114.263 175.12 114.282C175.166 114.3 175.207 114.328 175.242 114.363C175.277 114.398 175.304 114.439 175.323 114.485C175.342 114.53 175.351 114.579 175.351 114.628V125.126Z" fill="#3F3D56"/>
<path d="M172.286 115.926H164.194C163.892 115.926 163.647 116.171 163.647 116.473V117.282C163.647 117.584 163.892 117.829 164.194 117.829H172.286C172.588 117.829 172.833 117.584 172.833 117.282V116.473C172.833 116.171 172.588 115.926 172.286 115.926Z" fill="#3F3D56"/>
<path d="M172.286 118.925H164.194C163.892 118.925 163.647 119.17 163.647 119.473V120.281C163.647 120.584 163.892 120.829 164.194 120.829H172.286C172.588 120.829 172.833 120.584 172.833 120.281V119.473C172.833 119.17 172.588 118.925 172.286 118.925Z" fill="#3F3D56"/>
<path d="M172.286 121.925H164.194C163.892 121.925 163.647 122.17 163.647 122.473V123.281C163.647 123.583 163.892 123.829 164.194 123.829H172.286C172.588 123.829 172.833 123.583 172.833 123.281V122.473C172.833 122.17 172.588 121.925 172.286 121.925Z" fill="#3F3D56"/>
<path d="M114.164 77.8812H95.7928C95.4909 77.8812 95.2461 78.1264 95.2461 78.4289V85.5828C95.2461 85.8852 95.4909 86.1304 95.7928 86.1304H114.164C114.466 86.1304 114.711 85.8852 114.711 85.5828V78.4289C114.711 78.1264 114.466 77.8812 114.164 77.8812Z" fill="#3F3D56"/>
<path d="M106.476 82.0058C106.476 83.4554 105.806 84.6306 104.979 84.6306C104.152 84.6306 103.481 83.4554 103.481 82.0058C103.481 80.5562 104.979 79.3811 104.979 79.3811C104.979 79.3811 106.476 80.5562 106.476 82.0058Z" fill="#545454"/>
<path d="M246.558 44.3134H246.011V105.542H183.961V106.09H246.558V44.3134Z" fill="#3F3D56"/>
<path d="M83.6427 106.09H21.0459V44.3134H21.5926V105.542H83.6427V106.09Z" fill="#3F3D56"/>
<path d="M280.825 10.3528H280.475V9.73867H280.738C280.784 9.73867 280.829 9.72018 280.862 9.68727C280.894 9.65437 280.913 9.60974 280.913 9.5632V6.40471C280.913 6.35818 280.894 6.31354 280.862 6.28064C280.829 6.24773 280.784 6.22924 280.738 6.22924H280.475V4.43548C280.475 3.93366 280.376 3.43674 280.185 2.97312C279.993 2.50949 279.712 2.08822 279.358 1.73338C279.003 1.37854 278.583 1.09706 278.12 0.905022C277.657 0.712984 277.161 0.614147 276.66 0.614152H276.271V0.175471C276.271 0.128933 276.252 0.0843016 276.22 0.0513945C276.187 0.0184874 276.142 7.26181e-07 276.096 0H272.943C272.896 7.26181e-07 272.852 0.0184874 272.819 0.0513945C272.786 0.0843016 272.767 0.128933 272.767 0.175471V0.614152H215.797C215.296 0.614147 214.8 0.712984 214.337 0.905022C213.875 1.09706 213.454 1.37854 213.1 1.73338C212.746 2.08822 212.465 2.50949 212.273 2.97312C212.081 3.43674 211.982 3.93366 211.982 4.43548V85.7568C211.982 86.2586 212.081 86.7555 212.273 87.2192C212.465 87.6828 212.746 88.1041 213.1 88.4589C213.454 88.8138 213.875 89.0952 214.337 89.2873C214.8 89.4793 215.296 89.5782 215.797 89.5782H276.66C277.161 89.5782 277.657 89.4793 278.12 89.2873C278.583 89.0952 279.003 88.8138 279.358 88.4589C279.712 88.1041 279.993 87.6828 280.185 87.2192C280.376 86.7555 280.475 86.2586 280.475 85.7568V13.8622H280.825C280.872 13.8622 280.916 13.8438 280.949 13.8108C280.982 13.7779 281 13.7333 281 13.6868V10.5283C281 10.5052 280.996 10.4824 280.987 10.4611C280.978 10.4398 280.965 10.4205 280.949 10.4042C280.933 10.3879 280.914 10.375 280.892 10.3662C280.871 10.3574 280.848 10.3528 280.825 10.3528Z" fill="#3F3D56"/>
<path d="M277.327 3.11377H215.655C215.368 3.11377 215.135 3.34728 215.135 3.63533V85.9429C215.135 86.231 215.368 86.4645 215.655 86.4645H277.327C277.614 86.4645 277.847 86.231 277.847 85.9429V3.63533C277.847 3.34728 277.614 3.11377 277.327 3.11377Z" fill="#D0CDE1"/>
<path d="M249.5 43.9631H239.836C239.534 43.9631 239.289 44.2083 239.289 44.5108V46.609C239.289 46.9114 239.534 47.1566 239.836 47.1566H249.5C249.802 47.1566 250.047 46.9114 250.047 46.609V44.5108C250.047 44.2083 249.802 43.9631 249.5 43.9631Z" fill="#3F3D56"/>
<path d="M262.507 19.0996H226.83C226.528 19.0996 226.283 19.3448 226.283 19.6472V19.9206C226.283 20.2231 226.528 20.4682 226.83 20.4682H262.507C262.808 20.4682 263.053 20.2231 263.053 19.9206V19.6472C263.053 19.3448 262.808 19.0996 262.507 19.0996Z" fill="#3F3D56"/>
<path d="M262.507 23.4336H226.83C226.528 23.4336 226.283 23.6788 226.283 23.9812V24.2546C226.283 24.557 226.528 24.8022 226.83 24.8022H262.507C262.808 24.8022 263.053 24.557 263.053 24.2546V23.9812C263.053 23.6788 262.808 23.4336 262.507 23.4336Z" fill="#3F3D56"/>
<path d="M262.507 27.7676H226.83C226.528 27.7676 226.283 28.0128 226.283 28.3152V28.5886C226.283 28.891 226.528 29.1362 226.83 29.1362H262.507C262.808 29.1362 263.053 28.891 263.053 28.5886V28.3152C263.053 28.0128 262.808 27.7676 262.507 27.7676Z" fill="#3F3D56"/>
<path d="M262.507 32.1017H226.83C226.528 32.1017 226.283 32.3469 226.283 32.6493V32.9227C226.283 33.2251 226.528 33.4703 226.83 33.4703H262.507C262.808 33.4703 263.053 33.2251 263.053 32.9227V32.6493C263.053 32.3469 262.808 32.1017 262.507 32.1017Z" fill="#3F3D56"/>
<path d="M262.507 36.4357H226.83C226.528 36.4357 226.283 36.6809 226.283 36.9833V37.2567C226.283 37.5591 226.528 37.8043 226.83 37.8043H262.507C262.808 37.8043 263.053 37.5591 263.053 37.2567V36.9833C263.053 36.6809 262.808 36.4357 262.507 36.4357Z" fill="#3F3D56"/>
<path d="M243.367 83.1733C249.674 83.1733 254.787 78.0515 254.787 71.7335C254.787 65.4154 249.674 60.2936 243.367 60.2936C237.059 60.2936 231.946 65.4154 231.946 71.7335C231.946 78.0515 237.059 83.1733 243.367 83.1733Z" fill="#545454"/>
<path d="M246.733 80.5573C243.901 80.5573 241.132 79.7161 238.778 78.1401C236.423 76.5641 234.588 74.324 233.504 71.7032C232.42 69.0824 232.137 66.1985 232.689 63.4162C233.242 60.634 234.605 58.0783 236.608 56.0724C238.61 54.0665 241.162 52.7005 243.939 52.1471C246.717 51.5936 249.596 51.8777 252.212 52.9633C254.828 54.0488 257.065 55.8872 258.638 58.2459C260.211 60.6046 261.051 63.3776 261.051 66.2144C261.047 70.0171 259.537 73.6628 256.853 76.3516C254.168 79.0405 250.529 80.553 246.733 80.5573ZM246.733 52.393C244.004 52.393 241.336 53.2036 239.067 54.7224C236.798 56.2411 235.029 58.3997 233.985 60.9252C232.941 63.4507 232.667 66.2297 233.2 68.9108C233.732 71.5919 235.046 74.0546 236.976 75.9876C238.906 77.9205 241.364 79.2369 244.041 79.7702C246.717 80.3035 249.492 80.0298 252.013 78.9837C254.534 77.9376 256.689 76.1661 258.205 73.8931C259.721 71.6202 260.53 68.948 260.53 66.2144C260.526 62.55 259.071 59.0369 256.485 56.4458C253.898 53.8546 250.391 52.3971 246.733 52.393Z" fill="#3F3D56"/>
<path d="M42.5035 24.0714H42.0351V11.219C42.0351 10.2422 41.8431 9.27488 41.4699 8.37238C41.0967 7.46988 40.5497 6.64985 39.8601 5.95911C39.1706 5.26837 38.3519 4.72045 37.451 4.34662C36.55 3.9728 35.5843 3.78039 34.6092 3.7804H7.42598C6.45078 3.78039 5.48514 3.9728 4.58418 4.34662C3.68322 4.72045 2.86458 5.26837 2.17502 5.95911C1.48545 6.64985 0.938458 7.46989 0.565268 8.37238C0.192078 9.27488 -1.0769e-06 10.2422 0 11.219V81.7283C-1.0769e-06 82.7052 0.192078 83.6725 0.565268 84.575C0.938459 85.4775 1.48545 86.2975 2.17502 86.9882C2.86459 87.679 3.68322 88.2269 4.58418 88.6007C5.48515 88.9745 6.45079 89.1669 7.42598 89.1669H34.6092C35.5844 89.1669 36.55 88.9745 37.451 88.6007C38.3519 88.2269 39.1706 87.679 39.8601 86.9882C40.5497 86.2975 41.0967 85.4775 41.4699 84.575C41.8431 83.6725 42.0351 82.7052 42.0351 81.7283V33.22H42.5035V24.0714Z" fill="#3F3D56"/>
<path d="M40.4538 11.6563V82.0628C40.4541 83.5361 39.8701 84.9492 38.8302 85.9912C37.7903 87.0332 36.3799 87.6187 34.909 87.619H7.59461C6.12378 87.6187 4.71329 87.0332 3.67344 85.9912C2.63359 84.9492 2.04955 83.5361 2.0498 82.0628V11.6563C2.04996 10.1833 2.6342 8.77061 3.67401 7.72902C4.71383 6.68743 6.12408 6.10221 7.59461 6.10205H10.9085C10.7454 6.50277 10.6832 6.9375 10.7273 7.36797C10.7715 7.79844 10.9207 8.21143 11.1617 8.57055C11.4027 8.92968 11.7282 9.22392 12.1095 9.42736C12.4907 9.6308 12.9161 9.73719 13.3481 9.73716H28.9212C29.3532 9.73719 29.7786 9.63081 30.1599 9.42737C30.5412 9.22393 30.8666 8.92969 31.1077 8.57056C31.3487 8.21144 31.4978 7.79845 31.542 7.36798C31.5861 6.9375 31.5239 6.50277 31.3608 6.10205H34.909C36.3796 6.10221 37.7898 6.68744 38.8296 7.72903C39.8694 8.77062 40.4537 10.1833 40.4538 11.6563Z" fill="#D0CDE1"/>
<path d="M24.3632 47.5815H18.1395C17.8375 47.5815 17.5928 47.8267 17.5928 48.1292V49.206C17.5928 49.5084 17.8375 49.7536 18.1395 49.7536H24.3632C24.6651 49.7536 24.9099 49.5084 24.9099 49.206V48.1292C24.9099 47.8267 24.6651 47.5815 24.3632 47.5815Z" fill="#3F3D56"/>
<path d="M33.2916 30.6705H9.21172C8.9551 30.6705 8.74707 30.8789 8.74707 31.136C8.74707 31.393 8.9551 31.6014 9.21172 31.6014H33.2916C33.5482 31.6014 33.7563 31.393 33.7563 31.136C33.7563 30.8789 33.5482 30.6705 33.2916 30.6705Z" fill="#3F3D56"/>
<path d="M33.2916 33.6184H9.21172C8.9551 33.6184 8.74707 33.8268 8.74707 34.0838C8.74707 34.3409 8.9551 34.5493 9.21172 34.5493H33.2916C33.5482 34.5493 33.7563 34.3409 33.7563 34.0838C33.7563 33.8268 33.5482 33.6184 33.2916 33.6184Z" fill="#3F3D56"/>
<path d="M33.2916 36.5662H9.21172C8.9551 36.5662 8.74707 36.7745 8.74707 37.0316C8.74707 37.2887 8.9551 37.497 9.21172 37.497H33.2916C33.5482 37.497 33.7563 37.2887 33.7563 37.0316C33.7563 36.7745 33.5482 36.5662 33.2916 36.5662Z" fill="#3F3D56"/>
<path d="M33.2916 39.5139H9.21172C8.9551 39.5139 8.74707 39.7223 8.74707 39.9794C8.74707 40.2364 8.9551 40.4448 9.21172 40.4448H33.2916C33.5482 40.4448 33.7563 40.2364 33.7563 39.9794C33.7563 39.7223 33.5482 39.5139 33.2916 39.5139Z" fill="#3F3D56"/>
<path d="M33.2916 42.4617H9.21172C8.9551 42.4617 8.74707 42.6701 8.74707 42.9271C8.74707 43.1842 8.9551 43.3926 9.21172 43.3926H33.2916C33.5482 43.3926 33.7563 43.1842 33.7563 42.9271C33.7563 42.6701 33.5482 42.4617 33.2916 42.4617Z" fill="#3F3D56"/>
<path d="M19.1006 78.0831C23.4503 78.0831 26.9765 74.5509 26.9765 70.1937C26.9765 65.8365 23.4503 62.3043 19.1006 62.3043C14.7508 62.3043 11.2246 65.8365 11.2246 70.1937C11.2246 74.5509 14.7508 78.0831 19.1006 78.0831Z" fill="#545454"/>
<path d="M21.4215 76.279C19.4685 76.279 17.5593 75.6989 15.9355 74.612C14.3116 73.5251 13.0459 71.9803 12.2985 70.1728C11.5512 68.3654 11.3556 66.3766 11.7366 64.4578C12.1176 62.5391 13.0581 60.7766 14.4391 59.3932C15.8201 58.0099 17.5796 57.0678 19.495 56.6862C21.4105 56.3045 23.396 56.5004 25.2003 57.249C27.0047 57.9977 28.5469 59.2655 29.6319 60.8922C30.717 62.5188 31.2961 64.4312 31.2961 66.3875C31.2931 69.01 30.2518 71.5242 28.4006 73.3786C26.5494 75.2329 24.0395 76.276 21.4215 76.279ZM21.4215 56.8558C19.5395 56.8558 17.6998 57.4148 16.1349 58.4622C14.5701 59.5095 13.3505 60.9982 12.6303 62.7399C11.9101 64.4816 11.7216 66.3981 12.0888 68.2471C12.456 70.0961 13.3622 71.7945 14.693 73.1275C16.0238 74.4606 17.7193 75.3684 19.5651 75.7362C21.4109 76.1039 23.3242 75.9152 25.0629 75.1937C26.8017 74.4723 28.2878 73.2506 29.3334 71.6831C30.3789 70.1156 30.937 68.2728 30.937 66.3875C30.9342 63.8604 29.9308 61.4377 28.1469 59.6507C26.363 57.8638 23.9443 56.8586 21.4215 56.8558Z" fill="#3F3D56"/>
<path d="M47.9741 102.732H40.3203V110.399H47.9741V102.732Z" fill="#D0CDE1"/>
<path d="M52.621 106.018H43.3271V96.7085H52.621V106.018ZM43.7312 105.613H52.2169V97.1133H43.7312V105.613Z" fill="#3F3D56"/>
<path d="M219.364 102.732H211.71V110.399H219.364V102.732Z" fill="#D0CDE1"/>
<path d="M224.011 106.018H214.717V96.7085H224.011V106.018ZM215.121 105.613H223.607V97.1133H215.121V105.613Z" fill="#3F3D56"/>
</svg>
