<svg width="157" height="111" viewBox="0 0 157 111" fill="none" xmlns="http://www.w3.org/2000/svg">
<path d="M29.5903 109.854H15.0018C14.6068 109.853 14.228 109.686 13.9487 109.39C13.6693 109.093 13.5122 108.691 13.5117 108.271V57.2222C13.5122 56.8027 13.6693 56.4005 13.9487 56.1039C14.228 55.8072 14.6068 55.6404 15.0018 55.6399H29.5903C29.9854 55.6404 30.3641 55.8072 30.6434 56.1039C30.9228 56.4005 31.0799 56.8027 31.0804 57.2222V108.271C31.0799 108.691 30.9228 109.093 30.6434 109.39C30.3641 109.686 29.9854 109.853 29.5903 109.854Z" fill="#C17B3A"/>
<path d="M56.1938 109.854H41.6053C41.2103 109.853 40.8315 109.686 40.5522 109.39C40.2729 109.093 40.1157 108.691 40.1152 108.271V36.9647C40.1157 36.5452 40.2729 36.1429 40.5522 35.8463C40.8315 35.5496 41.2103 35.3828 41.6053 35.3823H56.1938C56.5889 35.3828 56.9676 35.5496 57.247 35.8463C57.5263 36.1429 57.6834 36.5452 57.6839 36.9647V108.271C57.6834 108.691 57.5263 109.093 57.247 109.39C56.9676 109.686 56.5889 109.853 56.1938 109.854Z" fill="#C17B3A"/>
<path d="M82.7983 109.854H68.2098C67.8148 109.853 67.436 109.686 67.1567 109.39C66.8773 109.093 66.7202 108.691 66.7197 108.271V57.2222C66.7202 56.8027 66.8773 56.4005 67.1567 56.1039C67.436 55.8072 67.8148 55.6404 68.2098 55.6399H82.7983C83.1934 55.6404 83.5721 55.8072 83.8514 56.1039C84.1308 56.4005 84.2879 56.8027 84.2884 57.2222V108.271C84.2879 108.691 84.1308 109.093 83.8514 109.39C83.5721 109.686 83.1934 109.853 82.7983 109.854Z" fill="#C17B3A"/>
<path d="M109.402 109.854H94.8133C94.4273 109.862 94.0537 109.708 93.7744 109.425C93.4951 109.142 93.3329 108.753 93.3232 108.343V28.8965C93.3329 28.4866 93.4951 28.0974 93.7744 27.8142C94.0537 27.5311 94.4273 27.377 94.8133 27.3859H109.402C109.788 27.377 110.161 27.5311 110.441 27.8142C110.72 28.0974 110.882 28.4866 110.892 28.8965V108.343C110.882 108.753 110.72 109.142 110.441 109.425C110.161 109.708 109.788 109.862 109.402 109.854Z" fill="#C17B3A"/>
<path d="M136.006 109.854H121.418C121.023 109.853 120.644 109.686 120.365 109.39C120.085 109.093 119.928 108.691 119.928 108.271V14.5748C119.928 14.1553 120.085 13.753 120.365 13.4564C120.644 13.1598 121.023 12.9929 121.418 12.9924H136.006C136.401 12.9929 136.78 13.1598 137.059 13.4564C137.339 13.753 137.496 14.1553 137.496 14.5748V108.271C137.496 108.691 137.339 109.093 137.059 109.39C136.78 109.686 136.401 109.853 136.006 109.854Z" fill="#C17B3A"/>
<path d="M22.296 49.2428C23.9593 49.2428 25.3077 47.8108 25.3077 46.0443C25.3077 44.2777 23.9593 42.8457 22.296 42.8457C20.6326 42.8457 19.2842 44.2777 19.2842 46.0443C19.2842 47.8108 20.6326 49.2428 22.296 49.2428Z" fill="#3F3D56"/>
<path d="M48.9004 28.452C50.5638 28.452 51.9122 27.02 51.9122 25.2535C51.9122 23.487 50.5638 22.0549 48.9004 22.0549C47.2371 22.0549 45.8887 23.487 45.8887 25.2535C45.8887 27.02 47.2371 28.452 48.9004 28.452Z" fill="#3F3D56"/>
<path d="M75.504 49.2428C77.1673 49.2428 78.5157 47.8108 78.5157 46.0443C78.5157 44.2777 77.1673 42.8457 75.504 42.8457C73.8406 42.8457 72.4922 44.2777 72.4922 46.0443C72.4922 47.8108 73.8406 49.2428 75.504 49.2428Z" fill="#3F3D56"/>
<path d="M102.107 18.3234C103.771 18.3234 105.119 16.8913 105.119 15.1248C105.119 13.3583 103.771 11.9263 102.107 11.9263C100.444 11.9263 99.0957 13.3583 99.0957 15.1248C99.0957 16.8913 100.444 18.3234 102.107 18.3234Z" fill="#3F3D56"/>
<path d="M128.712 6.59535C130.375 6.59535 131.724 5.16331 131.724 3.3968C131.724 1.63028 130.375 0.198242 128.712 0.198242C127.049 0.198242 125.7 1.63028 125.7 3.3968C125.7 5.16331 127.049 6.59535 128.712 6.59535Z" fill="#3F3D56"/>
<path d="M156.625 110.198H1.09529C1.03298 110.198 0.973223 110.172 0.929164 110.125C0.885104 110.078 0.860352 110.015 0.860352 109.949C0.860352 109.883 0.885104 109.819 0.929164 109.772C0.973223 109.726 1.03298 109.699 1.09529 109.699H156.625C156.688 109.699 156.747 109.726 156.792 109.772C156.836 109.819 156.86 109.883 156.86 109.949C156.86 110.015 156.836 110.078 156.792 110.125C156.747 110.172 156.688 110.198 156.625 110.198Z" fill="#CBCBCB"/>
<path d="M22.135 46.2442L21.8545 45.844L48.8998 24.4603L75.4177 45.4665L102.299 14.4714L102.347 14.4504L128.434 3.01562L128.614 3.47697L102.574 14.8905L75.4762 46.1354L48.8996 25.0825L22.135 46.2442Z" fill="#3F3D56"/>
</svg>
