<svg width="20" height="21" viewBox="0 0 20 21" fill="none" xmlns="http://www.w3.org/2000/svg">
<path d="M0 10.604C0 13.2562 1.05357 15.7997 2.92893 17.6751C4.8043 19.5504 7.34784 20.604 10 20.604C12.6522 20.604 15.1957 19.5504 17.0711 17.6751C18.9464 15.7997 20 13.2562 20 10.604C20 7.95184 18.9464 5.4083 17.0711 3.53294C15.1957 1.65757 12.6522 0.604004 10 0.604004C7.34784 0.604004 4.8043 1.65757 2.92893 3.53294C1.05357 5.4083 0 7.95184 0 10.604ZM10.9766 15.6431C10.6094 16.0103 10.0156 16.0103 9.65234 15.6431C9.28906 15.2759 9.28516 14.6821 9.65234 14.3188L12.4258 11.5454L5.3125 11.5415C4.79297 11.5415 4.375 11.1235 4.375 10.604C4.375 10.0845 4.79297 9.6665 5.3125 9.6665H12.4258L9.65234 6.89307C9.28516 6.52588 9.28516 5.93213 9.65234 5.56885C10.0195 5.20557 10.6133 5.20166 10.9766 5.56885L15.3516 9.93994C15.7187 10.3071 15.7187 10.9009 15.3516 11.2642L10.9766 15.6431Z" fill="#C17B3A"/>
</svg>
