<svg width="251" height="283" viewBox="0 0 251 283" fill="none" xmlns="http://www.w3.org/2000/svg">
<path d="M186.049 214.384C218.906 181.132 218.906 127.219 186.049 93.9671C153.193 60.7149 99.9224 60.7149 67.066 93.9671C34.2096 127.219 34.2096 181.132 67.066 214.384C99.9224 247.636 153.193 247.636 186.049 214.384Z" fill="#999999" stroke="#263238" stroke-miterlimit="10"/>
<path d="M182.645 173.624C193.264 142.271 176.759 108.143 145.779 97.3964C114.799 86.6497 81.0772 103.354 70.4584 134.707C59.8397 166.06 76.3454 200.188 107.325 210.935C138.305 221.682 172.027 204.977 182.645 173.624Z" fill="#FFC9A1"/>
<path d="M118.523 127.526L124.568 128.789L126.633 130.956L129.318 131.375L130.17 133.949L129.543 135.697L127.715 136.547L123.226 135.805L123.101 135.248L125.225 133.751L123.758 131.016L119.748 130.459L117.612 128.603L118.523 127.526Z" fill="white"/>
<path d="M167.238 183.975L162.477 183.179L156.692 182.437L152.433 183.395L148.263 183.461L144.081 185.418L141.638 186.112L140.13 186.454L137.61 188.77L135.108 190.5L130.879 188.968L130.985 184.861L128.407 184.376L125.662 184.975L124.976 183.82L124.698 181.252L123.432 180.054L121.569 180.767L121.326 182.281L119.02 182.946L116.411 180.904L114.855 177.792L116.038 173.44L120.084 172.841L121.397 173.565L123.042 173.194L124.816 171.482L126.727 171.632L130.181 175.397L131.11 175.038L130.134 171.901L128.951 170.423L128.643 167.717L133.239 164.353L132.795 159.049L134.599 156.75L135.682 153.158L136.995 152.56L139.698 149.764L139.592 148.621L137.427 149.25L136.77 148.232L135.256 148.573L133.044 149.651L133.748 147.597L138.249 145.125L139.071 143.628L141.668 146.256L143.182 147.226L144.957 146.238L143.738 144.616L140.396 143.179L136.256 140.186L132.304 138.594L128.88 138.78L126.869 137.481L124.55 137.421L124.396 138.019L124.988 142.114L125.839 143.383L125.579 148.106L122.344 146.502V144.461L119.15 143.718L117.624 142.473L117.547 138.846L120.889 135.026L120.433 131.632L118.949 132.111L117.712 131.075L116.843 129.082L115.855 129.16L115.79 131.506L114.341 132.105L112.566 127.394L111.318 126.945L109.242 126.55L107.284 128.154L110.614 130.177L111.685 132.422L105.912 129.776L101.653 126.783L100.553 123.09L96.7379 122.779L94.372 125.209C93.7947 125.766 93.1886 126.292 92.5561 126.783C91.5296 127.291 90.468 127.724 89.3798 128.076L89.3502 130.567L86.2212 131.417L86.8127 132.883L92.077 132.572L95.3302 134.907L96.3949 139.773L95.833 144.425L97.1106 148.95L94.7446 156.63L96.1465 166.963L98.6662 172.524L101.428 176.57L103.546 176.385L102.363 174.32L100.961 172.907L99.6008 170.004L100.784 169.447L103.806 174.02L106.172 178.163L106.965 181.755L110.277 184.37L115.713 186.795L123.284 187.136L125.94 188.728L128.075 190.578L130.885 191.554L134.091 191.71L137.084 190.889C137.084 190.889 137.249 192.314 137.403 193.009C137.557 193.703 136.149 196.499 136.149 196.499L135.25 199.617L137.025 202.431L140.325 203.029L145.56 206.519L147.666 206.92L148.121 209.004L148.576 209.926C158.878 205.772 167.818 198.771 174.377 189.722L174.224 188.699L176.442 181.048L174.336 180.186L167.238 183.975Z" fill="white"/>
<path d="M169.474 125.85L167.386 123.545L164.79 120.923L163.329 116.876L165.89 116.739L165.724 115.32L163.908 115.577L165.263 114.542L166.7 113.201L166.392 111.812L164.257 109.956L163.252 107.041C153.097 98.9574 140.614 94.448 127.696 94.1973C114.779 93.9467 102.134 97.9685 91.6809 105.652L95.3482 107.215L93.9759 110.148L91.4857 111.291L92.0358 115.104L91.0303 115.769L89.9893 117.607L90.6754 120.079L93.0709 119.833L92.6332 122.414L94.9637 121.887L97.8206 115.847L97.7437 113.53L101.529 112.387L102.121 110.501L106.013 109.19L105.906 106.736L108.763 105.946C108.763 105.946 110.579 104.371 110.993 104.281C111.824 104.275 112.655 104.331 113.477 104.449L115.903 105.646L118.789 105L120.924 102.917L124.148 102.486C124.667 102.689 125.227 102.763 125.781 102.701C126.467 102.545 128.318 101.109 128.318 101.109L132.849 102.719L134.771 103.599L135.227 105.682L137.35 105.497L137.764 104.09L139.734 104.527L139.84 105.67L135.96 107.705L138.971 110.238L144.525 111.908L147.193 114.224L150.28 113.823L150.659 112.279L151.7 111.758L147.518 109.777L145.258 109.992L146.921 109.034L144.732 107.041L147.033 106.377L150.422 107.37L151.842 110.549L153.752 112.022L155.87 115.775L159.383 117.319L160.389 121.905L164.009 123.282L164.204 124.844V126.742L165.576 129.058L166.126 130.255L168.551 130.148L169.143 127.538L169.474 125.85Z" fill="white"/>
<path d="M168.191 111.441L168.362 112.237L168.167 114.631L169.007 116.487L170.639 116.703L171.231 119.348L169.456 119.019L170.693 126.622L169.717 130.052L171.669 133.697L173.822 134.966L175.431 142.473L178.494 147.909L181.393 151.925L184.735 152.051L185.226 149.022L185.598 148.567C185.363 146.085 184.978 143.62 184.445 141.186C181.988 129.887 176.341 119.553 168.191 111.441Z" fill="white"/>
<path d="M136.262 117.702L126.313 115.709L122.356 116.739L121.977 119.6L119.931 118.163L117.062 119.54L117.795 124.185L120.664 125.437L121.871 122.396L124.385 124.018L129.472 126.813L131.181 130.662L135.759 134.446L141.313 132.177L140.716 130.124L138.965 128.035L137.469 122.533L138.326 119.863L136.262 117.702Z" fill="white"/>
<path d="M144.353 119.091L142.171 119.001L140.722 120.929L142.567 124.748L144.353 124.347V119.091Z" fill="white"/>
<path d="M157.709 118.864L152.486 117.409L151.161 115.96L150.156 116.619L151.723 119.187L153.344 122.617L155.586 122.988L155.875 122.342L154.184 120.528L158.058 121.121L157.709 118.864Z" fill="white"/>
<path d="M128.608 178.073L128.182 178.75L132.576 179.073L134.653 180.653L137.32 180.342L137.947 178.6L134.664 178.75L128.608 178.073Z" fill="white"/>
<path d="M141.414 177.965L138.71 179.45L139.367 180.468L142.94 179.665L143.383 178.396L142.177 178.815L141.414 177.965Z" fill="white"/>
<path d="M206.668 156.733L195.211 137.336L168.521 153.483L179.978 172.879L206.668 156.733Z" fill="white" stroke="#263238" stroke-miterlimit="10"/>
<path d="M193.146 142.066L201.409 156.056" stroke="#263238" stroke-miterlimit="10"/>
<path d="M190.419 143.712L198.682 157.708" stroke="#263238" stroke-miterlimit="10"/>
<path d="M187.693 145.358L195.962 159.354" stroke="#263238" stroke-miterlimit="10"/>
<path d="M184.966 147.01L193.235 161.006" stroke="#263238" stroke-miterlimit="10"/>
<path d="M182.245 148.657L190.508 162.652" stroke="#263238" stroke-miterlimit="10"/>
<path d="M179.518 150.309L187.781 164.305" stroke="#263238" stroke-miterlimit="10"/>
<path d="M176.792 151.955L185.061 165.951" stroke="#263238" stroke-miterlimit="10"/>
<path d="M208.427 171.38L202.445 149.608L172.487 158.039L178.469 179.811L208.427 171.38Z" fill="white" stroke="#263238" stroke-miterlimit="10"/>
<path d="M199.239 153.619L203.551 169.327" stroke="#263238" stroke-miterlimit="10"/>
<path d="M196.175 154.481L200.493 170.189" stroke="#263238" stroke-miterlimit="10"/>
<path d="M196.364 167.16L197.434 171.051" stroke="#263238" stroke-miterlimit="10"/>
<path d="M193.117 155.344L196.009 165.861" stroke="#263238" stroke-miterlimit="10"/>
<path d="M191.951 163.083L194.376 171.913" stroke="#263238" stroke-miterlimit="10"/>
<path d="M190.059 156.206L191.378 160.995" stroke="#263238" stroke-miterlimit="10"/>
<path d="M189.254 165.262L191.319 172.775" stroke="#263238" stroke-miterlimit="10"/>
<path d="M187 157.061L188.858 163.832" stroke="#263238" stroke-miterlimit="10"/>
<path d="M185.617 164.017L188.255 173.631" stroke="#263238" stroke-miterlimit="10"/>
<path d="M183.942 157.923L185.155 162.335" stroke="#263238" stroke-miterlimit="10"/>
<path d="M184.321 171.309L185.196 174.493" stroke="#263238" stroke-miterlimit="10"/>
<path d="M180.878 158.785L184.002 170.147" stroke="#263238" stroke-miterlimit="10"/>
<path d="M122.695 108.242L144.261 102.386L136.202 71.9915L114.636 77.8479L122.695 108.242Z" fill="white" stroke="#263238" stroke-miterlimit="10"/>
<path d="M136.83 100.031L124.77 103.305" stroke="#263238" stroke-miterlimit="10"/>
<path d="M140.332 99.0791L138.693 99.5281" stroke="#263238" stroke-miterlimit="10"/>
<path d="M132.938 97.7622L123.947 100.205" stroke="#263238" stroke-miterlimit="10"/>
<path d="M139.509 95.9785L134.949 97.2177" stroke="#263238" stroke-miterlimit="10"/>
<path d="M126.662 96.1399L123.125 97.0977" stroke="#263238" stroke-miterlimit="10"/>
<path d="M138.681 92.8716L129.413 95.3918" stroke="#263238" stroke-miterlimit="10"/>
<path d="M132.329 91.2732L122.303 93.9969" stroke="#263238" stroke-miterlimit="10"/>
<path d="M137.859 89.7705L133.689 90.9019" stroke="#263238" stroke-miterlimit="10"/>
<path d="M137.037 86.6697L121.475 90.8899" stroke="#263238" stroke-miterlimit="10"/>
<path d="M136.215 83.563L120.652 87.7892" stroke="#263238" stroke-miterlimit="10"/>
<path d="M135.392 80.4622L119.83 84.6824" stroke="#263238" stroke-miterlimit="10"/>
<path d="M83.088 148.29L85.3057 125.804L54.3646 122.678L52.1469 145.164L83.088 148.29Z" fill="white" stroke="#263238" stroke-miterlimit="10"/>
<path d="M79.9991 137.157L79.2656 144.58" stroke="#263238" stroke-miterlimit="10"/>
<path d="M80.8686 128.358L80.1943 135.2" stroke="#263238" stroke-miterlimit="10"/>
<path d="M76.3494 141.809L76.1069 144.263" stroke="#263238" stroke-miterlimit="10"/>
<path d="M77.7103 128.041L76.5273 140.043" stroke="#263238" stroke-miterlimit="10"/>
<path d="M73.4397 138.995L72.9487 143.946" stroke="#263238" stroke-miterlimit="10"/>
<path d="M74.5519 127.723L73.7534 135.793" stroke="#263238" stroke-miterlimit="10"/>
<path d="M71.0972 130.375L69.79 143.628" stroke="#263238" stroke-miterlimit="10"/>
<path d="M71.3928 127.4L71.2153 129.202" stroke="#263238" stroke-miterlimit="10"/>
<path d="M68.2284 127.083L66.6313 143.305" stroke="#263238" stroke-miterlimit="10"/>
<path d="M65.0697 126.765L63.4727 142.988" stroke="#263238" stroke-miterlimit="10"/>
<path d="M61.911 126.442L60.314 142.671" stroke="#263238" stroke-miterlimit="10"/>
<path d="M118.375 277.294C118.375 277.294 132.5 278.563 139.905 268.076C147.311 257.588 146.506 239.282 145.116 231.985H87.4752C87.4752 231.985 86.4282 279.593 118.375 277.294Z" fill="white" stroke="#263238" stroke-miterlimit="10"/>
<path d="M141.851 202.335C141.851 202.335 139.728 198.031 139.728 197.63C139.728 197.229 141.987 192.242 141.189 190.77C140.39 189.297 137.865 187.543 137.048 187.004C136.232 186.466 132.796 188.615 131.725 189.291C130.654 189.968 131.725 190.77 132.121 190.77L134.487 190.369C133.848 190.934 133.267 191.564 132.754 192.248C132.494 192.787 132.754 194.673 132.754 195.074C132.754 195.475 132.89 195.613 133.423 196.271C133.955 196.93 133.553 197.618 134.748 199.366C135.87 201.188 136.891 203.073 137.806 205.011L141.851 202.335Z" fill="white" stroke="#263238" stroke-miterlimit="10"/>
<path d="M145.974 189.405L130.293 190.884" stroke="#263238" stroke-miterlimit="10"/>
<path d="M138.131 193.17C138.131 193.17 137.202 188.597 136.274 188.465C135.345 188.333 131.755 190.081 132.133 190.752C132.512 191.422 134.499 190.351 134.499 190.351C134.499 190.351 131.707 194.918 133.435 196.265" fill="white"/>
<path d="M138.131 193.17C138.131 193.17 137.202 188.597 136.274 188.465C135.345 188.333 131.755 190.081 132.133 190.752C132.512 191.422 134.499 190.351 134.499 190.351C134.499 190.351 131.707 194.918 133.435 196.265" stroke="#263238" stroke-miterlimit="10"/>
<path d="M128.241 177.977H105.912V209.447H128.241V177.977Z" fill="white" stroke="#263238" stroke-miterlimit="10"/>
<path d="M108.864 182.192H124.97" stroke="#263238" stroke-miterlimit="10"/>
<path d="M118.345 185.406H124.97" stroke="#263238" stroke-miterlimit="10"/>
<path d="M108.864 185.406H117.186" stroke="#263238" stroke-miterlimit="10"/>
<path d="M121.959 188.621H124.97" stroke="#263238" stroke-miterlimit="10"/>
<path d="M108.864 188.621H120.22" stroke="#263238" stroke-miterlimit="10"/>
<path d="M115.737 191.829H124.97" stroke="#263238" stroke-miterlimit="10"/>
<path d="M108.864 191.829H114.146" stroke="#263238" stroke-miterlimit="10"/>
<path d="M108.864 195.044H124.97" stroke="#263238" stroke-miterlimit="10"/>
<path d="M108.864 198.258H124.97" stroke="#263238" stroke-miterlimit="10"/>
<path d="M108.864 201.473H124.97" stroke="#263238" stroke-miterlimit="10"/>
<path d="M96.2295 205.454L100.133 199.677C100.133 199.677 101.186 193.595 101.186 192.835C101.186 192.075 105.699 186.957 105.699 186.957V191.213C105.699 191.213 106.746 189.794 107.645 188.423C108.544 187.052 109.301 187.226 109.148 188.728C108.994 190.231 106.746 193.44 106.746 193.44C106.746 193.44 107.645 194.81 107.048 197.241C106.45 199.671 102.842 202.257 102.842 202.257L101.038 208.19L96.2295 205.454Z" fill="white" stroke="#263238" stroke-miterlimit="10"/>
<path d="M105.569 191.464L103.108 194.158" stroke="#263238" stroke-miterlimit="10"/>
<path d="M156.207 224.777C151.688 218.324 142.543 201.24 142.543 201.24L136.563 206.22L144.324 229.351L132.896 229.62L118.505 230.099L104.114 229.62L92.6804 229.351L102.783 207.968L96.8208 202.987L81.0043 225.585C76.4853 232.038 73.8295 236.36 74.7581 238.228C75.6867 240.096 93.6327 246.298 93.6327 246.298L99.8788 261.898H137.143L143.389 246.298C143.389 246.298 161.329 240.108 162.258 238.228C163.186 236.349 160.702 231.236 156.207 224.777Z" fill="white" stroke="#263238" stroke-miterlimit="10"/>
<path d="M144.324 229.351C144.324 229.351 155.272 230.697 158.733 233.385" stroke="#263238" stroke-miterlimit="10"/>
<path d="M92.6807 229.351C92.6807 229.351 83.2464 230.829 79.5259 233.541" stroke="#263238" stroke-miterlimit="10"/>
<path d="M126.437 245.49C126.437 245.49 117.801 254.636 112.484 257.594" stroke="#263238" stroke-miterlimit="10"/>
<path d="M120.327 248.986L114.607 254.235" stroke="#263238" stroke-miterlimit="10"/>
<path d="M93.6152 246.298L89.0962 241.455" stroke="#263238" stroke-miterlimit="10"/>
<path d="M147.435 240.515L143.395 246.298" stroke="#263238" stroke-miterlimit="10"/>
<path d="M88.6938 260.67C88.6938 260.67 90.1785 266.124 96.2591 272.864C99.2165 276.127 102.718 280.592 112.371 282.227C121.735 283.807 130.027 281.796 134.511 278.677C139.343 275.313 143.898 268.183 147.678 261.239L146.418 257.408L90.5156 257.552L88.6938 260.67Z" fill="#263238"/>
<path d="M91.9177 255.283C100.199 256.103 125.26 258.126 143.756 254.648C144.277 254.549 144.812 254.556 145.33 254.668C145.848 254.78 146.34 254.995 146.775 255.301C147.21 255.607 147.581 255.997 147.866 256.449C148.151 256.901 148.344 257.406 148.435 257.935C148.524 258.465 148.508 259.009 148.387 259.533C148.265 260.057 148.042 260.551 147.73 260.986C147.417 261.422 147.022 261.79 146.567 262.069C146.112 262.347 145.607 262.531 145.081 262.61C135.966 263.963 112.857 266.549 90.9417 262.191C90.4642 262.097 90.0116 261.902 89.6134 261.619C89.2152 261.337 88.8802 260.972 88.6302 260.55C88.3803 260.128 88.221 259.657 88.1627 259.168C88.1044 258.679 88.1484 258.184 88.2918 257.713C88.5275 256.948 89.017 256.288 89.6775 255.845C90.338 255.402 91.1292 255.204 91.9177 255.283Z" fill="#263238"/>
<path d="M122.847 195.996C122.847 195.996 121.522 192.631 116.736 194.385C111.951 196.139 109.692 197.343 109.426 201.916C109.159 206.489 104.776 213.888 105.439 218.863C106.101 223.837 107.698 222.76 107.166 225.316C106.634 227.872 103.179 228.543 103.179 228.543L101.854 227.872C103.04 229.812 104.373 231.655 105.841 233.385C107.965 235.81 110.887 236.881 115.938 238.228C120.989 239.575 124.71 238.899 128.43 236.612C132.151 234.325 134.144 232.577 134.676 229.872L135.209 227.184C135.209 227.184 132.553 226.238 132.553 224.897C132.553 223.556 135.605 220.455 136.137 216.289C136.67 212.123 135.475 204.586 131.997 199.474C128.519 194.361 124.84 194.655 122.847 195.996Z" fill="#263238"/>
<path d="M171.357 67.0991L149.6 75.4502L160.925 105.669L182.682 97.3181L171.357 67.0991Z" fill="white" stroke="#263238" stroke-miterlimit="10"/>
<path d="M159.604 89.5044L157.091 90.4465L159.687 97.5361L162.199 96.594L159.604 89.5044Z" fill="#263238"/>
<path d="M164.546 90.7485L162.034 91.6907L163.63 96.0522L166.143 95.1101L164.546 90.7485Z" fill="#263238"/>
<path d="M167.505 86.5391L164.992 87.4812L167.588 94.5708L170.1 93.6287L167.505 86.5391Z" fill="#263238"/>
<path d="M169.657 80.1511L167.144 81.0933L171.536 93.0889L174.048 92.1467L169.657 80.1511Z" fill="#263238"/>
<path d="M173.072 75.067L170.553 76.0161L176.182 91.316L178.701 90.3669L173.072 75.067Z" fill="#263238"/>
<path d="M153.983 78.5347L168.15 73.3027" stroke="#263238" stroke-linecap="round" stroke-linejoin="round"/>
<path d="M154.941 81.0549L169.108 75.823" stroke="#263238" stroke-linecap="round" stroke-linejoin="round"/>
<path d="M185.61 94.5477L182.818 92.7877C182.818 92.7877 182.268 88.789 181.831 88.346C181.393 87.903 178.873 85.4547 178.43 84.9039C177.986 84.3532 177.773 82.9045 177.442 82.9045C177.11 82.9045 175.904 84.2335 176.342 86.1251C176.513 86.7114 176.808 87.2532 177.206 87.713C177.605 88.1729 178.097 88.54 178.648 88.789C178.648 88.789 177.465 93.7874 178.211 94.8949C178.862 95.7187 179.638 96.4321 180.512 97.008L183.806 99.4504L186.438 95.1224L185.61 94.5477Z" fill="#999999" stroke="#263238" stroke-miterlimit="10"/>
<path d="M247.599 117.217C247.374 116.535 246.924 113.35 243.328 112.895C239.732 112.44 237.49 116.307 237.49 116.307C237.49 116.307 228.724 126.083 226.476 129.04C224.229 131.997 221.537 136.768 216.143 139.498C214.106 140.44 211.96 141.118 209.755 141.515C211.88 155.654 210.431 170.108 205.543 183.526C211.908 184.4 219.26 185.244 221.088 184.724C224.459 183.814 225.82 182 227.375 179.498C228.931 176.996 247.374 153.344 247.823 152.434C249.035 150.115 250.014 147.678 250.745 145.161C251.869 141.318 247.823 117.93 247.599 117.217Z" fill="#263238"/>
<path d="M213.671 165.879C212.488 164.927 211.459 162.718 210.495 160.228C209.954 168.111 208.326 175.879 205.656 183.305C210.554 183.682 217.113 183.155 219.32 181.114C222.017 178.612 224.052 173.38 224.052 173.38C224.052 173.38 217.042 168.603 213.671 165.879Z" fill="#FFC9A1" stroke="#263238" stroke-miterlimit="10"/>
<path d="M220.668 97.068C219.373 97.068 216.699 98.379 216.421 98.6544C216.143 98.9297 202.03 102.019 202.03 102.019C202.03 102.019 191.425 96.9782 190.041 96.5113C188.656 96.0444 185.61 94.5479 185.61 94.5479L182.292 99.684L188.207 104.072C188.207 104.072 196.878 110.417 200.475 112.453C204.071 114.488 214.386 112.698 214.386 112.698L224.099 98.2174C223.025 97.6461 221.866 97.2578 220.668 97.068Z" fill="white" stroke="#263238" stroke-miterlimit="10"/>
<path d="M213.889 110.22L213.659 112.476C213.659 112.476 212.641 125.454 212.476 127.131C212.31 128.807 210.908 138.337 210.908 138.337C210.908 138.337 210.405 140.133 209.873 142.15C210.947 149.701 211.009 157.365 210.056 164.933C212.044 167.642 214.175 170.239 216.439 172.715C217.823 174.308 220.869 176.451 222.158 175.894C223.448 175.337 227.233 170.662 227.233 170.662C227.233 170.662 231.847 160.486 232.953 158.151C234.059 155.816 244.783 139.947 245.966 137.798C247.149 135.649 246.983 134.344 245.694 132.009C244.404 129.675 238.105 113.596 237.454 111.944C236.804 110.291 224.264 99.5282 224.264 99.5282C223.711 98.9603 223.118 98.4341 222.49 97.9539L221.786 99.1092L216.723 102.779" fill="white"/>
<path d="M213.889 110.22L213.659 112.476C213.659 112.476 212.641 125.454 212.476 127.131C212.31 128.807 210.908 138.337 210.908 138.337C210.908 138.337 210.405 140.133 209.873 142.15C210.947 149.701 211.009 157.365 210.056 164.933C212.044 167.642 214.175 170.239 216.439 172.715C217.823 174.308 220.869 176.451 222.158 175.894C223.448 175.337 227.233 170.662 227.233 170.662C227.233 170.662 231.847 160.486 232.953 158.151C234.059 155.816 244.783 139.947 245.966 137.798C247.149 135.649 246.983 134.344 245.694 132.009C244.404 129.675 238.105 113.596 237.454 111.944C236.804 110.291 224.264 99.5282 224.264 99.5282C223.711 98.9603 223.118 98.4341 222.49 97.9539L221.786 99.1092L216.723 102.779" stroke="#263238" stroke-miterlimit="10"/>
<path d="M226.293 117.798L221.496 115.93L222.975 125.077C222.975 125.077 218.669 139.827 218.669 140.109C218.669 140.39 217.563 142.072 216.084 143.473C214.605 144.874 214.055 145.808 211.748 147.394C211.287 147.711 210.885 147.992 210.53 148.268C210.684 150.459 210.749 152.65 210.737 154.823L212.576 155.326C212.576 155.326 217.468 150.938 219.958 145.245C222.448 139.552 222.726 137.774 223.188 133.272C223.389 130.914 223.759 128.573 224.294 126.269C224.388 125.897 229.83 121.599 229.83 121.599L226.293 117.798Z" fill="#263238"/>
<path d="M222.88 107.43C222.88 107.43 221.313 110.794 221.035 111.62C220.57 112.708 220.047 113.769 219.467 114.799C219.467 114.799 222.791 117.223 223.525 117.792C224.258 118.361 227.955 120.869 227.955 120.869L230.445 125.538C230.445 125.538 231.551 123.856 233.119 119.097C234.686 114.338 234.781 111.914 235.154 111.315C235.526 110.716 233.214 107.861 230.812 106.46C228.411 105.06 225.092 104.874 224.359 105.718L222.88 107.43Z" fill="white" stroke="#263238" stroke-miterlimit="10"/>
<path d="M223.253 113.033C223.253 113.033 223.803 117.223 224.436 118.917C225.069 120.611 225.453 120.713 226.465 120.037C227.476 119.36 229.972 116.116 229.972 116.116L223.253 113.033Z" fill="white" stroke="#263238" stroke-miterlimit="10"/>
<path d="M241.448 106.849C241.448 106.849 243.5 103.335 244.92 105.73C246.339 108.124 243.814 110.519 242.08 110.998C241.043 111.285 239.988 111.499 238.922 111.638L241.448 106.849Z" fill="#999999" stroke="#263238" stroke-miterlimit="10"/>
<path d="M224.826 96.4634C224.826 96.4634 225.944 92.5424 223.247 93.141C220.549 93.7397 220.561 97.2356 221.407 98.8399C221.908 99.8024 222.477 100.727 223.111 101.606L224.826 96.4634Z" fill="#999999" stroke="#263238" stroke-miterlimit="10"/>
<path d="M231.037 84.6585C231.037 84.6585 225.359 86.8973 223.939 92.1652C222.519 97.433 221.1 103.976 221.887 107.49C222.673 111.004 222.833 114.35 223.939 115.469C225.045 116.589 225.512 117.702 228.511 117.385C231.51 117.068 237.502 114.194 238.922 111.638C240.341 109.082 243.34 106.688 244.446 99.3486C245.552 92.0096 245.706 88.9686 241.134 85.7779C236.562 82.5873 231.037 84.6585 231.037 84.6585Z" fill="#999999" stroke="#263238" stroke-miterlimit="10"/>
<path d="M227.216 104.539C227.216 104.539 225.554 107.245 226.388 108.645C227.222 110.046 229.706 110.699 231.463 109.489" stroke="#263238" stroke-miterlimit="10"/>
<path d="M224.542 109.675C224.542 109.675 225.003 112.009 227.955 112.285C230.906 112.56 232.569 111.351 232.569 111.351" stroke="#263238" stroke-miterlimit="10"/>
<path d="M229.156 99.5881C229.156 99.5881 227.216 95.5773 224.909 95.8527" stroke="#263238" stroke-miterlimit="10"/>
<path d="M233.308 100.989C233.308 100.989 237.271 100.337 239.3 102.857" stroke="#263238" stroke-miterlimit="10"/>
<path d="M227.033 100.522C227.033 101.246 226.702 101.833 226.294 101.833C225.885 101.833 225.554 101.234 225.554 100.522C225.554 99.8097 225.885 99.217 226.294 99.217C226.702 99.217 227.033 99.8037 227.033 100.522Z" fill="#263238"/>
<path d="M235.166 105.431C234.846 106.077 234.296 106.454 233.93 106.269C233.563 106.083 233.527 105.413 233.847 104.766C234.166 104.12 234.716 103.743 235.083 103.928C235.45 104.114 235.485 104.76 235.166 105.431Z" fill="#263238"/>
<path d="M241.146 85.7779C236.567 82.5873 231.049 84.6585 231.049 84.6585C231.049 84.6585 225.37 86.8973 223.951 92.1652C223.809 92.692 223.667 93.2427 223.525 93.7934C223.969 93.7396 226.435 93.4103 226.766 92.3089C227.262 90.7422 228.044 89.2841 229.073 88.0108C230.09 86.8914 232.581 92.2011 235.899 92.1233C239.217 92.0455 242.819 92.3089 242.636 93.1469C242.453 93.985 240.424 99.0314 241.069 100.432C241.713 101.833 242.453 101.833 242.453 102.952C242.426 103.828 242.333 104.701 242.175 105.562L242.719 105.502C243.572 103.55 244.154 101.487 244.446 99.3726C245.546 92.0036 245.706 88.9686 241.146 85.7779Z" fill="#263238"/>
<path d="M238.573 139.097C238.573 139.097 229.245 144.874 228.914 146.43C228.582 147.986 225.4 156.427 226.607 160.869C227.813 165.31 233.634 170.087 236.485 167.645C239.336 165.203 239.56 159.983 240.986 154.314C242.411 148.645 246.469 138.319 246.469 136.768C246.512 135.938 246.281 135.117 245.813 134.434" fill="white"/>
<path d="M238.573 139.097C238.573 139.097 229.245 144.874 228.914 146.43C228.582 147.986 225.4 156.427 226.607 160.869C227.813 165.31 233.634 170.087 236.485 167.645C239.336 165.203 239.56 159.983 240.986 154.314C242.411 148.645 246.469 138.319 246.469 136.768C246.512 135.938 246.281 135.117 245.813 134.434" stroke="#263238" stroke-miterlimit="10"/>
<path d="M226.388 151.207C226.388 151.207 235.941 160.534 236.597 162.647C237.254 164.76 237.366 166.867 235.497 168.974C233.628 171.081 230.458 173.637 227.216 170.638C223.975 167.639 222.881 160.312 222.656 158.205C222.427 156.483 222.098 154.775 221.668 153.093L225.075 150.315L226.388 151.207Z" fill="white" stroke="#263238" stroke-miterlimit="10"/>
<path d="M225.554 147.298C225.554 147.298 223.158 146.831 222.141 147.765C221.321 148.598 220.664 149.581 220.207 150.662C219.539 151.744 218.476 152.514 217.249 152.805C215.77 153.182 214.848 155.05 216.788 155.517C218.728 155.984 221.674 155.792 223.336 154.865C224.473 154.305 225.456 153.47 226.198 152.434C227.027 151.405 227.583 150.752 228.044 150.567C228.505 150.381 228.872 150.567 229.978 150.004C231.084 149.441 232.285 148.513 231.824 147.675C231.362 146.837 231.084 146.927 229.517 147.394C228.741 147.653 227.936 147.809 227.121 147.861L225.554 147.298Z" fill="#999999" stroke="#263238" stroke-miterlimit="10"/>
<path d="M214.41 152.787C214.41 152.787 214.014 150.183 214.611 149.333C215.209 148.483 215.7 149.435 215.747 150.435C215.79 151.285 215.941 152.126 216.196 152.937C216.344 153.29 216.788 153.488 217.285 153.691C217.782 153.895 217.977 154.541 217.184 154.745C216.392 154.948 215.498 154.541 215.41 154.29C215.321 154.039 214.41 152.787 214.41 152.787Z" fill="#999999" stroke="#263238" stroke-miterlimit="10"/>
<path d="M219.13 155.876C219.13 155.876 217.078 155.804 216.463 155.445C216.068 155.135 215.741 154.745 215.504 154.3C215.266 153.854 215.124 153.364 215.084 152.859C215.008 151.782 214.996 151.147 215.877 151.482C216.758 151.818 216.664 152.464 217.06 153.278C217.456 154.092 217.693 154.739 217.959 154.721C218.255 154.768 218.539 154.876 218.793 155.038C218.793 155.038 219.781 155.643 219.13 155.876Z" fill="#999999" stroke="#263238" stroke-miterlimit="10"/>
<path d="M223.341 154.865C222.783 155.326 222.162 155.704 221.496 155.984C220.668 156.259 218.852 155.739 217.947 154.996C217.042 154.254 213.499 153.039 215.67 152.237C217.302 151.638 218.935 153.464 219.946 153.931C220.958 154.398 222.436 153.272 222.809 153.087" fill="#999999"/>
<path d="M223.341 154.865C222.783 155.326 222.162 155.704 221.496 155.984C220.668 156.259 218.852 155.739 217.947 154.996C217.042 154.254 213.499 153.039 215.67 152.237C217.302 151.638 218.935 153.464 219.946 153.931C220.958 154.398 222.436 153.272 222.809 153.087" stroke="#263238" stroke-miterlimit="10"/>
<path d="M226.205 152.434C226.205 152.434 225.649 153.464 225.022 154.673C224.395 155.882 223.839 155.517 223.36 154.865C222.881 154.212 218.746 151.782 218.746 151.782C218.746 151.782 218.379 150.585 220.225 150.662C222.07 150.74 224.282 152.805 224.282 152.805" fill="#999999"/>
<path d="M226.205 152.434C226.205 152.434 225.649 153.464 225.022 154.673C224.395 155.882 223.839 155.517 223.36 154.865C222.881 154.212 218.746 151.782 218.746 151.782C218.746 151.782 218.379 150.585 220.225 150.662C222.07 150.74 224.282 152.805 224.282 152.805" stroke="#263238" stroke-miterlimit="10"/>
<path d="M133.76 4.59332C133.76 4.59332 136.469 0.636448 143.224 5.35357C149.979 10.0707 146.531 16.9189 144.407 19.5049C142.284 22.091 142.603 21.0254 148.613 24.0664C154.622 27.1074 151.919 33.5006 150.269 35.1768C148.619 36.8529 150.57 36.9726 152.522 40.1932C154.474 43.4138 151.617 49.0168 148.914 50.693C146.211 52.3691 139.172 53.4287 132.861 51.4832C126.55 49.5376 127.059 38.122 128.798 29.5737C130.537 21.0254 132.258 14.9674 131.057 11.6151C129.856 8.26286 132.258 4.13837 133.76 4.59332Z" fill="#263238"/>
<path d="M137.214 69.6931L146.749 37.2479L130.601 31.8604L119.759 33.9435C119.759 33.9435 103.612 39.4269 102.961 40.9653C102.369 42.3063 111.727 64.3594 114.116 69.9565C121.767 68.7904 129.54 68.7017 137.214 69.6931Z" fill="#FFC9A1" stroke="#263238" stroke-linecap="round" stroke-linejoin="round"/>
<path d="M137.723 34.2429L130.625 31.8484L119.783 33.9316C119.783 33.9316 116.459 35.0749 112.792 36.4458C113.039 40.5758 114.006 44.629 115.648 48.4182C119.197 56.9724 127.354 65.0897 127.354 65.0897C127.354 65.0897 135.475 56.4397 137.634 44.2638C138.294 40.9596 138.324 37.5584 137.723 34.2429Z" fill="#FFC9A1" stroke="#263238" stroke-linecap="round" stroke-linejoin="round"/>
<path d="M119.866 35.2905L120.924 40.1034" stroke="#263238" stroke-linecap="round" stroke-linejoin="round"/>
<path d="M119.759 33.9555L118.624 34.3446C118.739 38.5484 119.334 42.7246 120.398 46.7899C122.675 56.0027 127.336 61.486 127.336 61.486C127.336 61.486 132.104 47.4484 132.754 41.1928C133.053 38.2966 132.964 35.3728 132.488 32.5009L130.589 31.8723L119.759 33.9555Z" fill="white" stroke="#263238" stroke-linecap="round" stroke-linejoin="round"/>
<path d="M130.897 49.8848C127.734 50.5626 124.466 50.5626 121.303 49.8848C122.627 54.0839 124.674 58.0134 127.348 61.492C127.348 61.492 129.318 55.6734 130.897 49.8848Z" stroke="#263238" stroke-linecap="round" stroke-linejoin="round"/>
<path d="M136.25 19.3253C136.25 19.3253 137.907 15.3684 137.303 12.1778C136.7 8.98715 137.895 5.03027 129.614 1.83365C121.333 -1.36298 117.89 3.35414 114.738 7.31101C111.585 11.2679 111.905 12.7824 111.609 13.8479C111.313 14.9135 108.604 13.8479 107.102 16.8889C105.599 19.9299 106.203 21.1511 109.959 22.5219C111.479 23.1291 113.035 23.6369 114.62 24.0424L128.372 21.9053C128.372 21.9053 129.046 20.5405 129.945 21.9053C130.844 23.2702 130.998 23.8808 132.802 23.8808C134.606 23.8808 134.754 22.9709 134.754 22.9709L136.25 19.3253Z" fill="#263238"/>
<path d="M113.708 20.8457C113.708 20.8457 115.962 29.3641 117.317 31.6209C118.671 33.8777 121.824 38.6187 124.077 38.924C126.331 39.2293 131.441 34.6619 132.358 32.0758C133.275 29.4898 134.76 22.9529 134.76 22.9529C133.942 23.1087 133.097 23.0041 132.341 22.6535C131.584 22.3029 130.954 21.7236 130.536 20.9954C129.811 19.6827 128.967 18.4403 128.017 17.2839C128.017 17.2839 129.708 19.9957 121.073 22.2465C115.856 23.6173 113.708 20.8457 113.708 20.8457Z" fill="white" stroke="#263238" stroke-linecap="round" stroke-linejoin="round"/>
<path d="M134.748 22.9768C134.748 22.9768 135.499 18.8703 136.25 19.3252C137.001 19.7802 137.753 20.5225 136.706 22.6715C136.16 23.8768 135.334 24.9304 134.298 25.7424L134.748 22.9768Z" fill="white" stroke="#263238" stroke-linecap="round" stroke-linejoin="round"/>
<path d="M122.06 30.5315C122.06 30.5315 121.806 33.1175 122.226 33.4587C122.646 33.8 124.355 32.5129 124.355 32.5129" stroke="#263238" stroke-linecap="round" stroke-linejoin="round"/>
<path d="M126.23 33.9497C125.578 34.5122 124.768 34.8558 123.914 34.933C123.06 35.0102 122.204 34.8173 121.463 34.3807" stroke="#263238" stroke-linecap="round" stroke-linejoin="round"/>
<path d="M126.538 27.8676C126.538 28.4123 126.213 28.8553 125.805 28.8553C125.397 28.8553 125.077 28.4123 125.077 27.8676C125.077 27.3229 125.402 26.8799 125.805 26.8799C126.207 26.8799 126.538 27.3229 126.538 27.8676Z" fill="#263238"/>
<path d="M119.759 28.3885C120.164 28.3885 120.493 27.9463 120.493 27.4008C120.493 26.8553 120.164 26.4131 119.759 26.4131C119.354 26.4131 119.026 26.8553 119.026 27.4008C119.026 27.9463 119.354 28.3885 119.759 28.3885Z" fill="#263238"/>
<path d="M124.527 25.4133C125.116 25.1865 125.745 25.0849 126.375 25.1147C127.005 25.1446 127.622 25.3053 128.188 25.5869" stroke="#263238" stroke-linecap="round" stroke-linejoin="round"/>
<path d="M120.783 25.6766C120.783 25.6766 119.416 23.8808 117.033 25.1558" stroke="#263238" stroke-linecap="round" stroke-linejoin="round"/>
<path d="M164.743 46.6942L165.719 44.0602C165.719 44.0602 165.937 41.3186 166.15 40.3308C166.363 39.3431 167.558 38.7924 168.647 37.5892C169.735 36.3859 170.598 34.5123 171.137 35.063C171.675 35.6137 171.681 36.1585 171.249 36.9307C170.912 37.49 170.621 38.0767 170.38 38.6846C170.273 39.0139 175.703 36.6014 175.703 36.6014C175.703 36.6014 178.069 33.746 178.661 34.4045C179.252 35.063 178.335 38.4631 177.898 39.8879C177.268 41.6469 176.089 43.1499 174.538 44.168C173.13 44.9342 168.794 46.5625 168.794 46.5625L167.168 49.4179L164.743 46.6942Z" fill="white" stroke="#263238" stroke-linecap="round" stroke-linejoin="round"/>
<path d="M167.801 44.2639C167.801 44.2639 169.753 42.51 171.273 42.1807C172.586 41.8036 173.856 41.29 175.064 40.6483C175.064 40.6483 176.691 35.1589 177.016 36.0389C177.342 36.9189 177.123 39.1098 176.691 40.6483C176.351 42.0198 175.591 43.2476 174.52 44.1562" fill="white"/>
<path d="M167.801 44.2639C167.801 44.2639 169.753 42.51 171.273 42.1807C172.586 41.8036 173.856 41.29 175.064 40.6483C175.064 40.6483 176.691 35.1589 177.016 36.0389C177.342 36.9189 177.123 39.1098 176.691 40.6483C176.351 42.0198 175.591 43.2476 174.52 44.1562" stroke="#263238" stroke-linecap="round" stroke-linejoin="round"/>
<path d="M146.749 37.2478L154.12 59.0735L164.766 46.682L168.345 51.3992C168.345 51.3992 156.515 70.2616 155.77 70.8124C155.024 71.3631 154.587 71.4709 153.28 71.4709C151.972 71.4709 141.136 56.3318 141.136 56.3318L146.749 37.2478Z" fill="#FFC9A1" stroke="#263238" stroke-linecap="round" stroke-linejoin="round"/>
<path d="M102.961 40.9773L96.4546 73.0094L116.4 85.2931L118.133 80.3545L107.184 69.0585L109.355 58.0858L102.961 40.9773Z" fill="#FFC9A1" stroke="#263238" stroke-linecap="round" stroke-linejoin="round"/>
<path d="M118.115 80.3545L125.136 79.9475C125.136 79.9475 129.099 79.6841 130.513 78.8041C131.927 77.9241 132.991 78.0917 132.991 78.858C132.991 79.6242 132.288 80.1091 130.838 81.001C130.673 81.1028 134.115 83.1621 135.275 83.9941C135.392 84.0746 135.477 84.1951 135.514 84.3335C135.55 84.4719 135.537 84.6191 135.476 84.7484C135.447 84.8216 135.404 84.8883 135.35 84.9447C135.296 85.0012 135.231 85.0462 135.16 85.0774C135.089 85.1085 135.012 85.1251 134.934 85.1262C134.856 85.1272 134.779 85.1128 134.707 85.0836L129.715 83.2878L126.787 83.18L131.56 85.1555L134.725 86.9513C134.872 87.0358 134.988 87.1675 135.053 87.3257C135.118 87.484 135.13 87.6598 135.085 87.8253C135.039 88.0002 134.932 88.1527 134.785 88.2557C134.638 88.3587 134.459 88.4056 134.281 88.388C133.293 88.2862 131.465 88.0887 131.235 88.0109C130.909 87.9031 126.574 86.2569 126.574 86.2569L129.283 88.3401L131.276 89.7708C131.355 89.826 131.422 89.8969 131.472 89.9792C131.523 90.0614 131.556 90.1533 131.571 90.2491C131.585 90.3449 131.58 90.4427 131.556 90.5365C131.532 90.6303 131.489 90.718 131.43 90.7944C131.34 90.9111 131.217 90.9972 131.078 91.0411C130.938 91.085 130.788 91.0845 130.649 91.0399L127.1 89.8786L124.61 89.4356L121.031 87.0411L116.696 84.0779L118.115 80.3545Z" fill="white" stroke="#263238" stroke-linecap="round" stroke-linejoin="round"/>
<path d="M126.153 89.681L123.77 87.2686" stroke="#263238" stroke-linecap="round" stroke-linejoin="round"/>
<path d="M130.856 81.0009C130.856 81.0009 128.596 79.4265 126.645 79.7557" stroke="#263238" stroke-linecap="round" stroke-linejoin="round"/>
<path d="M44.4268 172.638C42.7885 165.198 42.144 157.569 42.5104 149.956L10.7649 113.703C10.2061 113.067 9.47342 112.612 8.65932 112.396C7.84521 112.18 6.9862 112.213 6.19073 112.491C5.39526 112.769 4.69899 113.28 4.18982 113.958C3.68065 114.636 3.3814 115.451 3.32986 116.301L1.55538 146.46C1.46523 148.002 1.93426 149.524 2.87441 150.74C8.3339 157.81 27.4569 182.299 30.7219 182.934C34.2709 183.622 45.805 182.76 47.2838 182.646C46.1314 179.372 45.1774 176.029 44.4268 172.638Z" fill="#263238"/>
<path d="M63.7447 87.4661C63.7447 87.4661 63.6086 83.5571 63.3306 83.0004C63.0526 82.4437 61.9525 80.6059 62.2245 79.6481C62.4966 78.6903 62.9166 77.6906 63.4667 75.8768C64.0168 74.063 64.2948 73.4823 64.9868 73.644C65.6789 73.8056 65.673 74.7634 65.2589 76.0384C64.9986 76.8984 64.8592 77.7911 64.8449 78.6903L66.087 80.4862C66.087 80.4862 67.27 75.8229 67.5066 75.0986C67.7432 74.3743 68.1395 72.9436 68.6008 72.7041C68.7557 72.6456 68.9235 72.6308 69.086 72.6614C69.2486 72.692 69.3998 72.7668 69.5236 72.8777C69.5236 72.8777 69.9258 72.0038 70.5587 72.1774C71.1916 72.351 71.2507 72.4707 71.4223 73.2249C71.5938 73.9792 72.2859 73.7517 72.6881 74.6257C72.9694 75.2969 73.168 76.0006 73.2796 76.7209C73.2796 76.7209 73.5102 76.4874 73.5694 78.409C73.7051 80.1365 73.6655 81.8736 73.4511 83.593C73.1672 85.4547 71.9014 86.3287 71.0378 87.2626C70.1742 88.1964 69.1923 88.8908 69.0208 89.244C68.8493 89.5972 68.4293 89.8426 68.2755 89.9982C68.1217 90.1539 63.3247 88.8908 63.3247 88.8908L63.7447 87.4661Z" fill="#CCCCCC" stroke="#263238" stroke-linecap="round" stroke-linejoin="round"/>
<path d="M69.4057 73.3208L69.1218 76.1762L68.1399 79.726L67.856 80.7736" stroke="#263238" stroke-linecap="round" stroke-linejoin="round"/>
<path d="M71.5351 73.6677C71.2543 74.1644 71.1151 74.7301 71.1329 75.302C71.056 76.8061 70.8841 78.3037 70.6182 79.7856C70.4727 80.3904 70.2604 80.9768 69.9854 81.5336" stroke="#263238" stroke-linecap="round" stroke-linejoin="round"/>
<path d="M73.1617 77.2237C73.1617 77.2237 72.4105 77.1638 72.2981 78.3311C72.1858 79.4984 71.9492 81.2404 71.8959 81.4739C71.7742 81.744 71.6192 81.9974 71.4346 82.2281" stroke="#263238" stroke-linecap="round" stroke-linejoin="round"/>
<path d="M66.5308 81.2405C66.5308 81.2405 67.3352 82.6412 67.1637 83.4554C67.0711 83.9083 66.9546 84.3559 66.8147 84.7963" stroke="#263238" stroke-linecap="round" stroke-linejoin="round"/>
<path d="M31.0533 105.754C31.0533 105.754 36.0218 107.286 39.1922 107.286C42.3626 107.286 52.7078 108.825 52.7078 108.825L63.7451 87.4658C64.3908 87.3913 65.0445 87.438 65.6734 87.6035C66.6434 87.8849 70.2279 90.3991 70.2279 90.3991C70.2279 90.3991 65.6734 107.987 64.8453 110.92C64.3788 112.462 63.7335 113.943 62.9229 115.332C62.4809 116.095 61.8352 116.718 61.0597 117.127C58.5222 118.486 52.0809 121.701 45.953 122.898C38.0861 124.437 36.7079 122.204 36.7079 122.204L29.8111 123.455C29.8111 123.455 26.0906 126.945 22.5003 116.2C18.9099 105.454 31.0533 105.754 31.0533 105.754Z" fill="white" stroke="#263238" stroke-linecap="round" stroke-linejoin="round"/>
<path d="M34.3419 108.729L33.1235 106.029C33.1235 106.029 31.6033 102.264 29.397 102.12C27.1908 101.977 20.708 102.821 17.5613 106.448C15.7277 108.482 14.1392 110.728 12.8293 113.141C11.3535 116.457 10.064 119.854 8.96685 123.317C6.76058 130.016 5.93249 137.415 10.8951 147.328C13.9746 153.424 17.7291 159.145 22.0862 164.383C22.0862 164.383 21.1102 168.292 29.675 172.901C34.9275 175.732 41.1914 175.224 44.8409 174.427C44.699 173.829 44.557 173.23 44.4269 172.632C41.8102 160.781 41.7355 148.501 44.208 136.619C42.7234 135.248 40.5644 133.183 39.8842 130.734C39.1389 128.064 38.8432 124.598 38.4883 121.438" fill="white"/>
<path d="M34.3419 108.729L33.1235 106.029C33.1235 106.029 31.6033 102.264 29.397 102.12C27.1908 101.977 20.708 102.821 17.5613 106.448C15.7277 108.482 14.1392 110.728 12.8293 113.141C11.3535 116.457 10.064 119.854 8.96685 123.317C6.76058 130.016 5.93249 137.415 10.8951 147.328C13.9746 153.424 17.7291 159.145 22.0862 164.383C22.0862 164.383 21.1102 168.292 29.675 172.901C34.9275 175.732 41.1914 175.224 44.8409 174.427C44.699 173.829 44.557 173.23 44.4269 172.632C41.8102 160.781 41.7355 148.501 44.208 136.619C42.7234 135.248 40.5644 133.183 39.8842 130.734C39.1389 128.064 38.8432 124.598 38.4883 121.438" stroke="#263238" stroke-linecap="round" stroke-linejoin="round"/>
<path d="M13.421 112.177L12.3208 116.499C12.6331 117.548 13.1811 118.511 13.922 119.31C14.6628 120.11 15.5765 120.725 16.5914 121.108C20.0398 122.365 26.1144 122.784 28.4567 119.432C30.7991 116.08 27.2146 112.177 27.2146 112.177H13.421Z" fill="white" stroke="#263238" stroke-linecap="round" stroke-linejoin="round"/>
<path d="M26.7762 87.8849C27.3157 88.3708 27.7803 88.9357 28.1543 89.561C28.9824 90.8181 28.5684 91.9555 29.8105 92.2129C31.0527 92.4703 32.9868 90.8181 33.395 92.6319C33.8031 94.4457 32.7088 98.0734 32.7088 98.0734C32.7088 98.0734 33.395 103.521 33.1229 106.029C32.8508 108.537 32.4308 109.938 31.1887 110.501C30.5291 110.811 29.8365 111.044 29.1244 111.195L26.3621 117.181C26.3621 117.181 23.3278 118.019 19.0513 116.062C14.7748 114.104 13.4202 112.177 13.4202 112.177C13.4202 112.177 10.5219 110.082 9.42174 107.148C8.32156 104.215 19.4771 100.45 22.3873 95.4215C25.2974 90.3931 25.2501 87.0468 26.7762 87.8849Z" fill="#CCCCCC" stroke="#263238" stroke-linecap="round" stroke-linejoin="round"/>
<path d="M23.1921 111.614C24.0963 111.279 24.9135 110.741 25.5825 110.04C26.2515 109.339 26.7548 108.494 27.0546 107.568C27.0546 107.568 26.6405 109.1 24.2923 109.8C21.9441 110.501 20.1518 108.005 20.4298 104.778C20.7079 101.551 23.4642 101.983 23.8783 102.264C24.2923 102.545 26.0904 103.377 26.7766 102.402C27.4627 101.426 23.7422 97.3791 23.7422 97.3791L24.5703 91.6503L26.0076 87.873C25.1441 88.4717 24.6768 91.4109 22.364 95.4216C19.4657 100.45 8.2924 104.215 9.3985 107.149C10.5046 110.082 13.397 112.177 13.397 112.177C15.4672 113.141 20.0158 112.871 23.1921 111.614Z" fill="#263238"/>
<path d="M1.39562 97.7979L9.39853 107.154C9.39853 107.154 13.9471 106.035 20.7079 100.731C22.6595 99.2373 24.229 97.2918 25.2849 95.0578C26.3408 92.8237 26.8523 90.3661 26.7766 87.8908C26.7766 87.8908 19.0517 81.9046 17.1234 80.9109C15.1952 79.9172 8.57043 81.6053 4.70207 86.2146C0.833698 90.824 0.407823 95.8404 1.39562 97.7979Z" fill="white" stroke="#263238" stroke-linecap="round" stroke-linejoin="round"/>
<path d="M12.9297 94.4458C15.6446 91.6802 17.1234 87.9867 17.1234 85.7898" stroke="#263238" stroke-linecap="round" stroke-linejoin="round"/>
<path d="M3.18799 97.3791C3.18799 97.3791 5.12217 99.3306 9.81272 96.8164C10.2556 96.5767 10.6842 96.3108 11.0963 96.0203" stroke="#263238" stroke-linecap="round" stroke-linejoin="round"/>
<path d="M32.7095 101.707C32.7095 101.707 32.5735 103.659 30.9351 103.94" stroke="#263238" stroke-linecap="round" stroke-linejoin="round"/>
<path d="M29.0658 93.6439C29.4325 94.4101 29.5035 95.1405 29.2255 95.2722C28.9475 95.4039 28.4329 94.895 28.0425 94.1288C27.6521 93.3626 27.6107 92.6382 27.8828 92.5006C28.1549 92.3629 28.705 92.8777 29.0658 93.6439Z" fill="#263238"/>
<path d="M53.8911 140.719C53.8911 140.719 57.0142 137.66 57.9488 136.607C58.8833 135.553 59.6168 135.661 61.0718 135.134C62.6106 134.455 64.1061 133.679 65.5495 132.811C65.9694 132.602 66.8034 133.236 66.2829 134.08C65.7624 134.924 65.5494 134.817 64.8219 135.451C64.0944 136.086 62.8463 136.924 62.6334 137.247C62.4205 137.57 66.2829 136.72 66.904 136.403C67.525 136.086 69.0925 134.009 69.5065 133.56C69.9206 133.111 70.654 132.506 70.9675 133.344C71.281 134.182 69.82 135.739 68.6016 138.193C67.3831 140.647 64.0175 143.467 62.3554 143.886C60.6933 144.305 57.3573 144.622 56.6238 144.73C55.8904 144.838 53.8911 140.719 53.8911 140.719Z" fill="#CCCCCC" stroke="#263238" stroke-miterlimit="10"/>
<path d="M62.6333 137.241L60.1372 139.558" stroke="#263238" stroke-miterlimit="10"/>
<path d="M13.799 133.236C13.799 133.236 13.6926 143.67 16.0881 148.303C18.4837 152.937 25.2504 161.473 26.9184 164.221C28.5864 166.968 35.0396 169.064 36.9146 168.01C38.7897 166.956 58.2616 145.262 58.2616 145.262L53.8905 140.731L37.2281 153.062C37.2281 153.062 35.9801 151.267 35.7671 150.949C35.1448 150.378 34.4847 149.85 33.7915 149.369C33.7915 149.369 33.6851 143.383 32.5435 141.15C30.583 137.881 28.3149 134.812 25.7709 131.985" fill="white"/>
<path d="M13.799 133.236C13.799 133.236 13.6926 143.67 16.0881 148.303C18.4837 152.937 25.2504 161.473 26.9184 164.221C28.5864 166.968 35.0396 169.064 36.9146 168.01C38.7897 166.956 58.2616 145.262 58.2616 145.262L53.8905 140.731L37.2281 153.062C37.2281 153.062 35.9801 151.267 35.7671 150.949C35.1448 150.378 34.4847 149.85 33.7915 149.369C33.7915 149.369 33.6851 143.383 32.5435 141.15C30.583 137.881 28.3149 134.812 25.7709 131.985" stroke="#263238" stroke-miterlimit="10"/>
</svg>
