<svg width="68" height="68" viewBox="0 0 68 68" fill="none" xmlns="http://www.w3.org/2000/svg">
<g clip-path="url(#clip0_294_237)">
<path d="M66.7453 13.7974L34.3162 0.0717773L0 14.5954V30.8404L2.73833 31.9998V54.8187L33.7119 67.9281L65.2617 54.5748V31.7319L68 30.5735V14.3284L66.7453 13.7974ZM31.9422 62.7145L6.8498 52.0946V32.6905L31.9422 43.3105V62.7145ZM31.9422 39.9619L6.8498 29.3409V29.2757L4.11148 28.1163V19.1867L31.9423 30.967V39.9619H31.9422ZM33.484 28.2709L5.86208 16.5789L34.3162 4.53654L61.9371 16.2275L33.484 28.2709ZM61.1502 51.8506L35.0258 62.9072V43.3105L61.1502 32.2518V51.8506ZM63.8885 27.7449L35.0258 39.9619V30.967L63.8885 18.7511V27.7449Z" fill="#C17B3A"/>
</g>
<defs>
<clipPath id="clip0_294_237">
<rect width="68" height="68" fill="white"/>
</clipPath>
</defs>
</svg>
