<svg width="100" height="101" viewBox="0 0 100 101" fill="none" xmlns="http://www.w3.org/2000/svg">
<path d="M41.3397 15.0869C45.1887 8.42025 54.8113 8.42025 58.6603 15.0869L84.641 60.0869C88.49 66.7536 83.6788 75.0869 75.9808 75.0869H24.0192C16.3212 75.0869 11.51 66.7536 15.359 60.0869L41.3397 15.0869Z" fill="#C17B3A"/>
<path d="M40.542 56.0869V46.9169H37.434V45.8109H44.952V46.9169H41.844V56.0869H40.542ZM48.5838 56.2689C46.7218 56.2689 45.0558 54.8129 45.0558 52.2929C45.0558 49.7589 46.7218 48.2889 48.5838 48.2889C50.4458 48.2889 52.1118 49.7589 52.1118 52.2929C52.1118 54.8129 50.4458 56.2689 48.5838 56.2689ZM48.5838 55.2049C49.8998 55.2049 50.7958 54.0429 50.7958 52.2929C50.7958 50.5429 49.8998 49.3529 48.5838 49.3529C47.2678 49.3529 46.3858 50.5429 46.3858 52.2929C46.3858 54.0429 47.2678 55.2049 48.5838 55.2049ZM54.12 59.2929V48.4849H55.17L55.282 49.3529H55.324C56.01 48.7929 56.864 48.2889 57.746 48.2889C59.706 48.2889 60.77 49.8289 60.77 52.1669C60.77 54.7709 59.216 56.2689 57.466 56.2689C56.78 56.2689 56.052 55.9469 55.366 55.3869L55.394 56.7169V59.2929H54.12ZM57.256 55.2049C58.516 55.2049 59.44 54.0709 59.44 52.1809C59.44 50.5009 58.88 49.3669 57.438 49.3669C56.794 49.3669 56.136 49.7309 55.394 50.4169V54.4069C56.08 54.9949 56.752 55.2049 57.256 55.2049Z" fill="white"/>
</svg>
