<svg width="31" height="20" viewBox="0 0 31 20" fill="none" xmlns="http://www.w3.org/2000/svg">
<path d="M29.9922 3.12932C29.6472 1.89755 28.6307 0.927448 27.3399 0.598229C25.0004 0 15.6191 0 15.6191 0C15.6191 0 6.23793 0 3.89834 0.598229C2.60761 0.927504 1.59104 1.89755 1.24602 3.12932C0.619141 5.36198 0.619141 10.0202 0.619141 10.0202C0.619141 10.0202 0.619141 14.6784 1.24602 16.9111C1.59104 18.1429 2.60761 19.0726 3.89834 19.4018C6.23793 20 15.6191 20 15.6191 20C15.6191 20 25.0003 20 27.3399 19.4018C28.6307 19.0726 29.6472 18.1429 29.9922 16.9111C30.6191 14.6784 30.6191 10.0202 30.6191 10.0202C30.6191 10.0202 30.6191 5.36198 29.9922 3.12932ZM12.5509 14.2495V5.79089L20.3918 10.0203L12.5509 14.2495Z" fill="#333333" fill-opacity="0.8"/>
</svg>
