<svg width="147" height="200" viewBox="0 0 147 200" fill="none" xmlns="http://www.w3.org/2000/svg">
<path d="M130.118 199.677H66.1179C56.8089 199.677 49.2363 192.15 49.2363 182.898V16.7795C49.2363 7.52672 56.8089 0 66.1179 0H130.118C139.427 0 147 7.52672 147 16.7795V182.898C147 192.15 139.427 199.677 130.118 199.677Z" fill="#DADBDC"/>
<path d="M130.165 195.135H66.0714C59.1815 195.135 53.5742 189.561 53.5742 182.713V16.6379C53.5742 9.78971 59.1815 4.21631 66.0714 4.21631H130.165C137.054 4.21631 142.662 9.78971 142.662 16.6379V182.713C142.662 189.561 137.054 195.135 130.165 195.135Z" fill="white"/>
<path d="M107.182 15.2708H89.0578C86.6651 15.2708 84.7197 13.3373 84.7197 10.959C84.7197 8.58078 86.6651 6.64722 89.0578 6.64722H107.182C109.575 6.64722 111.52 8.58078 111.52 10.959C111.52 13.3373 109.575 15.2708 107.182 15.2708Z" fill="#DADBDC"/>
<path d="M125.677 65.9847H72.6429C71.5923 65.9847 70.7373 64.9043 70.7373 63.5801C70.7373 62.256 71.5923 61.1755 72.6429 61.1755H125.677C126.728 61.1755 127.583 62.256 127.583 63.5801C127.583 64.9043 126.728 65.9847 125.677 65.9847Z" fill="#DADBDC"/>
<path d="M125.677 76.6407H72.6429C71.5923 76.6407 70.7373 75.5603 70.7373 74.2361C70.7373 72.912 71.5923 71.8315 72.6429 71.8315H125.677C126.728 71.8315 127.583 72.912 127.583 74.2361C127.583 75.5603 126.728 76.6407 125.677 76.6407Z" fill="#DADBDC"/>
<path d="M110.469 87.2967H72.6429C71.5923 87.2967 70.7373 86.2163 70.7373 84.8921C70.7373 83.568 71.5923 82.4875 72.6429 82.4875H110.469C111.52 82.4875 112.375 83.568 112.375 84.8921C112.375 86.2163 111.52 87.2967 110.469 87.2967Z" fill="#DADBDC"/>
<path d="M98.1185 149.948C110.621 149.948 120.757 139.874 120.757 127.447C120.757 115.02 110.621 104.946 98.1185 104.946C85.6159 104.946 75.4805 115.02 75.4805 127.447C75.4805 139.874 85.6159 149.948 98.1185 149.948Z" fill="#545454"/>
<path d="M92.0969 127.915C93.2667 130.191 94.4366 132.47 95.6064 134.746C95.9411 135.402 96.9254 135.194 97.1209 134.549C98.6553 129.463 101.505 124.828 105.346 121.142C106.115 120.404 104.942 119.242 104.173 119.976C100.13 123.856 97.1375 128.761 95.5203 134.11L97.0348 133.913C95.8649 131.637 94.6951 129.357 93.5252 127.081C93.0414 126.136 91.6097 126.969 92.0936 127.911H92.0969V127.915Z" fill="white"/>
<path d="M37.0908 100.229L31.6028 102.09L31.5166 94.2142L36.5108 94.1582L37.0908 100.229Z" fill="#F3A3A6"/>
<path d="M32.1589 96.3881C35.1899 96.3881 37.6469 93.9459 37.6469 90.9333C37.6469 87.9207 35.1899 85.4785 32.1589 85.4785C29.128 85.4785 26.6709 87.9207 26.6709 90.9333C26.6709 93.9459 29.128 96.3881 32.1589 96.3881Z" fill="#F3A3A6"/>
<path d="M33.66 90.3767C32.7421 90.3602 32.129 89.4445 31.7611 88.6045C31.3933 87.7679 31.0155 86.8027 30.1637 86.4634C29.4645 86.1867 28.2582 88.1203 27.7014 87.6163C27.1215 87.0893 27.6517 84.3421 28.2549 83.8447C28.858 83.3473 29.6898 83.2419 30.472 83.1958C32.3841 83.0871 34.3063 83.2189 36.1853 83.5878C37.3452 83.8151 38.5449 84.1643 39.39 84.9877C40.4604 86.0319 40.7487 87.6229 40.8415 89.1118C40.9376 90.6336 40.8647 92.2312 40.1356 93.5751C39.4032 94.9158 37.8556 95.9171 36.3543 95.5943C36.1953 94.7873 36.3378 93.9572 36.3875 93.1337C36.4372 92.3135 36.3643 91.4275 35.8539 90.7785C35.3436 90.1296 34.2632 89.8826 33.6832 90.4689" fill="#2F2E43"/>
<path d="M40.4312 92.1916C40.9747 91.7864 41.6275 91.4438 42.3036 91.5196C43.036 91.5987 43.659 92.1916 43.8545 92.8965C44.0501 93.6014 43.8479 94.3821 43.4038 94.9651C42.9598 95.5481 42.2936 95.9368 41.5844 96.1345C41.1735 96.2497 40.7261 96.2992 40.3317 96.1345C39.7518 95.894 39.4336 95.166 39.6524 94.5797" fill="#2F2E43"/>
<path d="M20.0099 143.726C19.6653 145.521 20.3513 147.152 21.5476 147.366C22.7407 147.58 23.9901 146.295 24.3347 144.5C24.4839 143.785 24.4507 143.044 24.2386 142.342L28.4607 114.209L22.7738 113.21L20.9014 141.746C20.4441 142.329 20.1359 143.008 20.0099 143.729V143.726Z" fill="#F3A3A6"/>
<path d="M31.5034 98.4766L27.6293 98.5194C24.8952 98.9608 24.1661 100.423 23.5762 103.111C22.6715 107.212 21.5182 112.677 21.7602 112.753C22.1479 112.878 28.7759 115.888 32.1297 115.144L31.5034 98.4766Z" fill="#545454"/>
<path d="M36.2608 187.892L31.1045 187.949L31.1862 195.218L36.3425 195.161L36.2608 187.892Z" fill="#F3A3A6"/>
<path d="M26.2001 199.677C25.6566 199.684 25.176 199.677 24.8115 199.647C23.4395 199.539 22.1238 198.547 21.4577 197.968C21.1594 197.707 21.06 197.286 21.2091 196.923C21.3152 196.663 21.5339 196.465 21.8057 196.383L25.4146 195.316L31.2307 191.32L31.297 191.436C31.3235 191.478 31.9101 192.503 32.109 193.198C32.1852 193.461 32.1686 193.682 32.0592 193.853C31.983 193.972 31.877 194.041 31.7908 194.084C31.8969 194.193 32.2316 194.413 33.2589 194.565C34.7535 194.786 35.0551 193.241 35.0651 193.175L35.075 193.122L35.1181 193.092C35.824 192.628 36.2581 192.417 36.4106 192.46C36.5067 192.486 36.6624 192.532 37.133 196.722C37.1761 196.854 37.4843 197.816 37.2921 198.742C37.0833 199.75 32.6657 199.45 31.7842 199.381C31.7577 199.384 28.4569 199.654 26.1934 199.677H26.2001Z" fill="#2F2E43"/>
<path d="M50.8759 182.007L46.5312 184.768L50.4708 190.893L54.8155 188.133L50.8759 182.007Z" fill="#F3A3A6"/>
<path d="M45.24 198.468C44.6336 198.475 44.0768 198.409 43.6791 198.343C43.2881 198.277 42.9799 197.974 42.9136 197.586C42.8639 197.306 42.9467 197.026 43.1323 196.815L45.6245 194.012L48.4314 187.562L48.5507 187.625C48.5938 187.648 49.6377 188.208 50.1779 188.692C50.3834 188.876 50.4861 189.071 50.4861 189.275C50.4861 189.416 50.4331 189.532 50.3801 189.611C50.5292 189.647 50.9302 189.657 51.8813 189.245C53.2666 188.646 52.6999 187.177 52.6734 187.117L52.6535 187.068L52.6767 187.022C53.028 186.258 53.2865 185.849 53.4356 185.803C53.5317 185.777 53.6875 185.731 56.3188 189.038C56.4249 189.127 57.2003 189.779 57.5284 190.665C57.8863 191.63 53.9824 193.699 53.1937 194.104C53.1705 194.124 49.0909 197.138 47.414 198.001C46.7479 198.343 45.9559 198.455 45.2334 198.462L45.24 198.468Z" fill="#2F2E43"/>
<path d="M39.3673 127.042L24.9314 127.2L23.7715 140.56L30.0549 189.818L37.4252 189.736L34.1609 161.283L46.4029 186.87L52.9017 182.239L43.2977 158.331C43.2977 158.331 46.3996 137.378 43.7219 132.197C41.0442 127.015 39.3706 127.035 39.3706 127.035V127.042H39.3673Z" fill="#2F2E43"/>
<path d="M46.5553 127.776L23.6289 128.03L30.1774 98.4931L40.1692 98.3811L46.5553 127.776Z" fill="#545454"/>
<path d="M48.7958 143.41C49.1802 145.198 48.5307 146.842 47.3409 147.082C46.1512 147.323 44.8753 146.068 44.4909 144.279C44.3252 143.568 44.3417 142.827 44.5373 142.118L39.6855 114.083L45.3492 112.96L47.8579 141.45C48.3285 142.023 48.65 142.695 48.7958 143.413V143.41Z" fill="#F3A3A6"/>
<path d="M36.2948 98.4239L40.1689 98.3811C42.9129 98.7632 43.6718 100.209 44.3247 102.884C45.3189 106.965 46.5948 112.4 46.3562 112.483C45.9685 112.614 39.4133 115.77 36.043 115.101L36.2981 98.4239H36.2948Z" fill="#545454"/>
<path d="M71.278 199.677C71.278 199.855 71.1321 200 70.9532 200H0.324774C0.145817 200 0 199.855 0 199.677C0 199.499 0.145817 199.354 0.324774 199.354H70.9532C71.1321 199.354 71.278 199.499 71.278 199.677Z" fill="#3F3D58"/>
</svg>
