<svg width="180" height="69" viewBox="0 0 180 69" fill="none" xmlns="http://www.w3.org/2000/svg">
<path d="M101.813 19.507L104.504 20.209C102.671 26.683 99.7069 33.274 96.3139 37.681C96.0799 36.979 95.2999 35.419 94.8319 34.678C97.8349 30.934 100.292 25.279 101.813 19.507ZM99.1999 29.53L101.774 26.956L101.813 26.995V55.231H99.1999V29.53ZM119.324 19.585H121.82V51.019H119.324V19.585ZM112.655 27.892H131.024V30.193H112.655V27.892ZM112.772 43.882H130.127V46.261H112.772V43.882ZM113.786 38.539H128.879V40.84H113.786V38.539ZM104.543 22.276H111.134V24.85H104.543V22.276ZM105.791 39.553C108.794 50.551 115.97 52.228 123.887 52.267C125.057 52.267 129.503 52.267 131.063 52.228C130.673 52.852 130.244 54.061 130.088 54.802H123.77C114.644 54.802 107.234 52.735 103.646 40.372L105.791 39.553ZM114.371 22.705H128.216V35.575H114.371V33.352H125.915V24.85H114.371V22.705ZM106.22 33.703H110.939V36.082H105.401L106.22 33.703ZM110.315 33.703H110.861L111.329 33.664L112.889 34.054C111.875 45.13 108.911 51.838 104.231 55.309C103.802 54.763 102.788 53.827 102.242 53.437C106.805 50.278 109.496 44.233 110.315 34.249V33.703ZM104.738 37.057C104.504 36.472 103.919 35.419 103.568 34.834C104.192 34.678 105.167 33.664 105.908 32.455C106.61 31.246 109.145 26.761 110.51 22.51V22.315L111.524 21.847L113.279 23.017C111.29 27.736 108.95 32.377 106.766 35.575V35.614C106.766 35.614 104.738 36.433 104.738 37.057ZM148.691 33.586H172.598V35.809H148.691V33.586ZM150.563 28.438H173.885V41.113H150.212V38.968H171.116V30.583H150.563V28.438ZM160.586 24.928H163.55V51.994C163.55 53.788 163.082 54.49 161.834 54.919C160.547 55.309 158.441 55.348 155.204 55.348C155.048 54.607 154.658 53.554 154.229 52.813C156.608 52.93 159.026 52.891 159.689 52.852C160.391 52.813 160.586 52.618 160.586 51.994V24.928ZM149.744 43.024L151.382 41.386C153.332 42.556 155.867 44.272 157.193 45.403L155.477 47.197C154.229 46.066 151.733 44.233 149.744 43.024ZM172.871 41.62L175.055 43.336C172.793 45.091 169.907 47.002 167.723 48.172L165.968 46.651C168.152 45.403 171.155 43.18 172.871 41.62ZM147.638 50.551C150.992 49.342 156.218 47.275 161.132 45.247L161.639 47.353C157.193 49.342 152.435 51.409 148.808 52.969L147.638 50.551ZM146.351 22.9H177.317V25.474H146.351V22.9ZM144.947 22.9H147.716V34.444C147.716 40.528 147.209 49.381 143.933 55.309C143.426 54.802 142.217 54.022 141.554 53.749C144.674 48.133 144.947 40.138 144.947 34.444V22.9ZM158.636 19.897L161.483 19.078C162.458 20.482 163.589 22.354 164.096 23.563L161.171 24.577C160.664 23.329 159.572 21.34 158.636 19.897ZM172.52 33.391H177.746V35.965H172.52V33.391ZM161.795 47.119L163.082 45.247C167.606 46.924 173.768 49.615 176.927 51.37L175.64 53.515C172.52 51.682 166.436 48.913 161.795 47.119Z" fill="black"/>
<g clip-path="url(#clip0_294_247)">
<path d="M4.88024 34.1675H2.84329V34.168H2.82178C3.49168 53.2432 17.4273 68.1857 34.5472 68.1857C51.4026 68.1857 65.1616 53.6985 66.2022 35.0256C66.2185 34.7394 66.2413 34.4553 66.2514 34.1675H66.2504C66.2504 34.1603 66.2512 34.153 66.2514 34.1462L4.88024 34.1675ZM57.8583 45.0088C57.3223 46.0437 56.7369 47.0609 56.1184 48.0331C55.5013 49.0032 54.8346 49.9536 54.1368 50.8588C53.4364 51.7657 52.6918 52.644 51.9244 53.4694C51.1509 54.3005 50.3348 55.0999 49.4985 55.8461C48.6528 56.5989 47.7694 57.3134 46.8724 57.9692C45.9671 58.6318 45.0214 59.2546 44.0613 59.8206C43.6211 60.0799 43.1192 60.2172 42.61 60.2172C41.5994 60.2172 40.6528 59.6769 40.14 58.8075C39.3384 57.4475 39.7931 55.6884 41.1531 54.8864C41.9479 54.4182 42.7345 53.9002 43.4908 53.3471C44.2421 52.7975 44.9815 52.1997 45.6881 51.5698C46.3901 50.9445 47.077 50.2715 47.7309 49.5695C48.3831 48.8669 49.0125 48.1234 49.6015 47.3603C50.1931 46.5945 50.7598 45.7862 51.2871 44.9588C51.8175 44.1251 52.3167 43.2566 52.771 42.3773C53.265 41.4222 54.2408 40.8291 55.3176 40.8291C55.7781 40.8291 56.2198 40.9369 56.6305 41.15C58.0331 41.8751 58.5838 43.6063 57.8583 45.0088Z" fill="#C17B3A"/>
<path d="M66.321 21.0042H2.77848C1.6954 21.0042 0.814453 21.9783 0.814453 23.1755V28.8155C0.814453 30.0127 1.69527 30.9863 2.77848 30.9863H66.3212C67.3985 30.9863 68.2754 30.0127 68.2754 28.8155V23.1755C68.2752 21.9783 67.3984 21.0042 66.321 21.0042Z" fill="#C17B3A"/>
<path d="M32.5307 17.8414H46.1308L50.5026 9.00188C50.9127 8.17181 51.13 7.24424 51.13 6.31934C51.13 3.99605 49.7966 1.83718 47.7329 0.819307C46.8872 0.398822 45.9803 0.185791 45.0378 0.185791C42.7223 0.185791 40.5644 1.52135 39.5404 3.58858L34.6972 13.4354L32.5303 17.8201H32.5409L32.5307 17.8414Z" fill="#C17B3A"/>
</g>
<defs>
<clipPath id="clip0_294_247">
<rect width="68" height="68" fill="white" transform="translate(0.544922 0.185791)"/>
</clipPath>
</defs>
</svg>
