<svg width="676" height="107" viewBox="0 0 676 107" fill="none" xmlns="http://www.w3.org/2000/svg">
<rect x="525.5" y="83.1674" width="150" height="22.8485" rx="11.4242" fill="#C17B3A" fill-opacity="0.2"/>
<path d="M591.552 87.2235H600.224V88.9355H591.552V87.2235ZM591.936 95.5275H599.744V97.2235H591.936V95.5275ZM591.2 99.4475H600.4V101.191H591.2V99.4475ZM594.832 96.3275H596.768V100.503H594.832V96.3275ZM592.992 89.1915L594.608 89.5595C594.144 90.4075 593.584 91.3035 593.056 92.0715C593.728 92.9355 594.4 93.9595 594.72 94.6315L593.184 95.2395C592.848 94.4075 592.128 93.2075 591.296 92.1035C591.936 91.1275 592.624 89.9595 592.992 89.1915ZM595.664 89.2075L597.296 89.5915C596.816 90.4075 596.256 91.3035 595.744 92.0555C596.416 92.8875 597.104 93.8795 597.424 94.5355L595.904 95.1755C595.568 94.3435 594.832 93.1595 593.968 92.0715C594.64 91.1275 595.296 89.9755 595.664 89.2075ZM598.4 89.1915L600.032 89.5755C599.536 90.4235 598.96 91.3035 598.448 92.0715C599.152 92.9195 599.888 93.8955 600.256 94.5675L598.752 95.2395C598.368 94.4075 597.536 93.1915 596.624 92.1035C597.312 91.1435 598.016 89.9595 598.4 89.1915ZM589.344 93.1275L590.72 92.7115C591.12 93.7675 591.552 95.1755 591.712 96.0235L590.24 96.5355C590.112 95.6715 589.728 94.2315 589.344 93.1275ZM587.824 97.3675L589.216 97.0955C589.408 98.1515 589.6 99.4955 589.648 100.407L588.176 100.695C588.16 99.7995 588 98.4075 587.824 97.3675ZM586 97.1115L587.568 97.3675C587.456 98.8555 587.184 100.455 586.848 101.463C586.48 101.287 585.728 101.047 585.344 100.919C585.712 99.9595 585.904 98.4715 586 97.1115ZM585.856 92.9035C585.76 92.5675 585.488 91.7515 585.28 91.3035C585.6 91.2235 585.872 90.9195 586.192 90.4395C586.528 89.9755 587.552 88.1995 588.112 86.5035L589.776 87.1915C589.024 88.9195 587.904 90.7595 586.864 92.0075V92.0395C586.864 92.0395 585.856 92.5835 585.856 92.9035ZM585.856 92.9035L585.792 91.5915L586.576 91.0955L589.376 90.8875C589.264 91.3515 589.2 92.0235 589.184 92.3915C586.704 92.6315 586.176 92.7595 585.856 92.9035ZM585.968 96.6155C585.872 96.2635 585.6 95.4155 585.376 94.9355C585.792 94.8395 586.128 94.4715 586.64 93.8795C587.152 93.3035 588.784 91.0315 589.76 88.8555L591.328 89.8155C590.176 91.9275 588.592 94.1355 587.024 95.7035V95.7515C587.024 95.7515 585.968 96.2955 585.968 96.6155ZM585.968 96.6155L585.888 95.2715L586.672 94.7595L590.528 94.2955C590.448 94.7435 590.4 95.4155 590.416 95.7835C586.944 96.2795 586.352 96.4235 585.968 96.6155ZM589.504 97.0155L590.8 96.5835C591.088 97.3675 591.408 98.3755 591.536 99.0315L590.176 99.5115C590.064 98.8395 589.776 97.7995 589.504 97.0155ZM609.504 94.9515V95.7835H614.544V94.9515H609.504ZM607.728 93.7835H616.448V96.9675H607.728V93.7835ZM606.608 97.6075H617.984V101.591H616.08V98.9355H608.416V101.591H606.608V97.6075ZM607.728 99.8635H616.88V101.207H607.728V99.8635ZM605.216 91.7355H619.008V94.8555H617.072V93.1915H607.056V94.8555H605.216V91.7355ZM610.576 87.2395L612.112 87.7355C611.6 88.3595 611.088 88.9675 610.688 89.3675L609.584 88.9195C609.936 88.4395 610.352 87.7195 610.576 87.2395ZM607.728 90.0075L608.832 88.9675C609.664 89.4155 610.848 90.1035 611.456 90.5515L610.304 91.7195C609.728 91.2555 608.576 90.5195 607.728 90.0075ZM607.92 86.5515H609.584C609.44 89.4635 608.88 91.1115 605.632 92.0075C605.488 91.5915 605.056 90.9675 604.72 90.6635C607.472 90.0075 607.808 88.8555 607.92 86.5515ZM617.68 87.2075L619.328 87.7515C618.768 88.3755 618.224 89.0155 617.808 89.4315L616.64 88.9675C617.008 88.4555 617.456 87.7195 617.68 87.2075ZM614.656 90.0715L615.728 88.9195C616.8 89.4315 618.384 90.2315 619.2 90.7595L618.064 92.0715C617.312 91.5275 615.76 90.6635 614.656 90.0715ZM614.784 86.5515H616.512C616.384 89.4635 615.84 91.0955 612.496 91.9275C612.368 91.5115 611.936 90.8555 611.584 90.5195C614.384 89.9115 614.688 88.8395 614.784 86.5515ZM605.024 87.6715L606.16 86.8235C606.592 87.2875 607.184 87.9275 607.456 88.3115L606.256 89.2715C606 88.8555 605.44 88.1675 605.024 87.6715ZM611.824 87.6555L612.96 86.8075C613.408 87.2715 613.984 87.8955 614.256 88.2955L613.056 89.2395C612.8 88.8235 612.24 88.1515 611.824 87.6555ZM610.832 96.1195L612.48 96.6475C612.112 97.2715 611.792 97.8795 611.536 98.3115L610.208 97.8475C610.416 97.3515 610.704 96.6155 610.832 96.1195ZM627.424 93.6715H635.184V95.1915H627.424V93.6715ZM627.184 96.4075H635.44V97.9755H627.184V96.4075ZM631.984 94.1515H633.664V101.287H631.984V94.1515ZM628.864 94.2155H630.496V97.2875C630.496 98.3115 630.064 100.423 628.384 101.575C628.128 101.239 627.552 100.727 627.152 100.471C628.512 99.6395 628.864 98.0875 628.864 97.2715V94.2155ZM625.52 89.3515H629.552V90.5995H625.52V89.3515ZM632.944 89.3515H636.992V90.5995H632.944V89.3515ZM636.24 87.1595H638.128V99.3515C638.128 100.311 637.952 100.855 637.376 101.175C636.784 101.495 635.952 101.543 634.72 101.527C634.672 101.015 634.416 100.119 634.16 99.6235C634.864 99.6555 635.664 99.6555 635.904 99.6555C636.16 99.6555 636.24 99.5595 636.24 99.3195V87.1595ZM625.696 87.1595H630.768V92.8555H625.696V91.4795H628.96V88.5355H625.696V87.1595ZM637.216 87.1595V88.5355H633.632V91.5115H637.216V92.8875H631.808V87.1595H637.216ZM624.56 87.1595H626.448V101.575H624.56V87.1595ZM650.896 99.2395H656.208V100.919H650.896V99.2395ZM649.68 94.8555H657.184V101.559H655.36V96.5355H651.44V101.559H649.68V94.8555ZM654.064 89.5755L655.6 88.8075C656.72 90.2155 657.792 92.0715 658.272 93.3515L656.608 94.2315C656.208 92.9355 655.12 90.9835 654.064 89.5755ZM649.584 93.9595C649.472 93.5755 649.168 92.6635 648.96 92.1675C649.312 92.0715 649.6 91.7355 649.984 91.1595C650.368 90.6155 651.504 88.5515 652.176 86.5515L654.192 87.0795C653.28 89.2395 652.016 91.4315 650.864 92.9355V92.9675C650.864 92.9675 649.584 93.5915 649.584 93.9595ZM649.584 93.9595L649.536 92.4395L650.56 91.8155L657.024 91.3835C657.104 91.9115 657.28 92.6635 657.408 93.0635C651.104 93.6235 650.208 93.7035 649.584 93.9595ZM643.264 95.2715L644.336 94.0075C646 95.3835 648.448 97.3835 649.552 98.6635L648.368 100.167C647.296 98.8395 644.96 96.7435 643.264 95.2715ZM643.264 95.2715C643.936 93.0795 644.656 89.4635 644.896 86.6315L646.672 86.7435C646.336 89.7195 645.568 93.4315 644.896 95.8315L643.264 95.2715ZM647.072 88.8075H648.784V90.7595C648.784 93.8315 648.368 98.4075 644.16 101.543C643.904 101.159 643.28 100.551 642.88 100.263C646.72 97.4955 647.072 93.4315 647.072 90.7595V88.8075ZM642.928 90.0235C644.624 89.9595 647.12 89.8315 649.504 89.7035L649.488 91.3195C647.248 91.4795 644.864 91.6235 643.12 91.7355L642.928 90.0235Z" fill="#756E6E"/>
<path d="M558.03 41.1907C558.822 38.8857 558.104 36.1341 556.415 35.0537C554.725 33.9732 552.708 34.9528 551.916 37.2578L538.389 76.4571C537.892 77.8834 537.977 79.5545 538.589 80.8943C539.202 82.234 540.29 83.0264 541.451 83.0264H565.106V94.5514C565.106 97.1013 566.616 99.1613 568.485 99.1613C570.354 99.1613 571.864 97.1013 571.864 94.5514V83.0264H575.243C577.112 83.0264 578.622 80.9663 578.622 78.4164C578.622 75.8665 577.112 73.8064 575.243 73.8064H571.864V53.0614C571.864 50.5115 570.354 48.4515 568.485 48.4515C566.616 48.4515 565.106 50.5115 565.106 53.0614V73.8064H546.773L558.03 41.1907Z" fill="#424242"/>
<g clip-path="url(#clip0_293_234)">
<path d="M613.696 28.4764H613.371V19.5478C613.371 18.8692 613.237 18.1972 612.978 17.5702C612.719 16.9432 612.34 16.3736 611.861 15.8937C611.383 15.4138 610.814 15.0332 610.189 14.7735C609.564 14.5138 608.893 14.3801 608.217 14.3801H589.349C587.983 14.3801 586.672 14.9246 585.705 15.8937C584.738 16.8628 584.195 18.1772 584.195 19.5478V68.531C584.195 69.2096 584.329 69.8816 584.588 70.5086C584.847 71.1355 585.226 71.7052 585.705 72.1851C586.184 72.6649 586.752 73.0456 587.377 73.3053C588.002 73.565 588.673 73.6986 589.349 73.6986H608.217C609.584 73.6986 610.895 73.1542 611.861 72.1851C612.828 71.216 613.371 69.9016 613.371 68.531V34.832H613.696V28.4764Z" fill="#3F3D56"/>
<path d="M608.424 15.7246H605.961C606.075 16.003 606.118 16.3051 606.087 16.6042C606.057 16.9032 605.953 17.1902 605.786 17.4398C605.619 17.6893 605.393 17.8938 605.128 18.0352C604.864 18.1766 604.568 18.2505 604.268 18.2505H593.46C593.16 18.2505 592.864 18.1766 592.6 18.0352C592.335 17.8938 592.109 17.6893 591.942 17.4398C591.775 17.1902 591.671 16.9032 591.641 16.6042C591.61 16.3051 591.653 16.003 591.767 15.7246H589.466C588.961 15.7246 588.46 15.8244 587.993 16.0184C587.526 16.2123 587.102 16.4966 586.745 16.8549C586.387 17.2133 586.104 17.6387 585.91 18.1069C585.717 18.5751 585.617 19.077 585.617 19.5838V68.4951C585.617 69.0019 585.717 69.5037 585.91 69.9719C586.104 70.4401 586.387 70.8656 586.745 71.2239C587.102 71.5823 587.526 71.8665 587.993 72.0605C588.46 72.2544 588.961 72.3542 589.466 72.3542H608.424C608.93 72.3542 609.43 72.2544 609.897 72.0605C610.364 71.8665 610.789 71.5823 611.146 71.2239C611.503 70.8656 611.787 70.4401 611.98 69.9719C612.174 69.5037 612.273 69.0019 612.273 68.4951V19.5838C612.273 19.077 612.174 18.5751 611.98 18.1069C611.787 17.6387 611.503 17.2133 611.146 16.8549C610.789 16.4966 610.364 16.2123 609.897 16.0184C609.43 15.8244 608.93 15.7246 608.424 15.7246Z" fill="white"/>
<path d="M619.743 73.7071H578.148C578.119 73.7071 578.092 73.6955 578.071 73.675C578.051 73.6545 578.039 73.6266 578.039 73.5976C578.039 73.5686 578.051 73.5407 578.071 73.5202C578.092 73.4997 578.119 73.4882 578.148 73.4882H619.743C619.772 73.4882 619.8 73.4997 619.821 73.5202C619.841 73.5407 619.853 73.5686 619.853 73.5976C619.853 73.6266 619.841 73.6545 619.821 73.675C619.8 73.6955 619.772 73.7071 619.743 73.7071Z" fill="#CBCBCB"/>
<path d="M598.946 52.2181C604.038 52.2181 608.165 48.0796 608.165 42.9746C608.165 37.8696 604.038 33.7312 598.946 33.7312C593.854 33.7312 589.727 37.8696 589.727 42.9746C589.727 48.0796 593.854 52.2181 598.946 52.2181Z" fill="#606060"/>
<path d="M598.032 46.5006C597.824 46.501 597.622 46.4337 597.456 46.309L597.446 46.3012L595.279 44.6395C595.179 44.5623 595.095 44.4661 595.032 44.3564C594.968 44.2466 594.927 44.1254 594.911 43.9998C594.894 43.8741 594.902 43.7464 594.935 43.6239C594.968 43.5014 595.024 43.3866 595.101 43.286C595.178 43.1854 595.274 43.101 595.383 43.0375C595.493 42.9741 595.614 42.9329 595.739 42.9163C595.864 42.8997 595.992 42.908 596.114 42.9408C596.236 42.9735 596.351 43.0301 596.451 43.1072L597.854 44.1862L601.171 39.8484C601.248 39.7479 601.343 39.6635 601.453 39.6001C601.562 39.5367 601.683 39.4955 601.808 39.4789C601.934 39.4623 602.061 39.4706 602.183 39.5034C602.305 39.5361 602.42 39.5926 602.52 39.6697L602.52 39.6699L602.5 39.6986L602.521 39.6699C602.723 39.8259 602.856 40.0559 602.889 40.3096C602.922 40.5633 602.854 40.8199 602.699 41.0231L598.798 46.123C598.708 46.2405 598.592 46.3356 598.459 46.4009C598.326 46.4662 598.18 46.4999 598.032 46.4995L598.032 46.5006Z" fill="white"/>
<path d="M653.832 74.6156C653.944 74.4338 654.076 74.2651 654.225 74.1127C654.287 74.0486 654.352 73.9882 654.419 73.9294C654.827 73.5656 655.323 73.3173 655.859 73.2099C656.394 73.1025 656.948 73.14 657.463 73.3184C657.979 73.4968 658.439 73.8098 658.794 74.2251C659.149 74.6405 659.388 75.1432 659.485 75.6816C659.935 74.0121 658.763 72.3676 657.584 71.1045C656.405 69.8417 655.058 68.4565 655.065 66.7263C655.068 65.7635 655.538 64.9046 656.247 64.2678C656.269 64.2485 656.291 64.2292 656.313 64.2106C657.17 63.4739 658.273 63.0886 659.401 63.1315C661.497 63.2441 663.327 64.6565 664.598 66.3319C666.644 69.0276 667.541 72.8115 666.108 75.8801C664.849 78.579 662.162 80.1817 659.42 81.4701C659.037 81.65 658.655 81.8246 658.274 81.9937C658.271 81.9943 658.268 81.9961 658.266 81.9968C658.247 82.0049 658.229 82.013 658.212 82.0213C658.133 82.0561 658.054 82.091 657.976 82.1253L658.013 82.149L658.125 82.2222C658.086 82.1985 658.047 82.1755 658.008 82.1517C657.997 82.1445 657.984 82.1378 657.973 82.1306C656.626 81.3204 655.261 80.4633 654.33 79.1984C653.365 77.8851 652.977 76.004 653.832 74.6156Z" fill="#F1F1F1"/>
<path d="M662.818 71.5657C663.116 72.2459 663.314 72.966 663.405 73.7034C663.477 74.361 663.45 75.0255 663.325 75.6751C663.058 77.0099 662.475 78.2608 661.625 79.3225C660.983 80.1286 660.243 80.8502 659.421 81.4701C659.038 81.6501 658.656 81.8246 658.275 81.9937C658.272 81.9943 658.27 81.9961 658.267 81.9968C658.249 82.0049 658.23 82.013 658.213 82.0213C658.134 82.0561 658.056 82.091 657.978 82.1253L658.014 82.149L658.127 82.2222C658.088 82.1985 658.049 82.1755 658.01 82.1517C657.998 82.1445 657.986 82.1378 657.974 82.1306C658.271 81.0912 658.314 79.9957 658.101 78.9359C657.888 77.8761 657.425 76.8829 656.751 76.0396C656.073 75.2068 655.208 74.5466 654.227 74.1127C654.288 74.0486 654.353 73.9882 654.42 73.9294C654.798 74.1034 655.16 74.3105 655.501 74.5484C656.723 75.3948 657.64 76.613 658.117 78.0226C658.543 79.3015 658.596 80.6757 658.27 81.9838C658.338 81.9395 658.406 81.894 658.472 81.8488C659.726 81.0005 660.883 79.9817 661.754 78.7324C662.505 77.6765 662.986 76.4517 663.153 75.1657C663.32 73.7609 662.97 72.3795 662.344 71.1261C661.654 69.7851 660.783 68.5451 659.757 67.4405C658.727 66.3055 657.562 65.3012 656.288 64.4499C656.259 64.4305 656.239 64.4008 656.232 64.3669C656.224 64.333 656.23 64.2975 656.248 64.2678C656.262 64.2408 656.286 64.2202 656.314 64.2106C656.329 64.2069 656.344 64.2065 656.359 64.2095C656.374 64.2125 656.387 64.2188 656.399 64.2279C656.557 64.3331 656.713 64.4392 656.867 64.5485C658.149 65.4591 659.314 66.526 660.334 67.7246C661.32 68.8799 662.218 70.1635 662.818 71.5657Z" fill="white"/>
<path d="M635.36 18.6721C636.442 18.6721 637.318 17.7932 637.318 16.709C637.318 15.6249 636.442 14.746 635.36 14.746C634.279 14.746 633.402 15.6249 633.402 16.709C633.402 17.7932 634.279 18.6721 635.36 18.6721Z" fill="#F1F1F1"/>
<path d="M659.705 44.9424C660.365 44.9424 660.899 44.4065 660.899 43.7455C660.899 43.0845 660.365 42.5487 659.705 42.5487C659.046 42.5487 658.512 43.0845 658.512 43.7455C658.512 44.4065 659.046 44.9424 659.705 44.9424Z" fill="#F1F1F1"/>
<path d="M624.77 48.2261C625.429 48.2261 625.964 47.6902 625.964 47.0292C625.964 46.3682 625.429 45.8324 624.77 45.8324C624.111 45.8324 623.576 46.3682 623.576 47.0292C623.576 47.6902 624.111 48.2261 624.77 48.2261Z" fill="#F1F1F1"/>
<path d="M625.443 82.3544H667.038C667.067 82.3544 667.095 82.3429 667.115 82.3224C667.136 82.3018 667.147 82.274 667.147 82.245C667.147 82.2159 667.136 82.1881 667.115 82.1676C667.095 82.147 667.067 82.1355 667.038 82.1355H625.443C625.414 82.1355 625.386 82.147 625.366 82.1676C625.345 82.1881 625.334 82.2159 625.334 82.245C625.334 82.274 625.345 82.3018 625.366 82.3224C625.386 82.3429 625.414 82.3544 625.443 82.3544Z" fill="#CBCBCB"/>
<path d="M662.449 24.9577C662.504 24.569 662.414 24.1736 662.197 23.8466C661.981 23.5195 661.652 23.2836 661.273 23.1834C660.895 23.0832 660.493 23.1257 660.143 23.3029C659.794 23.4801 659.521 23.7797 659.377 24.1449L656.002 28.0246L656.992 30.7979L660.387 26.2646C660.608 26.3358 660.843 26.3574 661.073 26.3279C661.304 26.2984 661.526 26.2185 661.722 26.0939C661.919 25.9693 662.086 25.803 662.211 25.6067C662.337 25.4104 662.418 25.1889 662.449 24.9577Z" fill="#FFB7B7"/>
<path d="M648.458 40.0537L659.662 28.0647L658.151 25.6558L644.098 37.5719L648.458 40.0537Z" fill="#3F3D56"/>
<path d="M645.958 32.7693C648.128 32.7693 649.888 31.005 649.888 28.8287C649.888 26.6524 648.128 24.8882 645.958 24.8882C643.787 24.8882 642.027 26.6524 642.027 28.8287C642.027 31.005 643.787 32.7693 645.958 32.7693Z" fill="#2F2E41"/>
<path d="M646.273 26.6028C647.119 25.7429 648.143 25.0793 649.272 24.6588C649.996 24.3896 650.785 24.2233 651.543 24.3762C652.301 24.5291 653.017 25.0546 653.229 25.8C653.402 26.4095 653.223 27.0658 652.955 27.6395C652.687 28.2133 652.328 28.7453 652.112 29.3405C651.89 29.9478 651.824 30.6009 651.918 31.2405C652.012 31.8801 652.264 32.486 652.651 33.0032C653.038 33.5203 653.548 33.9324 654.134 34.2019C654.72 34.4715 655.364 34.59 656.008 34.5467C655.263 34.6467 654.577 34.9975 653.849 35.1842C653.122 35.3709 652.263 35.3583 651.722 34.8356C651.15 34.2825 651.138 33.3834 651.166 32.587C651.207 31.4032 651.248 30.2194 651.289 29.0356C651.31 28.4319 651.328 27.8088 651.111 27.2454C650.894 26.6819 650.378 26.1884 649.775 26.1936C649.319 26.1975 648.915 26.4748 648.548 26.7483C648.182 27.0218 647.795 27.3136 647.34 27.3543C646.885 27.395 646.366 27.0575 646.4 26.601L646.273 26.6028Z" fill="#2F2E41"/>
<path d="M631.03 55.2876C630.652 55.3927 630.25 55.3553 629.898 55.1827C629.546 55.01 629.27 54.714 629.122 54.3507C628.973 53.9874 628.962 53.5821 629.092 53.2116C629.222 52.8411 629.482 52.5311 629.825 52.3404L633.22 48.4783L636.092 49.1003L632.053 53.0669C632.152 53.2778 632.204 53.508 632.205 53.7412C632.206 53.9744 632.156 54.205 632.058 54.4167C631.961 54.6284 631.818 54.8161 631.64 54.9666C631.463 55.117 631.254 55.2266 631.03 55.2876Z" fill="#FFB7B7"/>
<path d="M642.2 41.4609L633.738 52.1113L631.158 50.9238L641.105 35.3976L642.2 41.4609Z" fill="#3F3D56"/>
<path d="M635.449 73.6207L633.432 73.589L633.674 80.4812H635.448L635.449 73.6207Z" fill="#FFB7B7"/>
<path d="M635.9 79.9005L632.406 79.9004H632.406C631.816 79.9004 631.249 80.1356 630.832 80.5542C630.414 80.9729 630.18 81.5406 630.18 82.1326V82.2052L635.9 82.2054L635.9 79.9005Z" fill="#2F2E41"/>
<path d="M648.801 71.7927L646.598 73.2109L651.005 78.5268L652.498 77.5658L648.801 71.7927Z" fill="#FFB7B7"/>
<path d="M652.565 76.832L649.625 78.7244L649.625 78.7245C649.128 79.0444 648.778 79.5491 648.653 80.1275C648.527 80.7059 648.635 81.3108 648.954 81.809L648.994 81.87L653.807 78.7716L652.565 76.832Z" fill="#2F2E41"/>
<path d="M649.586 50.7469C649.586 50.7469 644.69 34.4455 643.117 34.2252C641.544 34.0049 639.009 38.4079 639.009 38.4079C635.723 42.6121 632.334 56.2302 632.334 56.2302C632.334 56.2302 637.983 56.5846 642.113 58.7875C646.243 60.9905 651.116 58.676 651.116 58.676L649.586 50.7469Z" fill="#3F3D56"/>
<path opacity="0.1" d="M649.586 50.7469C649.586 50.7469 644.69 34.4454 643.117 34.2251C641.544 34.0048 639.653 38.4525 639.653 38.4525C638.015 45.239 632.334 56.2301 632.334 56.2301C632.334 56.2301 637.983 56.5846 642.113 58.7875C646.243 60.9904 651.116 58.6759 651.116 58.6759L649.586 50.7469Z" fill="black"/>
<path d="M645.57 45.8696V54.061L646.531 65.9268L651.335 74.9024L649.042 76.5443L642.492 68.0065L639.901 59.529L635.832 78.2957L632.775 78.0768L634.898 52.0571L638.927 44.7332L645.57 45.8696Z" fill="#2F2E41"/>
<path d="M640.635 37.9467C639.107 39.4791 640.526 41.121 640.526 41.121L638.779 45.0616L645.657 46.9224L648.061 36.154L646.423 34.4026C643.148 34.2932 643.146 34.2251 643.146 34.2251C642.572 34.7881 640.635 37.9467 640.635 37.9467Z" fill="#606060"/>
<path d="M648.336 35.0383C648.024 34.8071 647.669 34.6403 647.292 34.5477C646.915 34.455 646.523 34.4383 646.139 34.4985C645.756 34.5587 645.388 34.6946 645.057 34.8984C644.726 35.1021 644.439 35.3697 644.212 35.6855C642.483 38.0993 640.884 41.9971 643.087 46.8582C646.624 54.6637 649.702 58.6595 650.954 58.6591C651.008 58.6596 651.062 58.651 651.114 58.6338C651.885 58.3718 652.998 57.065 653.2 55.9134C653.272 55.5012 653.255 54.9271 652.763 54.5329C651.351 53.4004 648.816 49.8741 648.025 45.2328C647.588 42.6682 648.435 40.3321 649.223 38.824C649.556 38.2 649.654 37.4766 649.498 36.7864C649.342 36.0963 648.943 35.4856 648.374 35.0663L648.336 35.0383Z" fill="#3F3D56"/>
<path d="M646.16 32.3822C647.562 31.6138 648.077 29.8513 647.311 28.4456C646.544 27.04 644.786 26.5233 643.384 27.2918C641.982 28.0602 641.467 29.8226 642.233 31.2283C643 32.634 644.758 33.1506 646.16 32.3822Z" fill="#FFB7B7"/>
<path d="M640.703 29.6177H644.881L644.924 29.0163L645.138 29.6177H645.781L645.866 28.4258L646.29 29.6177H647.535V29.5586C647.534 28.7289 647.205 27.9334 646.62 27.3467C646.035 26.7599 645.241 26.4299 644.414 26.429H643.825C642.997 26.4299 642.204 26.7599 641.618 27.3466C641.033 27.9334 640.704 28.7289 640.703 29.5586V29.6177Z" fill="#2F2E41"/>
<path d="M646.903 31.7792L648.686 31.1992V26.8585H645.318L645.402 26.942C646.562 28.1034 647.852 32.2242 646.903 31.7792Z" fill="#2F2E41"/>
</g>
<g clip-path="url(#clip1_293_234)">
<path d="M109.76 63.9932C109.726 64.0324 109.691 64.0728 109.657 64.1131C109.185 64.6577 108.759 65.2399 108.383 65.8537C108.352 65.9007 108.323 65.9489 108.296 65.9959C107.405 67.4789 106.798 69.1135 106.507 70.8168C106.442 71.2021 106.393 71.5896 106.36 71.9794C106.336 72.2796 106.322 72.5801 106.317 72.8811C106.299 74.1445 106.412 75.5502 105.593 76.5157C105.374 76.7698 105.107 76.9784 104.807 77.1295C104.582 77.2459 104.343 77.3357 104.096 77.3972H101.544C101.416 77.3782 101.287 77.358 101.159 77.3379C101.156 77.3379 101.152 77.3367 101.149 77.3367L101.123 77.3457L100.969 77.3972L100.962 77.3995V77.3972C100.962 77.3927 100.962 77.3882 100.961 77.3838C100.961 77.3755 100.961 77.3673 100.96 77.3591V77.358C100.959 77.3356 100.958 77.3143 100.958 77.2919L100.954 77.2326C100.954 77.2326 100.953 77.2314 100.954 77.2314C100.953 77.1978 100.951 77.1642 100.95 77.1295C100.832 74.2061 101.12 71.1853 102.507 68.6113C102.982 67.7294 103.595 66.9277 104.321 66.2356C104.325 66.2312 104.33 66.2271 104.335 66.2233C105.777 64.8546 107.641 63.9596 109.609 63.9899C109.659 63.9899 109.71 63.991 109.76 63.9932Z" fill="#F0F0F0"/>
<path d="M109.767 64.0564C107.538 65.1944 105.727 67.0021 104.59 69.2228C104.336 69.6966 104.16 70.2071 104.066 70.7356C103.992 71.2534 104.058 71.7815 104.258 72.2652C104.435 72.7199 104.67 73.1645 104.733 73.6542C104.762 73.9054 104.737 74.1597 104.66 74.4005C104.583 74.6414 104.455 74.8633 104.286 75.0517C103.876 75.5322 103.318 75.8375 102.761 76.1172C102.143 76.4278 101.496 76.7406 101.067 77.3021C101.015 77.3702 100.912 77.2859 100.963 77.218C101.71 76.2411 103.025 76.028 103.921 75.2337C104.339 74.8631 104.647 74.3649 104.612 73.7911C104.582 73.2893 104.34 72.8305 104.157 72.3717C103.955 71.9027 103.871 71.3916 103.913 70.8831C103.979 70.3515 104.136 69.8351 104.376 69.3559C104.9 68.2683 105.593 67.2696 106.428 66.3961C107.377 65.3939 108.49 64.5605 109.721 63.932C109.797 63.8931 109.843 64.0178 109.767 64.0564Z" fill="white"/>
<path d="M104.914 68.4864C104.565 68.246 104.314 67.8901 104.205 67.4823C104.096 67.0745 104.136 66.6414 104.318 66.2603C104.355 66.1833 104.477 66.2371 104.44 66.3142C104.269 66.6688 104.232 67.0722 104.335 67.4517C104.437 67.8313 104.673 68.1618 104.998 68.3838C105.069 68.4321 104.984 68.5345 104.914 68.4864Z" fill="white"/>
<path d="M104.137 72.0464C104.992 71.9002 105.759 71.439 106.287 70.7547C106.34 70.6868 106.443 70.771 106.39 70.8388C105.84 71.5499 105.04 72.0283 104.15 72.1785C104.066 72.1928 104.053 72.0606 104.137 72.0464Z" fill="white"/>
<path d="M107.446 65.5556C107.561 65.6766 107.705 65.7671 107.864 65.8192C108.024 65.8712 108.193 65.8831 108.358 65.8537C108.443 65.8384 108.456 65.9706 108.372 65.9858C108.189 66.0174 108.002 66.0041 107.826 65.9469C107.649 65.8898 107.49 65.7907 107.361 65.6582C107.348 65.6467 107.34 65.6307 107.338 65.6133C107.337 65.596 107.341 65.5786 107.352 65.5648C107.363 65.5513 107.38 65.5427 107.397 65.541C107.415 65.5392 107.432 65.5445 107.446 65.5556Z" fill="white"/>
<path d="M115.977 72.0982C115.925 72.1094 115.873 72.1206 115.82 72.1329H115.819C115.114 72.2854 114.422 72.4945 113.75 72.7579C113.699 72.7781 113.647 72.7982 113.595 72.8195H113.594C111.993 73.4681 110.526 74.4053 109.267 75.5838C109.262 75.5883 109.258 75.5917 109.253 75.5962C109.251 75.5994 109.247 75.6024 109.244 75.6051L109.239 75.6107C108.739 76.0817 108.276 76.5894 107.853 77.1296C107.853 77.1307 107.852 77.1318 107.851 77.1329C107.783 77.2203 107.714 77.3077 107.647 77.3973H100.97L100.964 77.3995V77.3973H100.936C100.936 77.3961 100.937 77.395 100.938 77.3939C100.938 77.3928 100.939 77.3928 100.939 77.3917C100.947 77.3805 100.955 77.3693 100.961 77.3592V77.3581C100.963 77.3547 100.965 77.3516 100.968 77.3491C100.975 77.3379 100.983 77.3289 100.988 77.3189C101.033 77.2561 101.077 77.1923 101.122 77.1296C101.196 77.0254 101.27 76.9212 101.345 76.8182L101.345 76.8177L101.346 76.8174L101.346 76.8171L101.346 76.8171V76.8159C101.348 76.8148 101.348 76.8137 101.349 76.8126L101.351 76.8103C102.28 75.5312 103.324 74.317 104.521 73.3C104.557 73.2687 104.593 73.2373 104.631 73.2082C105.173 72.752 105.752 72.341 106.361 71.9794C106.695 71.7834 107.038 71.6035 107.391 71.4396C108.303 71.0215 109.275 70.7486 110.272 70.6309H110.274C110.276 70.6309 110.279 70.6297 110.282 70.6297C110.285 70.6297 110.288 70.6286 110.29 70.6286C112.272 70.4001 114.304 70.8022 115.859 72.0052C115.899 72.0366 115.938 72.0668 115.977 72.0982Z" fill="#F0F0F0"/>
<path d="M100.935 77.3972H100.963V77.3995L100.97 77.3972H102.757C102.224 77.3065 101.693 77.236 101.16 77.3379C101.148 77.3401 101.137 77.3424 101.124 77.3457C101.07 77.3558 101.016 77.3692 100.962 77.3838C100.959 77.3849 100.954 77.386 100.951 77.3872C100.946 77.3885 100.942 77.3908 100.938 77.3939C100.935 77.3943 100.932 77.3955 100.93 77.3972H100.935Z" fill="white"/>
<path d="M115.943 72.153C115.901 72.1463 115.86 72.1385 115.819 72.1329H115.818C114.949 71.992 114.068 71.9476 113.189 72.0007C113.145 72.0029 113.1 72.0063 113.055 72.0085C111.836 72.0931 110.637 72.3648 109.501 72.8139C109.5 72.8139 109.5 72.8139 109.5 72.815C109.488 72.8195 109.476 72.824 109.464 72.8284C109.2 72.9348 108.939 73.0513 108.683 73.1768C108.194 73.4033 107.744 73.7049 107.349 74.0706C107.033 74.381 106.794 74.7602 106.65 75.1784C106.635 75.2209 106.621 75.2624 106.607 75.3049C106.597 75.3385 106.587 75.3733 106.577 75.4069C106.444 75.8762 106.362 76.3713 106.116 76.8002C106.048 76.9199 105.965 77.0305 105.869 77.1295C105.77 77.2324 105.658 77.3223 105.536 77.3972H105.252C105.407 77.3305 105.551 77.2402 105.679 77.1295C105.778 77.0445 105.864 76.9461 105.936 76.8372C106.216 76.4183 106.301 75.9075 106.432 75.4315C106.453 75.3542 106.476 75.2792 106.5 75.2041C106.63 74.7934 106.848 74.4155 107.139 74.0964C107.513 73.7117 107.95 73.3932 108.432 73.1544C108.736 72.9953 109.048 72.8512 109.369 72.722C109.41 72.7041 109.452 72.6884 109.494 72.6728C111.517 71.8892 113.714 71.6587 115.857 72.0052C115.899 72.0108 115.939 72.0186 115.981 72.0254C116.065 72.0399 116.027 72.1676 115.943 72.153Z" fill="white"/>
<path d="M109.389 72.7822C109.256 72.3814 109.271 71.9467 109.43 71.5557C109.59 71.1647 109.884 70.8428 110.26 70.6476C110.336 70.6084 110.401 70.7244 110.325 70.7637C109.974 70.9448 109.7 71.2446 109.552 71.609C109.405 71.9734 109.392 72.3784 109.518 72.7509C109.546 72.8319 109.416 72.8627 109.389 72.7822Z" fill="white"/>
<path d="M106.614 75.1597C107.385 75.5549 108.277 75.6465 109.112 75.4163C109.195 75.3935 109.227 75.5225 109.144 75.5453C108.274 75.7832 107.346 75.686 106.545 75.2731C106.468 75.2336 106.538 75.1205 106.614 75.1597Z" fill="white"/>
<path d="M113.184 71.9596C113.203 72.1253 113.263 72.2838 113.358 72.4207C113.454 72.5577 113.582 72.6689 113.732 72.7443C113.809 72.7827 113.739 72.8957 113.662 72.8576C113.498 72.7735 113.356 72.6505 113.25 72.4995C113.144 72.3484 113.077 72.1738 113.054 71.9909C113.051 71.9738 113.054 71.956 113.063 71.9411C113.072 71.9262 113.086 71.9154 113.103 71.9107C113.12 71.9067 113.139 71.9095 113.154 71.9187C113.169 71.9278 113.18 71.9425 113.184 71.9596Z" fill="white"/>
<path d="M109.335 27.4798C109.365 23.7712 109.517 20.0268 109.79 16.2465C109.794 16.1715 109.8 16.0976 109.805 16.0225C109.95 14.0545 110.126 12.0795 110.335 10.0973V10.0861C110.334 9.75938 110.204 9.44611 109.972 9.21509C109.739 8.98407 109.425 8.8542 109.096 8.854H75.8887C75.5615 8.85464 75.2477 8.98389 75.0158 9.2136C74.7839 9.44332 74.6526 9.75489 74.6504 10.0805C74.3623 12.8101 74.1364 15.5263 73.9728 18.2291C73.966 18.3175 73.9615 18.4049 73.957 18.4934C73.876 19.8297 73.8114 21.1625 73.7634 22.4921C73.76 22.5705 73.7566 22.6489 73.7555 22.7273C73.4482 30.8848 73.7473 39.0538 74.6504 47.1674C74.6528 47.4928 74.7842 47.8042 75.0161 48.0336C75.248 48.2631 75.5616 48.3922 75.8887 48.3928H109.096C109.425 48.3926 109.739 48.2627 109.972 48.0317C110.204 47.8007 110.334 47.4874 110.335 47.1607V47.1484C110.171 45.7068 110.028 44.256 109.905 42.7957C109.887 42.5818 109.869 42.3679 109.852 42.1539C109.766 41.1022 109.691 40.0463 109.628 38.9864C109.614 38.7724 109.602 38.5585 109.59 38.3446C109.47 36.2231 109.391 34.0853 109.354 31.931C109.35 31.717 109.346 31.5042 109.343 31.2892C109.329 30.2374 109.325 29.1816 109.33 28.1216C109.33 27.9077 109.332 27.6937 109.335 27.4798Z" fill="#F0F0F0"/>
<path d="M119.34 17.2545C119.34 16.9278 119.209 16.6146 118.977 16.3835C118.745 16.1525 118.43 16.0227 118.102 16.0225H84.8943C84.5671 16.0231 84.2533 16.1523 84.0214 16.3821C83.7895 16.6118 83.6582 16.9233 83.656 17.2489C82.5349 27.8863 82.3491 38.3355 83.1 48.3927C83.1911 49.6371 83.2977 50.8752 83.4196 52.1069C83.4849 52.7666 83.5544 53.4245 83.6279 54.0805C83.6369 54.1656 83.6459 54.2507 83.656 54.3359C83.6584 54.6613 83.7898 54.9726 84.0217 55.2021C84.2536 55.4316 84.5672 55.5607 84.8943 55.5612H118.102C118.43 55.561 118.745 55.4312 118.977 55.2002C119.209 54.9691 119.34 54.6559 119.34 54.3292V54.3168C117.997 42.4698 117.997 30.0044 119.34 17.2657V17.2545Z" fill="white"/>
<path d="M119.34 17.2545C119.34 16.9278 119.209 16.6146 118.977 16.3835C118.745 16.1525 118.43 16.0227 118.102 16.0225H84.8943C84.5671 16.0231 84.2533 16.1523 84.0214 16.3821C83.7895 16.6118 83.6582 16.9233 83.656 17.2489C82.5349 27.8863 82.3491 38.3355 83.1 48.3927C83.1911 49.6371 83.2977 50.8752 83.4196 52.1069C83.4849 52.7666 83.5544 53.4245 83.6279 54.0805C83.6369 54.1656 83.6459 54.2507 83.656 54.3359C83.6584 54.6613 83.7898 54.9726 84.0217 55.2021C84.2536 55.4316 84.5672 55.5607 84.8943 55.5612H118.102C118.43 55.561 118.745 55.4312 118.977 55.2002C119.209 54.9691 119.34 54.6559 119.34 54.3292V54.3168C117.997 42.4698 117.997 30.0044 119.34 17.2657V17.2545ZM119.115 54.3359C119.113 54.602 119.005 54.8565 118.816 55.0441C118.626 55.2316 118.369 55.337 118.102 55.3372H84.8943C84.6257 55.3368 84.3683 55.2305 84.1784 55.0415C83.9884 54.8526 83.8816 54.5964 83.8812 54.3292V54.3168C83.8733 54.2451 83.8654 54.1723 83.8575 54.1007C83.7799 53.4152 83.7074 52.7278 83.6403 52.0386C83.5221 50.83 83.4174 49.6147 83.3262 48.3927C82.5754 38.3411 82.76 27.8987 83.8812 17.2657V17.2545C83.8816 16.9873 83.9884 16.7311 84.1784 16.5422C84.3683 16.3532 84.6257 16.2469 84.8943 16.2465H118.102C118.37 16.2466 118.626 16.352 118.816 16.5399C119.006 16.7277 119.113 16.9826 119.115 17.2489C117.772 29.9977 117.772 42.4765 119.115 54.3359Z" fill="#E4E4E4"/>
<path d="M87.1831 27.4799C87.0977 27.4801 87.0159 27.514 86.9555 27.5742C86.8952 27.6344 86.8613 27.7159 86.8613 27.8009C86.8613 27.8859 86.8952 27.9674 86.9555 28.0276C87.0159 28.0878 87.0977 28.1217 87.1831 28.122H114.169C114.255 28.1217 114.337 28.0878 114.397 28.0276C114.457 27.9674 114.491 27.8859 114.491 27.8009C114.491 27.7159 114.457 27.6344 114.397 27.5742C114.337 27.514 114.255 27.4801 114.169 27.4799H87.1831Z" fill="#E6E6E6"/>
<path d="M87.1834 29.4064C87.0979 29.4065 87.016 29.4404 86.9556 29.5006C86.8952 29.5608 86.8613 29.6424 86.8613 29.7274C86.8613 29.8125 86.8952 29.894 86.9556 29.9542C87.016 30.0144 87.0979 30.0483 87.1834 30.0485H105.503C105.589 30.0483 105.671 30.0144 105.731 29.9542C105.791 29.894 105.825 29.8125 105.825 29.7274C105.825 29.6424 105.791 29.5608 105.731 29.5006C105.671 29.4404 105.589 29.4065 105.503 29.4064H87.1834Z" fill="#E6E6E6"/>
<path d="M87.1834 31.2892C87.0979 31.2893 87.016 31.3232 86.9556 31.3834C86.8952 31.4436 86.8613 31.5252 86.8613 31.6102C86.8613 31.6953 86.8952 31.7769 86.9556 31.837C87.016 31.8972 87.0979 31.9311 87.1834 31.9313H114.169C114.255 31.9311 114.337 31.8972 114.397 31.837C114.458 31.7769 114.492 31.6953 114.492 31.6102C114.492 31.5252 114.458 31.4436 114.397 31.3834C114.337 31.3232 114.255 31.2893 114.169 31.2892H87.1834Z" fill="#E6E6E6"/>
<path d="M87.1831 33.2157C87.0977 33.2159 87.0159 33.2498 86.9555 33.31C86.8952 33.3702 86.8613 33.4517 86.8613 33.5368C86.8613 33.6218 86.8952 33.7033 86.9555 33.7635C87.0159 33.8237 87.0977 33.8576 87.1831 33.8578H105.503C105.588 33.8576 105.67 33.8237 105.731 33.7635C105.791 33.7033 105.825 33.6218 105.825 33.5368C105.825 33.4517 105.791 33.3702 105.731 33.31C105.67 33.2498 105.588 33.2159 105.503 33.2157H87.1831Z" fill="#E6E6E6"/>
<path d="M87.1831 38.3446C87.0977 38.3448 87.0159 38.3788 86.9555 38.4389C86.8952 38.4991 86.8613 38.5807 86.8613 38.6657C86.8613 38.7507 86.8952 38.8322 86.9555 38.8924C87.0159 38.9526 87.0977 38.9865 87.1831 38.9867H114.169C114.255 38.9865 114.337 38.9526 114.397 38.8924C114.457 38.8322 114.491 38.7507 114.491 38.6657C114.491 38.5807 114.457 38.4991 114.397 38.4389C114.337 38.3788 114.255 38.3448 114.169 38.3446H87.1831Z" fill="#E6E6E6"/>
<path d="M87.1834 40.2711C87.0979 40.2713 87.016 40.3052 86.9556 40.3654C86.8952 40.4256 86.8613 40.5071 86.8613 40.5922C86.8613 40.6772 86.8952 40.7588 86.9556 40.819C87.016 40.8792 87.0979 40.9131 87.1834 40.9132H105.503C105.589 40.9131 105.671 40.8792 105.731 40.819C105.791 40.7588 105.825 40.6772 105.825 40.5922C105.825 40.5071 105.791 40.4256 105.731 40.3654C105.671 40.3052 105.589 40.2713 105.503 40.2711H87.1834Z" fill="#E6E6E6"/>
<path d="M87.1834 42.1541C87.0979 42.1542 87.016 42.1881 86.9556 42.2483C86.8952 42.3085 86.8613 42.3901 86.8613 42.4751C86.8613 42.5601 86.8952 42.6417 86.9556 42.7019C87.016 42.7621 87.0979 42.796 87.1834 42.7962H114.169C114.255 42.796 114.337 42.7621 114.397 42.7019C114.458 42.6417 114.492 42.5601 114.492 42.4751C114.492 42.3901 114.458 42.3085 114.397 42.2483C114.337 42.1881 114.255 42.1542 114.169 42.1541H87.1834Z" fill="#E6E6E6"/>
<path d="M87.1831 44.0804C87.0977 44.0807 87.0159 44.1146 86.9555 44.1748C86.8952 44.235 86.8613 44.3165 86.8613 44.4015C86.8613 44.4865 86.8952 44.568 86.9555 44.6282C87.0159 44.6884 87.0977 44.7223 87.1831 44.7225H105.503C105.588 44.7223 105.67 44.6884 105.731 44.6282C105.791 44.568 105.825 44.4865 105.825 44.4015C105.825 44.3165 105.791 44.235 105.731 44.1748C105.67 44.1146 105.588 44.0807 105.503 44.0804H87.1831Z" fill="#E6E6E6"/>
<path d="M92.5213 23.4935H87.367C87.3003 23.4934 87.2363 23.467 87.1891 23.42C87.1419 23.373 87.1153 23.3093 87.1152 23.2429V22.4212C87.1153 22.3548 87.1419 22.2911 87.1891 22.2441C87.2363 22.1971 87.3003 22.1707 87.367 22.1707H92.5213C92.5881 22.1707 92.6521 22.1971 92.6993 22.2441C92.7465 22.2911 92.773 22.3548 92.7731 22.4212V23.2429C92.773 23.3093 92.7465 23.373 92.6993 23.42C92.6521 23.467 92.5881 23.4934 92.5213 23.4935Z" fill="#606060"/>
<path d="M110.428 49.9246L108.849 50.4438C108.586 50.5303 108.323 50.6168 108.06 50.7034C107.816 50.7832 107.552 50.8782 107.291 50.8438C107.111 50.8201 106.905 50.7169 106.849 50.5323C106.796 50.3576 106.909 50.1749 107.045 50.0716C107.422 49.7864 107.898 50.0767 108.165 50.372C108.492 50.7333 108.677 51.1996 108.983 51.5777C109.256 51.9168 109.601 52.1907 109.994 52.3792C110.776 52.7463 111.729 52.7073 112.426 52.1723C113.258 51.5336 113.343 50.4265 113.347 49.4606C113.346 49.4171 113.327 49.3758 113.296 49.3455C113.264 49.3153 113.222 49.2983 113.178 49.2983C113.135 49.2983 113.092 49.3153 113.061 49.3455C113.029 49.3758 113.011 49.4171 113.009 49.4606C113.005 50.336 112.955 51.4091 112.153 51.9568C111.385 52.4815 110.375 52.3423 109.668 51.7833C109.273 51.4718 109.031 51.0655 108.772 50.6449C108.519 50.2342 108.206 49.8362 107.73 49.6765C107.526 49.6027 107.303 49.6013 107.098 49.6725C106.893 49.7436 106.72 49.883 106.606 50.067C106.554 50.1538 106.522 50.2506 106.51 50.351C106.499 50.4513 106.509 50.5529 106.541 50.649C106.572 50.7451 106.623 50.8334 106.692 50.9082C106.76 50.9829 106.843 51.0423 106.936 51.0825C107.488 51.3439 108.118 51.0376 108.649 50.863L110.518 50.2487C110.723 50.1811 110.635 49.8565 110.428 49.9246Z" fill="#606060"/>
<path d="M105.75 74.6223L104.643 74.9852L102.709 70.9093L104.343 70.3737L105.75 74.6223Z" fill="#9F616A"/>
<path d="M106.539 75.5479L106.463 75.3205L106.265 74.7213L106.13 74.3136L105.761 74.4346L105.684 74.429L104.67 74.3606L104.535 74.3517L104.335 74.3382L104.127 74.3237L103.549 75.1604H103.548C103.331 75.2305 103.131 75.3426 102.959 75.4903C102.787 75.6379 102.645 75.8182 102.544 76.0206C102.531 76.0452 102.52 76.0699 102.509 76.0945C102.481 76.1548 102.457 76.2169 102.438 76.2805C102.35 76.5549 102.334 76.847 102.39 77.1295C102.405 77.1995 102.423 77.2687 102.446 77.3367L102.449 77.3479L102.463 77.3893L102.544 77.3624L103.255 77.1295L105.747 76.3129L106.241 76.1505L106.393 76.1001H106.395L106.689 76.0038L106.539 75.5479Z" fill="#2F2E41"/>
<path d="M95.2552 75.5805L94.0897 75.5804L93.5352 71.1071L95.2554 71.1072L95.2552 75.5805Z" fill="#9F616A"/>
<path d="M93.3912 55.9704L92.8745 56.8597C92.8745 56.8597 92.3068 57.0141 92.4923 58.8556C92.6234 60.1559 92.6659 65.9781 92.9957 69.7605C93.133 71.3348 93.3201 72.5556 93.584 72.9502L93.7465 73.095L95.4426 73.2563L95.4854 73.2414L96.1082 68.8645C96.22 68.0788 96.2032 67.2803 96.0586 66.5L95.946 65.2679L97.5077 59.0294C97.5077 59.0294 99.0979 63.0277 100.111 66.836C100.355 67.7527 101.281 68.3358 101.633 69.1224C101.75 69.386 101.866 69.6414 101.979 69.8864C102.721 71.5 103.094 72.6748 103.376 72.7724H103.601L104.951 72.3244L105.217 71.6596L103.15 65.6039L101.603 55.8262C98.6537 54.2485 95.8874 54.0729 93.3912 55.9704Z" fill="#2F2E41"/>
<path d="M101.838 42.7958C101.736 42.5726 101.617 42.358 101.48 42.154C101.168 41.6703 100.735 41.2761 100.223 41.0104L99.7792 40.9129L98.9844 40.7382L98.5657 40.2711L97.879 39.5061H95.5151L95.1988 40.2711L94.9331 40.9129L94.8194 41.1862L92.7955 42.1932C92.7943 42.1932 92.7943 42.1932 92.7932 42.1943C92.8202 42.3959 92.8469 42.5964 92.8731 42.7958C92.9305 43.2292 92.9846 43.6575 93.0352 44.0805C93.0611 44.2956 93.0859 44.5095 93.1095 44.7223C93.1849 45.3899 93.2498 46.0459 93.3043 46.6903C93.3527 47.266 93.3913 47.8335 93.4202 48.3928C93.4906 49.663 93.4959 50.9359 93.436 52.2067C93.4202 52.5057 93.7185 52.8462 93.6949 53.1386C93.6555 53.6157 93.2851 54.0391 93.2198 54.495C93.1793 54.775 93.1973 55.073 93.1264 55.3373C93.1067 55.4146 93.0772 55.4892 93.0386 55.5591C93.0386 55.5602 93.0375 55.5602 93.0375 55.5613C92.227 57.0017 92.863 56.314 92.7876 56.6377L92.8236 56.6467C92.8405 56.6511 92.8923 56.6646 92.9756 56.6836C93.4517 56.7968 95.4149 54.9632 96.7331 54.9632C97.5244 54.9632 99.6193 56.258 100.321 56.3521C100.876 56.426 101.371 56.4932 101.666 56.2345C101.751 56.159 101.817 56.0636 101.856 55.9567L101.859 55.9466L101.858 55.9365L101.83 55.5613L101.813 55.3373L101.572 52.1227C101.438 51.9567 101.353 51.7565 101.327 51.5448C101.301 51.3332 101.335 51.1185 101.426 50.9253L101.476 50.8211L101.293 48.3928L101.259 47.9392L101.247 47.7857V47.7846L101.159 46.6119L101.371 45.9712V45.9701L101.783 44.7223L101.995 44.0805L102.127 43.6773L102.136 43.6504C102.065 43.3564 101.966 43.0702 101.838 42.7958Z" fill="#606060"/>
<path d="M103.892 54.3785L101.622 48.5427L100.568 46.4117L102.595 45.2976L104.227 48.1593L105.322 54.1384C105.494 54.2554 105.627 54.421 105.704 54.6139C105.781 54.8068 105.798 55.0181 105.754 55.2208C105.709 55.4235 105.604 55.6083 105.453 55.7514C105.302 55.8945 105.112 55.9894 104.906 56.0239C104.7 56.0584 104.489 56.031 104.299 55.9451C104.109 55.8592 103.95 55.7188 103.841 55.5419C103.732 55.365 103.678 55.1597 103.687 54.9524C103.696 54.7451 103.768 54.5452 103.892 54.3785Z" fill="#9F616A"/>
<path d="M103.938 46.3386L103.357 45.9645L102.689 44.7223L102.345 44.0805L102.128 43.6773L102.035 43.5048L100.992 42.7958L100.287 42.3164L99.713 42.7958L99.4395 43.0243L99.7074 44.0805L99.8695 44.7223L100.223 46.1146L101.26 47.9392L101.517 48.3928L101.665 48.6538L101.666 48.6561L101.686 48.6908L104.306 48.5821L104.388 48.5788L104.392 48.3928L104.395 48.3256C104.396 48.292 104.396 48.2584 104.396 48.2248C104.395 47.5688 104.238 46.9223 103.938 46.3386Z" fill="#606060"/>
<path d="M84.112 52.0576L88.7545 47.8365L90.3679 46.0862L92.1465 47.5614L90.0584 50.113L84.8555 53.2964C84.8084 53.4986 84.7017 53.6821 84.549 53.8234C84.3962 53.9647 84.2045 54.0574 83.9985 54.0895C83.7925 54.1216 83.5815 54.0916 83.3927 54.0035C83.2039 53.9154 83.0458 53.7731 82.9389 53.5949C82.832 53.4168 82.7811 53.2109 82.7926 53.0037C82.8042 52.7965 82.8778 52.5975 83.0039 52.4322C83.13 52.2669 83.3029 52.1429 83.5004 52.0762C83.6978 52.0094 83.9108 52.0029 84.112 52.0576Z" fill="#9F616A"/>
<path d="M93.6962 44.7222L93.6872 44.0804L93.6703 42.7957L93.6636 42.2973L93.6444 42.2838C93.5396 42.2154 93.4208 42.171 93.2966 42.1539C93.1874 42.1359 93.076 42.1359 92.9668 42.1539C92.9092 42.1628 92.8524 42.1759 92.7968 42.1931C92.7957 42.1931 92.7957 42.1931 92.7946 42.1942C92.4609 42.3134 92.1662 42.521 91.9424 42.7946L91.9413 42.7957C91.6037 43.1952 91.3045 43.6254 91.0475 44.0804C90.9203 44.2955 90.7987 44.5128 90.685 44.7222C90.255 45.5186 89.9455 46.2086 89.9398 46.2209L88.6543 47.882L88.6723 47.9122L88.9549 48.3927L89.9905 50.1546L90.1548 50.4346L90.5747 50.2117C91.0642 49.9519 91.4501 49.5339 91.6689 49.0267L91.8186 48.4577L91.8738 48.3927L93.3056 46.6902L93.7154 46.2019L93.6962 44.7222Z" fill="#606060"/>
<path d="M98.6018 37.3141C98.7935 36.1386 97.9912 35.0311 96.8098 34.8403C95.6285 34.6496 94.5154 35.4478 94.3237 36.6233C94.132 37.7988 94.9342 38.9063 96.1156 39.0971C97.297 39.2879 98.41 38.4896 98.6018 37.3141Z" fill="#9F616A"/>
<path d="M94.3673 35.5551C94.271 35.2197 94.0784 34.9322 94.1747 34.9322C94.271 34.9322 94.3192 34.6926 94.3192 34.6926C94.3192 34.6926 94.4155 34.6447 94.4636 34.6926C94.5118 34.7406 94.5599 34.3572 94.5599 34.3572C94.5599 34.3572 94.6081 34.2135 94.6562 34.3093C94.7044 34.4052 94.7044 34.3572 94.7526 34.2135C94.8007 34.0697 95.0415 33.9739 95.0415 33.9739C95.0415 33.9739 95.9565 34.0218 96.1009 33.8301C96.2454 33.6385 97.8827 33.7822 98.2198 34.0218C98.5569 34.2614 99.885 34.6897 99.097 36.0338C99.5473 36.8179 98.8751 38.2163 98.7014 38.3822C98.4267 38.6446 98.2366 38.7392 96.9369 38.9965C96.6826 39.0468 96.0577 36.9299 96.0577 36.9299C96.0577 36.9299 94.4636 35.8906 94.3673 35.5551Z" fill="#2F2E41"/>
<path d="M95.3271 75.4057L95.2573 75.3777L94.0033 74.8691L93.8108 74.7919L92.9981 75.4057H92.9969C92.5377 75.4062 92.0975 75.588 91.7729 75.9112C91.4483 76.2344 91.2659 76.6726 91.2656 77.1295V77.1855H95.7154V75.4057H95.3271Z" fill="#2F2E41"/>
<path d="M108.406 77.2628C108.406 77.2804 108.402 77.2978 108.396 77.3141C108.389 77.3303 108.379 77.3451 108.367 77.3576C108.354 77.3701 108.339 77.38 108.323 77.3868C108.307 77.3936 108.289 77.3971 108.272 77.3972H85.3865C85.3508 77.3972 85.3166 77.3831 85.2914 77.358C85.2661 77.3329 85.252 77.2989 85.252 77.2634C85.252 77.2279 85.2661 77.1938 85.2914 77.1687C85.3166 77.1436 85.3508 77.1295 85.3865 77.1295H108.272C108.307 77.1296 108.341 77.1437 108.366 77.1686C108.391 77.1936 108.405 77.2275 108.406 77.2628Z" fill="#CCCCCC"/>
<path d="M84.7797 8.854C84.6025 11.9865 83.4453 14.9855 81.47 17.431C79.4947 19.8766 76.8001 21.6462 73.7637 22.4921C73.7604 22.5705 73.757 22.6489 73.7559 22.7273C76.8552 21.8789 79.6084 20.0833 81.6268 17.5941C83.6452 15.1048 84.8268 12.0475 85.0048 8.854H84.7797Z" fill="white"/>
<path d="M81.3314 8.854C80.8082 10.8317 79.8861 12.6828 78.621 14.2945C77.3559 15.9062 75.7744 17.2449 73.9728 18.2291C73.966 18.3175 73.9615 18.4049 73.957 18.4934C75.8242 17.495 77.4638 16.1234 78.7729 14.4646C80.082 12.8058 81.0324 10.8956 81.5644 8.854H81.3314Z" fill="white"/>
</g>
<rect x="0.5" y="83.1674" width="150" height="22.8485" rx="11.4242" fill="#C17B3A" fill-opacity="0.2"/>
<path d="M65.5149 93.5354H70.8269V94.8154H65.5149V93.5354ZM64.4749 98.7834L66.1709 99.1834C65.3229 100.767 63.6909 101.903 61.9149 102.607C61.6909 102.239 61.1309 101.551 60.7949 101.247C62.3949 100.767 63.8509 99.9194 64.4749 98.7834ZM64.3469 96.5754V97.5834H66.3949V96.5754H64.3469ZM62.7789 95.3434H68.0429V98.7994H62.7789V95.3434ZM70.2829 96.5754V97.5834H72.3789V96.5754H70.2829ZM68.7149 95.3434H74.0429V98.7994H68.7149V95.3434ZM64.1069 100.607L65.2269 99.4874C66.1389 99.9194 67.2749 100.575 67.9309 101.007L66.8109 102.271C66.1709 101.791 65.0029 101.055 64.1069 100.607ZM70.7149 98.8474L72.4109 99.1354C71.7869 100.799 70.4269 101.951 68.7469 102.639C68.5229 102.303 67.9469 101.663 67.5949 101.391C69.0989 100.895 70.2669 100.063 70.7149 98.8474ZM70.2189 100.863L71.3549 99.6314C72.7629 100.031 74.5229 100.687 75.6109 101.151L74.4589 102.495C73.4509 101.983 71.6269 101.279 70.2189 100.863ZM63.3549 88.5274H68.3309V89.9514H63.3549V88.5274ZM69.9149 88.5434H75.7549V89.9674H69.9149V88.5434ZM63.1789 87.4554L64.9549 87.9194C64.3309 89.5034 63.2909 91.0874 62.3309 92.0954C61.9789 91.8074 61.2109 91.3114 60.7629 91.0714C61.7709 90.1914 62.6669 88.8154 63.1789 87.4554ZM69.9949 87.4714L71.8029 87.9194C71.3389 89.1194 70.4909 90.3194 69.6909 91.0714C69.3389 90.7674 68.5709 90.2554 68.1389 90.0314C68.9229 89.3914 69.6109 88.4314 69.9949 87.4714ZM64.2349 90.3994L65.6909 89.6474C66.0269 90.1114 66.3949 90.7514 66.5389 91.1674L65.0029 91.9994C64.8749 91.5674 64.5389 90.8954 64.2349 90.3994ZM71.4029 90.4474L72.8909 89.6954C73.3709 90.2234 73.9469 90.9594 74.2029 91.4554L72.6349 92.2874C72.4109 91.7754 71.8829 91.0074 71.4029 90.4474ZM69.2429 91.5194C70.6349 92.4474 73.3869 93.1994 75.8509 93.5034C75.4509 93.8714 74.9549 94.5914 74.6989 95.0394C72.2189 94.5914 69.4989 93.5194 67.8669 92.1594L69.2429 91.5194ZM68.1549 90.4794L69.6749 91.2794C67.7869 93.0714 64.8429 94.3674 62.0589 95.1354C61.8349 94.6874 61.3869 94.0474 60.9869 93.6314C63.6109 93.0554 66.5869 91.9514 68.1549 90.4794ZM80.8749 92.4634H86.0749V93.9194H80.8749V92.4634ZM80.8749 94.6394H86.0429V96.0794H80.8749V94.6394ZM80.1869 90.2394H86.5069V91.7594H80.1869V90.2394ZM81.7709 96.8474H85.9949V101.711H81.7709V100.175H84.3469V98.3834H81.7709V96.8474ZM80.8909 96.8474H82.5229V102.399H80.8909V96.8474ZM81.9149 88.2234L83.4029 87.5034C83.8509 88.1754 84.3309 89.0554 84.5869 89.6474L83.0349 90.4954C82.8269 89.8874 82.3149 88.9114 81.9149 88.2234ZM86.8269 88.7994H95.0829V90.6714H86.8269V88.7994ZM91.0509 89.4074H93.0029V100.111C93.0029 101.215 92.7629 101.775 92.0269 102.079C91.2909 102.399 90.2029 102.431 88.6349 102.431C88.5389 101.887 88.1869 100.959 87.8829 100.447C88.9709 100.527 90.2349 100.511 90.5869 100.495C90.9229 100.479 91.0509 100.383 91.0509 100.079V89.4074ZM102.779 92.7514H110.811V94.5114H102.779V92.7514ZM102.587 100.111H110.843V101.887H102.587V100.111ZM101.739 95.8874H112.107V102.511H110.059V97.5834H103.691V102.575H101.739V95.8874ZM106.907 87.5034L108.619 88.3834C106.667 91.2154 103.675 93.4554 100.635 94.8954C100.315 94.3514 99.7709 93.6154 99.2269 93.1354C102.187 91.9674 105.211 89.9994 106.907 87.5034ZM107.563 88.6074C109.787 90.8314 112.091 92.0474 114.443 92.8954C113.963 93.3434 113.403 94.0474 113.131 94.6554C110.715 93.5354 108.443 92.1594 105.931 89.4554L107.563 88.6074ZM126.379 90.4474H131.883V92.2554H126.379V90.4474ZM131.115 90.4474H133.067C133.067 90.4474 133.051 91.1194 133.051 91.3594C132.875 98.2714 132.683 100.751 132.075 101.567C131.611 102.191 131.163 102.367 130.507 102.479C129.899 102.575 128.907 102.559 127.979 102.527C127.947 101.983 127.691 101.151 127.339 100.607C128.331 100.687 129.211 100.687 129.643 100.687C129.947 100.687 130.139 100.639 130.299 100.431C130.795 99.8874 130.971 97.2474 131.115 90.8314V90.4474ZM126.827 87.5834L128.715 87.9674C128.155 90.4154 127.179 92.8634 126.075 94.4154C125.707 94.1114 124.891 93.5674 124.427 93.3114C125.531 91.9674 126.379 89.7594 126.827 87.5834ZM126.107 94.9914L127.419 93.9994C128.475 94.9914 129.739 96.3834 130.267 97.3594L128.859 98.4794C128.379 97.4874 127.179 96.0314 126.107 94.9914ZM123.035 93.9994L124.523 93.6154C124.955 94.7194 125.419 96.1594 125.579 97.0394L123.979 97.5194C123.851 96.6074 123.435 95.1354 123.035 93.9994ZM121.467 98.3994L122.955 97.9994C123.211 99.1674 123.435 100.607 123.515 101.599L121.931 102.031C121.883 101.039 121.675 99.5354 121.467 98.3994ZM119.467 98.1434L121.131 98.4794C120.907 99.8554 120.475 101.391 120.091 102.367C119.707 102.159 118.907 101.919 118.475 101.791C118.907 100.879 119.275 99.4234 119.467 98.1434ZM119.067 93.9354C118.971 93.5834 118.699 92.7194 118.475 92.2554C118.811 92.1754 119.099 91.8874 119.467 91.4074C119.851 90.9594 120.987 89.2154 121.675 87.5194L123.419 88.2714C122.523 89.9834 121.291 91.7754 120.139 93.0074V93.0554C120.139 93.0554 119.067 93.5994 119.067 93.9354ZM119.067 93.9354L119.019 92.6234L119.803 92.1114L122.715 91.9034C122.603 92.3674 122.539 93.0394 122.523 93.4074C119.931 93.6634 119.387 93.7914 119.067 93.9354ZM119.131 97.6474C119.035 97.2954 118.731 96.3994 118.523 95.9034C118.955 95.8074 119.339 95.4714 119.915 94.8954C120.523 94.3194 122.363 92.1114 123.563 89.9034L125.147 90.9594C123.803 93.0714 122.011 95.1834 120.299 96.7194V96.7674C120.299 96.7674 119.131 97.3114 119.131 97.6474ZM119.131 97.6474L119.019 96.2394L119.851 95.6794L124.475 95.0394C124.411 95.5194 124.363 96.2234 124.379 96.6074C120.219 97.2634 119.547 97.4394 119.131 97.6474ZM123.419 98.0954L124.795 97.5994C125.195 98.5434 125.627 99.7594 125.819 100.575L124.363 101.119C124.187 100.319 123.771 99.0554 123.419 98.0954Z" fill="#756E6E"/>
<g clip-path="url(#clip2_293_234)">
<path d="M40.3429 50.3226C40.3429 48.9008 39.5597 47.5995 38.3066 46.9248C37.0535 46.25 35.5353 46.3223 34.3545 47.1176L22.7875 54.8289C21.0042 56.0097 20.5343 58.3954 21.7151 60.1787C22.8959 61.9619 25.2937 62.4319 27.0649 61.251L32.6315 57.5279V92.7351H24.9201C22.7875 92.7351 21.0645 94.4581 21.0645 96.5908C21.0645 98.7235 22.7875 100.446 24.9201 100.446H36.4872H48.0542C50.1869 100.446 51.9099 98.7235 51.9099 96.5908C51.9099 94.4581 50.1869 92.7351 48.0542 92.7351H40.3429V50.3226Z" fill="#424242"/>
</g>
<g clip-path="url(#clip3_293_234)">
<path d="M472.565 15.7443C472.555 18.8266 472.347 21.9051 471.942 24.9606C471.927 25.0679 471.912 25.1752 471.898 25.2825H443.099C443.014 25.1765 442.93 25.0692 442.849 24.9606C442.578 24.6012 442.324 24.2315 442.091 23.8488C440.968 22.0053 440.447 19.8424 440.949 18.3454L440.958 18.3221C441.066 17.9943 441.238 17.6912 441.464 17.4301C442.619 16.1115 444.972 16.317 447.112 17.3642C445.186 15.275 443.647 12.6339 443.518 10.2693C443.392 7.963 444.586 6.30823 445.884 4.90038C445.926 4.85384 445.969 4.80859 446.012 4.76334C446.032 4.74007 446.054 4.71809 446.075 4.69482C447.087 3.62181 448.269 2.56301 449.988 2.68066C451.874 2.80994 453.972 4.38068 455.448 6.21644C456.923 8.05091 457.909 10.1388 458.907 12.1762C459.906 14.2124 460.987 16.3002 462.583 18.0364C460.42 15.3254 458.671 12.237 458.014 9.22735C457.358 6.21774 457.905 3.3206 459.811 1.89077C460.39 1.46997 461.061 1.19424 461.768 1.08665C461.85 1.07243 461.934 1.0608 462.019 1.05046C463.79 0.838445 465.909 1.44088 467.717 2.89915C469.709 4.50479 471.097 6.89387 471.793 9.1653C472.49 11.4367 472.575 13.6267 472.565 15.7443Z" fill="#F2F2F2"/>
<path d="M453.778 25.2826H453.227C453.051 25.174 452.875 25.0667 452.698 24.9607C452.588 24.8921 452.478 24.8262 452.367 24.759C450.534 23.6511 448.69 22.5888 446.835 21.5723C444.981 20.5548 443.119 19.5848 441.247 18.6622C441.198 18.6409 441.157 18.6028 441.133 18.5546C441.108 18.5065 441.101 18.4512 441.113 18.3985C441.115 18.3915 441.118 18.385 441.122 18.3791C441.148 18.3299 441.206 18.3093 441.291 18.3506C441.521 18.4644 441.752 18.5782 441.981 18.6945C443.858 19.6331 445.727 20.619 447.588 21.6524C449.448 22.6854 451.297 23.7644 453.137 24.8896C453.175 24.9128 453.214 24.9374 453.253 24.9607C453.428 25.068 453.602 25.1753 453.778 25.2826Z" fill="white"/>
<path d="M460.877 25.2826H460.537C460.459 25.1753 460.383 25.068 460.306 24.9607C458.487 22.4346 456.669 19.9085 454.851 17.3824C451.874 13.2467 448.898 9.11108 445.923 4.97545C445.906 4.9532 445.892 4.92773 445.884 4.90047C445.859 4.80868 445.926 4.75438 446.012 4.76343C446.049 4.76844 446.084 4.78118 446.115 4.80079C446.146 4.82041 446.172 4.84646 446.193 4.8772C447.862 7.19646 449.53 9.51486 451.198 11.8324C454.16 15.9474 457.121 20.0619 460.081 24.176C460.27 24.4371 460.458 24.6995 460.646 24.9607C460.724 25.068 460.801 25.1753 460.877 25.2826Z" fill="white"/>
<path d="M468.452 23.258C468.438 23.8333 468.403 24.3996 468.357 24.9606C468.348 25.0679 468.339 25.1752 468.33 25.2825H467.972C467.983 25.1752 467.993 25.0679 468.002 24.9606C468.073 24.1501 468.122 23.3304 468.125 22.4888C468.121 20.1555 467.881 17.8287 467.409 15.5439C466.906 13.0839 466.191 10.6724 465.272 8.33664C464.306 5.87316 463.146 3.49113 461.801 1.21337C461.775 1.17626 461.764 1.13139 461.769 1.08667C461.783 0.984543 461.918 0.953517 462.02 1.05048C462.04 1.0695 462.057 1.09126 462.072 1.11512C462.238 1.39824 462.401 1.68222 462.562 1.96706C463.857 4.25778 464.969 6.6484 465.886 9.11619C466.759 11.4598 467.426 13.8753 467.881 16.3351C468.307 18.6172 468.498 20.9369 468.452 23.258Z" fill="white"/>
<path d="M493.319 24.9606H415.029C414.731 24.9608 414.445 25.0797 414.234 25.2911C414.023 25.5024 413.905 25.789 413.904 26.0879V79.2629C413.905 79.5618 414.023 79.8484 414.234 80.0598C414.445 80.2711 414.731 80.39 415.029 80.3903H493.319C493.482 80.3903 493.643 80.3549 493.79 80.2866C493.938 80.2183 494.069 80.1187 494.174 79.9947C494.183 79.9849 494.192 79.9746 494.199 79.9636C494.266 79.8814 494.32 79.7894 494.36 79.6908C494.417 79.5553 494.446 79.4098 494.445 79.2629V26.0879C494.445 25.7888 494.326 25.502 494.115 25.2907C493.904 25.0793 493.618 24.9606 493.319 24.9606ZM494.124 79.2629C494.124 79.4202 494.078 79.574 493.991 79.7051C493.914 79.8204 493.809 79.9146 493.687 79.9791C493.573 80.038 493.447 80.0686 493.319 80.0683H415.029C414.816 80.0681 414.612 79.9831 414.461 79.8322C414.31 79.6812 414.226 79.4765 414.225 79.2629V26.0879C414.226 25.8744 414.31 25.6697 414.461 25.5187C414.612 25.3677 414.816 25.2827 415.029 25.2825H493.319C493.532 25.2824 493.737 25.3673 493.888 25.5183C494.039 25.6693 494.124 25.8742 494.124 26.0879V79.2629Z" fill="#3F3D56"/>
<path d="M494.284 29.4789H414.064V29.8012H494.284V29.4789Z" fill="#3F3D56"/>
<path d="M416.797 28.3445C417.329 28.3445 417.761 27.9116 417.761 27.3777C417.761 26.8437 417.329 26.4109 416.797 26.4109C416.264 26.4109 415.832 26.8437 415.832 27.3777C415.832 27.9116 416.264 28.3445 416.797 28.3445Z" fill="#3F3D56"/>
<path d="M419.57 28.3445C420.103 28.3445 420.535 27.9116 420.535 27.3777C420.535 26.8437 420.103 26.4109 419.57 26.4109C419.037 26.4109 418.605 26.8437 418.605 27.3777C418.605 27.9116 419.037 28.3445 419.57 28.3445Z" fill="#3F3D56"/>
<path d="M422.343 28.3445C422.876 28.3445 423.308 27.9116 423.308 27.3777C423.308 26.8437 422.876 26.4109 422.343 26.4109C421.811 26.4109 421.379 26.8437 421.379 27.3777C421.379 27.9116 421.811 28.3445 422.343 28.3445Z" fill="#3F3D56"/>
<path d="M449.629 56.8757C448.664 56.2463 448.185 54.7835 448.421 53.4458C448.657 52.108 449.547 50.9557 450.615 50.4588C451.134 50.2243 451.703 50.1227 452.271 50.1632C452.839 50.2037 453.388 50.3849 453.868 50.6907C454.847 51.2904 456.231 51.6189 456.696 52.8189C457.053 53.7411 456.6 55.6136 456.119 56.5093C455.704 57.2834 454.914 57.6375 454.173 57.7914C453.352 57.9591 452.505 57.9483 451.689 57.7596C450.873 57.5709 450.107 57.2087 449.443 56.6976L449.629 56.8757Z" fill="#2F2E41"/>
<path d="M449.125 63.981L448.354 65.3138L448.252 65.4897L448.104 65.7482H445.83L445.984 65.4897L446.381 64.8187L447.307 63.2518L448.355 63.672L449.125 63.981Z" fill="#FFB8B8"/>
<path d="M445.66 65.7481L445.245 65.4896L445.193 65.4573L447.8 60.6959C447.912 60.4898 448.064 60.3081 448.247 60.1612C448.429 60.0143 448.639 59.9051 448.864 59.8401C449.148 59.7553 449.449 59.7442 449.739 59.8078C449.908 59.8435 450.07 59.9045 450.221 59.9888C450.283 60.0229 450.343 60.0609 450.4 60.1025C450.621 60.2574 450.802 60.462 450.929 60.6998C451.081 60.9782 451.155 61.2919 451.146 61.6089C451.136 61.9258 451.043 62.2345 450.875 62.5032L449.87 64.1128L449.011 65.4896L448.85 65.7481H445.66Z" fill="#2F2E41"/>
<path d="M452.357 58.5657C454.107 58.5657 455.525 57.1441 455.525 55.3904C455.525 53.6368 454.107 52.2152 452.357 52.2152C450.608 52.2152 449.189 53.6368 449.189 55.3904C449.189 57.1441 450.608 58.5657 452.357 58.5657Z" fill="#FFB8B8"/>
<path d="M455.537 65.7482H448.416L448.448 65.6564C448.43 65.6008 448.413 65.5452 448.398 65.4896C448.381 65.4314 448.367 65.372 448.354 65.3138C448.238 64.7726 448.239 64.213 448.355 63.672C448.749 61.7354 450.318 60.162 450.318 60.162C450.345 60.1413 450.373 60.122 450.4 60.1026C450.633 59.9312 450.887 59.7888 451.154 59.6785C452.32 59.1937 453.543 59.3889 454.364 59.6397C454.651 59.7265 454.93 59.8332 455.202 59.9591C455.297 60.0043 455.349 60.0328 455.349 60.0328L455.43 62.5162L455.528 65.4896L455.537 65.7482Z" fill="#606060"/>
<path d="M458.832 65.4897L458.288 62.7153L457.738 59.9177C457.715 59.8022 457.658 59.6963 457.574 59.6139C457.49 59.5316 457.383 59.4766 457.267 59.4562L456.117 59.2571L455.046 59.0722C454.943 59.0536 454.837 59.0636 454.739 59.1012C454.641 59.1388 454.555 59.2026 454.49 59.2856C454.41 59.3861 454.366 59.5109 454.365 59.6398C454.365 59.7194 454.382 59.7981 454.413 59.8712C454.971 61.1769 454.982 63.2441 454.84 65.4897C454.833 65.575 454.828 65.6616 454.822 65.7482H458.883L458.832 65.4897Z" fill="#2F2E41"/>
<path d="M451.154 59.6785C451.131 59.5844 451.084 59.4977 451.018 59.4262C450.953 59.3547 450.871 59.3006 450.779 59.2688C450.688 59.237 450.59 59.2285 450.495 59.244C450.399 59.2596 450.309 59.2987 450.232 59.3579L449.738 59.8078L447.716 61.6539C447.653 61.7106 447.603 61.7808 447.571 61.8594C447.343 62.4063 446.898 63.4857 446.381 64.8186C446.297 65.0358 446.21 65.2595 446.121 65.4896C446.091 65.5749 446.057 65.6615 446.023 65.7481H449.356C449.383 65.6615 449.41 65.5749 449.438 65.4896C449.586 65.0203 449.73 64.5601 449.87 64.1127C450.277 62.8135 450.645 61.6332 450.929 60.6998C451.007 60.4412 451.079 60.2025 451.144 59.9836C451.174 59.8846 451.178 59.7793 451.154 59.6785Z" fill="#2F2E41"/>
<path d="M459.578 65.7481H459.794L459.764 65.6757L459.685 65.4896L458.472 62.6028L458.286 62.7153L456.795 63.6189L457.56 65.4896L457.666 65.7481H458.882H459.578Z" fill="#FFB8B8"/>
<path d="M458.349 60.3133C458.185 59.8825 457.861 59.532 457.445 59.3351C457.029 59.1383 456.553 59.1103 456.116 59.2571C456.061 59.2756 456.006 59.2972 455.953 59.3217C455.647 59.4584 455.387 59.6795 455.202 59.9591C455.127 60.0707 455.065 60.1909 455.018 60.3172C454.934 60.5363 454.894 60.7699 454.901 61.0044C454.908 61.239 454.961 61.4698 455.058 61.6837L455.43 62.5162L456.764 65.4897L456.88 65.7482H459.58L459.765 65.6758L460.248 65.4897L460.315 65.4638L458.349 60.3133Z" fill="#2F2E41"/>
<path d="M454.845 51.7436C454.956 51.7768 455.074 51.7726 455.182 51.7316C455.29 51.6906 455.381 51.6151 455.442 51.5169C455.499 51.4168 455.533 51.3048 455.54 51.1895C455.548 51.0742 455.529 50.9588 455.485 50.852C455.395 50.6387 455.254 50.4514 455.073 50.3071C454.868 50.1211 454.618 49.9916 454.349 49.9311C454.214 49.902 454.074 49.9024 453.94 49.932C453.805 49.9617 453.678 50.0201 453.568 50.1031C453.46 50.189 453.379 50.3052 453.338 50.437C453.296 50.5688 453.294 50.7101 453.332 50.8429C453.414 51.0814 453.637 51.2411 453.858 51.3601C454.299 51.5956 454.784 51.734 455.282 51.7657L454.845 51.7436Z" fill="#2F2E41"/>
<path d="M455.461 55.2955C454.952 55.3659 455.017 55.1061 454.813 54.6331C454.609 54.1601 454.336 53.5985 453.824 53.5506C453.405 53.5114 453.059 53.8475 452.719 54.0971C452.114 54.542 451.297 54.7598 450.595 54.4929C449.893 54.226 449.405 53.3872 449.672 52.6835C449.754 52.4892 449.876 52.314 450.03 52.1688C450.183 52.0236 450.364 51.9115 450.562 51.8394C450.96 51.6977 451.382 51.6389 451.803 51.6666C452.74 51.6966 453.659 51.9323 454.494 52.357C455.071 52.6508 455.633 53.0711 455.852 53.6814C456.07 54.2917 456.214 55.1493 455.589 55.3144L455.461 55.2955Z" fill="#2F2E41"/>
<path d="M454.585 50.065C454.333 49.6258 454.541 49.0232 454.953 48.7297C455.365 48.4362 455.917 48.4074 456.409 48.5251C456.895 48.6479 457.34 48.8966 457.7 49.2462C458.06 49.5959 458.322 50.0343 458.46 50.5175C458.668 51.2856 458.544 52.1105 458.721 52.8866C458.815 53.3003 458.993 53.6903 459.243 54.0326C459.493 54.3749 459.811 54.6622 460.176 54.8769C460.541 55.0916 460.946 55.229 461.366 55.2808C461.787 55.3327 462.213 55.2977 462.619 55.1781C463.148 55.0224 463.686 54.6438 463.738 54.0936C463.793 54.7254 463.649 55.3586 463.327 55.9045C463.005 56.4504 462.52 56.8817 461.941 57.138C461.26 57.423 460.499 57.4416 459.761 57.4226C459.28 57.4102 458.788 57.3811 458.344 57.1946C458.037 57.0542 457.761 56.8537 457.532 56.605C457.303 56.3563 457.126 56.0643 457.011 55.7461C456.785 55.1066 456.724 54.4202 456.834 53.7507C456.906 53.2299 457.051 52.7195 457.091 52.1952C457.132 51.6709 457.055 51.1111 456.732 50.6964C456.41 50.2816 455.794 50.0697 455.336 50.3253C455.151 50.4281 455.003 50.5959 454.802 50.6622C454.602 50.7284 454.319 50.612 454.337 50.4014L454.585 50.065Z" fill="#2F2E41"/>
<path d="M476.201 65.7482L476.226 65.4896L476.953 57.9035C477.192 57.7164 477.448 57.5532 477.718 57.4161C479.215 56.6599 480.66 57.0218 481.442 57.3347C481.649 57.416 481.849 57.5141 482.04 57.6282L482.466 65.4896L482.48 65.7482H476.201Z" fill="#606060"/>
<path d="M479.609 55.8845C481.359 55.8845 482.777 54.4629 482.777 52.7093C482.777 50.9557 481.359 49.5341 479.609 49.5341C477.86 49.5341 476.441 50.9557 476.441 52.7093C476.441 54.4629 477.86 55.8845 479.609 55.8845Z" fill="#FFB8B8"/>
<path d="M482.179 54.6454C482.415 54.3966 482.571 54.0833 482.628 53.7452C482.686 53.4072 482.641 53.0597 482.501 52.747C482.361 52.4342 482.131 52.1704 481.841 51.989C481.55 51.8076 481.213 51.7168 480.871 51.7283C480.433 51.743 480.02 51.9227 479.602 52.0545C478.968 52.2706 478.292 52.3316 477.631 52.2325C476.965 52.1288 476.364 51.7732 475.952 51.2389C475.56 50.6989 475.438 49.95 475.714 49.3427C476.034 48.6416 476.781 48.2552 477.483 47.9413C477.766 47.7992 478.069 47.6995 478.381 47.6456C478.538 47.6196 478.698 47.6262 478.851 47.665C479.005 47.7039 479.149 47.7741 479.275 47.8713C479.472 48.0415 479.588 48.2973 479.802 48.4447C480.044 48.6108 480.358 48.6064 480.65 48.6357C481.307 48.7016 481.928 48.9663 482.431 49.3948C482.934 49.8233 483.295 50.3951 483.466 51.0342C483.637 51.6733 483.61 52.3494 483.388 52.9727C483.166 53.5959 482.76 54.1366 482.224 54.523L482.179 54.6454Z" fill="#2F2E41"/>
<path d="M478.19 58.7296L477.718 57.4161L477.689 57.3343C477.675 57.2954 477.652 57.2603 477.623 57.2315C477.593 57.2028 477.558 57.1811 477.519 57.1682C477.479 57.1553 477.438 57.1515 477.397 57.157C477.356 57.1626 477.317 57.1773 477.283 57.2002L476.747 57.5583C476.747 57.5583 473.31 57.5583 473.034 59.6255C473.03 59.6578 473.025 59.694 473.021 59.7328C473.021 59.7346 473.02 59.7363 473.02 59.738C472.985 59.8737 472.336 62.3869 471.779 65.4896C471.763 65.5749 471.748 65.6615 471.732 65.7482H479.202C479.445 62.6314 479.309 59.7335 478.19 58.7296Z" fill="#2F2E41"/>
<path d="M487.102 65.4897C486.694 62.3068 486.111 59.7329 486.111 59.7329C486.106 59.6941 486.101 59.6579 486.097 59.6256C485.822 57.5584 482.385 57.5584 482.385 57.5584L481.849 57.2005C481.815 57.1776 481.776 57.1628 481.735 57.1572C481.694 57.1517 481.653 57.1555 481.614 57.1685C481.574 57.1814 481.539 57.2031 481.509 57.2319C481.48 57.2607 481.457 57.2959 481.443 57.3347L480.942 58.7297C479.823 59.7335 479.687 62.6314 479.93 65.7481L487.134 65.7482C487.123 65.6616 487.112 65.575 487.102 65.4897Z" fill="#2F2E41"/>
<path d="M426.598 58.2422L425.832 65.4896L425.805 65.7481H423.732C423.757 65.6641 423.781 65.5775 423.807 65.4896C424.395 63.4676 425.196 60.5162 425.11 59.7341C424.974 58.5137 425.922 58.1064 425.922 58.1064L425.982 58.1181L426.598 58.2422Z" fill="#606060"/>
<path d="M429.941 56.0052C431.691 56.0052 433.109 54.5836 433.109 52.83C433.109 51.0764 431.691 49.6548 429.941 49.6548C428.192 49.6548 426.773 51.0764 426.773 52.83C426.773 54.5836 428.192 56.0052 429.941 56.0052Z" fill="#A0616A"/>
<path d="M434.043 64.2098C433.883 64.505 433.752 64.815 433.652 65.1354C433.614 65.2492 433.578 65.3681 433.545 65.4896C433.52 65.5737 433.498 65.6603 433.476 65.7482H425.121C425.133 65.6629 425.143 65.5763 425.155 65.4896C425.582 62.109 425.927 58.6779 425.983 58.1181C425.988 58.0651 425.99 58.038 425.99 58.038C430.997 55.3929 434.651 58.8524 434.651 58.8524C434.651 58.8524 434.657 58.877 434.664 58.9248C434.744 59.4084 435.152 62.2318 434.043 64.2098Z" fill="#606060"/>
<path d="M433.651 65.1354L433.094 63.9383L433.229 59.1911L434.663 58.9248L434.714 58.9158C435.455 59.3477 436.029 60.0184 436.341 60.8188C436.62 61.5169 437.15 63.6164 437.598 65.4896C437.618 65.5762 437.639 65.6628 437.66 65.7482H433.936L433.816 65.4896L433.651 65.1354Z" fill="#606060"/>
<path d="M438.747 44.4171H420.429C420.036 44.4176 419.66 44.5742 419.382 44.8527C419.104 45.1312 418.948 45.5087 418.947 45.9025V64.2627C418.948 64.6566 419.104 65.0341 419.382 65.3126C419.66 65.591 420.036 65.7477 420.429 65.7482H438.747C439.14 65.7479 439.517 65.5913 439.794 65.3128C440.072 65.0343 440.229 64.6566 440.229 64.2627V45.9025C440.229 45.5087 440.072 45.131 439.794 44.8525C439.517 44.574 439.14 44.4174 438.747 44.4171ZM439.971 64.2627C439.971 64.588 439.842 64.8999 439.612 65.1299C439.383 65.36 439.071 65.4893 438.747 65.4896H420.429C420.105 65.4891 419.794 65.3597 419.564 65.1297C419.335 64.8997 419.206 64.588 419.205 64.2627V45.9025C419.206 45.5773 419.335 45.2655 419.564 45.0356C419.794 44.8056 420.105 44.6762 420.429 44.6757H438.747C439.071 44.676 439.383 44.8053 439.612 45.0353C439.842 45.2653 439.971 45.5772 439.971 45.9025V64.2627ZM425.832 65.4896L425.805 65.7482H433.475C433.497 65.6602 433.519 65.5736 433.544 65.4896H425.832Z" fill="#3F3D56"/>
<path d="M463.333 44.4171H445.015C444.622 44.4176 444.246 44.5742 443.968 44.8527C443.69 45.1312 443.534 45.5087 443.533 45.9025V64.2627C443.534 64.6566 443.69 65.0341 443.968 65.3126C444.246 65.591 444.622 65.7477 445.015 65.7482H463.333C463.726 65.7479 464.103 65.5913 464.38 65.3128C464.658 65.0343 464.814 64.6566 464.815 64.2627V45.9025C464.814 45.5087 464.658 45.131 464.38 44.8525C464.103 44.574 463.726 44.4174 463.333 44.4171ZM464.557 64.2627C464.557 64.588 464.427 64.8999 464.198 65.1299C463.969 65.36 463.657 65.4893 463.333 65.4896H445.015C444.691 65.4891 444.38 65.3597 444.15 65.1297C443.921 64.8997 443.792 64.588 443.791 64.2627V45.9025C443.792 45.5773 443.921 45.2655 444.15 45.0356C444.38 44.8056 444.691 44.6762 445.015 44.6757H463.333C463.657 44.676 463.969 44.8053 464.198 45.0353C464.427 45.2653 464.557 45.5772 464.557 45.9025V64.2627ZM448.398 65.4896C448.414 65.5452 448.431 65.6008 448.449 65.6564L448.416 65.7482H454.821C454.828 65.6615 454.833 65.5749 454.84 65.4896H448.398Z" fill="#3F3D56"/>
<path d="M487.919 44.4171H469.601C469.208 44.4174 468.831 44.5739 468.553 44.8525C468.276 45.131 468.119 45.5086 468.119 45.9025V64.2627C468.119 64.6566 468.276 65.0343 468.553 65.3128C468.831 65.5913 469.208 65.7479 469.601 65.7482H487.919C488.312 65.7477 488.688 65.591 488.966 65.3126C489.244 65.0341 489.4 64.6565 489.401 64.2627V45.9025C489.4 45.5087 489.244 45.1312 488.966 44.8527C488.688 44.5743 488.312 44.4176 487.919 44.4171ZM489.143 64.2627C489.142 64.588 489.013 64.8997 488.784 65.1297C488.554 65.3597 488.243 65.4891 487.919 65.4896H469.601C469.277 65.4893 468.965 65.36 468.736 65.13C468.506 64.8999 468.377 64.588 468.377 64.2627V45.9025C468.377 45.5772 468.506 45.2653 468.736 45.0353C468.965 44.8053 469.277 44.6759 469.601 44.6757H487.919C488.243 44.6762 488.554 44.8056 488.784 45.0356C489.013 45.2655 489.142 45.5773 489.143 45.9025V64.2627ZM479.222 65.4896C479.215 65.5749 479.209 65.6615 479.202 65.7482H484.76C484.77 65.6628 484.782 65.5762 484.792 65.4896H479.222Z" fill="#3F3D56"/>
<path d="M475.456 73.2463H432.893C432.62 73.2463 432.357 73.1374 432.164 72.9434C431.97 72.7494 431.861 72.4864 431.861 72.2121C431.861 71.9378 431.97 71.6747 432.164 71.4808C432.357 71.2868 432.62 71.1779 432.893 71.1779H475.456C475.73 71.1779 475.992 71.2868 476.186 71.4808C476.379 71.6747 476.488 71.9378 476.488 72.2121C476.488 72.4864 476.379 72.7494 476.186 72.9434C475.992 73.1374 475.73 73.2463 475.456 73.2463Z" fill="#CCCCCC"/>
<path d="M463.525 38.9874H444.823C444.549 38.9874 444.287 38.8784 444.093 38.6845C443.9 38.4905 443.791 38.2275 443.791 37.9532C443.791 37.6789 443.9 37.4158 444.093 37.2219C444.287 37.0279 444.549 36.9189 444.823 36.9189H463.525C463.798 36.9189 464.061 37.0279 464.254 37.2219C464.448 37.4158 464.557 37.6789 464.557 37.9532C464.557 38.2275 464.448 38.4905 464.254 38.6845C464.061 38.8784 463.798 38.9874 463.525 38.9874Z" fill="#606060"/>
<path d="M431.457 55.5964C431.565 55.7024 431.706 55.7661 431.857 55.7758C432.007 55.7854 432.156 55.7404 432.276 55.6489C433.022 55.0942 433.678 54.4037 434.066 53.5615C434.51 52.5964 434.56 51.4122 434.024 50.495C433.571 49.7196 432.771 49.2192 431.974 48.8084C431.664 48.6333 431.331 48.5044 430.984 48.426C430.633 48.3485 430.267 48.4078 429.958 48.5919C429.807 48.6867 429.689 48.8249 429.617 48.9884C429.546 49.1519 429.525 49.3332 429.558 49.5086C429.175 49.0706 428.685 48.7406 428.135 48.5512C427.79 48.4155 427.411 48.388 427.049 48.4722C426.543 48.6161 426.174 49.0666 425.972 49.5533C425.808 49.9235 425.752 50.3322 425.809 50.733C425.839 50.9324 425.91 51.1233 426.018 51.2933C426.126 51.4633 426.269 51.6087 426.437 51.7199C426.855 51.9794 427.389 51.9607 427.869 51.8547C428.35 51.7487 428.815 51.5644 429.304 51.5178C429.794 51.4711 430.339 51.5935 430.637 51.9858C430.847 52.262 430.901 52.6229 430.948 52.9669L431.193 54.756C431.213 55.0148 431.279 55.2679 431.388 55.5035C431.407 55.5375 431.43 55.5687 431.457 55.5964Z" fill="#2F2E41"/>
</g>
<rect x="350.5" y="83.1674" width="150" height="22.8485" rx="11.4242" fill="#C17B3A" fill-opacity="0.2"/>
<path d="M412.802 91.4487H424.786V93.0007H414.626V101.337H412.802V91.4487ZM423.826 91.4487H425.586V99.6087C425.586 100.441 425.394 100.825 424.802 101.065C424.226 101.289 423.346 101.305 422.066 101.305C421.986 100.873 421.746 100.281 421.538 99.8967C422.322 99.9287 423.234 99.9127 423.474 99.8967C423.73 99.8967 423.826 99.8167 423.826 99.5927V91.4487ZM417.026 95.4807H422.242V99.4007H417.026V98.0887H420.69V96.8087H417.026V95.4807ZM415.986 95.4807H417.586V100.073H415.986V95.4807ZM412.034 87.8967H426.322V89.5127H412.034V87.8967ZM415.378 89.8487L417.026 89.3207C417.346 89.8807 417.746 90.6167 417.938 91.0807L416.21 91.7047C416.034 91.2247 415.666 90.4247 415.378 89.8487ZM421.218 89.4167L423.138 89.8167C422.642 90.6647 422.114 91.5607 421.682 92.1367L420.21 91.7527C420.562 91.0967 421.01 90.1207 421.218 89.4167ZM418.002 86.6807L419.842 86.2327C420.098 86.8727 420.386 87.7207 420.53 88.2647L418.594 88.7927C418.498 88.2327 418.226 87.3367 418.002 86.6807ZM416.93 92.2967H418.578C418.45 94.1687 417.906 95.2247 415.378 95.7687C415.25 95.3847 414.85 94.7767 414.53 94.4727C416.498 94.1527 416.834 93.5447 416.93 92.2967ZM419.65 92.2967H421.346V93.4167C421.346 93.7207 421.362 93.8647 421.634 93.8647C421.794 93.8647 422.242 93.8647 422.418 93.8647C422.658 93.8647 423.138 93.8487 423.362 93.7687C423.394 94.2007 423.41 94.6327 423.474 95.0487C423.25 95.1287 422.802 95.1607 422.466 95.1607C422.162 95.1607 421.474 95.1607 421.17 95.1607C419.874 95.1607 419.65 94.5527 419.65 93.4007V92.2967ZM431.474 87.6247H445.33V91.2727H443.362V89.3687H433.346V91.2727H431.474V87.6247ZM433.826 90.2487H442.85V91.8807H433.826V90.2487ZM436.402 93.0327L437.874 92.2327C441.042 94.8087 440.946 99.4167 439.506 100.633C438.946 101.193 438.434 101.369 437.602 101.369C437.25 101.385 436.77 101.369 436.306 101.353C436.274 100.825 436.114 100.073 435.778 99.5447C436.354 99.6087 436.866 99.6247 437.234 99.6247C437.618 99.6247 437.874 99.5607 438.098 99.2407C438.85 98.5207 438.962 95.1607 436.402 93.0327ZM438.114 90.8087L439.698 91.4647C438.002 93.1927 435.09 94.4247 432.418 95.1447C432.242 94.7767 431.746 94.0087 431.442 93.6407C433.986 93.1287 436.722 92.1527 438.114 90.8087ZM437.458 93.8807L438.674 94.7927C437.122 95.9287 434.338 97.1767 432.258 97.8327C432.05 97.4007 431.65 96.7607 431.314 96.3607C433.362 95.9127 436.114 94.8567 437.458 93.8807ZM438.402 95.7207L439.73 96.7127C437.938 98.2967 434.69 99.8967 432.082 100.713C431.858 100.233 431.458 99.5447 431.09 99.1127C433.682 98.5367 436.85 97.1127 438.402 95.7207ZM442.242 94.8087C442.866 96.7287 444.146 98.3607 446.018 99.1287C445.602 99.4807 445.026 100.201 444.77 100.697C442.642 99.6727 441.314 97.7047 440.546 95.1927L442.242 94.8087ZM442.754 92.1367L444.338 93.4007C442.898 94.5207 441.09 95.7367 439.698 96.4727L438.45 95.3687C439.826 94.5687 441.65 93.2247 442.754 92.1367ZM436.898 86.7607L438.93 86.1847C439.266 86.7767 439.65 87.5767 439.778 88.1207L437.634 88.7767C437.522 88.2327 437.218 87.3847 436.898 86.7607ZM457.106 91.1607H463.762V93.0967H457.106V91.1607ZM450.258 98.6647H464.882V100.601H450.258V98.6647ZM456.018 86.5527H458.082V99.7367H456.018V86.5527ZM478.722 86.3447L480.914 86.7287C480.466 87.5927 480.002 88.4407 479.634 88.9847L478.002 88.5847C478.29 87.9287 478.578 87.0167 478.722 86.3447ZM477.714 91.6407V92.4727H481.778V91.6407H477.714ZM477.714 89.4967V90.3127H481.778V89.4967H477.714ZM475.938 88.0567H483.634V93.9127H475.938V88.0567ZM478.978 93.2567H480.802V99.4807C480.802 100.329 480.658 100.825 480.114 101.113C479.57 101.401 478.818 101.417 477.794 101.417C477.73 100.905 477.522 100.153 477.282 99.6727C477.874 99.7047 478.53 99.7047 478.722 99.6887C478.93 99.6887 478.978 99.6407 478.978 99.4487V93.2567ZM475.362 94.9047H477.602V96.4567H475.362V94.9047ZM477.186 94.9047H477.49L477.778 94.8567L478.914 95.2407C478.386 97.7527 477.202 99.5927 475.538 100.617C475.314 100.217 474.802 99.6087 474.466 99.2887C475.794 98.5367 476.834 96.9047 477.186 95.1767V94.9047ZM482.738 94.1527L484.162 95.3527C483.25 96.0727 482.322 96.8727 481.57 97.3687L480.546 96.4087C481.234 95.8327 482.194 94.8727 482.738 94.1527ZM480.722 94.1687C481.346 96.3127 482.61 98.3127 484.37 99.2727C483.97 99.6087 483.41 100.313 483.122 100.793C481.282 99.5287 480.098 97.1447 479.426 94.4727L480.722 94.1687ZM472.962 92.9367L474.354 92.5687C474.722 93.6407 475.09 95.0647 475.202 95.9287L473.73 96.3927C473.618 95.5127 473.314 94.0567 472.962 92.9367ZM471.586 97.1447L472.93 96.9047C473.106 97.9927 473.25 99.3687 473.282 100.297L471.858 100.569C471.858 99.6407 471.73 98.2167 471.586 97.1447ZM469.858 96.9207L471.33 97.1607C471.218 98.6327 470.946 100.217 470.61 101.241C470.29 101.065 469.586 100.841 469.202 100.729C469.57 99.7687 469.762 98.2807 469.858 96.9207ZM469.714 92.7127C469.618 92.3607 469.314 91.5127 469.122 91.0487C469.426 90.9687 469.698 90.6647 470.002 90.2007C470.322 89.7367 471.266 87.9927 471.794 86.3127L473.538 87.0167C472.818 88.7127 471.746 90.5367 470.77 91.7847V91.8167C470.77 91.8167 469.714 92.3927 469.714 92.7127ZM469.714 92.7127L469.65 91.3847L470.434 90.8887L473.218 90.6807C473.122 91.1607 473.026 91.8167 473.026 92.2007C470.546 92.4407 470.034 92.5687 469.714 92.7127ZM469.826 96.4247C469.73 96.0567 469.426 95.1767 469.218 94.6967C469.634 94.5847 469.986 94.2167 470.498 93.6247C471.026 93.0487 472.69 90.7767 473.682 88.5847L475.298 89.5927C474.146 91.7367 472.514 93.9127 470.93 95.4807V95.5287C470.93 95.5287 469.826 96.0887 469.826 96.4247ZM469.826 96.4247L469.746 95.0647L470.53 94.5367L474.37 94.0887C474.29 94.5527 474.242 95.2247 474.258 95.5927C470.802 96.0887 470.21 96.2327 469.826 96.4247ZM473.186 96.8247L474.434 96.4407C474.69 97.1447 474.978 98.0407 475.09 98.6487L473.778 99.0967C473.682 98.4887 473.426 97.5447 473.186 96.8247Z" fill="#756E6E"/>
<path d="M361.924 46.6455C361.924 44.4141 363.736 42.6113 365.979 42.6113H396.396C398.069 42.6113 399.565 43.6325 400.173 45.1831C400.782 46.7338 400.363 48.4987 399.134 49.6207L382.493 64.7993H385.244C394.762 64.7993 402.48 72.4769 402.48 81.9446C402.48 91.4124 394.762 99.0899 385.244 99.0899H375.282C369.908 99.0899 364.991 96.0643 362.596 91.2863L362.355 90.8072C361.354 88.8154 362.165 86.3948 364.167 85.3989C366.17 84.403 368.603 85.2098 369.604 87.2017L369.845 87.6807C370.872 89.7357 372.988 91.0216 375.282 91.0216H385.244C390.288 91.0216 394.369 86.9622 394.369 81.9446C394.369 76.9271 390.288 72.8677 385.244 72.8677H372.063C370.39 72.8677 368.894 71.8466 368.286 70.2959C367.678 68.7453 368.096 66.9803 369.325 65.8583L385.966 50.6797H365.979C363.736 50.6797 361.924 48.8769 361.924 46.6455Z" fill="#424242"/>
<g clip-path="url(#clip4_293_234)">
<path d="M318.186 61.0093C318.187 61.3421 318.056 61.662 317.821 61.8986C317.586 62.1351 317.267 62.269 316.933 62.2708H261.815C261.481 62.269 261.162 62.1352 260.927 61.8986C260.692 61.662 260.561 61.3421 260.563 61.0093V23.4904C260.561 23.1576 260.692 22.8377 260.927 22.6011C261.162 22.3645 261.481 22.2306 261.815 22.2289H316.933C317.267 22.2306 317.586 22.3645 317.821 22.6011C318.056 22.8376 318.187 23.1575 318.186 23.4904V61.0093Z" fill="#E6E6E6"/>
<path d="M317.535 60.3949C317.535 60.7184 317.406 61.0287 317.176 61.2574C316.947 61.4862 316.636 61.6147 316.311 61.6147H262.474C262.149 61.6147 261.838 61.4862 261.609 61.2574C261.379 61.0287 261.25 60.7184 261.25 60.3949V24.122C261.25 23.7985 261.379 23.4882 261.609 23.2595C261.838 23.0307 262.149 22.9022 262.474 22.9022H316.313C316.638 22.9029 316.948 23.0317 317.177 23.2604C317.406 23.489 317.535 23.7989 317.535 24.122V60.3949Z" fill="white"/>
<path d="M264.127 24.4771H314.715C314.907 24.4771 315.092 24.5533 315.228 24.6891C315.365 24.8249 315.441 25.009 315.441 25.2011V59.1751C315.441 59.3671 315.365 59.5513 315.228 59.6871C315.092 59.8228 314.907 59.8991 314.715 59.8991H264.127C264.032 59.8991 263.937 59.8804 263.849 59.844C263.761 59.8076 263.681 59.7543 263.613 59.6871C263.546 59.6198 263.492 59.54 263.456 59.4522C263.419 59.3643 263.4 59.2702 263.4 59.1751V25.2011C263.4 25.106 263.419 25.0118 263.456 24.924C263.492 24.8362 263.546 24.7563 263.613 24.6891C263.681 24.6219 263.761 24.5685 263.849 24.5322C263.937 24.4958 264.032 24.4771 264.127 24.4771Z" fill="#E6E6E6"/>
<path d="M264.768 25.2919H314.02C314.212 25.2919 314.397 25.3682 314.533 25.5039C314.669 25.6397 314.746 25.8239 314.746 26.0159V58.177C314.746 58.369 314.669 58.5532 314.533 58.689C314.397 58.8248 314.212 58.901 314.02 58.901H264.768C264.575 58.901 264.39 58.8248 264.254 58.689C264.118 58.5532 264.041 58.369 264.041 58.177V26.0159C264.041 25.8239 264.118 25.6397 264.254 25.5039C264.39 25.3682 264.575 25.2919 264.768 25.2919Z" fill="white"/>
<path d="M305.461 65.5088C305.463 65.8416 305.332 66.1615 305.097 66.3981C304.862 66.6346 304.542 66.7685 304.208 66.7703H249.091C248.925 66.7694 248.762 66.7361 248.609 66.6722C248.457 66.6084 248.318 66.5152 248.202 66.3981C248.086 66.281 247.994 66.1421 247.931 65.9895C247.869 65.837 247.837 65.6736 247.838 65.5088V27.9899C247.836 27.6571 247.967 27.3372 248.202 27.1006C248.437 26.864 248.757 26.7301 249.091 26.7284H304.208C304.542 26.7301 304.862 26.864 305.097 27.1006C305.332 27.3371 305.463 27.657 305.461 27.9899V65.5088Z" fill="#E6E6E6"/>
<path d="M304.81 64.8944C304.81 65.2179 304.681 65.5282 304.452 65.7569C304.222 65.9857 303.911 66.1142 303.586 66.1142H249.749C249.425 66.1142 249.113 65.9857 248.884 65.7569C248.654 65.5282 248.525 65.2179 248.525 64.8944V28.6215C248.525 28.298 248.654 27.9878 248.884 27.759C249.113 27.5302 249.425 27.4017 249.749 27.4017H303.589C303.913 27.4024 304.224 27.5312 304.453 27.7599C304.682 27.9886 304.81 28.2984 304.81 28.6215V64.8944Z" fill="white"/>
<path d="M251.402 28.9766H301.99C302.183 28.9766 302.367 29.0528 302.504 29.1886C302.64 29.3244 302.716 29.5086 302.716 29.7006V63.6746C302.716 63.8666 302.64 64.0508 302.504 64.1866C302.367 64.3224 302.183 64.3986 301.99 64.3986H251.402C251.21 64.3986 251.025 64.3224 250.889 64.1866C250.752 64.0508 250.676 63.8666 250.676 63.6746V29.7006C250.676 29.5086 250.752 29.3244 250.889 29.1886C251.025 29.0528 251.21 28.9766 251.402 28.9766Z" fill="#E6E6E6"/>
<path d="M252.043 29.7914H301.295C301.488 29.7914 301.672 29.8677 301.809 30.0034C301.945 30.1392 302.021 30.3234 302.021 30.5154V62.6765C302.021 62.8686 301.945 63.0527 301.809 63.1885C301.672 63.3243 301.488 63.4005 301.295 63.4005H252.043C251.85 63.4005 251.665 63.3243 251.529 63.1885C251.393 63.0527 251.316 62.8686 251.316 62.6765V30.5154C251.316 30.3234 251.393 30.1392 251.529 30.0034C251.665 29.8677 251.85 29.7914 252.043 29.7914Z" fill="white"/>
<path d="M292.982 70.6628C292.984 70.9957 292.853 71.3155 292.618 71.5521C292.383 71.7887 292.064 71.9226 291.73 71.9243H236.612C236.278 71.9226 235.959 71.7887 235.724 71.5521C235.489 71.3156 235.358 70.9957 235.359 70.6629V33.144C235.358 32.8111 235.489 32.4912 235.724 32.2547C235.959 32.0181 236.278 31.8842 236.612 31.8824H291.73C291.895 31.8833 292.059 31.9166 292.211 31.9805C292.364 32.0443 292.502 32.1375 292.618 32.2546C292.735 32.3718 292.827 32.5106 292.889 32.6632C292.952 32.8158 292.983 32.9791 292.982 33.1439V70.6628Z" fill="#E6E6E6"/>
<path d="M292.332 70.0485C292.332 70.372 292.203 70.6822 291.973 70.911C291.744 71.1397 291.432 71.2683 291.108 71.2683H237.271C236.946 71.2683 236.635 71.1397 236.405 70.911C236.176 70.6822 236.047 70.372 236.047 70.0485V33.7756C236.047 33.4521 236.176 33.1418 236.405 32.9131C236.635 32.6843 236.946 32.5558 237.271 32.5558H291.11C291.434 32.5564 291.745 32.6852 291.974 32.9139C292.203 33.1426 292.332 33.4525 292.332 33.7756V70.0485Z" fill="white"/>
<path d="M238.924 34.1306H289.511C289.704 34.1306 289.889 34.2069 290.025 34.3427C290.161 34.4785 290.238 34.6626 290.238 34.8546V68.8287C290.238 69.0207 290.161 69.2049 290.025 69.3406C289.889 69.4764 289.704 69.5527 289.511 69.5527H238.924C238.731 69.5527 238.546 69.4764 238.41 69.3406C238.274 69.2049 238.197 69.0207 238.197 68.8287V34.8546C238.197 34.6626 238.274 34.4785 238.41 34.3427C238.546 34.2069 238.731 34.1306 238.924 34.1306Z" fill="#E6E6E6"/>
<path d="M239.564 34.9454H288.816C289.009 34.9454 289.194 35.0217 289.33 35.1575C289.466 35.2933 289.543 35.4774 289.543 35.6695V67.8306C289.543 68.0226 289.466 68.2068 289.33 68.3425C289.194 68.4783 289.009 68.5546 288.816 68.5546H239.564C239.372 68.5546 239.187 68.4783 239.051 68.3425C238.914 68.2068 238.838 68.0226 238.838 67.8306V35.6695C238.838 35.4774 238.914 35.2933 239.051 35.1575C239.187 35.0217 239.372 34.9454 239.564 34.9454Z" fill="white"/>
<path d="M275.964 41.9122V64.1646C275.964 64.2947 275.912 64.4195 275.819 64.5115C275.727 64.6036 275.602 64.6553 275.471 64.6554H252.075C251.944 64.6553 251.819 64.6036 251.726 64.5115C251.634 64.4195 251.582 64.2947 251.582 64.1646V39.2943C251.582 39.1642 251.634 39.0394 251.726 38.9474C251.819 38.8553 251.944 38.8036 252.075 38.8035H272.516L275.964 41.9122Z" fill="#606060"/>
<path d="M255.721 44.2192C255.64 44.2205 255.563 44.2535 255.506 44.3109C255.45 44.3684 255.418 44.4457 255.418 44.5263C255.418 44.6069 255.45 44.6842 255.506 44.7417C255.563 44.7991 255.64 44.8321 255.721 44.8335H263.849C263.889 44.8343 263.93 44.8271 263.967 44.8124C264.005 44.7976 264.04 44.7756 264.069 44.7475C264.098 44.7195 264.122 44.6859 264.138 44.6488C264.154 44.6117 264.163 44.5718 264.163 44.5314C264.164 44.4909 264.157 44.4507 264.142 44.4131C264.127 44.3755 264.104 44.3412 264.076 44.3122C264.048 44.2832 264.014 44.2601 263.977 44.2441C263.939 44.2281 263.899 44.2196 263.859 44.2192C263.855 44.2191 263.852 44.2191 263.849 44.2192H255.721Z" fill="white"/>
<path d="M255.721 47.1004C255.64 47.1017 255.563 47.1347 255.506 47.1922C255.45 47.2496 255.418 47.327 255.418 47.4075C255.418 47.4881 255.45 47.5655 255.506 47.6229C255.563 47.6804 255.64 47.7133 255.721 47.7147H271.812C271.893 47.7157 271.972 47.6845 272.03 47.6279C272.089 47.5712 272.122 47.4938 272.124 47.4126C272.125 47.3313 272.094 47.2528 272.038 47.1943C271.981 47.1358 271.903 47.102 271.822 47.1004C271.818 47.1003 271.815 47.1003 271.812 47.1004H255.721Z" fill="white"/>
<path d="M255.721 49.9817C255.64 49.9831 255.563 50.0161 255.506 50.0735C255.45 50.131 255.418 50.2083 255.418 50.2889C255.418 50.3695 255.45 50.4468 255.506 50.5043C255.563 50.5617 255.64 50.5947 255.721 50.596H271.812C271.852 50.5969 271.893 50.5897 271.93 50.5749C271.968 50.5602 272.003 50.5381 272.032 50.5101C272.061 50.482 272.085 50.4485 272.101 50.4114C272.117 50.3743 272.126 50.3344 272.126 50.2939C272.127 50.2535 272.12 50.2133 272.105 50.1757C272.09 50.1381 272.067 50.1039 272.039 50.0748C272.011 50.0458 271.977 50.0227 271.94 50.0067C271.903 49.9907 271.862 49.9822 271.822 49.9817C271.818 49.9817 271.815 49.9817 271.812 49.9817H255.721Z" fill="white"/>
<path d="M255.721 52.863C255.64 52.8643 255.563 52.8973 255.506 52.9547C255.45 53.0122 255.418 53.0895 255.418 53.1701C255.418 53.2507 255.45 53.328 255.506 53.3855C255.563 53.4429 255.64 53.4759 255.721 53.4773H271.812C271.852 53.4781 271.893 53.4709 271.93 53.4562C271.968 53.4414 272.003 53.4194 272.032 53.3913C272.061 53.3633 272.085 53.3297 272.101 53.2926C272.117 53.2555 272.126 53.2156 272.126 53.1752C272.127 53.1347 272.12 53.0945 272.105 53.0569C272.09 53.0193 272.067 52.985 272.039 52.956C272.011 52.927 271.977 52.9039 271.94 52.8879C271.902 52.8719 271.862 52.8634 271.822 52.863C271.818 52.8629 271.815 52.8629 271.812 52.863H255.721Z" fill="white"/>
<path d="M255.721 55.7442C255.64 55.7455 255.563 55.7785 255.506 55.836C255.45 55.8934 255.418 55.9708 255.418 56.0513C255.418 56.1319 255.45 56.2093 255.506 56.2667C255.563 56.3242 255.64 56.3571 255.721 56.3585H271.812C271.852 56.3593 271.893 56.3522 271.93 56.3374C271.968 56.3227 272.003 56.3006 272.032 56.2726C272.061 56.2445 272.085 56.211 272.101 56.1739C272.117 56.1368 272.126 56.0968 272.126 56.0564C272.127 56.016 272.12 55.9758 272.105 55.9382C272.09 55.9006 272.067 55.8663 272.039 55.8373C272.011 55.8083 271.977 55.7851 271.94 55.7691C271.902 55.7532 271.862 55.7447 271.822 55.7442C271.818 55.7441 271.815 55.7441 271.812 55.7442H255.721Z" fill="white"/>
<path d="M255.721 58.6255C255.64 58.6269 255.563 58.6599 255.506 58.7173C255.45 58.7748 255.418 58.8521 255.418 58.9327C255.418 59.0133 255.45 59.0906 255.506 59.1481C255.563 59.2055 255.64 59.2385 255.721 59.2398H271.812C271.852 59.2407 271.893 59.2335 271.93 59.2188C271.968 59.204 272.003 59.182 272.032 59.1539C272.061 59.1259 272.085 59.0923 272.101 59.0552C272.117 59.0181 272.126 58.9782 272.126 58.9378C272.127 58.8973 272.12 58.8571 272.105 58.8195C272.09 58.7819 272.067 58.7476 272.039 58.7186C272.011 58.6896 271.977 58.6664 271.94 58.6505C271.902 58.6345 271.862 58.626 271.822 58.6255C271.818 58.6255 271.815 58.6255 271.812 58.6255H255.721Z" fill="white"/>
<path d="M275.964 41.9122H272.844C272.757 41.9122 272.673 41.8778 272.612 41.8164C272.55 41.755 272.516 41.6718 272.516 41.585V38.8035L275.964 41.9122Z" fill="#606060"/>
<path opacity="0.2" d="M275.964 41.9122H272.844C272.757 41.9122 272.673 41.8778 272.612 41.8164C272.55 41.755 272.516 41.6718 272.516 41.585V38.8035L275.964 41.9122Z" fill="black"/>
</g>
<rect x="175.5" y="83.1674" width="150" height="22.8485" rx="11.4242" fill="#C17B3A" fill-opacity="0.2"/>
<path d="M241.832 95.0647V95.7527H248.792V95.0647H241.832ZM241.832 96.8407V97.5447H248.792V96.8407H241.832ZM241.832 93.3047V93.9767H248.792V93.3047H241.832ZM239.976 92.1527H250.728V98.6807H239.976V92.1527ZM246.504 99.4647L247.768 98.4567C249.416 99.0327 251.288 99.8007 252.376 100.345L250.664 101.369C249.736 100.841 248.088 100.057 246.504 99.4647ZM242.584 98.5207L244.344 99.3207C243.032 100.169 240.952 100.969 239.32 101.417C238.984 101.049 238.328 100.345 237.896 100.009C239.592 99.7047 241.496 99.1447 242.584 98.5207ZM244.44 87.3367H250.92V88.7287H244.44V87.3367ZM244.568 86.2647L246.248 86.6487C245.8 87.9767 244.984 89.2887 244.12 90.0887C243.8 89.8167 243.096 89.3527 242.696 89.1287C243.544 88.4247 244.216 87.3527 244.568 86.2647ZM246.2 88.4087H247.944V89.0487C247.944 90.2167 247.304 91.6247 242.776 92.1367C242.6 91.7047 242.12 91.0487 241.784 90.6967C245.72 90.3927 246.2 89.6087 246.2 88.9687V88.4087ZM247.784 89.0487C248.616 90.0087 250.376 90.4727 252.68 90.5847C252.312 90.9527 251.848 91.6407 251.64 92.1207C249.144 91.8167 247.4 90.9367 246.44 89.3207L247.784 89.0487ZM238.232 87.1447H242.344V88.5527H238.232V87.1447ZM237.88 89.6247H242.728V91.0807H237.88V89.6247ZM250.248 87.3367H250.536L250.808 87.2567L252.12 87.6567C251.72 88.5527 251.16 89.5607 250.648 90.2007L249.176 89.6407C249.544 89.0967 249.992 88.2487 250.248 87.5607V87.3367ZM259.464 86.3607H261.24V101.385H259.464V86.3607ZM257.048 91.6887H263.608V93.4807H257.048V91.6887ZM257.016 87.6887L258.36 87.3527C258.792 88.5207 259.128 90.0407 259.192 91.0647L257.752 91.4167C257.72 90.4247 257.4 88.8567 257.016 87.6887ZM262.296 87.2727L263.912 87.6087C263.496 88.8887 263.016 90.4087 262.616 91.3527L261.4 91.0167C261.736 90.0087 262.12 88.3927 262.296 87.2727ZM268.344 86.3447H270.152V101.369H268.344V86.3447ZM263.56 96.3607L271.784 94.8887L272.072 96.6647L263.864 98.1527L263.56 96.3607ZM264.472 88.5367L265.416 87.2247C266.312 87.7687 267.448 88.5687 267.976 89.1607L266.968 90.6167C266.488 89.9927 265.368 89.1127 264.472 88.5367ZM263.752 92.5687L264.648 91.1927C265.576 91.6887 266.776 92.4567 267.352 93.0487L266.392 94.5687C265.848 93.9767 264.68 93.1127 263.752 92.5687ZM258.344 94.0887L259.688 94.5527C259.352 96.4247 258.68 98.7287 257.656 99.8807C257.496 99.2087 257.096 98.2327 256.792 97.5927C257.464 96.7767 258.104 95.3047 258.344 94.0887ZM261.832 94.1367C262.168 94.5847 263.368 96.5847 263.624 97.0647L262.296 98.5207C261.992 97.5287 261.224 95.7367 260.792 94.8887L261.832 94.1367ZM280.984 89.7527H290.792V91.1767H280.984V89.7527ZM281.672 94.2007H290.104V95.5607H281.672V94.2007ZM281.032 96.3607H290.616V97.8167H281.032V96.3607ZM284.552 86.3767H286.36V98.9047H284.552V86.3767ZM281.848 87.5447H289.912V93.4327H281.768V91.9767H288.232V89.0007H281.848V87.5447ZM276.536 87.2407H280.168V88.9047H276.536V87.2407ZM277.88 91.8007H280.152V93.4647H277.816L277.88 91.8007ZM279.48 91.8007H279.816L280.136 91.7687L281.208 92.0087C280.792 96.7927 279.512 99.8327 277.416 101.385C277.128 101.033 276.424 100.377 276.024 100.137C278.056 98.7607 279.16 96.1847 279.48 92.1367V91.8007ZM277.928 94.3927C279.176 98.6487 282.024 99.3527 285.8 99.3527C286.712 99.3527 290.04 99.3527 291.16 99.3207C290.888 99.7207 290.568 100.553 290.472 101.065H285.752C281.176 101.065 278.088 100.105 276.536 94.8727L277.928 94.3927ZM277.08 94.1847C276.952 93.8327 276.584 93.0967 276.344 92.7127C276.664 92.6167 277.128 92.1847 277.464 91.6407C277.8 91.1287 278.856 89.1927 279.464 87.3527V87.2567L280.136 86.9847L281.288 87.7687C280.424 89.8487 279.32 91.8647 278.36 93.2567V93.2727C278.36 93.2727 277.08 93.8487 277.08 94.1847ZM296.264 89.2407H309.448V91.1767H296.264V89.2407ZM295.544 98.8407H310.136V100.777H295.544V98.8407ZM298.264 92.1047L300.184 91.6247C300.792 93.6567 301.384 96.1847 301.656 97.9127L299.592 98.4567C299.4 96.7447 298.792 94.0887 298.264 92.1047ZM305.496 91.6727L307.656 92.0887C306.968 94.7607 305.992 97.7207 305.176 99.6247L303.272 99.1767C304.12 97.2247 305.032 94.0727 305.496 91.6727ZM301.336 86.6487L303.24 86.1687C303.576 86.9847 303.928 88.0407 304.12 88.7447L302.104 89.3207C301.976 88.6007 301.624 87.4807 301.336 86.6487Z" fill="#756E6E"/>
<g clip-path="url(#clip5_293_234)">
<path d="M205.21 47.5003C202.485 47.5003 199.862 48.5718 197.935 50.5007L194.019 54.3836C192.435 55.9594 189.862 55.9594 188.278 54.3836C186.694 52.8077 186.694 50.2485 188.278 48.6727L192.194 44.7898C195.654 41.3607 200.331 39.4319 205.21 39.4319C215.362 39.4319 223.6 47.6263 223.6 57.7244C223.6 62.578 221.661 67.2299 218.213 70.659L200.952 87.8421H223.6C225.843 87.8421 227.655 89.6449 227.655 91.8763C227.655 94.1077 225.843 95.9105 223.6 95.9105H191.155C189.52 95.9105 188.037 94.9272 187.404 93.4143C186.77 91.9015 187.125 90.1744 188.278 89.0145L212.472 64.9607C214.399 63.0445 215.489 60.4349 215.489 57.7244C215.489 52.0765 210.888 47.5003 205.21 47.5003Z" fill="#424242"/>
</g>
<defs>
<clipPath id="clip0_293_234">
<rect width="89.1091" height="67.9742" fill="white" transform="translate(578.039 14.3801)"/>
</clipPath>
<clipPath id="clip1_293_234">
<rect width="45.697" height="68.5455" fill="white" transform="translate(73.6426 8.854)"/>
</clipPath>
<clipPath id="clip2_293_234">
<rect width="30.8455" height="61.6909" fill="white" transform="translate(21.0645 42.6112)"/>
</clipPath>
<clipPath id="clip3_293_234">
<rect width="80.5409" height="79.3985" fill="white" transform="translate(413.904 0.991821)"/>
</clipPath>
<clipPath id="clip4_293_234">
<rect width="82.8258" height="49.6955" fill="white" transform="translate(235.359 22.2289)"/>
</clipPath>
<clipPath id="clip5_293_234">
<rect width="40.5561" height="64.547" fill="white" transform="translate(187.1 35.3977)"/>
</clipPath>
</defs>
</svg>
