<svg width="90" height="76" viewBox="0 0 90 76" fill="none" xmlns="http://www.w3.org/2000/svg">
<path d="M24.6 43.904H33.448V44.784H24.6V43.904ZM23.864 41.424H34.216V45.28H32.984V42.304H25.048V45.296H23.864V41.424ZM22.264 31.696H35.784V32.624H22.264V31.696ZM23.4 33.712H34.712V34.608H23.4V33.712ZM21.768 39.568H36.216V40.528H21.768V39.568ZM28.344 30.544H29.56V34.096H28.344V30.544ZM25.288 38.528L26.376 38.224C26.696 38.656 26.968 39.248 27.096 39.648L25.944 40C25.864 39.584 25.576 38.96 25.288 38.528ZM31.48 38.144L32.76 38.416C32.424 39.024 32.04 39.6 31.752 40L30.728 39.728C31 39.28 31.336 38.608 31.48 38.144ZM25.288 36.256V37.536H32.68V36.256H25.288ZM24.152 35.424H33.88V38.352H24.152V35.424ZM46.984 31.744H53.288V32.848H46.984V31.744ZM46.264 37.36H54.76V38.512H46.264V37.36ZM49.976 35.52H51.208V43.856C51.208 44.56 51.032 44.912 50.52 45.088C50.008 45.264 49.24 45.296 47.992 45.296C47.912 44.96 47.72 44.48 47.56 44.144C48.504 44.176 49.384 44.176 49.64 44.16C49.88 44.16 49.976 44.08 49.976 43.856V35.52ZM52.84 31.744H53.16L53.432 31.68L54.28 32.272C53.368 33.648 51.976 35.232 50.696 36.208C50.536 36 50.184 35.68 49.976 35.52C51.048 34.624 52.248 33.088 52.84 32.016V31.744ZM40.424 39.328L41.144 38.496C43 39.856 45.416 41.84 46.536 43.152L45.752 44.144C44.648 42.8 42.28 40.752 40.424 39.328ZM40.424 39.328C41.096 37.152 41.848 33.376 42.12 30.608L43.304 30.672C42.968 33.568 42.184 37.376 41.528 39.664L40.424 39.328ZM44.744 32.864H45.864V34.384C45.864 37.504 45.512 42.032 40.904 45.328C40.728 45.056 40.312 44.672 40.056 44.496C44.44 41.424 44.744 37.232 44.744 34.368V32.864ZM39.992 34.256C41.72 34.192 44.28 34.064 46.792 33.92L46.776 35.008C44.392 35.168 41.912 35.312 40.12 35.424L39.992 34.256Z" fill="black"/>
<line x1="0.624023" x2="0.624023" y2="75.0654" stroke="#A9A7A7"/>
<path d="M78.5732 45.8535C79.0859 46.4639 79.9185 46.4639 80.4312 45.8535L88.3062 36.4785C88.8189 35.8682 88.8189 34.877 88.3062 34.2666C87.7935 33.6562 86.9609 33.6562 86.4482 34.2666L79.5001 42.5381L72.5521 34.2715C72.0394 33.6611 71.2068 33.6611 70.6941 34.2715C70.1814 34.8818 70.1814 35.873 70.6941 36.4834L78.5691 45.8584L78.5732 45.8535Z" fill="#C17B3A"/>
</svg>
