<svg width="250" height="216" viewBox="0 0 250 216" fill="none" xmlns="http://www.w3.org/2000/svg">
<path d="M250 214.861H81.2959V215.526H250V214.861Z" fill="#3F3D56"/>
<path d="M218.516 101.765C218.841 102.114 219.082 102.521 219.224 102.96C219.365 103.4 219.404 103.861 219.338 104.315C219.272 104.769 219.103 105.206 218.841 105.596C218.579 105.986 218.23 106.322 217.817 106.581L200.357 117.538L192.669 122.223C192.232 122.489 191.703 122.597 191.184 122.526C190.665 122.455 190.193 122.21 189.861 121.838C189.667 121.622 189.527 121.37 189.45 121.099C189.374 120.828 189.362 120.545 189.417 120.27C189.471 119.995 189.591 119.734 189.767 119.505C189.942 119.276 190.17 119.085 190.435 118.944L197.882 114.992L210.877 103.679L202.523 95.4774L208.711 91.235L218.516 101.765Z" fill="#A0616A"/>
<path d="M177.46 204.931H173.189L170.652 172.689L181.482 172.406L177.46 204.931Z" fill="#A0616A"/>
<path d="M177.769 215.395C176.63 215.87 175.676 212.022 174.716 212.884C172.029 215.298 167.915 215.823 164.328 214.77L165.583 214.757C165.367 214.693 165.167 214.59 164.995 214.454C164.824 214.318 164.684 214.151 164.585 213.964C164.486 213.777 164.43 213.573 164.419 213.366C164.409 213.158 164.445 212.951 164.525 212.756C164.62 212.523 164.776 212.315 164.979 212.15C165.182 211.984 165.426 211.866 165.69 211.806L168.547 211.153L173.034 203.941L177.614 203.658C178.635 204.848 179.348 206.234 179.699 207.712C180.049 209.19 180.029 210.721 179.638 212.191C179.223 213.741 178.581 215.057 177.769 215.395Z" fill="#2F2E41"/>
<path d="M205.896 204.931H201.625L199.089 172.689L210.228 170.709L205.896 204.931Z" fill="#A0616A"/>
<path d="M206.206 215.395C205.067 215.87 204.113 212.021 203.152 212.884C200.465 215.298 196.351 215.823 192.765 214.77L194.02 214.757C193.803 214.693 193.603 214.59 193.432 214.454C193.26 214.317 193.121 214.151 193.022 213.964C192.923 213.777 192.866 213.573 192.856 213.366C192.846 213.158 192.881 212.951 192.961 212.756C193.057 212.523 193.213 212.315 193.416 212.15C193.619 211.984 193.863 211.866 194.126 211.806L196.984 211.153L201.471 203.941L206.36 203.375L206.484 203.56C207.429 204.952 208.039 206.513 208.272 208.138C208.505 209.763 208.356 211.415 207.835 212.983C207.428 214.174 206.875 215.116 206.206 215.395Z" fill="#2F2E41"/>
<path d="M210.738 91.9643C206.811 92.4638 204.092 94.4298 202.984 98.3516L195.765 86.1682C195.337 85.3939 195.229 84.5046 195.459 83.6632C195.69 82.8217 196.245 82.0845 197.023 81.5867C197.848 81.0583 198.863 80.8383 199.859 80.9716C200.856 81.105 201.759 81.5817 202.384 82.304L210.738 91.9643Z" fill="#545454"/>
<path d="M218.304 169.295C200.751 176.394 182.787 177.267 164.464 172.689C171.155 148.968 179.056 127.52 179.007 109.901L196.954 108.487L199.717 112.491C206.273 121.992 210.798 132.542 213.053 143.583L218.304 169.295Z" fill="#2F2E41"/>
<path d="M188.908 73.417C194.035 73.417 198.191 69.6183 198.191 64.9323C198.191 60.2463 194.035 56.4475 188.908 56.4475C183.781 56.4475 179.625 60.2463 179.625 64.9323C179.625 69.6183 183.781 73.417 188.908 73.417Z" fill="#A0616A"/>
<path d="M199.119 79.9219L187.67 80.4876L185.813 71.1543L195.096 69.7404L199.119 79.9219Z" fill="#A0616A"/>
<path d="M197.882 109.901L185.339 110.224L179.007 111.033C175.899 101.648 173.282 92.2844 179.626 84.4472L187.052 77.6594L198.191 77.3766L198.339 77.4537C200.108 78.3801 201.479 79.8296 202.226 81.5636C202.973 83.2975 203.052 85.2123 202.449 86.9925C199.684 95.2031 197.909 102.957 197.882 109.901Z" fill="#545454"/>
<path d="M178.697 136.204L177.919 145.923C177.877 146.444 177.631 146.933 177.226 147.301C176.821 147.669 176.284 147.89 175.714 147.925C175.386 147.945 175.057 147.902 174.748 147.8C174.438 147.697 174.156 147.536 173.918 147.328C173.681 147.12 173.493 146.869 173.368 146.591C173.242 146.313 173.181 146.014 173.189 145.714L173.437 136.204L181.172 109.336L181.482 92.9319L190.146 92.649L189.527 111.598L178.697 136.204Z" fill="#A0616A"/>
<path d="M191.074 94.0633C187.401 92.698 183.97 93.1552 180.863 96.0431L181.289 82.1929C181.343 81.3268 181.736 80.5074 182.397 79.8847C183.058 79.2621 183.942 78.878 184.888 78.8029C185.891 78.7231 186.89 78.9971 187.68 79.5687C188.469 80.1404 188.99 80.9664 189.135 81.8776L191.074 94.0633Z" fill="#545454"/>
<path d="M208.557 102.689H180.09C186.731 86.616 188.872 71.663 180.09 58.8515C180.241 55.0035 185.64 51.6677 189.833 52.0362C194.786 52.4715 201.441 55.7979 202.368 60.2656L208.557 102.689Z" fill="#2F2E41"/>
<path d="M117.833 51.3297H116.535V18.8173C116.535 16.3462 116.002 13.8992 114.968 11.6162C113.933 9.33319 112.417 7.25879 110.505 5.51144C108.593 3.76409 106.324 2.37802 103.826 1.43236C101.328 0.48671 98.651 -7.40528e-06 95.9475 0H20.5871C17.8836 -5.4565e-06 15.2065 0.486715 12.7088 1.43237C10.211 2.37803 7.94152 3.7641 6.02983 5.51144C4.11814 7.25879 2.6017 9.3332 1.5671 11.6162C0.532497 13.8992 -2.98489e-06 16.3462 0 18.8173V197.183C-2.13206e-06 199.654 0.532497 202.101 1.5671 204.384C2.6017 206.667 4.11814 208.741 6.02983 210.489C7.94152 212.236 10.211 213.622 12.7088 214.568C15.2065 215.513 17.8836 216 20.5871 216H95.9475C98.651 216 101.328 215.513 103.826 214.568C106.324 213.622 108.593 212.236 110.505 210.489C112.417 208.741 113.933 206.667 114.968 204.384C116.002 202.101 116.535 199.654 116.535 197.183V74.4725H117.833V51.3297Z" fill="#3F3D56"/>
<path d="M96.7782 4.89563H86.9412C87.3936 5.90937 87.5662 7.00924 87.444 8.09836C87.3218 9.18747 86.9084 10.2324 86.2403 11.1411C85.5722 12.0498 84.6698 12.7943 83.6127 13.3092C82.5556 13.824 81.3762 14.0934 80.1784 14.0934H37.0054C35.8076 14.0934 34.6282 13.824 33.5712 13.3092C32.5141 12.7943 31.6117 12.0498 30.9436 11.1411C30.2755 10.2324 29.8621 9.18747 29.7399 8.09836C29.6176 7.00925 29.7903 5.90937 30.2427 4.89563H21.0549C19.0359 4.89563 17.0367 5.2591 15.1714 5.96531C13.3062 6.67151 11.6113 7.70661 10.1837 9.01151C8.75605 10.3164 7.62359 11.8655 6.85096 13.5705C6.07833 15.2754 5.68067 17.1027 5.68066 18.9481V197.052C5.68066 198.897 6.07833 200.725 6.85096 202.43C7.62359 204.134 8.75605 205.684 10.1837 206.989C11.6113 208.293 13.3062 209.329 15.1714 210.035C17.0367 210.741 19.0359 211.104 21.0549 211.104H96.7782C98.7972 211.104 100.796 210.741 102.662 210.035C104.527 209.329 106.222 208.293 107.649 206.989C109.077 205.684 110.21 204.134 110.982 202.43C111.755 200.725 112.152 198.897 112.152 197.052V18.9481C112.152 15.2212 110.533 11.6469 107.649 9.0115C104.766 6.37615 100.856 4.89562 96.7782 4.89563Z" fill="white"/>
<path d="M98.8557 32.7167H18.9775V95.3402H98.8557V32.7167Z" fill="#E6E6E6"/>
<path d="M42.6807 108.399C45.9086 108.399 48.5254 106.007 48.5254 103.057C48.5254 100.106 45.9086 97.7145 42.6807 97.7145C39.4527 97.7145 36.8359 100.106 36.8359 103.057C36.8359 106.007 39.4527 108.399 42.6807 108.399Z" fill="#545454"/>
<path d="M45.6035 102.612H43.1682V100.386H42.1941V102.612H39.7588V103.502H42.1941V105.728H43.1682V103.502H45.6035V102.612Z" fill="white"/>
<path d="M73.5283 108.399C76.7563 108.399 79.3731 106.007 79.3731 103.057C79.3731 100.106 76.7563 97.7145 73.5283 97.7145C70.3004 97.7145 67.6836 100.106 67.6836 103.057C67.6836 106.007 70.3004 108.399 73.5283 108.399Z" fill="#545454"/>
<path d="M76.4502 103.502V102.612H70.6055V103.502H76.4502Z" fill="white"/>
<path d="M61.8964 40.5267H55.584C55.362 40.5267 55.1491 40.6073 54.9922 40.7508C54.8352 40.8942 54.7471 41.0888 54.7471 41.2917V43.8242C54.7471 44.0271 54.8352 44.2216 54.9922 44.3651C55.1491 44.5085 55.362 44.5891 55.584 44.5891H56.63V48.3837H60.8503V44.5891H61.8964C62.1183 44.5891 62.3312 44.5085 62.4881 44.3651C62.6451 44.2216 62.7332 44.0271 62.7332 43.8242V41.2917C62.7332 41.0888 62.6451 40.8942 62.4881 40.7508C62.3312 40.6073 62.1183 40.5267 61.8964 40.5267Z" fill="#545454"/>
<path d="M68.2182 63.7043C64.3523 58.5337 62.376 52.3775 62.5724 46.1174C62.5759 45.9729 62.5246 45.8318 62.4272 45.718C62.3298 45.6042 62.1924 45.5248 62.0382 45.4931V44.3988H55.3714V45.4779H55.2796C55.1897 45.478 55.1008 45.4943 55.0178 45.5258C54.9349 45.5573 54.8595 45.6035 54.7961 45.6616C54.7327 45.7197 54.6824 45.7887 54.6481 45.8646C54.6138 45.9405 54.5963 46.0218 54.5964 46.104C54.5964 46.1191 54.597 46.1343 54.5982 46.1495C55.1235 52.8414 53.3499 58.8426 49.2777 64.1531C49.0433 64.4583 48.9236 64.8247 48.9365 65.1974L49.6655 85.8081C49.683 86.2678 49.8941 86.7036 50.2547 87.0244C50.6153 87.3453 51.0975 87.5265 51.6008 87.5301H66.6799C67.1889 87.5263 67.6762 87.341 68.0379 87.0137C68.3996 86.6864 68.6072 86.2429 68.6164 85.7777L68.8973 65.7664C68.9057 65.0319 68.6688 64.3126 68.2182 63.7043Z" fill="#3F3D56"/>
<path opacity="0.2" d="M60.5799 41.3519C60.5799 41.7896 60.3897 42.2094 60.0511 42.5189C59.7124 42.8284 59.2532 43.0023 58.7743 43.0023C58.2955 43.0023 57.8362 42.8284 57.4976 42.5189C57.159 42.2094 56.9687 41.7896 56.9688 41.3519" fill="black"/>
<path d="M65.8311 70.5505H64.0052C63.8308 69.5165 63.2574 68.5737 62.3887 67.8926C61.5199 67.2116 60.4132 66.8372 59.2686 66.8372C58.1241 66.8372 57.0173 67.2116 56.1485 67.8926C55.2797 68.5737 54.7063 69.5165 54.532 70.5505H52.7059C52.5117 70.5505 52.3197 70.5889 52.1431 70.663C51.9666 70.7372 51.8097 70.8454 51.6832 70.9802C51.5567 71.1149 51.4636 71.2731 51.4102 71.4439C51.3569 71.6146 51.3445 71.7939 51.3741 71.9694L53.3575 83.7533H64.7465L67.1556 72.0091C67.1921 71.8313 67.1852 71.6482 67.1355 71.473C67.0858 71.2978 66.9945 71.1348 66.8681 70.9956C66.7416 70.8563 66.5831 70.7442 66.4039 70.6673C66.2247 70.5903 66.0291 70.5505 65.8311 70.5505Z" fill="#545454"/>
<path d="M98.8557 120.864H18.9775V183.488H98.8557V120.864Z" fill="#E6E6E6"/>
<path d="M42.6807 196.547C45.9086 196.547 48.5254 194.155 48.5254 191.205C48.5254 188.254 45.9086 185.862 42.6807 185.862C39.4527 185.862 36.8359 188.254 36.8359 191.205C36.8359 194.155 39.4527 196.547 42.6807 196.547Z" fill="#545454"/>
<path d="M45.6035 190.759H43.1682V188.533H42.1941V190.759H39.7588V191.65H42.1941V193.876H43.1682V191.65H45.6035V190.759Z" fill="white"/>
<path d="M73.5283 196.547C76.7563 196.547 79.3731 194.155 79.3731 191.205C79.3731 188.254 76.7563 185.862 73.5283 185.862C70.3004 185.862 67.6836 188.254 67.6836 191.205C67.6836 194.155 70.3004 196.547 73.5283 196.547Z" fill="#545454"/>
<path d="M76.4502 191.65V190.759H70.6055V191.65H76.4502Z" fill="white"/>
<path d="M74.6419 165.353L74.686 165.353C76.1899 165.365 77.6628 164.962 78.9123 164.197C80.1619 163.432 81.1302 162.34 81.6909 161.064C83.4578 156.981 83.8715 152.512 82.8805 148.215C81.8895 143.919 79.5375 139.983 76.1174 136.899C72.6974 133.815 68.3603 131.718 63.6463 130.871C58.9323 130.023 54.0496 130.461 49.6062 132.131C45.1628 133.801 41.355 136.629 38.6569 140.262C35.9588 143.896 34.4897 148.175 34.4324 152.566C34.3751 156.957 35.7323 161.266 38.3348 164.957C40.9373 168.649 44.6703 171.559 49.0689 173.325C50.436 173.878 51.9541 174.041 53.4242 173.792C54.8942 173.543 56.2476 172.893 57.3067 171.929C59.5785 169.841 62.2799 168.186 65.2552 167.057C68.2304 165.928 71.4206 165.349 74.6419 165.353Z" fill="white"/>
<path d="M62.0618 158.577C66.5282 158.577 70.149 155.268 70.149 151.185C70.149 147.103 66.5282 143.793 62.0618 143.793C57.5954 143.793 53.9746 147.103 53.9746 151.185C53.9746 155.268 57.5954 158.577 62.0618 158.577Z" fill="#F9A825"/>
</svg>
