<svg width="157" height="111" viewBox="0 0 157 111" fill="none" xmlns="http://www.w3.org/2000/svg">
<path d="M156.86 86.0379C156.864 86.7746 156.617 87.4827 156.175 88.0064C155.732 88.53 155.13 88.8264 154.501 88.8302H50.6886C50.3772 88.8283 50.0691 88.7546 49.7819 88.6132C49.4948 88.4719 49.2342 88.2657 49.0151 88.0064C48.796 87.7471 48.6227 87.4398 48.505 87.1021C48.3873 86.7643 48.3275 86.4027 48.3291 86.038V2.99057C48.3258 2.25385 48.5726 1.54578 49.0151 1.02212C49.4575 0.498452 50.0595 0.202095 50.6886 0.198242H154.501C154.812 0.20014 155.121 0.273869 155.408 0.41522C155.695 0.556571 155.955 0.762775 156.175 1.02206C156.394 1.28134 156.567 1.58863 156.685 1.92638C156.802 2.26412 156.862 2.62571 156.86 2.9905V86.0379Z" fill="#E6E6E6"/>
<path d="M155.636 84.6779C155.636 85.3939 155.393 86.0807 154.961 86.587C154.528 87.0934 153.942 87.3778 153.331 87.3778H51.9304C51.319 87.3778 50.7326 87.0934 50.3002 86.587C49.8679 86.0807 49.625 85.3939 49.625 84.6779V4.38845C49.625 3.67237 49.8679 2.98562 50.3002 2.47928C50.7326 1.97294 51.319 1.68848 51.9304 1.68848H153.335C153.946 1.68992 154.531 1.97501 154.962 2.4812C155.394 2.98739 155.636 3.67331 155.636 4.38845V84.6779Z" fill="white"/>
<path d="M55.0442 5.17456H150.325C150.687 5.17456 151.036 5.34341 151.292 5.64395C151.549 5.9445 151.693 6.35213 151.693 6.77716V81.9781C151.693 82.4031 151.549 82.8107 151.292 83.1113C151.036 83.4118 150.687 83.5807 150.325 83.5807H55.0442C54.6813 83.5807 54.3332 83.4118 54.0766 83.1113C53.82 82.8107 53.6758 82.4031 53.6758 81.9781V6.77716C53.6758 6.35213 53.82 5.9445 54.0766 5.64395C54.3332 5.34341 54.6813 5.17456 55.0442 5.17456Z" fill="#E6E6E6"/>
<path d="M56.2502 6.97803H149.015C149.378 6.97803 149.726 7.14687 149.983 7.44742C150.239 7.74796 150.383 8.15559 150.383 8.58063V79.7687C150.383 80.1937 150.239 80.6014 149.983 80.9019C149.726 81.2025 149.378 81.3713 149.015 81.3713H56.2502C55.8873 81.3713 55.5393 81.2025 55.2826 80.9019C55.026 80.6014 54.8818 80.1937 54.8818 79.7687V8.58063C54.8818 8.15559 55.026 7.74796 55.2826 7.44742C55.5393 7.14687 55.8873 6.97803 56.2502 6.97803Z" fill="white"/>
<path d="M121.748 56.4311C121.383 56.4308 121.022 56.3407 120.689 56.1667C120.611 56.1263 120.537 56.0771 120.468 56.0197L113.726 50.4619C113.384 50.18 113.105 49.806 112.912 49.3714C112.72 48.9368 112.619 48.4543 112.619 47.9646V40.3849C112.619 39.8953 112.72 39.4128 112.912 38.9782C113.105 38.5435 113.384 38.1695 113.726 37.8877L120.468 32.3299C120.537 32.2725 120.611 32.2232 120.689 32.1829C121.086 31.9761 121.521 31.8888 121.954 31.9289C122.387 31.9691 122.805 32.1354 123.17 32.4127C123.534 32.69 123.833 33.0696 124.041 33.5169C124.248 33.9643 124.357 34.4652 124.357 34.9742V53.3754C124.357 54.1855 124.082 54.9625 123.593 55.5354C123.104 56.1083 122.44 56.4301 121.748 56.4301L121.748 56.4311Z" fill="#3F3D56"/>
<path d="M106.66 57.9212H87.8572C84.021 57.9175 80.9121 55.0134 80.9082 51.4298V36.9196C80.9121 33.336 84.021 30.4319 87.8572 30.4282H106.709C110.518 30.4324 113.605 33.3158 113.609 36.8738V51.4298C113.605 55.0134 110.496 57.9175 106.66 57.9212Z" fill="#3F3D56"/>
<path d="M140.155 76.7938C143.243 76.7938 145.747 73.8615 145.747 70.2444C145.747 66.6273 143.243 63.6951 140.155 63.6951C137.066 63.6951 134.562 66.6273 134.562 70.2444C134.562 73.8615 137.066 76.7938 140.155 76.7938Z" fill="#E6E6E6"/>
<path d="M143.06 70.127L138.602 67.1129C138.585 67.101 138.565 67.0947 138.544 67.0947C138.524 67.0947 138.504 67.101 138.487 67.1129C138.469 67.1248 138.454 67.1419 138.444 67.1625C138.434 67.1831 138.429 67.2065 138.429 67.2303V73.2584C138.429 73.2822 138.434 73.3056 138.444 73.3262C138.454 73.3468 138.469 73.3639 138.487 73.3758C138.504 73.3877 138.524 73.394 138.544 73.394C138.565 73.394 138.585 73.3877 138.602 73.3758L143.06 70.3618C143.078 70.3499 143.092 70.3328 143.102 70.3121C143.112 70.2915 143.118 70.2682 143.118 70.2444C143.118 70.2206 143.112 70.1972 143.102 70.1766C143.092 70.156 143.078 70.1389 143.06 70.127L138.602 67.1129C138.585 67.101 138.565 67.0947 138.544 67.0947C138.524 67.0947 138.504 67.101 138.487 67.1129C138.469 67.1248 138.454 67.1419 138.444 67.1625C138.434 67.1831 138.429 67.2065 138.429 67.2303V73.2584C138.429 73.2822 138.434 73.3056 138.444 73.3262C138.454 73.3468 138.469 73.3639 138.487 73.3758C138.504 73.3877 138.524 73.394 138.544 73.394C138.565 73.394 138.585 73.3877 138.602 73.3758L143.06 70.3618C143.078 70.3499 143.092 70.3328 143.102 70.3121C143.112 70.2915 143.118 70.2682 143.118 70.2444C143.118 70.2206 143.112 70.1972 143.102 70.1766C143.092 70.156 143.078 70.1389 143.06 70.127Z" fill="white"/>
<path d="M132.894 95.9976C132.897 96.7343 132.65 97.4424 132.208 97.9661C131.765 98.4897 131.163 98.7861 130.534 98.7899H26.7218C26.4104 98.788 26.1023 98.7143 25.8151 98.573C25.528 98.4316 25.2674 98.2254 25.0483 97.9661C24.8292 97.7068 24.6559 97.3996 24.5382 97.0618C24.4205 96.7241 24.3607 96.3625 24.3623 95.9977V12.9503C24.359 12.2136 24.6058 11.5055 25.0483 10.9818C25.4907 10.4582 26.0927 10.1618 26.7218 10.158H130.534C130.846 10.1599 131.154 10.2336 131.441 10.3749C131.728 10.5163 131.989 10.7225 132.208 10.9818C132.427 11.2411 132.6 11.5484 132.718 11.8861C132.836 12.2238 132.895 12.5854 132.894 12.9502V95.9976Z" fill="#E6E6E6"/>
<path d="M131.669 94.6376C131.669 95.3536 131.426 96.0404 130.994 96.5467C130.562 97.0531 129.975 97.3375 129.364 97.3375H27.9636C27.3522 97.3375 26.7658 97.0531 26.3334 96.5467C25.9011 96.0404 25.6582 95.3536 25.6582 94.6376V14.3482C25.6582 13.6321 25.9011 12.9453 26.3334 12.439C26.7658 11.9327 27.3522 11.6482 27.9636 11.6482H129.368C129.979 11.6496 130.564 11.9347 130.996 12.4409C131.427 12.9471 131.669 13.633 131.669 14.3482V94.6376Z" fill="white"/>
<path d="M31.0784 15.134H126.359C126.722 15.134 127.07 15.3029 127.326 15.6034C127.583 15.904 127.727 16.3116 127.727 16.7366V91.9376C127.727 92.3626 127.583 92.7702 127.326 93.0708C127.07 93.3713 126.722 93.5402 126.359 93.5402H31.0784C30.7154 93.5402 30.3674 93.3713 30.1108 93.0708C29.8541 92.7702 29.71 92.3626 29.71 91.9376V16.7366C29.71 16.3116 29.8541 15.904 30.1108 15.6034C30.3674 15.3029 30.7154 15.134 31.0784 15.134Z" fill="#E6E6E6"/>
<path d="M32.2844 16.9377H125.049C125.412 16.9377 125.76 17.1066 126.017 17.4071C126.273 17.7077 126.417 18.1153 126.417 18.5403V89.7284C126.417 90.1535 126.273 90.5611 126.017 90.8616C125.76 91.1622 125.412 91.331 125.049 91.331H32.2844C31.9215 91.331 31.5734 91.1622 31.3168 90.8616C31.0602 90.5611 30.916 90.1535 30.916 89.7284V18.5403C30.916 18.1153 31.0602 17.7077 31.3168 17.4071C31.5734 17.1066 31.9215 16.9377 32.2844 16.9377Z" fill="white"/>
<path d="M97.7825 66.3908C97.4174 66.3905 97.0564 66.3004 96.7229 66.1264C96.6453 66.0861 96.5713 66.0368 96.502 65.9794L89.7602 60.4216C89.4183 60.1397 89.1393 59.7657 88.9467 59.3311C88.754 58.8965 88.6534 58.414 88.6533 57.9243V50.3447C88.6534 49.855 88.754 49.3725 88.9467 48.9379C89.1393 48.5033 89.4183 48.1293 89.7602 47.8474L96.502 42.2896C96.5713 42.2322 96.6453 42.1829 96.7229 42.1426C97.12 41.9358 97.5549 41.8485 97.9882 41.8887C98.4214 41.9288 98.8393 42.0951 99.2037 42.3724C99.5681 42.6497 99.8676 43.0293 100.075 43.4766C100.282 43.924 100.391 44.4249 100.391 44.9339V63.3351C100.391 64.1453 100.116 64.9223 99.6269 65.4951C99.1377 66.068 98.4743 66.3899 97.7825 66.3899L97.7825 66.3908Z" fill="#3F3D56"/>
<path d="M82.6944 67.8809H63.8913C60.0552 67.8772 56.9463 64.9731 56.9424 61.3895V46.8793C56.9463 43.2958 60.0552 40.3916 63.8913 40.3879H82.7435C86.5523 40.3921 89.6389 43.2755 89.6434 46.8335V61.3895C89.6395 64.9731 86.5306 67.8772 82.6944 67.8809Z" fill="#3F3D56"/>
<path d="M116.189 86.7532C119.277 86.7532 121.781 83.821 121.781 80.2039C121.781 76.5868 119.277 73.6545 116.189 73.6545C113.1 73.6545 110.597 76.5868 110.597 80.2039C110.597 83.821 113.1 86.7532 116.189 86.7532Z" fill="#E6E6E6"/>
<path d="M119.093 80.0867L114.636 77.0726C114.618 77.0607 114.598 77.0544 114.578 77.0544C114.557 77.0544 114.537 77.0607 114.52 77.0726C114.502 77.0845 114.488 77.1016 114.477 77.1222C114.467 77.1428 114.462 77.1662 114.462 77.19V83.2182C114.462 83.242 114.467 83.2653 114.477 83.2859C114.488 83.3066 114.502 83.3237 114.52 83.3356C114.537 83.3475 114.557 83.3537 114.578 83.3537C114.598 83.3537 114.618 83.3475 114.636 83.3356L119.093 80.3215C119.111 80.3096 119.125 80.2925 119.136 80.2719C119.146 80.2513 119.151 80.2279 119.151 80.2041C119.151 80.1803 119.146 80.1569 119.136 80.1363C119.125 80.1157 119.111 80.0986 119.093 80.0867L114.636 77.0726C114.618 77.0607 114.598 77.0544 114.578 77.0544C114.557 77.0544 114.537 77.0607 114.52 77.0726C114.502 77.0845 114.488 77.1016 114.477 77.1222C114.467 77.1428 114.462 77.1662 114.462 77.19V83.2182C114.462 83.242 114.467 83.2653 114.477 83.2859C114.488 83.3066 114.502 83.3237 114.52 83.3356C114.537 83.3475 114.557 83.3537 114.578 83.3537C114.598 83.3537 114.618 83.3475 114.636 83.3356L119.093 80.3215C119.111 80.3096 119.125 80.2925 119.136 80.2719C119.146 80.2513 119.151 80.2279 119.151 80.2041C119.151 80.1803 119.146 80.1569 119.136 80.1363C119.125 80.1157 119.111 80.0986 119.093 80.0867Z" fill="white"/>
<path d="M109.392 107.406C109.395 108.143 109.148 108.851 108.706 109.374C108.263 109.898 107.661 110.194 107.032 110.198H3.2199C2.90842 110.196 2.60031 110.123 2.31317 109.981C2.02602 109.84 1.76546 109.634 1.54636 109.374C1.32726 109.115 1.15391 108.808 1.03621 108.47C0.918507 108.132 0.858763 107.771 0.860384 107.406V24.3585C0.857095 23.6218 1.10383 22.9137 1.54631 22.39C1.98879 21.8664 2.59078 21.57 3.21983 21.5662H107.032C107.344 21.5681 107.652 21.6418 107.939 21.7831C108.226 21.9245 108.487 22.1307 108.706 22.39C108.925 22.6493 109.098 22.9566 109.216 23.2943C109.334 23.632 109.393 23.9936 109.392 24.3584V107.406Z" fill="#E6E6E6"/>
<path d="M108.167 106.046C108.167 106.762 107.924 107.449 107.492 107.955C107.06 108.462 106.473 108.746 105.862 108.746H4.46165C3.85022 108.746 3.26383 108.462 2.83149 107.955C2.39914 107.449 2.15625 106.762 2.15625 106.046V25.7566C2.15625 25.0405 2.39914 24.3538 2.83149 23.8474C3.26383 23.3411 3.85022 23.0566 4.46165 23.0566H105.867C106.477 23.0581 107.062 23.3432 107.494 23.8494C107.925 24.3555 108.167 25.0415 108.167 25.7566V106.046Z" fill="white"/>
<path d="M7.57542 26.5425H102.856C103.219 26.5425 103.567 26.7113 103.823 27.0119C104.08 27.3124 104.224 27.72 104.224 28.1451V103.346C104.224 103.771 104.08 104.179 103.823 104.479C103.567 104.78 103.219 104.949 102.856 104.949H7.57542C7.2125 104.949 6.86445 104.78 6.60782 104.479C6.3512 104.179 6.20703 103.771 6.20703 103.346V28.1451C6.20703 27.72 6.3512 27.3124 6.60782 27.0119C6.86445 26.7113 7.2125 26.5425 7.57542 26.5425Z" fill="#E6E6E6"/>
<path d="M8.78148 28.3462H101.546C101.726 28.3462 101.904 28.3876 102.07 28.4682C102.236 28.5487 102.387 28.6668 102.514 28.8156C102.641 28.9644 102.742 29.1411 102.81 29.3355C102.879 29.5299 102.915 29.7383 102.915 29.9488V101.137C102.915 101.347 102.879 101.556 102.81 101.75C102.742 101.945 102.641 102.121 102.514 102.27C102.387 102.419 102.236 102.537 102.07 102.617C101.904 102.698 101.726 102.739 101.546 102.739H8.78148C8.41856 102.739 8.0705 102.571 7.81388 102.27C7.55726 101.97 7.41309 101.562 7.41309 101.137V29.9488C7.41309 29.5238 7.55726 29.1161 7.81388 28.8156C8.0705 28.515 8.41856 28.3462 8.78148 28.3462Z" fill="white"/>
<path d="M74.2796 77.799C73.9145 77.7987 73.5535 77.7086 73.22 77.5346C73.1424 77.4942 73.0684 77.445 72.9991 77.3876L66.2573 71.8298C65.9154 71.5479 65.6364 71.1739 65.4437 70.7393C65.2511 70.3047 65.1505 69.8222 65.1504 69.3325V61.7529C65.1505 61.2632 65.2511 60.7807 65.4437 60.3461C65.6364 59.9115 65.9154 59.5375 66.2573 59.2556L72.9991 53.6978C73.0684 53.6404 73.1424 53.5911 73.2199 53.5508C73.6171 53.344 74.052 53.2567 74.4853 53.2969C74.9185 53.337 75.3363 53.5033 75.7008 53.7806C76.0652 54.0579 76.3647 54.4375 76.572 54.8849C76.7793 55.3322 76.8879 55.8331 76.8879 56.3421V74.7433C76.8879 75.5535 76.6131 76.3305 76.124 76.9033C75.6348 77.4762 74.9714 77.7981 74.2796 77.7981L74.2796 77.799Z" fill="#C17B3A"/>
<path d="M59.1915 79.2891H40.3884C36.5522 79.2854 33.4434 76.3813 33.4395 72.7977V58.2875C33.4434 54.704 36.5522 51.7998 40.3884 51.7961H59.2405C63.0494 51.8004 66.136 54.6837 66.1405 58.2417V72.7977C66.1365 76.3813 63.0277 79.2854 59.1915 79.2891Z" fill="#C17B3A"/>
<path d="M92.686 98.1617C95.7745 98.1617 98.2782 95.2295 98.2782 91.6123C98.2782 87.9952 95.7745 85.063 92.686 85.063C89.5975 85.063 87.0938 87.9952 87.0938 91.6123C87.0938 95.2295 89.5975 98.1617 92.686 98.1617Z" fill="#3F3D56"/>
<path d="M95.5912 91.4949L91.1336 88.4808C91.116 88.4689 91.096 88.4626 91.0757 88.4626C91.0554 88.4626 91.0354 88.4689 91.0178 88.4808C91.0002 88.4927 90.9856 88.5098 90.9755 88.5304C90.9653 88.551 90.96 88.5744 90.96 88.5982V94.6264C90.96 94.6502 90.9653 94.6735 90.9755 94.6941C90.9856 94.7148 91.0002 94.7319 91.0178 94.7438C91.0354 94.7557 91.0554 94.7619 91.0757 94.7619C91.096 94.7619 91.116 94.7557 91.1336 94.7438L95.5912 91.7297C95.6088 91.7178 95.6234 91.7007 95.6335 91.6801C95.6437 91.6595 95.6491 91.6361 95.6491 91.6123C95.6491 91.5885 95.6437 91.5651 95.6335 91.5445C95.6234 91.5239 95.6088 91.5068 95.5912 91.4949L91.1336 88.4808C91.116 88.4689 91.096 88.4626 91.0757 88.4626C91.0554 88.4626 91.0354 88.4689 91.0178 88.4808C91.0002 88.4927 90.9856 88.5098 90.9755 88.5304C90.9653 88.551 90.96 88.5744 90.96 88.5982V94.6264C90.96 94.6502 90.9653 94.6735 90.9755 94.6941C90.9856 94.7148 91.0002 94.7319 91.0178 94.7438C91.0354 94.7557 91.0554 94.7619 91.0757 94.7619C91.096 94.7619 91.116 94.7557 91.1336 94.7438L95.5912 91.7297C95.6088 91.7178 95.6234 91.7007 95.6335 91.6801C95.6437 91.6595 95.6491 91.6361 95.6491 91.6123C95.6491 91.5885 95.6437 91.5651 95.6335 91.5445C95.6234 91.5239 95.6088 91.5068 95.5912 91.4949Z" fill="white"/>
</svg>
