<svg width="179" height="68" viewBox="0 0 179 68" fill="none" xmlns="http://www.w3.org/2000/svg">
<path d="M99.63 12.24H102.516V48.081H99.63V12.24ZM96.12 19.767L98.343 20.118C98.148 23.277 97.407 27.762 96.393 30.609L94.092 29.829C95.106 27.216 95.847 22.926 96.12 19.767ZM102.594 19.416L104.7 18.519C105.909 20.82 107.196 23.823 107.703 25.617L105.48 26.748C105.051 24.876 103.764 21.756 102.594 19.416ZM107.937 18.48H127.242V31.74H124.356V21.249H107.937V18.48ZM105.87 30.18H130.596V32.988H105.87V30.18ZM115.581 12.24H118.506V25.266C118.506 32.91 117.531 42.309 106.611 48.276C106.221 47.652 105.246 46.599 104.583 46.014C115.191 40.71 115.581 32.091 115.581 25.266V12.24ZM119.169 35.133L121.626 33.963C124.551 37.902 128.295 43.284 130.206 46.482L127.554 47.964C125.799 44.766 122.094 39.228 119.169 35.133ZM156.765 24.447V29.4H172.092V24.447H156.765ZM154.035 22.068H174.939V31.779H154.035V22.068ZM152.436 16.335H176.616V18.87H152.436V16.335ZM162.888 12.279H165.735V43.089H162.888V12.279ZM162.186 30.882L164.331 31.701C161.913 35.874 157.506 39.93 153.411 41.958C153.021 41.256 152.163 40.281 151.539 39.735C155.517 38.097 159.924 34.47 162.186 30.882ZM163.59 32.754L165.384 30.921C169.245 33.3 174.12 36.771 176.499 39.189L174.549 41.295C172.287 38.877 167.49 35.172 163.59 32.754ZM143.037 13.527L145.26 12.279C146.937 14.19 148.965 16.725 149.94 18.324L147.6 19.845C146.664 18.207 144.636 15.477 143.037 13.527ZM141.594 21.249H149.823V23.706H141.594V21.249ZM148.536 39.15C150.954 44.259 156.024 44.961 163.824 44.961C167.958 44.961 173.652 44.805 177.669 44.454C177.24 45.078 176.889 46.404 176.733 47.184C173.028 47.418 168.114 47.496 163.824 47.496C154.659 47.496 149.55 46.482 146.586 40.047L148.536 39.15ZM148.536 30.999H149.394L149.901 30.921L151.227 31.467C149.979 39.657 146.976 45.195 142.92 48.198C142.53 47.613 141.555 46.599 140.97 46.17C144.831 43.518 147.561 38.526 148.536 31.506V30.999ZM142.179 33.924V31.701L143.583 30.999H149.745V33.378H144.48C143.466 33.378 142.452 33.612 142.179 33.924ZM142.179 33.885C141.984 33.222 141.399 31.857 141.087 31.272C141.672 31.116 142.296 30.843 142.959 30.102C144.129 28.932 147.717 23.589 149.004 21.522V21.405L149.862 21.054L151.773 21.912C149.979 24.564 146.547 29.595 144.363 32.052C144.363 32.052 142.179 33.144 142.179 33.885Z" fill="black"/>
<g clip-path="url(#clip0_294_252)">
<path d="M21.9583 28.8478L29.3809 34.5734C29.6666 36.8817 31.6124 38.6768 33.9998 38.6768C36.5834 38.6768 38.6767 36.5824 38.6767 34C38.6767 33.8998 38.6536 33.8071 38.6472 33.708L49.5251 20.839C50.285 19.9873 50.2978 18.7604 49.5578 18.1026C48.8168 17.4428 47.6014 17.6009 46.8436 18.4525L36.1542 29.8723C35.507 29.5328 34.7808 29.3231 33.9997 29.3231C33.1627 29.3231 32.3892 29.5603 31.7103 29.9451L24.7209 25.0784C23.8196 24.4143 22.4683 24.7221 21.704 25.7636C20.9421 26.8027 21.0538 28.1846 21.9583 28.8478Z" fill="#C17B3A"/>
<path d="M34 0C32.5096 0 31.3016 1.20806 31.3016 2.69848C31.3016 4.18891 32.5097 5.39684 34 5.39684C41.9077 5.3979 49.0405 8.5939 54.2255 13.7745C59.4062 18.9585 62.6022 26.0923 62.6032 34C62.6022 41.9077 59.4062 49.0405 54.2255 54.2255C49.0405 59.4062 41.9077 62.6021 34 62.6032C26.0925 62.6021 18.9585 59.4061 13.7746 54.2255C8.5939 49.0405 5.3979 41.9077 5.39684 34C5.3979 28.2543 7.09285 22.9187 10.0053 18.441L12.5097 20.3129C12.7807 20.5153 13.139 20.5659 13.4563 20.4457C13.7725 20.3256 14.0087 20.0547 14.0783 19.7216L15.7636 11.7498C16.0641 11.2342 16.1926 10.6419 16.1199 10.06L16.8819 6.45721C16.9631 6.0779 16.8145 5.6877 16.5055 5.45474C16.1945 5.22391 15.7783 5.1923 15.4367 5.37784L3.51196 11.8246C3.2126 11.9879 3.01763 12.2894 2.99346 12.6277C2.96809 12.965 3.11777 13.2939 3.38977 13.4973L5.6707 15.2017C2.09127 20.5881 -0.000929378 27.0547 3.09706e-07 34C0.00212531 52.7792 15.2208 67.9979 34 68C52.7793 67.9979 67.998 52.7792 68 34C67.998 15.2208 52.7793 0.002125 34 0Z" fill="#C17B3A"/>
</g>
<defs>
<clipPath id="clip0_294_252">
<rect width="68" height="68" fill="white"/>
</clipPath>
</defs>
</svg>
