<svg width="251" height="251" viewBox="0 0 251 251" fill="none" xmlns="http://www.w3.org/2000/svg">
<path d="M222.859 191.164L222.854 191.276L228.723 250.907H185.894L180.342 214.283L177.898 249.968L133.916 249.498L138.587 202.648L142.561 180.933V180.928L143.157 177.66H221.691L221.793 178.843L222.859 191.164Z" fill="#B8CCFF"/>
<path d="M109.672 225.731C114.208 226.525 118.938 221.617 120.236 214.769C120.805 211.771 120.621 208.899 119.855 206.549L120.551 202.602L132.222 149.494C132.222 149.494 153.716 108.187 153.715 101.015C153.714 93.8444 147.498 90.3276 147.498 90.3276L139.085 90.4032L112.704 152.309L107.953 198.055L107.184 204.331C105.605 206.27 104.378 208.896 103.81 211.894C102.512 218.742 105.136 224.937 109.672 225.731Z" fill="#FFB6B6"/>
<path d="M195.247 64.7383L187.428 47.3657L162.016 51.5915L160.305 72.0308L195.247 64.7383Z" fill="#FFB6B6"/>
<path opacity="0.1" d="M195.247 64.7383L187.428 47.3657L162.016 51.5915L160.305 72.0308L195.247 64.7383Z" fill="black"/>
<path d="M250.47 100.892C250.47 100.892 232.388 68.4945 228.968 65.2078C227.445 63.7447 225.051 63.7243 222.862 64.1508L197.691 55.8173L189.159 51.2115L188.597 59.9739L160.587 64.8042C160.743 59.4605 161.527 57.428 161.527 57.428L151.264 68.9641L131.228 78.3546L131.239 78.4392C129.768 78.9323 128.374 79.7761 127.318 81.1718C123.409 86.3366 112.657 149.254 112.657 149.254L135.626 153.949L138.752 135.102L141.002 152.071L142.712 183.764C142.712 183.764 173.989 209.588 189.139 200.197C204.288 190.807 222.859 191.276 222.859 191.276L223.322 176.586C223.652 176.079 223.836 175.782 223.836 175.782L223.347 123.672V109.805C227.07 114.789 231.563 119.074 236.787 121.082C253.891 127.655 250.47 100.892 250.47 100.892Z" fill="#CDAA8B"/>
<path d="M172.066 54.6481C184.977 54.6481 195.444 44.5917 195.444 32.1865C195.444 19.7814 184.977 9.72498 172.066 9.72498C159.154 9.72498 148.687 19.7814 148.687 32.1865C148.687 44.5917 159.154 54.6481 172.066 54.6481Z" fill="#FFB6B6"/>
<path d="M188.837 38.5344C188.837 38.5344 190.87 31.6983 195.444 32.1866C200.018 32.6749 201.035 28.7685 200.018 26.8154C199.002 24.8622 196.969 15.0963 196.969 15.0963C196.969 15.0963 197.985 8.26016 191.887 7.28357C185.788 6.30699 183.755 5.33039 182.739 3.37721C181.722 1.42403 166.475 -0.529145 161.393 2.40063C156.311 5.33039 152.245 10.9515 148.687 12.5356C145.129 14.1197 142.08 17.0495 144.113 21.9324C146.146 26.8154 149.094 36.3654 149.094 36.3654C149.094 36.3654 154.278 34.6281 155.294 37.5578C156.311 40.4876 152.245 36.5813 157.327 28.7685C162.409 20.9558 162.409 13.1431 170.541 16.0729C178.673 19.0026 187.821 18.0261 186.804 23.8856C185.788 29.7451 188.837 38.5344 188.837 38.5344Z" fill="#2F2E41"/>
<path d="M187.408 216.601H9.85554C4.83438 216.601 0.749512 212.676 0.749512 207.852V117.236C0.749512 112.412 4.83438 108.487 9.85554 108.487H187.408C192.429 108.487 196.514 112.412 196.514 117.236V207.852C196.514 212.676 192.429 216.601 187.408 216.601Z" fill="white"/>
<path d="M187.408 216.601H9.85554C4.83438 216.601 0.749512 212.676 0.749512 207.852V117.236C0.749512 112.412 4.83438 108.487 9.85554 108.487H187.408C192.429 108.487 196.514 112.412 196.514 117.236V207.852C196.514 212.676 192.429 216.601 187.408 216.601ZM9.85554 109.948C5.67303 109.948 2.27015 113.218 2.27015 117.236V207.852C2.27015 211.87 5.67303 215.14 9.85554 215.14H187.408C191.59 215.14 194.993 211.87 194.993 207.852V117.236C194.993 113.218 191.59 109.948 187.408 109.948H9.85554Z" fill="#3F3D56"/>
<path d="M173.704 119.445C174.964 119.445 175.985 118.464 175.985 117.253C175.985 116.043 174.964 115.062 173.704 115.062C172.445 115.062 171.423 116.043 171.423 117.253C171.423 118.464 172.445 119.445 173.704 119.445Z" fill="#3F3D56"/>
<path d="M179.787 119.445C181.047 119.445 182.068 118.464 182.068 117.253C182.068 116.043 181.047 115.062 179.787 115.062C178.527 115.062 177.506 116.043 177.506 117.253C177.506 118.464 178.527 119.445 179.787 119.445Z" fill="#3F3D56"/>
<path d="M185.869 119.445C187.129 119.445 188.15 118.464 188.15 117.253C188.15 116.043 187.129 115.062 185.869 115.062C184.61 115.062 183.588 116.043 183.588 117.253C183.588 118.464 184.61 119.445 185.869 119.445Z" fill="#3F3D56"/>
<path d="M13.6747 152.682C13.0458 152.682 12.5342 153.174 12.5342 153.778C12.5342 154.073 12.6526 154.345 12.8676 154.546C13.0844 154.76 13.3684 154.874 13.6747 154.874H184.348C184.977 154.874 185.489 154.382 185.489 153.778C185.489 153.483 185.37 153.211 185.155 153.01C184.939 152.797 184.655 152.682 184.348 152.682H13.6747Z" fill="#E6E6E6"/>
<path d="M163.06 152.317V155.239H13.6749C13.2568 155.239 12.8766 155.078 12.6029 154.808C12.3215 154.545 12.1543 154.18 12.1543 153.778C12.1543 152.975 12.8386 152.317 13.6749 152.317H163.06Z" fill="#3D3C50"/>
<path d="M182.448 146.838H167.241C165.565 146.838 164.2 145.528 164.2 143.916C164.2 142.305 165.565 140.994 167.241 140.994H182.448C184.125 140.994 185.489 142.305 185.489 143.916C185.489 145.528 184.125 146.838 182.448 146.838Z" fill="#E6E6E6"/>
<path d="M82.8455 131.498H14.8152C13.1383 131.498 11.7739 130.188 11.7739 128.576C11.7739 126.965 13.1383 125.654 14.8152 125.654H82.8455C84.5225 125.654 85.8868 126.965 85.8868 128.576C85.8868 130.188 84.5225 131.498 82.8455 131.498Z" fill="#E6E6E6"/>
<path d="M13.6747 185.555C13.0458 185.555 12.5342 186.046 12.5342 186.65C12.5342 186.945 12.6526 187.218 12.8676 187.419C13.0844 187.632 13.3684 187.746 13.6747 187.746H184.348C184.977 187.746 185.489 187.255 185.489 186.65C185.489 186.356 185.37 186.083 185.155 185.882C184.939 185.669 184.655 185.555 184.348 185.555H13.6747Z" fill="#E6E6E6"/>
<path d="M104.515 185.189V188.111H13.6749C13.2568 188.111 12.8766 187.951 12.6029 187.68C12.3215 187.417 12.1543 187.052 12.1543 186.65C12.1543 185.847 12.8386 185.189 13.6749 185.189H104.515Z" fill="#3D3C50"/>
<path d="M182.448 179.711H167.241C165.565 179.711 164.2 178.4 164.2 176.789C164.2 175.177 165.565 173.867 167.241 173.867H182.448C184.125 173.867 185.489 175.177 185.489 176.789C185.489 178.4 184.125 179.711 182.448 179.711Z" fill="#E6E6E6"/>
<path d="M209.069 56.3771C222.22 56.3771 232.881 46.3498 232.881 33.9806C232.881 21.6114 222.22 11.5842 209.069 11.5842C195.918 11.5842 185.256 21.6114 185.256 33.9806C185.256 46.3498 195.918 56.3771 209.069 56.3771Z" fill="#3D3C50"/>
<path d="M217.151 22.6838C213.981 28.23 210.81 33.7761 207.64 39.3223C205.62 35.8924 203.61 32.4565 201.585 29.0293C200.885 27.8456 198.983 28.9102 199.684 30.0968C202.032 34.0697 204.355 38.0558 206.703 42.0288C207.105 42.7081 208.207 42.7238 208.604 42.0288C212.087 35.9363 215.569 29.8438 219.052 23.7514C219.734 22.5576 217.834 21.4891 217.151 22.6838Z" fill="white"/>
<path d="M241.941 93.015L218.216 82.111C218.216 82.111 217.263 74.8127 212.814 72.2096C212.058 70.4759 211.187 68.5712 210.397 67.062C208.442 63.3298 211.374 56.2869 208.931 56.2869C206.487 56.2869 202.875 63.6939 203.066 65.6774C203.213 67.2001 204.523 69.8585 204.794 72.1855C201.814 73.2652 199.41 75.1158 197.83 76.5893C196.462 77.8644 195.954 79.7668 196.488 81.5244C198.037 86.6174 201.909 97.1359 207.465 97.1359C214.795 97.1359 216.75 95.7273 216.75 95.7273C216.75 95.7273 231.9 114.039 243.14 115.448C254.38 116.856 241.941 93.015 241.941 93.015Z" fill="#FFB6B6"/>
</svg>
