<svg width="251" height="237" viewBox="0 0 251 237" fill="none" xmlns="http://www.w3.org/2000/svg">
<path d="M243.068 0.203125H8.80539C4.51482 0.203125 1.03662 3.78788 1.03662 8.20989V171.597C1.03662 176.019 4.51482 179.603 8.80539 179.603H243.068C247.358 179.603 250.836 176.019 250.836 171.597V8.20989C250.836 3.78788 247.358 0.203125 243.068 0.203125Z" fill="#263238"/>
<path d="M250.837 8.2099L250.8 7.64824C250.79 7.41776 250.764 7.18833 250.722 6.96177C250.677 6.64269 250.608 6.32766 250.516 6.01943C250.226 4.97635 249.732 4.0054 249.064 3.16619C248.397 2.32698 247.57 1.63721 246.634 1.13924C245.982 0.795359 245.288 0.545478 244.57 0.396604C243.769 0.260867 242.958 0.210672 242.148 0.246824H236.522H222.493L133.088 0.302993H71.3254H9.76858C9.00755 0.271955 8.24537 0.313737 7.49184 0.427804C6.74224 0.558805 6.01701 0.809357 5.34225 1.17044C3.97889 1.89163 2.85675 3.0177 2.1209 4.4031C1.76377 5.10081 1.5029 5.84648 1.34584 6.61853C1.221 7.40627 1.17232 8.20482 1.20052 9.00247V23.6867C1.20052 30.2727 1.20052 36.9294 1.20052 43.6568V84.8452C1.20052 112.835 1.20052 141.81 1.20052 171.49C1.19534 173.317 1.81078 175.088 2.94005 176.496C4.06932 177.904 5.64116 178.859 7.38284 179.198C8.25849 179.332 9.14468 179.378 10.0289 179.335H80.6806H158.998H229.843H242.166C242.833 179.357 243.501 179.326 244.164 179.241C245.781 179.01 247.283 178.248 248.447 177.068C249.611 175.887 250.375 174.352 250.625 172.689C250.7 172.024 250.726 171.354 250.704 170.685C250.704 170.011 250.704 169.344 250.704 168.67V164.669C250.704 154.056 250.704 143.878 250.704 134.134C250.704 95.2359 250.746 63.7518 250.758 41.9906C250.758 31.1194 250.758 22.6445 250.788 16.9406C250.788 14.0824 250.788 11.8981 250.788 10.4253C250.788 8.95254 250.788 8.2099 250.788 8.2099C250.788 8.2099 250.788 8.95879 250.788 10.4253C250.788 11.8919 250.788 14.0824 250.788 16.9406C250.788 22.6695 250.788 31.1194 250.788 41.9906C250.788 63.7518 250.825 95.2359 250.849 134.134C250.849 143.861 250.849 154.04 250.849 164.669C250.849 165.999 250.849 167.328 250.849 168.67V170.685C250.869 171.367 250.84 172.049 250.764 172.726C250.574 174.111 250.041 175.422 249.219 176.534C248.396 177.647 247.31 178.523 246.065 179.079C245.435 179.353 244.774 179.544 244.097 179.647C243.423 179.733 242.742 179.766 242.063 179.747H229.868H159.022H80.7048H10.0411C9.13646 179.789 8.23003 179.741 7.3344 179.603C5.51198 179.249 3.86714 178.249 2.68493 176.777C1.50271 175.304 0.857616 173.452 0.861432 171.54C0.861432 141.86 0.861432 112.878 0.861432 84.8951C0.861432 70.9035 0.861432 57.1741 0.861432 43.7068V9.06488C0.835411 8.24607 0.888146 7.42662 1.01886 6.61853C1.18235 5.81416 1.45338 5.03706 1.8242 4.30949C2.59698 2.86726 3.76617 1.69265 5.18482 0.9333C5.88879 0.56001 6.64452 0.301086 7.42523 0.165697C8.1967 0.0477881 8.97713 0.00391598 9.75647 0.0346443H36.9381H71.3314H133.094L222.499 0.0908079H236.528H242.148C242.958 0.0625711 243.769 0.116922 244.57 0.253066C245.296 0.403248 245.997 0.65963 246.653 1.01443C247.594 1.51916 248.425 2.21772 249.093 3.06684C249.762 3.91596 250.254 4.89754 250.54 5.95078C250.629 6.25917 250.693 6.57425 250.734 6.89313C250.775 7.12186 250.799 7.3534 250.806 7.58584C250.837 8.01644 250.837 8.2099 250.837 8.2099Z" fill="#263238"/>
<path d="M238.284 83.0167C239.602 83.0167 240.889 83.4193 241.985 84.1736C243.08 84.9279 243.934 86.0001 244.438 87.2544C244.942 88.5088 245.074 89.8891 244.817 91.2207C244.56 92.5523 243.926 93.7755 242.994 94.7355C242.063 95.6956 240.876 96.3494 239.584 96.6143C238.292 96.8791 236.952 96.7432 235.735 96.2236C234.518 95.704 233.478 94.8242 232.746 93.6953C232.014 92.5664 231.624 91.2392 231.624 89.8814C231.624 88.0608 232.325 86.3147 233.574 85.0273C234.824 83.74 236.518 83.0167 238.284 83.0167Z" fill="#455A64"/>
<path d="M14.237 71.5214V108.173C14.2378 108.508 14.1743 108.841 14.0502 109.151C13.9261 109.462 13.7438 109.744 13.5138 109.982C13.2837 110.219 13.0105 110.408 12.7096 110.537C12.4087 110.665 12.0862 110.731 11.7605 110.731C11.4344 110.731 11.1116 110.665 10.8104 110.537C10.5092 110.408 10.2355 110.22 10.005 109.982C9.77444 109.744 9.59157 109.462 9.46681 109.152C9.34205 108.842 9.27783 108.509 9.27783 108.173V71.5401C9.27783 70.8615 9.53939 70.2107 10.005 69.7309C10.4706 69.251 11.102 68.9814 11.7605 68.9814C12.4152 68.9814 13.0433 69.2486 13.5074 69.7246C13.9715 70.2006 14.2338 70.8466 14.237 71.5214Z" fill="#455A64"/>
<path d="M227.47 6.01318H18.8574V174.099H227.47V6.01318Z" fill="#EBEBEB"/>
<path d="M153.36 127.35L169.491 156.65L209.153 156.045L206.906 124.249L153.36 127.35Z" fill="#E0E0E0"/>
<path d="M100.935 28.4046L95.1099 74.7166L107.141 77.6746L130.666 75.2657L126.348 24.6727L100.935 28.4046Z" fill="#E0E0E0"/>
<path d="M64.3917 123.188H36.5864V88.6832L66.8017 88.9953L64.3917 123.188Z" fill="#F5F5F5"/>
<path d="M178.859 124.249C178.859 123.269 183.758 88.9953 183.758 88.9953C183.758 88.9953 202.929 83.5846 203.001 84.3585C203.074 85.1323 206.816 123.338 206.816 123.338L178.859 124.249Z" fill="#F5F5F5"/>
<path d="M39.7842 36.4677C39.8387 37.3039 53.0632 64.7129 53.0632 64.7129L68.3767 60.5317V28.9976L52.5848 28.6232L39.7842 36.4677Z" fill="#E0E0E0"/>
<path d="M133.3 93.657H112.125V103.954H133.3V93.657Z" fill="#E0E0E0"/>
<path d="M133.397 107.368L112.071 108.479L110.987 129.347L135.341 127.35L133.397 107.368Z" fill="#E0E0E0"/>
<path d="M218.823 68.6694L215.862 26.3079H227.415L227.47 67.827L218.823 68.6694Z" fill="#E0E0E0"/>
<path d="M171.508 19.3682L176.322 72.1579L201.578 69.8239L197.17 24.7975L177.175 19.3682H171.508Z" fill="#E0E0E0"/>
<path d="M55.4671 28.8103L19.0029 28.2424L19.0393 25.7461L53.4931 26.2828L57.4714 6.03186L59.8511 6.52487L55.4671 28.8103Z" fill="white"/>
<path d="M36.4116 69.5868L18.7427 28.7479L19.2937 28.4921L36.7568 68.8442L68.3042 60.2258L68.4556 60.8311L36.4116 69.5868Z" fill="white"/>
<path d="M66.8081 88.3712H19.0269V89.6193H66.8081V88.3712Z" fill="white"/>
<path d="M36.8838 69.2185H36.2783V123.194H36.8838V69.2185Z" fill="white"/>
<path d="M64.5556 122.913H19.0269V123.537H64.5556V122.913Z" fill="white"/>
<path d="M62.194 172.021L18.833 162.161L19.3538 159.721L59.9839 168.963L66.9534 69.0189L68.0009 27.4499L69.6298 6.18176L72.0397 6.37522L70.4169 27.6122L69.3755 69.1438L62.194 172.021Z" fill="white"/>
<path d="M69.1093 30.3268L54.3589 28.7916L54.6071 26.3079L67.6439 27.6683L69.7995 22.9254L89.2306 27.7806L176.607 17.5148L207.046 25.6651L227.379 25.0597L227.452 27.5497L206.773 28.1738L176.431 20.0485L89.0792 30.3081L71.1559 25.8336L69.1093 30.3268Z" fill="white"/>
<path d="M170.697 126.19L168.293 125.865L175.099 72.1454L169.867 19.4181V6.01318H172.289V19.3557L177.539 72.1766L170.697 126.19Z" fill="white"/>
<path d="M63.3626 133.578L63.2173 131.088L206.04 122.139L225.477 81.3503L227.651 82.4487L207.597 124.542L206.894 124.586L63.3626 133.578Z" fill="white"/>
<path d="M134.874 128.854L125.743 24.7289L125.247 6.30026L126.458 6.26282L126.954 24.6603L136.079 128.742L134.874 128.854Z" fill="white"/>
<path d="M115.703 173.431L105.143 128.985V78.7107L93.2568 75.6652L98.4158 27.9429L97.9375 6.03822L100.36 5.98206L100.844 28.0553L100.838 28.1364L95.8969 73.7681L107.565 76.7636V128.68L118.059 172.839L115.703 173.431Z" fill="white"/>
<path d="M106.355 88.6832H66.8022V89.3073H106.355V88.6832Z" fill="white"/>
<path d="M68.2187 68.7994L68.0967 69.4106L94.5127 75.014L94.6347 74.4028L68.2187 68.7994Z" fill="white"/>
<path d="M106.288 109.658L96.8906 107.518V88.9952H97.4961V107.018L106.421 109.046L106.288 109.658Z" fill="white"/>
<path d="M91.6162 173.4L86.3361 155.933H62.1699V153.436H88.1163L93.9293 172.657L91.6162 173.4Z" fill="white"/>
<path d="M169.316 156.969L153.1 127.5L153.627 127.194L169.667 156.338L227.336 155.452L227.349 156.076L169.316 156.969Z" fill="white"/>
<path d="M197.69 156.65H197.085V173.475H197.69V156.65Z" fill="white"/>
<path d="M208.85 156.07L206.604 124.274L195.026 6.04446L195.632 5.98206L207.209 124.218L209.456 156.02L208.85 156.07Z" fill="white"/>
<path d="M227.448 67.5035L106.332 77.4152L106.38 78.0373L227.496 68.1256L227.448 67.5035Z" fill="white"/>
<path d="M216.46 27.3353L215.254 27.4469L218.851 68.7375L220.057 68.6259L216.46 27.3353Z" fill="white"/>
<path d="M217.838 50.5309L200.092 55.0569L200.238 55.6627L217.983 51.1366L217.838 50.5309Z" fill="white"/>
<path d="M210.037 52.6121L206.894 34.2521L198.036 33.2848L198.096 32.667L207.409 33.6842L210.63 52.4998L210.037 52.6121Z" fill="white"/>
<path d="M150.064 22.5418L148.857 22.6484L153.063 73.212L154.27 73.1054L150.064 22.5418Z" fill="white"/>
<path d="M173.59 50.1891L152.129 55.0562L152.26 55.6656L173.72 50.7986L173.59 50.1891Z" fill="white"/>
<path d="M168.906 156.577L166.701 174.192L167.902 174.352L170.107 156.737L168.906 156.577Z" fill="white"/>
<path d="M69.2122 90.0562L66.8022 128.798L104.375 126.913V111.711L94.5349 109.471V91.7224L69.2122 90.0562Z" fill="#E0E0E0"/>
<path d="M58.8636 99.492C58.8643 98.1394 58.5625 96.8049 57.9815 95.5921C57.4006 94.3792 56.5562 93.3208 55.5139 92.4989C54.4716 91.677 53.2595 91.1138 51.9717 90.853C50.684 90.5923 49.3552 90.641 48.0887 90.9954C46.8222 91.3499 45.652 92.0004 44.669 92.8966C43.6861 93.7927 42.9168 94.9104 42.4209 96.1627C41.9251 97.415 41.716 98.7683 41.81 100.117C41.904 101.467 42.2985 102.775 42.9628 103.942V103.973C43.2898 104.541 43.6955 104.946 44.1133 105.545L49.0664 112.31C49.2103 112.507 49.3965 112.666 49.6103 112.776C49.8242 112.886 50.0598 112.943 50.2986 112.943C50.5375 112.943 50.7731 112.886 50.9869 112.776C51.2007 112.666 51.3869 112.507 51.5308 112.31L56.375 105.658C56.8182 105.118 57.2326 104.553 57.6163 103.967C58.4171 102.619 58.8482 101.072 58.8636 99.492ZM50.3259 103.324C49.5816 103.325 48.8538 103.099 48.2345 102.673C47.6152 102.248 47.1323 101.643 46.847 100.934C46.5616 100.226 46.4866 99.4461 46.6315 98.6938C46.7764 97.9415 47.1347 97.2503 47.6609 96.708C48.1872 96.1656 48.8577 95.7964 49.5877 95.647C50.3177 95.4977 51.0743 95.575 51.7616 95.8691C52.4489 96.1632 53.0362 96.6609 53.4489 97.2991C53.8616 97.9374 54.0813 98.6875 54.0801 99.4546C54.0785 100.48 53.6824 101.463 52.9787 102.189C52.275 102.914 51.3211 103.322 50.3259 103.324Z" fill="#FFC9A1"/>
<path d="M139.21 68.5321C139.213 67.1783 138.913 65.842 138.333 64.6272C137.754 63.4124 136.91 62.3518 135.867 61.528C134.825 60.7042 133.612 60.1394 132.324 59.8775C131.035 59.6156 129.705 59.6638 128.437 60.0182C127.169 60.3726 125.998 61.0237 125.014 61.9208C124.031 62.8179 123.261 63.9369 122.765 65.1907C122.27 66.4444 122.061 67.7991 122.157 69.1493C122.252 70.4996 122.648 71.8089 123.315 72.9755V73.0129C123.642 73.5808 124.054 73.9865 124.472 74.5856L129.437 81.338C129.581 81.5344 129.767 81.6938 129.981 81.8035C130.195 81.9133 130.43 81.9704 130.669 81.9704C130.908 81.9704 131.143 81.9133 131.357 81.8035C131.571 81.6938 131.757 81.5344 131.901 81.338L136.788 74.6917C137.222 74.1519 137.626 73.5873 137.999 73.0005C138.786 71.6507 139.204 70.1068 139.21 68.5321ZM130.672 72.3639C129.928 72.3639 129.201 72.1366 128.583 71.7108C127.965 71.2849 127.483 70.6797 127.198 69.9715C126.913 69.2634 126.839 68.4842 126.984 67.7324C127.129 66.9806 127.487 66.2901 128.013 65.7481C128.539 65.2061 129.209 64.837 129.938 64.6875C130.668 64.5379 131.424 64.6147 132.111 64.908C132.798 65.2013 133.385 65.6981 133.799 66.3354C134.212 66.9727 134.432 67.722 134.432 68.4885C134.432 68.9979 134.335 69.5024 134.145 69.973C133.956 70.4436 133.679 70.8711 133.329 71.231C132.979 71.591 132.564 71.8763 132.107 72.0707C131.65 72.2651 131.16 72.3647 130.666 72.3639H130.672Z" fill="#FFC9A1"/>
<path d="M103.763 144.756C103.766 143.827 103.561 142.91 103.163 142.076C102.766 141.242 102.188 140.514 101.473 139.949C100.758 139.383 99.926 138.996 99.0418 138.816C98.1577 138.636 97.2452 138.669 96.3755 138.912C95.5057 139.155 94.7021 139.601 94.0272 140.217C93.3523 140.832 92.8244 141.6 92.4845 142.46C92.1447 143.321 92.0021 144.25 92.0679 145.176C92.1336 146.103 92.4059 147.001 92.8636 147.801C93.0877 148.188 93.3722 148.469 93.6568 148.874L97.0538 153.517C97.1527 153.651 97.2801 153.759 97.4261 153.833C97.572 153.907 97.7326 153.946 97.8955 153.946C98.0583 153.946 98.2189 153.907 98.3649 153.833C98.5108 153.759 98.6382 153.651 98.7371 153.517L102.08 148.956C102.384 148.584 102.669 148.197 102.933 147.795C103.468 146.876 103.754 145.827 103.763 144.756ZM97.9076 147.383C97.3971 147.384 96.8978 147.229 96.4728 146.938C96.0478 146.646 95.7163 146.232 95.5201 145.746C95.3239 145.26 95.272 144.726 95.3708 144.21C95.4697 143.693 95.7149 143.219 96.0754 142.847C96.4359 142.474 96.8955 142.22 97.396 142.117C97.8966 142.014 98.4155 142.067 98.8872 142.268C99.3589 142.469 99.7622 142.809 100.046 143.247C100.33 143.684 100.481 144.198 100.481 144.724C100.482 145.073 100.416 145.419 100.287 145.741C100.158 146.064 99.9685 146.357 99.7294 146.604C99.4904 146.851 99.2064 147.047 98.8938 147.18C98.5812 147.314 98.246 147.383 97.9076 147.383Z" fill="#FFC9A1"/>
<path d="M209.977 35.2195C209.97 33.7162 209.42 32.2695 208.433 31.1625C207.446 30.0555 206.094 29.3679 204.641 29.2344C203.188 29.1009 201.74 29.5311 200.578 30.4407C199.417 31.3504 198.627 32.6739 198.363 34.1524C198.113 35.5672 198.367 37.0275 199.077 38.265C199.301 38.6519 199.586 38.9327 199.871 39.3446L203.268 43.9814C203.366 44.1147 203.494 44.2227 203.64 44.297C203.786 44.3713 203.946 44.41 204.109 44.41C204.272 44.41 204.433 44.3713 204.579 44.297C204.725 44.2227 204.852 44.1147 204.951 43.9814L208.293 39.4195C208.598 39.0483 208.883 38.6609 209.147 38.2587C209.682 37.3401 209.968 36.2907 209.977 35.2195ZM204.121 37.8468C203.611 37.8481 203.111 37.693 202.686 37.4014C202.261 37.1097 201.929 36.6946 201.733 36.2086C201.537 35.7225 201.486 35.1875 201.585 34.6712C201.684 34.1549 201.93 33.6806 202.291 33.3085C202.652 32.9363 203.113 32.683 203.614 32.5806C204.114 32.4782 204.634 32.5314 205.105 32.7334C205.577 32.9353 205.98 33.2771 206.263 33.7152C206.546 34.1534 206.696 34.6682 206.695 35.1946C206.695 35.898 206.424 36.5726 205.941 37.07C205.458 37.5674 204.804 37.8468 204.121 37.8468Z" fill="#FFC9A1"/>
<path d="M85.3186 38.0901C85.3204 36.4456 84.9543 34.8228 84.2486 33.3478C83.543 31.8728 82.5168 30.5853 81.2499 29.5855C79.983 28.5857 78.5095 27.9003 76.9438 27.5828C75.3782 27.2653 73.7626 27.3242 72.2226 27.7548C70.6826 28.1854 69.2597 28.9762 68.0644 30.0657C66.8691 31.1552 65.9337 32.514 65.3308 34.0367C64.7279 35.5593 64.4738 37.2048 64.5882 38.8451C64.7027 40.4854 65.1825 42.0764 65.9905 43.4946L66.0208 43.532C66.4144 44.2247 66.917 44.7177 67.4196 45.4416L73.4444 53.6731C73.6195 53.911 73.8456 54.1039 74.1051 54.2367C74.3646 54.3695 74.6504 54.4386 74.9401 54.4386C75.2298 54.4386 75.5156 54.3695 75.775 54.2367C76.0345 54.1039 76.2606 53.911 76.4357 53.6731L82.3637 45.5602C82.9037 44.9037 83.407 44.2161 83.8714 43.5008C84.8133 41.8625 85.313 39.9944 85.3186 38.0901ZM74.934 42.7457C74.0296 42.7457 73.1454 42.4692 72.3935 41.9512C71.6416 41.4332 71.0556 40.6969 70.7098 39.8356C70.364 38.9743 70.2738 38.0266 70.4507 37.1125C70.6275 36.1983 71.0636 35.3588 71.7035 34.7001C72.3435 34.0414 73.1586 33.5932 74.0458 33.4121C74.9331 33.231 75.8525 33.3252 76.6877 33.6827C77.523 34.0403 78.2365 34.6452 78.7381 35.4208C79.2398 36.1965 79.5069 37.1081 79.5057 38.0402C79.5041 39.2888 79.0217 40.4856 78.1645 41.3679C77.3073 42.2501 76.1454 42.7457 74.934 42.7457Z" fill="#FFC9A1"/>
<path d="M134.239 144.063C134.239 144.063 134.239 166.005 133.972 167.241C133.706 168.476 133.082 175.054 134.638 178.106C136.194 181.157 139.894 187.342 143.115 188.203C146.337 189.064 148.159 188.203 148.159 188.203C148.159 188.203 150.139 173.912 149.492 169.812C148.844 165.712 147.372 156.763 147.372 156.763L137.393 145.093L134.239 144.063Z" fill="#FFBE9D"/>
<path d="M159.319 113.945L168.723 110.969L186.507 109.745L197.267 111.848L185.58 131.151L168.723 129.84L159.319 113.945Z" fill="#FFBE9D"/>
<path d="M196.546 74.1113C196.645 78.752 195.79 83.3618 194.037 87.6375C192.284 91.9131 189.672 95.7576 186.373 98.9179C184.855 94.3955 183.339 89.869 181.826 85.3383" fill="#263238"/>
<path d="M162.262 47.1017C166.167 44.905 170.884 44.6054 175.244 45.4916C179.604 46.3778 183.673 48.4247 187.524 50.7213C189.679 52.0068 191.835 53.4235 193.391 55.4392C196.225 59.1149 199.023 65.1497 199.301 69.8364C199.519 73.6245 198.09 83.1103 196.558 86.5551C195.129 89.7129 188.456 92.1155 185.162 92.8956L154.953 56.6624C155.496 54.6491 156.421 52.767 157.676 51.1257C158.931 49.4844 160.489 48.1165 162.262 47.1017Z" fill="#263238"/>
<path d="M157.048 52.0069L164.315 50.6714C160.355 60.3943 159.283 82.6235 157.012 92.9081C154.342 88.9141 148.141 76.7511 148.474 71.9083C148.807 67.0656 148.438 51.1644 157.048 52.0069Z" fill="#263238"/>
<path d="M191.411 68.1765C191.282 65.4496 190.308 62.8374 188.632 60.7234C186.955 58.6094 184.666 57.1051 182.099 56.4315L165.411 52.0631C158.199 51.2643 153.379 60.4068 152.907 67.8707C152.386 76.1583 152.059 84.9014 152.998 91.0922C154.887 103.53 164.133 105.14 164.133 105.14C164.133 105.14 164.133 111.056 164.133 114.688L179.041 126.864L187.712 112.891L191.442 68.3512C191.454 68.1141 191.43 68.4573 191.411 68.1765Z" fill="#FFBE9D"/>
<path d="M156.533 77.2379C156.528 77.6542 156.681 78.0562 156.959 78.3581C157.238 78.66 157.619 78.838 158.023 78.8542C158.22 78.8704 158.418 78.8458 158.605 78.782C158.793 78.7183 158.966 78.6166 159.115 78.4829C159.264 78.3492 159.385 78.1862 159.472 78.0035C159.559 77.8208 159.61 77.622 159.621 77.4189C159.627 77.0025 159.474 76.6006 159.195 76.2987C158.917 75.9968 158.536 75.8188 158.132 75.8025C157.935 75.7856 157.737 75.8095 157.549 75.8729C157.361 75.9363 157.187 76.038 157.038 76.1718C156.889 76.3057 156.768 76.469 156.681 76.6521C156.594 76.8352 156.544 77.0344 156.533 77.2379Z" fill="#263238"/>
<path d="M154.717 72.7134C154.911 72.9256 156.085 72.0332 157.744 72.0394C159.404 72.0457 160.627 72.9131 160.808 72.7009C160.899 72.6073 160.705 72.2329 160.173 71.8335C159.454 71.3163 158.597 71.0416 157.72 71.0472C156.852 71.0394 156.003 71.317 155.298 71.8397C154.802 72.2454 154.626 72.6011 154.717 72.7134Z" fill="#263238"/>
<path d="M171.054 77.2378C171.05 77.6473 171.2 78.0426 171.471 78.3413C171.743 78.64 172.116 78.8192 172.513 78.8417C172.71 78.8587 172.908 78.8348 173.096 78.7713C173.284 78.7079 173.458 78.6062 173.607 78.4724C173.756 78.3385 173.877 78.1752 173.964 77.9921C174.051 77.809 174.101 77.6098 174.112 77.4063C174.118 76.9906 173.967 76.5886 173.689 76.2866C173.412 75.9845 173.031 75.8063 172.628 75.79C172.432 75.7765 172.235 75.8034 172.05 75.8692C171.864 75.935 171.693 76.0384 171.546 76.1732C171.399 76.308 171.28 76.4716 171.196 76.6544C171.111 76.8372 171.063 77.0356 171.054 77.2378Z" fill="#263238"/>
<path d="M170.533 72.7134C170.727 72.9256 171.902 72.0332 173.561 72.0394C175.22 72.0456 176.449 72.9131 176.625 72.7009C176.716 72.6073 176.522 72.2329 175.989 71.8335C175.27 71.3163 174.413 71.0415 173.537 71.0471C172.668 71.0402 171.82 71.3178 171.115 71.8397C170.618 72.2453 170.442 72.601 170.533 72.7134Z" fill="#263238"/>
<path d="M165.332 86.1994C165.332 86.0995 164.303 85.9123 162.625 85.6876C162.201 85.6439 161.796 85.5503 161.729 85.257C161.692 84.8025 161.792 84.3472 162.014 83.9527L163.279 80.6202C165.035 75.8711 166.307 71.9707 166.125 71.8833C165.943 71.7959 164.363 75.6277 162.607 80.3519L161.396 83.7093C161.132 84.2377 161.052 84.844 161.172 85.4255C161.236 85.5774 161.332 85.7124 161.454 85.8204C161.576 85.9285 161.719 86.0068 161.874 86.0496C162.109 86.1173 162.351 86.153 162.595 86.1557C164.278 86.2867 165.326 86.293 165.332 86.1994Z" fill="#263238"/>
<path d="M180.143 100.684C180.143 100.684 176.213 109.227 164.139 108.035V105.115C169.769 105.193 175.309 103.659 180.143 100.684Z" fill="#EB996E"/>
<path d="M171.06 66.5101C171.223 66.9782 172.876 66.7597 174.838 67.0094C176.8 67.259 178.368 67.8082 178.629 67.39C178.75 67.1903 178.471 66.766 177.836 66.2979C176.99 65.7344 176.027 65.3858 175.026 65.2807C174.028 65.1504 173.014 65.2703 172.071 65.6302C171.351 65.9235 170.987 66.2917 171.06 66.5101Z" fill="#263238"/>
<path d="M155.262 67.4649C155.552 67.8581 156.703 67.4649 158.084 67.4649C159.464 67.4649 160.633 67.7333 160.899 67.3214C161.02 67.1279 160.833 66.7348 160.324 66.3666C159.64 65.9205 158.843 65.6947 158.034 65.7181C157.225 65.7414 156.441 66.0128 155.783 66.4976C155.292 66.8721 155.135 67.2715 155.262 67.4649Z" fill="#263238"/>
<path d="M156.164 56.4815C156.903 54.6093 158.895 53.4859 160.851 53.3611C162.823 53.3578 164.755 53.9383 166.416 55.0336C173.603 59.3147 177.315 69.6555 184.4 74.0864C186.149 75.1785 188.42 74.18 189.904 75.6216C191.387 77.0632 192.356 79.366 191.533 81.2943C192.55 79.9927 193.38 78.5466 193.997 77.0007C194.302 76.2247 194.442 75.3904 194.407 74.5539C194.373 73.7175 194.165 72.8984 193.797 72.1518C193.192 71.0534 192.096 70.2172 191.799 68.9877C191.539 67.9081 191.95 66.7786 191.908 65.6615C191.786 64.5296 191.406 63.4434 190.8 62.4912C188.021 57.4176 184.194 52.8369 179.265 50.0099C176.05 48.0911 172.388 47.1136 168.674 47.1829C164.945 47.2737 161.371 48.7369 158.598 51.308C157.006 52.8307 155.341 54.4283 156.176 56.4815" fill="#263238"/>
<path d="M189.758 77.188C189.885 76.8323 196.177 74.492 196.262 81.388C196.34 88.0842 189.783 86.7674 189.77 86.5739C189.758 86.3805 189.758 77.188 189.758 77.188Z" fill="#FFBE9D"/>
<path d="M191.75 84.0152C191.781 84.0152 191.865 84.0963 192.059 84.1837C192.331 84.2956 192.635 84.2956 192.907 84.1837C193.591 83.9154 194.16 82.7858 194.178 81.5814C194.192 81.005 194.078 80.4331 193.845 79.9089C193.782 79.7004 193.671 79.5109 193.521 79.3565C193.372 79.2022 193.188 79.0876 192.985 79.0227C192.855 78.9943 192.718 79.0113 192.598 79.0711C192.477 79.131 192.379 79.2302 192.319 79.3535C192.235 79.5407 192.277 79.6717 192.247 79.6842C192.216 79.6967 192.101 79.5719 192.156 79.2973C192.188 79.1301 192.276 78.9799 192.404 78.8729C192.578 78.7385 192.794 78.6762 193.01 78.6982C193.28 78.7468 193.534 78.8666 193.746 79.0459C193.958 79.2252 194.122 79.458 194.221 79.7217C194.506 80.3012 194.647 80.9443 194.632 81.5938C194.632 82.9418 193.942 84.2149 193.004 84.502C192.83 84.5556 192.647 84.5684 192.467 84.5392C192.288 84.51 192.118 84.4397 191.968 84.3335C191.768 84.1775 191.732 84.0277 191.75 84.0152Z" fill="#EB996E"/>
<path d="M192.344 73.7431C192.206 73.6819 192.074 73.6067 191.95 73.5184C191.702 73.3562 191.314 73.1378 190.86 72.807C189.582 71.8377 188.404 70.7334 187.348 69.5119C185.816 67.6802 184.385 65.7613 183.061 63.7643C181.459 61.3277 179.665 59.0316 177.696 56.8996C176.644 55.8356 175.482 54.892 174.233 54.085C173.059 53.3456 171.803 52.7567 170.491 52.3314C168.27 51.5955 165.934 51.3012 163.606 51.464C162.035 51.5608 160.483 51.8735 158.992 52.3938C158.459 52.5623 158.066 52.7433 157.781 52.8556C157.643 52.9193 157.499 52.9694 157.351 53.0054C157.481 52.9264 157.617 52.8576 157.757 52.7995C158.149 52.5999 158.554 52.4268 158.968 52.2815C160.459 51.7116 162.02 51.3628 163.606 51.2455C165.963 51.055 168.333 51.3326 170.588 52.0631C171.922 52.4883 173.201 53.0793 174.396 53.8229C175.665 54.6433 176.844 55.6015 177.914 56.6811C179.897 58.8303 181.696 61.1522 183.291 63.6208C184.605 65.6185 186.02 67.5433 187.53 69.3871C188.562 70.6128 189.708 71.731 190.951 72.7259C191.399 73.0753 191.769 73.3062 192.005 73.4872C192.124 73.563 192.238 73.6485 192.344 73.7431Z" fill="#455A64"/>
<path d="M192.495 85.201C192.814 85.1436 193.143 85.2134 193.414 85.3962C193.685 85.5789 193.879 85.8611 193.956 86.1854C194.033 86.5098 193.987 86.8522 193.828 87.1433C193.67 87.4344 193.41 87.6525 193.101 87.7534C192.788 87.8657 192.446 87.8487 192.145 87.7059C191.845 87.5631 191.609 87.3057 191.489 86.9878C191.369 86.6699 191.374 86.3164 191.501 86.0018C191.629 85.6871 191.87 85.4358 192.174 85.3008" fill="white"/>
<path d="M192.186 85.3007C191.899 85.5284 191.688 85.8424 191.581 86.1994C191.534 86.383 191.533 86.5759 191.577 86.7603C191.621 86.9446 191.71 87.1145 191.835 87.254C191.981 87.4294 192.174 87.5564 192.39 87.6193C192.605 87.6821 192.834 87.678 193.048 87.6073C193.261 87.5367 193.449 87.4027 193.589 87.2222C193.729 87.0417 193.814 86.8226 193.833 86.5925C193.856 86.4056 193.832 86.2159 193.766 86.0405C193.699 85.8651 193.591 85.7095 193.452 85.5878C193.169 85.3589 192.824 85.224 192.465 85.2009C192.465 85.2009 192.568 85.1322 192.774 85.126C192.959 85.1288 193.141 85.1707 193.31 85.249C193.479 85.3273 193.63 85.4404 193.755 85.5813C193.88 85.7221 193.976 85.8879 194.036 86.0682C194.096 86.2486 194.12 86.4398 194.106 86.63C194.086 86.9176 193.983 87.1925 193.809 87.4191C193.636 87.6456 193.401 87.8134 193.134 87.9008C192.868 87.9881 192.582 87.9911 192.314 87.9091C192.045 87.8272 191.807 87.6642 191.629 87.4413C191.482 87.2657 191.381 87.054 191.337 86.8266C191.292 86.5992 191.305 86.3638 191.375 86.1432C191.462 85.8536 191.636 85.5999 191.872 85.4193C192.071 85.3007 192.18 85.282 192.186 85.3007Z" fill="#263238"/>
<path d="M190.709 75.6403C190.812 77.4688 190.891 79.3847 190.073 81.026C189.256 82.6673 187.179 83.7594 185.641 82.8483C184.381 82.1119 184 80.4456 183.788 78.9666C183.182 74.7042 182.892 70.3857 182.238 66.1233L190.709 75.6403Z" fill="#263238"/>
<path d="M157.787 53.2987C157.787 53.3361 158.362 53.1863 159.404 53.1489C160.875 53.1244 162.336 53.4002 163.703 53.9602C164.647 54.3379 165.55 54.8169 166.398 55.3893C167.366 56.0632 168.296 56.7946 169.183 57.5797C171.227 59.3641 173.057 61.3943 174.633 63.6269C175.462 64.8189 176.195 66.0483 176.982 67.1903C177.733 68.2984 178.609 69.3103 179.592 70.2046C181.273 71.6828 183.117 72.9541 185.084 73.9927C186.749 74.9038 188.111 75.5341 189.098 75.9772L190.206 76.464C190.334 76.5277 190.468 76.5759 190.606 76.6075C190.493 76.5202 190.368 76.4489 190.237 76.3953L189.159 75.8399C188.214 75.3656 186.846 74.6916 185.205 73.7618C183.28 72.6953 181.473 71.4168 179.816 69.9487C178.86 69.0625 178.008 68.0634 177.279 66.9719C176.498 65.8486 175.765 64.6192 174.935 63.4085C173.344 61.1486 171.487 59.1006 169.407 57.3114C168.509 56.5245 167.564 55.7951 166.579 55.1272C165.708 54.5509 164.778 54.0758 163.806 53.7105C162.405 53.1606 160.907 52.9203 159.41 53.0053C159.002 53.0275 158.597 53.0839 158.199 53.1738C158.057 53.1981 157.919 53.24 157.787 53.2987Z" fill="#455A64"/>
<path d="M190.885 71.5026C191.07 71.66 191.274 71.7941 191.49 71.902L193.137 72.9005L193.694 73.225C193.911 73.3577 194.152 73.4407 194.403 73.4684C194.557 73.4839 194.713 73.4467 194.845 73.3623C194.913 73.3101 194.97 73.2437 195.012 73.1673C195.053 73.091 195.079 73.0064 195.087 72.9192C195.071 72.6104 194.963 72.3141 194.778 72.0705C194.173 71.1032 193.567 70.0423 192.871 68.9189L192.61 69.1686C193.884 70.1359 195.445 70.6148 197.025 70.5228C197.231 70.5218 197.435 70.486 197.63 70.4167C197.741 70.3842 197.843 70.3271 197.93 70.2494C198.017 70.1718 198.086 70.0755 198.133 69.9674C198.17 69.8535 198.18 69.7318 198.161 69.6132C198.142 69.4945 198.095 69.3825 198.024 69.2871C197.913 69.1367 197.789 68.9968 197.654 68.869C196.797 68.0134 196.052 67.0463 195.438 65.9921C194.899 64.9983 194.43 63.9659 194.033 62.903C194.061 63.2129 194.131 63.5174 194.239 63.8078C194.49 64.6107 194.816 65.3862 195.214 66.1231C195.811 67.222 196.553 68.2301 197.418 69.1186C197.66 69.3558 197.903 69.6241 197.806 69.8363C197.709 70.0485 197.364 70.1546 197.019 70.1546C195.523 70.2292 194.047 69.7757 192.835 68.869L192.059 68.2824L192.58 69.1186L194.53 72.239C194.675 72.4168 194.77 72.6329 194.802 72.863C194.799 72.9078 194.787 72.9514 194.765 72.9907C194.744 73.03 194.715 73.0641 194.68 73.0908C194.645 73.1174 194.605 73.136 194.562 73.1452C194.52 73.1543 194.476 73.1539 194.433 73.1439C194.016 73.0616 193.618 72.8939 193.264 72.6509L191.563 71.7522C191.348 71.6395 191.12 71.5556 190.885 71.5026Z" fill="#455A64"/>
<path d="M171.666 89.3635C171.543 88.8537 171.252 88.4041 170.841 88.0929C170.431 87.7816 169.928 87.6284 169.419 87.6598C169.048 87.71 168.695 87.8527 168.39 88.0757C168.085 88.2987 167.838 88.5951 167.669 88.9391C167.51 89.2873 167.419 89.6647 167.403 90.0493C167.386 90.4339 167.444 90.818 167.572 91.1795L167.609 91.3418C167.954 91.7288 168.407 91.9965 168.905 92.1082C169.404 92.2199 169.924 92.1702 170.394 91.9658C170.855 91.7372 171.229 91.3581 171.459 90.8874C171.689 90.4168 171.762 89.881 171.666 89.3635Z" fill="#EB996E"/>
<path d="M166.397 91.3791C166.397 91.117 168.081 91.1981 169.352 89.7753C170.624 88.3524 170.521 86.4927 170.757 86.4927C170.866 86.4927 171.066 86.9233 171.048 87.7034C171.013 88.7208 170.631 89.693 169.97 90.4493C169.337 91.183 168.45 91.6312 167.499 91.6974C166.791 91.7099 166.385 91.4977 166.397 91.3791Z" fill="#263238"/>
<path d="M147.384 184.571L148.171 189.295L147.432 191.866C147.432 191.866 139.821 201.851 137.381 209.203C134.941 216.554 134.753 235.919 134.753 235.919L221.463 235.863C221.463 235.863 218.435 207.1 207.536 198.044V195.979L210.231 191.866C210.231 191.866 211.139 188.683 207.203 189.158C205.641 189.345 147.384 184.571 147.384 184.571Z" fill="#455A64"/>
<path d="M208.02 195.28H207.415L205.653 195.236C204.127 195.199 201.917 195.168 199.18 195.186C196.443 195.205 193.191 195.267 189.576 195.342C185.961 195.417 181.989 195.492 177.811 195.423C173.883 195.368 169.961 195.11 166.058 194.65C162.871 194.271 159.711 193.677 156.6 192.871C154.503 192.332 152.438 191.665 150.418 190.874C149.697 190.606 149.158 190.344 148.783 190.188L148.365 189.994C148.268 189.95 148.22 189.925 148.226 189.919L148.377 189.963L148.807 190.125C149.188 190.262 149.733 190.506 150.46 190.749C152.492 191.483 154.56 192.108 156.654 192.621C159.763 193.391 162.916 193.958 166.094 194.319C169.679 194.749 173.645 194.987 177.817 195.068C181.989 195.149 185.955 195.068 189.57 195.012C193.185 194.955 196.443 194.905 199.18 194.924C201.917 194.943 204.133 194.999 205.659 195.08C206.422 195.111 207.015 195.155 207.415 195.186L207.875 195.224C207.972 195.261 208.026 195.274 208.02 195.28Z" fill="#263238"/>
<path d="M208.021 199.424C207.971 199.433 207.919 199.433 207.869 199.424H207.409L205.647 199.38C204.121 199.343 201.911 199.311 199.174 199.33C196.437 199.349 193.185 199.411 189.57 199.486C185.956 199.561 181.983 199.636 177.805 199.567C173.627 199.499 169.649 199.236 166.052 198.793C162.865 198.415 159.705 197.821 156.594 197.015C154.496 196.475 152.432 195.806 150.412 195.012C149.691 194.743 149.152 194.487 148.777 194.331L148.359 194.138C148.262 194.094 148.214 194.069 148.22 194.063L148.371 194.107L148.801 194.269C149.183 194.406 149.727 194.643 150.454 194.893C152.486 195.627 154.554 196.252 156.649 196.765C159.758 197.534 162.91 198.101 166.089 198.463C169.673 198.893 173.639 199.13 177.811 199.212C181.983 199.293 185.949 199.212 189.564 199.155C193.179 199.099 196.437 199.049 199.174 199.068C201.911 199.087 204.127 199.143 205.653 199.224C206.416 199.255 207.009 199.299 207.409 199.33L207.869 199.368C207.972 199.411 208.027 199.417 208.021 199.424Z" fill="#263238"/>
<path d="M151.096 204.279C151.144 203.837 151.258 203.405 151.435 202.999C151.794 201.995 152.252 201.03 152.803 200.123C153.348 199.212 153.981 198.361 154.692 197.583C154.968 197.24 155.293 196.944 155.655 196.703C155.728 196.771 154.323 198.188 153.07 200.291C151.816 202.394 151.187 204.279 151.096 204.279Z" fill="#263238"/>
<path d="M154.178 210.027C154.139 209.855 154.129 209.678 154.147 209.502C154.152 209.025 154.183 208.548 154.238 208.073C154.423 206.507 154.752 204.963 155.219 203.461C155.677 201.962 156.248 200.501 156.927 199.093C157.181 198.495 157.495 197.926 157.865 197.396C157.655 198.007 157.408 198.606 157.127 199.187C156.518 200.613 155.982 202.071 155.522 203.555C155.061 205.043 154.707 206.563 154.462 208.104C154.275 209.271 154.226 210.033 154.178 210.027Z" fill="#263238"/>
<path d="M156.231 187.429C156.322 187.713 156.381 188.006 156.407 188.303C156.549 188.998 156.739 189.682 156.976 190.35C157.515 191.922 158.235 193.077 158.187 193.127C157.503 192.367 156.998 191.455 156.709 190.462C156.458 189.778 156.293 189.062 156.219 188.334C156.15 188.036 156.154 187.725 156.231 187.429Z" fill="#263238"/>
<path d="M158.798 189.301C159.108 189.952 159.324 190.646 159.44 191.361C159.66 192.05 159.776 192.77 159.785 193.495C159.253 192.156 158.92 190.743 158.798 189.301Z" fill="#263238"/>
<path d="M174.293 188.677C174.503 190.794 174.503 192.926 174.293 195.043C174.083 192.926 174.083 190.794 174.293 188.677Z" fill="#263238"/>
<path d="M176.231 190.306C176.684 191.902 176.642 193.604 176.11 195.174C176.019 195.174 176.195 194.075 176.225 192.74C176.255 191.404 176.146 190.318 176.231 190.306Z" fill="#263238"/>
<path d="M181.469 205.04C181.245 204.141 181.075 203.228 180.96 202.307C180.739 201.404 180.577 200.486 180.476 199.561C180.884 200.403 181.153 201.31 181.269 202.245C181.491 203.158 181.559 204.103 181.469 205.04Z" fill="#263238"/>
<path d="M129.521 142.815C129.352 142.247 135.722 123.469 139.5 120.623C143.279 117.777 160.336 113.702 160.336 113.702C160.336 113.702 167.518 121.004 177.145 119.487C186.773 117.971 194.166 110.969 194.166 110.969C194.166 110.969 212.386 113.427 215.48 115.699C218.575 117.971 226.985 138.559 226.985 138.559L212.138 151.308L210.824 162.853C210.824 162.853 211.514 186.899 209.964 189.364C208.414 191.829 147.741 185.557 147.741 185.557C147.741 185.557 144.647 184.989 147.051 179.316C149.455 173.644 151.181 169.849 151.181 169.849C151.181 169.849 146.882 164.925 146.191 156.213C145.501 147.501 143.812 146.565 143.812 146.565L129.521 142.815Z" fill="#FFC9A1"/>
<path d="M210.745 162.41C210.655 162.41 211.569 154.572 212.786 144.937C214.003 135.301 215.051 127.463 215.135 127.494C215.22 127.525 214.294 135.326 213.083 144.993C211.872 154.659 210.83 162.423 210.745 162.41Z" fill="#263238"/>
<path d="M145.713 149.761C145.635 149.792 144.502 146.983 143.176 143.482C141.85 139.981 140.851 137.123 140.93 137.092C141.008 137.061 142.141 139.869 143.473 143.364C144.805 146.859 145.798 149.729 145.713 149.761Z" fill="#263238"/>
<g opacity="0.3">
<path d="M164.95 159.764C164.675 158.138 164.018 156.606 163.037 155.302C161.614 153.642 159.361 152.937 157.218 152.95C155.068 153.068 152.946 153.498 150.914 154.229L147.045 160.469C147.171 160.846 147.378 161.189 147.651 161.472C147.923 161.755 148.254 161.972 148.619 162.105C149.348 162.366 150.112 162.507 150.884 162.523C154.888 162.822 158.893 162.995 162.897 163.041C163.414 163.096 163.936 162.996 164.399 162.754C165.247 162.142 165.186 160.813 164.95 159.764Z" fill="black"/>
</g>
<path d="M138.507 131.151C138.636 131.356 138.742 131.576 138.822 131.806C139.01 132.231 139.264 132.855 139.567 133.635C140.172 135.189 140.984 137.379 141.801 139.769C142.619 142.16 143.297 144.394 143.751 146.01C143.981 146.809 144.163 147.464 144.272 147.92C144.35 148.149 144.399 148.388 144.417 148.631C144.308 148.416 144.221 148.19 144.157 147.957L143.551 146.085C143.043 144.494 142.34 142.297 141.517 139.888C140.693 137.479 139.93 135.301 139.373 133.728C139.113 132.992 138.895 132.368 138.719 131.856C138.622 131.631 138.551 131.394 138.507 131.151Z" fill="#263238"/>
<path d="M138.477 133.135L145.265 158.653C145.383 159.071 145.632 159.437 145.973 159.694C146.313 159.951 146.726 160.085 147.148 160.076H161.868C162.152 160.086 162.434 160.03 162.693 159.911C162.952 159.792 163.181 159.614 163.364 159.391C163.546 159.167 163.677 158.903 163.746 158.62C163.816 158.337 163.822 158.041 163.764 157.755L157.811 132.249C157.703 131.819 157.456 131.439 157.113 131.171C156.769 130.903 156.347 130.761 155.916 130.77H140.354C140.068 130.76 139.783 130.819 139.521 130.941C139.26 131.063 139.03 131.245 138.848 131.474C138.667 131.703 138.539 131.972 138.474 132.26C138.41 132.548 138.411 132.848 138.477 133.135Z" fill="#263238"/>
<path d="M143.588 137.903C143.588 137.903 141.832 137.042 140.445 137.903C139.058 138.764 136.812 142.571 136.812 142.571L135.425 148.625L136.376 156.85L136.751 160.663L145.713 161.711V158.66L155.977 150.753C155.977 150.753 159.579 149.723 159.301 148.618C159.022 147.514 158.562 146.746 157.545 146.946C156.528 147.146 145.531 150.066 145.531 150.066C145.531 150.066 143.775 150.447 143.866 149.966C143.957 149.486 149.043 147.015 149.873 146.44C150.702 145.866 154.59 144.918 154.112 143.108C154.054 142.782 153.925 142.473 153.735 142.205C153.545 141.937 153.298 141.718 153.014 141.562C152.73 141.407 152.415 141.319 152.093 141.307C151.771 141.295 151.451 141.358 151.157 141.492L142.28 144.824L140.802 145.205L140.99 142.821L142.558 140.63C142.699 140.676 142.846 140.692 142.993 140.678C143.139 140.664 143.282 140.619 143.411 140.547C143.54 140.475 143.654 140.376 143.746 140.258C143.838 140.139 143.905 140.003 143.945 139.857C144.069 139.529 144.102 139.172 144.039 138.827C143.975 138.482 143.819 138.161 143.588 137.903Z" fill="#FFBE9D"/>
<path d="M142.395 144.781C141.713 145.183 140.982 145.49 140.221 145.692C139.495 146.006 138.731 146.216 137.95 146.316C138.634 145.916 139.364 145.61 140.124 145.405C140.851 145.093 141.614 144.884 142.395 144.781Z" fill="#EB996E"/>
<path d="M144.417 150.279C143.78 150.64 143.097 150.907 142.388 151.071C141.709 151.339 140.995 151.503 140.269 151.558C141.584 150.933 142.982 150.512 144.417 150.31V150.279Z" fill="#EB996E"/>
<path d="M155.413 150.846C155.256 150.975 155.083 151.082 154.899 151.165C154.554 151.352 154.051 151.608 153.415 151.907C151.769 152.674 150.085 153.353 148.371 153.942C146.657 154.536 144.912 155.033 143.146 155.433C142.467 155.589 141.935 155.695 141.529 155.758C141.33 155.805 141.127 155.828 140.923 155.826C141.631 155.575 142.353 155.367 143.085 155.202C144.423 154.847 146.264 154.316 148.262 153.63C150.26 152.943 152.041 152.226 153.324 151.689C154.005 151.368 154.702 151.086 155.413 150.846Z" fill="#EB996E"/>
<path d="M139.161 155.321C139.131 155.402 138.556 155.09 138.374 154.366C138.192 153.642 138.495 153.074 138.562 153.118C138.628 153.162 138.507 153.667 138.677 154.266C138.846 154.865 139.21 155.246 139.161 155.321Z" fill="#EB996E"/>
<path d="M137.393 150.509C137.393 150.547 137.23 150.509 137.024 150.403C136.767 150.221 136.573 149.958 136.473 149.653C136.372 149.348 136.37 149.018 136.467 148.712C136.552 148.481 136.661 148.375 136.697 148.394C136.733 148.413 136.564 148.949 136.776 149.548C136.988 150.147 137.393 150.422 137.393 150.509Z" fill="#EB996E"/>
<path d="M136.37 144.618C136.375 144.719 136.364 144.82 136.339 144.918C136.297 145.149 136.243 145.423 136.182 145.767C136.031 146.553 135.819 147.639 135.576 148.924V148.887C135.97 151.783 136.509 155.976 137.096 160.682V160.719V160.763C136.981 161.081 136.854 161.418 136.733 161.761C135.412 165.611 134.796 169.681 134.916 173.762C134.95 174.998 135.049 176.232 135.213 177.457C135.268 177.862 135.31 178.193 135.346 178.455C135.371 178.572 135.382 178.691 135.377 178.811C135.336 178.7 135.306 178.585 135.286 178.468C135.237 178.243 135.159 177.912 135.086 177.475C134.88 176.249 134.749 175.011 134.692 173.768C134.504 169.65 135.096 165.534 136.436 161.649C136.557 161.306 136.685 160.963 136.8 160.644V160.725C136.194 156.014 135.71 151.82 135.383 148.912L136.103 145.792C136.188 145.455 136.255 145.167 136.309 144.955C136.321 144.842 136.341 144.729 136.37 144.618Z" fill="#EB996E"/>
<path d="M147.19 157.767C146.609 158.386 145.91 158.874 145.138 159.203C144.408 159.624 143.602 159.886 142.77 159.97C142.77 159.883 143.787 159.521 144.998 158.909C146.209 158.298 147.136 157.686 147.19 157.767Z" fill="#EB996E"/>
<path d="M204 170.735C204 170.735 206.343 171.359 206.573 172.932C206.804 174.505 204.933 201.639 204.933 201.639H207.161C207.161 201.639 208.051 174.761 208.015 172.838C207.978 170.916 207.094 170.792 206.761 170.654C205.855 170.385 204.89 170.414 204 170.735Z" fill="#263238"/>
<path d="M202.819 170.685L213.543 171.11L211.406 157.767L212.138 151.308L226.35 139.077C226.35 139.077 231.321 168.795 231.769 172.227C232.302 176.346 231.527 181.806 229.589 183.76C227.936 185.42 216.026 183.76 211.424 183.76C208.881 183.76 202.801 183.803 202.801 183.803L200.67 173.556L202.819 170.685Z" fill="#FFBE9D"/>
<path d="M229.589 171.147C229.546 171.203 228.82 170.523 227.421 169.899C225.609 169.055 223.622 168.686 221.638 168.826C220.552 168.901 219.481 169.136 218.459 169.525C217.521 169.874 216.71 170.336 215.989 170.623C215.421 170.872 214.822 171.036 214.209 171.11C213.987 171.153 213.759 171.153 213.537 171.11C214.354 171.016 215.151 170.789 215.898 170.436C216.601 170.124 217.394 169.65 218.357 169.269C219.402 168.852 220.502 168.602 221.62 168.526C223.653 168.381 225.687 168.79 227.518 169.712C228.066 169.992 228.589 170.322 229.08 170.698C229.266 170.827 229.437 170.978 229.589 171.147Z" fill="#EB996E"/>
<path d="M191.763 195.292C191.369 195.81 186.84 236.025 186.84 236.025L233.907 235.863L226.447 195.417L191.763 195.292Z" fill="#FFC9A1"/>
<path d="M199.568 235.919C199.483 235.919 198.993 226.883 198.478 215.724C197.963 204.566 197.618 195.542 197.709 195.542C197.8 195.542 198.278 204.578 198.793 215.737C199.307 226.895 199.653 235.913 199.568 235.919Z" fill="#263238"/>
<path d="M180.385 171.359C181.685 171.165 182.971 170.883 184.236 170.517C184.828 170.22 185.401 169.882 185.95 169.506L192.005 169L202.813 170.685C202.813 170.685 204.63 172.033 204.369 176.171C204.148 178.942 203.57 181.67 202.65 184.284C202.65 184.284 197.806 188.347 196.51 188.596C195.214 188.846 187.827 188.421 187.094 187.829C186.661 187.491 186.298 187.066 186.028 186.58C185.634 186.373 185.316 186.038 185.123 185.626C184.931 185.215 184.874 184.75 184.963 184.303C184.963 184.303 182.425 180.926 182.098 179.491C181.771 178.056 182.177 177.719 182.177 177.719C182.177 177.719 181.445 175.778 182.014 175.104C182.157 174.939 182.331 174.806 182.525 174.713C182.719 174.619 182.93 174.567 183.144 174.56C183.359 174.552 183.572 174.589 183.772 174.669C183.972 174.748 184.155 174.869 184.309 175.023C184.884 175.697 188.487 175.191 188.487 175.191L191.678 172.995C190.036 173.424 188.366 173.735 186.682 173.924C184.969 173.974 179.81 175.16 180.385 171.359Z" fill="#FFBE9D"/>
<path d="M192.913 179.316C192.913 179.366 192.253 179.485 191.223 179.853C190.708 180.034 190.097 180.271 189.407 180.477C188.648 180.74 187.857 180.887 187.057 180.914C186.238 180.941 185.429 180.724 184.726 180.29C184.17 179.927 183.677 179.472 183.267 178.942C182.992 178.593 182.739 178.226 182.51 177.844C182.346 177.575 182.268 177.419 182.286 177.407C182.304 177.394 182.716 177.956 183.436 178.792C183.849 179.283 184.333 179.704 184.871 180.04C185.534 180.429 186.289 180.619 187.051 180.589C188.686 180.546 190.079 179.903 191.163 179.616C191.725 179.412 192.317 179.311 192.913 179.316Z" fill="#EB996E"/>
<path d="M195.117 176.346C195.147 176.346 195.262 176.421 195.347 176.652C195.45 176.952 195.45 177.28 195.347 177.581C195.248 177.885 195.049 178.144 194.784 178.312C194.578 178.436 194.433 178.436 194.415 178.399C194.396 178.361 194.857 178.068 195.05 177.475C195.244 176.882 195.038 176.383 195.117 176.346Z" fill="#EB996E"/>
<path d="M194.875 183.728C194.379 183.876 193.87 183.97 193.355 184.009C192.41 184.147 191.102 184.309 189.661 184.465C188.979 184.559 188.291 184.613 187.602 184.627C187.03 184.639 186.46 184.546 185.919 184.353C185.401 184.209 184.953 183.873 184.66 183.41C185.064 183.723 185.513 183.967 185.992 184.134C186.515 184.289 187.059 184.354 187.602 184.328C188.208 184.328 188.904 184.221 189.625 184.147C191.072 183.984 192.38 183.859 193.331 183.785C193.842 183.713 194.36 183.694 194.875 183.728Z" fill="#EB996E"/>
<path d="M197.672 181.058C197.709 181.058 197.824 181.182 197.902 181.463C198.006 181.83 198.006 182.22 197.902 182.587C197.801 182.954 197.604 183.287 197.333 183.548C197.121 183.735 196.952 183.791 196.934 183.76C196.915 183.729 197.4 183.261 197.6 182.512C197.681 182.032 197.705 181.544 197.672 181.058Z" fill="#EB996E"/>
<path d="M195.935 187.13C195.466 187.271 194.981 187.347 194.493 187.354C192.151 187.547 189.795 187.395 187.494 186.905C187.009 186.837 186.537 186.701 186.089 186.499C186.574 186.515 187.056 186.575 187.53 186.68C188.414 186.818 189.637 186.974 190.994 187.061C192.35 187.148 193.585 187.148 194.481 187.13C194.965 187.082 195.451 187.082 195.935 187.13Z" fill="#EB996E"/>
<path d="M206.18 170.505C206.18 170.505 208.299 172.14 208.693 173.132C209.086 174.124 213.319 195.286 213.319 195.286H215.135C215.135 195.286 210.818 172.358 209.764 171.472C209.386 171.156 208.98 170.877 208.553 170.636C208.197 170.442 207.805 170.328 207.403 170.304C207.001 170.279 206.598 170.343 206.222 170.492L206.18 170.505Z" fill="#263238"/>
<path d="M164.829 174.661C164.226 174.743 163.616 174.743 163.013 174.661C160.132 174.382 157.355 173.412 154.905 171.827C154.384 171.522 153.902 171.151 153.47 170.723C153.5 170.679 154.075 171.079 155.02 171.628C156.259 172.353 157.563 172.955 158.913 173.425C160.263 173.892 161.652 174.23 163.061 174.436C164.151 174.573 164.829 174.611 164.829 174.661Z" fill="#263238"/>
<g opacity="0.3">
<path d="M175.444 174.324C174.333 174.224 173.214 174.268 172.114 174.455C166.452 175.079 160.609 175.079 155.419 172.09C156.165 173.694 157.44 174.973 159.016 175.697C160.811 176.329 162.696 176.647 164.593 176.639C169.147 176.831 173.709 176.622 178.229 176.015C177.915 175.538 177.503 175.139 177.021 174.847C176.539 174.554 176.001 174.376 175.444 174.324Z" fill="black"/>
</g>
<path d="M147.511 117.016C147.382 117.025 147.253 117.025 147.124 117.016C146.542 116.936 145.995 116.679 145.554 116.28C145.113 115.88 144.797 115.354 144.645 114.77C144.494 114.185 144.513 113.567 144.702 112.993C144.891 112.42 145.241 111.917 145.706 111.549C146.172 111.18 146.734 110.961 147.32 110.921C147.906 110.881 148.49 111.021 149 111.322C149.509 111.624 149.92 112.075 150.181 112.617C150.442 113.159 150.541 113.769 150.466 114.37C150.366 115.104 150.011 115.775 149.468 116.262C148.925 116.748 148.231 117.016 147.511 117.016ZM147.511 111.505C146.936 111.505 146.381 111.721 145.95 112.113C145.518 112.505 145.24 113.045 145.168 113.633C145.089 114.275 145.259 114.923 145.641 115.436C146.023 115.949 146.587 116.286 147.209 116.373C147.832 116.456 148.463 116.281 148.961 115.885C149.46 115.49 149.785 114.906 149.867 114.264C149.908 113.946 149.887 113.622 149.807 113.313C149.726 113.003 149.587 112.712 149.398 112.458C149.208 112.203 148.972 111.99 148.702 111.83C148.433 111.669 148.135 111.566 147.826 111.524C147.72 111.511 147.613 111.505 147.505 111.505H147.511Z" fill="#263238"/>
<path d="M151.556 117.734C151.485 117.732 151.417 117.706 151.363 117.659L149.419 115.986C149.388 115.96 149.363 115.928 149.344 115.891C149.326 115.855 149.315 115.815 149.311 115.775C149.307 115.734 149.311 115.693 149.323 115.653C149.335 115.614 149.354 115.578 149.38 115.546C149.405 115.515 149.436 115.489 149.471 115.469C149.507 115.45 149.545 115.439 149.585 115.435C149.625 115.431 149.664 115.435 149.703 115.448C149.741 115.46 149.776 115.479 149.806 115.506L151.75 117.178C151.812 117.232 151.851 117.308 151.859 117.391C151.867 117.474 151.843 117.556 151.793 117.621C151.764 117.657 151.728 117.685 151.687 117.705C151.646 117.724 151.601 117.734 151.556 117.734Z" fill="#263238"/>
</svg>
