<svg width="51" height="50" viewBox="0 0 51 50" fill="none" xmlns="http://www.w3.org/2000/svg">
<g clip-path="url(#clip0_258_242)">
<path d="M28.7504 14.5117C28.7504 15.3711 28.5718 16.2402 28.371 17.0898C27.7236 19.8047 27.0763 22.5391 26.4402 25.2539C26.2839 25.8691 25.5138 25.7324 24.9111 25.7324C22.2549 25.7324 21.5071 23.1934 21.5071 21.2891C21.5071 18.4277 22.7571 14.6387 25.804 13.1738C26.2839 12.9297 26.8308 12.7637 27.3777 12.7637C28.65 12.7637 28.7504 13.5742 28.7504 14.5117ZM50.5361 7.8125V42.1875C50.5361 44.7754 48.1366 46.875 45.179 46.875H5.89328C2.93569 46.875 0.536133 44.7754 0.536133 42.1875V7.8125C0.536133 5.22461 2.93569 3.125 5.89328 3.125H45.179C48.1366 3.125 50.5361 5.22461 50.5361 7.8125ZM43.3933 26.0742C43.3933 25.5762 41.0718 22.3926 40.5473 22.2168C40.3018 22.1289 39.7437 21.9922 39.4759 21.9922C36.8977 21.9922 35.1567 23.0176 32.9803 24.0918L32.9245 24.043C33.4044 21.1719 34.554 18.457 34.554 15.5078C34.554 11.1523 31.8977 9.38477 27.0205 9.38477C19.0183 9.38477 14.9669 16.2988 14.9669 21.4453C14.9669 26.7871 18.5384 29.7461 24.5986 29.7461C25.4357 29.7461 25.3687 29.6875 25.3687 29.9707C24.1968 37.8125 19.0629 38.0664 19.0629 35.7227C19.0629 33.3398 22.1879 32.1582 22.2214 32.0117C22.1991 31.2695 18.9513 30.332 18.1254 30.332C15.7705 30.332 14.4759 33.5547 14.4759 35.2734C14.4759 38.4277 16.7526 40.6152 20.4245 40.6152C25.804 40.6152 29.7326 35.7617 30.9491 31.6602C31.9982 27.9785 31.7303 27.8125 32.3218 27.5488C34.554 26.5625 36.3174 25.9082 38.8397 25.9082C40.0785 25.9082 40.9602 26.1328 42.9357 26.416C43.1366 26.4258 43.3933 26.25 43.3933 26.0742Z" fill="black"/>
</g>
<defs>
<clipPath id="clip0_258_242">
<rect width="50" height="50" fill="white" transform="translate(0.536133)"/>
</clipPath>
</defs>
</svg>
