<svg width="157" height="111" viewBox="0 0 157 111" fill="none" xmlns="http://www.w3.org/2000/svg">
<path d="M82.7283 109.645C79.579 110.108 76.3919 110.262 73.2125 110.104C65.5463 109.718 58.0068 107.492 51.5636 103.306C48.7069 101.45 45.9817 99.17 44.503 96.1072C42.496 91.9476 43.1979 86.682 46.0639 83.059C47.1093 81.7523 48.3952 80.657 49.8524 79.8322C50.0684 79.7103 50.289 79.5931 50.512 79.4806C52.9402 78.2616 55.6674 77.763 58.3707 78.0441C62.9666 78.5456 67.2082 81.3483 69.6587 85.2642C71.8416 88.7559 72.6022 92.8756 73.0505 97.0047C73.135 97.7827 73.2078 98.5631 73.2782 99.3388C72.8876 101.586 72.2735 103.789 71.4449 105.914C71.4028 106.018 71.3683 106.125 71.3417 106.233C71.8111 107.25 72.2579 108.277 72.682 109.312C73.0804 109.528 73.5267 109.641 73.9801 109.64H82.7095L82.7283 109.645Z" fill="#F2F2F2"/>
<path d="M72.5004 109.845C72.4426 109.87 72.3801 109.884 72.3168 109.886C72.2534 109.887 72.1904 109.876 72.1314 109.853C72.0724 109.83 72.0187 109.795 71.9732 109.751C71.9278 109.707 71.8916 109.654 71.8667 109.596C71.8291 109.507 71.794 109.418 71.7564 109.329C71.4184 108.509 71.064 107.696 70.6931 106.892C65.945 96.5092 58.8629 87.3594 49.9971 80.1535C49.9463 80.1179 49.906 80.0693 49.8804 80.0128C49.8549 79.9563 49.8449 79.894 49.8517 79.8324C49.8645 79.7618 49.8932 79.695 49.9356 79.637C49.978 79.579 50.0329 79.5313 50.0964 79.4975C50.1598 79.4637 50.2301 79.4447 50.3019 79.4418C50.3738 79.4389 50.4453 79.4523 50.5113 79.4809C50.5466 79.4969 50.5797 79.5174 50.6098 79.5419C54.403 82.6262 57.8828 86.076 60.9988 89.8412C64.1155 93.6029 66.8598 97.6572 69.1932 101.947C69.8293 103.119 70.4333 104.307 71.0052 105.512C71.118 105.751 71.2306 105.992 71.3409 106.233C71.8103 107.25 72.2571 108.277 72.6812 109.313C72.6883 109.329 72.6953 109.348 72.7024 109.364C72.724 109.409 72.7359 109.457 72.7372 109.506C72.7386 109.556 72.7294 109.605 72.7103 109.65C72.6912 109.695 72.6626 109.736 72.6264 109.77C72.5902 109.803 72.5473 109.829 72.5004 109.845Z" fill="white"/>
<path d="M41.3692 78.9371C46.425 78.9371 50.5236 74.8453 50.5236 69.7978C50.5236 64.7503 46.425 60.6584 41.3692 60.6584C36.3134 60.6584 32.2148 64.7503 32.2148 69.7978C32.2148 74.8453 36.3134 78.9371 41.3692 78.9371Z" fill="#C17B3A"/>
<path d="M40.4612 73.2836C40.2552 73.284 40.0547 73.2175 39.8899 73.0942L39.8797 73.0866L37.7283 71.4423C37.6287 71.3661 37.545 71.2711 37.4821 71.1626C37.4192 71.0541 37.3783 70.9343 37.3618 70.8101C37.3453 70.6858 37.3535 70.5595 37.3859 70.4384C37.4183 70.3174 37.4743 70.2038 37.5506 70.1043C37.627 70.0048 37.7222 69.9213 37.8309 69.8586C37.9396 69.7959 38.0596 69.7551 38.1841 69.7387C38.3086 69.7223 38.4351 69.7305 38.5564 69.7629C38.6776 69.7953 38.7913 69.8513 38.891 69.9275L40.2844 70.9942L43.5774 66.7071C43.6538 66.6076 43.7491 66.5242 43.8577 66.4615C43.9664 66.3988 44.0864 66.3581 44.2108 66.3417C44.3353 66.3253 44.4617 66.3335 44.583 66.3659C44.7042 66.3983 44.8179 66.4542 44.9175 66.5305L44.897 66.5582L44.918 66.5309C45.1189 66.685 45.2504 66.9124 45.2836 67.1632C45.3167 67.414 45.2489 67.6677 45.0949 67.8686L41.2216 72.9113C41.132 73.0275 41.0168 73.1215 40.8849 73.1861C40.753 73.2507 40.608 73.2841 40.4612 73.2836Z" fill="white"/>
<path d="M19.0791 32.0559C22.8308 32.0559 25.8721 29.0195 25.8721 25.274C25.8721 21.5285 22.8308 18.4922 19.0791 18.4922C15.3275 18.4922 12.2861 21.5285 12.2861 25.274C12.2861 29.0195 15.3275 32.0559 19.0791 32.0559Z" fill="#2F2E41"/>
<path d="M13.7774 21.6174C14.875 20.5215 15.0975 18.9668 14.2743 18.1449C13.451 17.323 11.8938 17.5451 10.7961 18.641C9.69843 19.7369 9.47598 21.2915 10.2992 22.1134C11.1225 22.9353 12.6797 22.7132 13.7774 21.6174Z" fill="#2F2E41"/>
<path d="M26.16 19.4637C26.6173 18.3948 25.8308 17.0348 24.4032 16.426C22.9756 15.8171 21.4475 16.1901 20.9902 17.259C20.5329 18.3278 21.3194 19.6879 22.747 20.2967C24.1746 20.9055 25.7026 20.5326 26.16 19.4637Z" fill="#2F2E41"/>
<path d="M37.9956 64.4284C38.1672 64.1027 38.2653 63.7434 38.2828 63.3758C38.3003 63.0081 38.2368 62.6412 38.0969 62.3007C37.9569 61.9602 37.7439 61.6544 37.4729 61.405C37.2018 61.1556 36.8792 60.9686 36.5279 60.8571L26.7125 40.1274L22.2227 43.2707L33.2827 62.6589C33.1342 63.2605 33.2119 63.8956 33.5011 64.4439C33.7903 64.9921 34.2709 65.4154 34.8519 65.6335C35.4328 65.8517 36.0737 65.8495 36.6531 65.6273C37.2325 65.4052 37.7102 64.9786 37.9956 64.4284Z" fill="#FFB8B8"/>
<path d="M28.9631 43.5849L23.7502 45.9119C23.6019 45.9781 23.441 46.0116 23.2785 46.0102C23.116 46.0087 22.9558 45.9723 22.8087 45.9035C22.6616 45.8346 22.5311 45.7349 22.426 45.6112C22.321 45.4874 22.2439 45.3425 22.2 45.1864L20.6628 39.7142C20.3278 38.9548 20.3081 38.0937 20.6081 37.3198C20.9081 36.5458 21.5033 35.9223 22.2631 35.5857C23.023 35.2492 23.8855 35.2272 24.6616 35.5245C25.4377 35.8219 26.064 36.4143 26.4032 37.1719L29.455 41.9478C29.5423 42.0846 29.5991 42.2385 29.6215 42.3992C29.6438 42.5598 29.6312 42.7234 29.5846 42.8788C29.5379 43.0341 29.4582 43.1776 29.351 43.2995C29.2437 43.4213 29.1115 43.5187 28.9631 43.5849Z" fill="#CCCCCC"/>
<path d="M4.88744 66.4833C5.24652 66.4001 5.58296 66.2392 5.87305 66.0121C6.16313 65.785 6.39981 65.4971 6.56641 65.1688C6.73301 64.8405 6.82548 64.4798 6.83731 64.1119C6.84914 63.7441 6.78005 63.3781 6.63489 63.0398L15.9306 42.0727L10.613 40.7356L3.14769 61.766C2.59459 62.0471 2.16401 62.521 1.93753 63.0979C1.71104 63.6748 1.70439 64.3147 1.91884 64.8961C2.13329 65.4776 2.55393 65.9603 3.10106 66.2529C3.6482 66.5454 4.2838 66.6274 4.88744 66.4833Z" fill="#FFB8B8"/>
<path d="M2.35449 104.488L5.05855 105.471L10.143 95.5258L6.15191 94.0752L2.35449 104.488Z" fill="#FFB8B8"/>
<path d="M9.3584 109.873L0.860063 106.784L2.05548 103.506L7.27038 105.402C8.1412 105.718 8.85041 106.367 9.24199 107.206C9.63357 108.044 9.67544 109.004 9.3584 109.873Z" fill="#2F2E41"/>
<path d="M8.74977 98.765C8.58385 98.765 8.41999 98.7283 8.27002 98.6574L5.1624 97.1879C4.90763 97.0685 4.70686 96.8582 4.59962 96.5984C4.49238 96.3386 4.48644 96.0482 4.58297 95.7842L13.3533 71.5373C13.4259 71.3365 13.5541 71.1604 13.723 71.0294C13.8918 70.8984 14.0944 70.8179 14.3073 70.7973C14.5201 70.7766 14.7345 70.8167 14.9255 70.9128C15.1164 71.0089 15.2762 71.1571 15.3862 71.3401L20.0249 79.0587C20.1282 79.2307 20.1837 79.4269 20.1858 79.6274C20.188 79.8279 20.1367 80.0253 20.0371 80.1995L9.73565 98.1974C9.63582 98.3702 9.49211 98.5136 9.31902 98.6133C9.14593 98.7129 8.94958 98.7653 8.74977 98.765Z" fill="#2F2E41"/>
<path d="M19.2954 32.6486C22.4794 32.6486 25.0606 30.0717 25.0606 26.8929C25.0606 23.7141 22.4794 21.1372 19.2954 21.1372C16.1114 21.1372 13.5303 23.7141 13.5303 26.8929C13.5303 30.0717 16.1114 32.6486 19.2954 32.6486Z" fill="#FFB8B8"/>
<path d="M27.4513 53.0619L17.2435 50.2593L11.8143 39.4189C11.5535 38.8982 11.4304 38.3195 11.4566 37.7378C11.4828 37.1561 11.6575 36.5908 11.9641 36.0955C12.2707 35.6003 12.6991 35.1914 13.2085 34.9079C13.7179 34.6244 14.2914 34.4756 14.8746 34.4756H22.996C23.839 34.4751 24.6524 34.7856 25.2799 35.3477C27.4585 37.2961 32.0356 42.9133 27.4955 52.9639L27.4513 53.0619Z" fill="#CCCCCC"/>
<path d="M14.6728 45.8217L9.50091 43.405C9.35376 43.3362 9.22318 43.2366 9.11808 43.1129C9.01297 42.9892 8.93579 42.8444 8.89181 42.6883C8.84784 42.5321 8.83809 42.3683 8.86323 42.2081C8.88837 42.0479 8.9478 41.8949 9.0375 41.7597L12.1806 37.0211C12.5373 36.2716 13.1772 35.6938 13.96 35.4146C14.7427 35.1353 15.6045 35.1772 16.3563 35.5312C17.1081 35.8852 17.6887 36.5224 17.9706 37.303C18.2526 38.0836 18.213 38.944 17.8605 39.6955L16.2353 45.123C16.1887 45.2784 16.1091 45.4219 16.0019 45.5439C15.8948 45.6658 15.7625 45.7632 15.6143 45.8295C15.466 45.8958 15.3051 45.9294 15.1427 45.9281C14.9802 45.9267 14.8199 45.8904 14.6728 45.8217Z" fill="#CCCCCC"/>
<path d="M20.9294 107.206H23.8069L25.1761 96.124L20.9287 96.1243L20.9294 107.206Z" fill="#FFB8B8"/>
<path d="M29.3574 109.873L20.3132 109.873L20.3131 106.385L25.8629 106.385C26.7897 106.385 27.6785 106.752 28.3338 107.407C28.9892 108.061 29.3574 108.948 29.3574 109.873Z" fill="#2F2E41"/>
<path d="M22.0169 102.983C21.7581 102.983 21.5072 102.894 21.3063 102.731C21.1055 102.569 20.967 102.342 20.9142 102.089C20.087 98.1978 15.791 78.2676 12.4379 68.0017C9.02637 57.557 14.8364 52.7996 16.0358 51.952C16.1635 51.8619 16.265 51.7396 16.3299 51.5975L17.2012 49.6839C17.2916 49.4863 17.4369 49.3188 17.6199 49.2014C17.8029 49.084 18.0158 49.0215 18.2333 49.0215H18.2404C24.7725 49.0604 26.9685 51.1162 27.6094 51.9983C27.7039 52.1297 27.7687 52.28 27.7993 52.4389C27.8298 52.5978 27.8254 52.7614 27.7863 52.9184L23.6533 69.942C23.6277 70.0476 23.6219 70.157 23.6362 70.2647L27.7482 101.174C27.7679 101.323 27.7579 101.474 27.7186 101.619C27.6793 101.763 27.6115 101.899 27.5192 102.017C27.427 102.135 27.3121 102.234 27.1812 102.307C27.0503 102.381 26.9061 102.427 26.757 102.444L22.1496 102.975C22.1056 102.98 22.0612 102.983 22.0169 102.983Z" fill="#2F2E41"/>
<path d="M13.2383 23.2723C14.5557 24.1787 16.1194 24.6611 17.7194 24.6547C17.1486 25.0498 16.4989 25.3166 15.8149 25.4369C17.9422 25.8924 20.1409 25.9048 22.2732 25.4731C22.7472 25.3973 23.2045 25.2405 23.6252 25.0096C23.8348 24.8927 24.0174 24.7331 24.1612 24.5412C24.305 24.3492 24.4066 24.1292 24.4597 23.8955C24.6014 23.0874 23.9706 22.3533 23.3151 21.8585C22.3115 21.1125 21.1544 20.5986 19.9274 20.3538C18.7004 20.1091 17.4343 20.1396 16.2206 20.4433C15.4281 20.6478 14.6342 20.9933 14.1195 21.6286C13.6047 22.264 13.4522 23.2434 13.9426 23.8977L13.2383 23.2723Z" fill="#2F2E41"/>
<path d="M119.064 48.2378C120.749 48.2378 122.116 46.874 122.116 45.1917C122.116 43.5093 120.749 42.1455 119.064 42.1455C117.379 42.1455 116.013 43.5093 116.013 45.1917C116.013 46.874 117.379 48.2378 119.064 48.2378Z" fill="#C17B3A"/>
<path d="M118.761 46.3538C118.692 46.354 118.626 46.3318 118.571 46.2907L118.567 46.2881L117.85 45.74C117.817 45.7147 117.789 45.683 117.768 45.6468C117.747 45.6107 117.733 45.5707 117.727 45.5292C117.722 45.4878 117.725 45.4456 117.735 45.4052C117.746 45.3648 117.765 45.3269 117.79 45.2937C117.816 45.2605 117.848 45.2326 117.884 45.2117C117.92 45.1908 117.96 45.1772 118.002 45.1718C118.043 45.1663 118.086 45.1691 118.126 45.18C118.166 45.1909 118.204 45.2096 118.238 45.2351L118.702 45.5907L119.8 44.1616C119.825 44.1285 119.857 44.1007 119.893 44.0798C119.929 44.0589 119.969 44.0453 120.011 44.0398C120.052 44.0344 120.095 44.0371 120.135 44.0479C120.175 44.0587 120.213 44.0774 120.246 44.1028C120.313 44.1542 120.357 44.2301 120.368 44.3137C120.38 44.3973 120.357 44.4818 120.306 44.5488L119.014 46.2297C118.985 46.2684 118.946 46.2998 118.902 46.3213C118.858 46.3428 118.81 46.354 118.761 46.3538Z" fill="white"/>
<path d="M119.064 57.1426C120.749 57.1426 122.116 55.7788 122.116 54.0965C122.116 52.4141 120.749 51.0503 119.064 51.0503C117.379 51.0503 116.013 52.4141 116.013 54.0965C116.013 55.7788 117.379 57.1426 119.064 57.1426Z" fill="#C17B3A"/>
<path d="M118.761 55.2589C118.692 55.259 118.626 55.2368 118.571 55.1957L118.567 55.1932L117.85 54.6451C117.817 54.6197 117.789 54.588 117.768 54.5519C117.747 54.5157 117.733 54.4757 117.727 54.4343C117.722 54.3928 117.725 54.3506 117.735 54.3102C117.746 54.2698 117.765 54.2319 117.79 54.1987C117.816 54.1655 117.848 54.1376 117.884 54.1167C117.92 54.0958 117.96 54.0822 118.002 54.0768C118.043 54.0713 118.086 54.0741 118.126 54.085C118.166 54.0959 118.204 54.1146 118.238 54.1402L118.702 54.4957L119.8 53.0667C119.825 53.0335 119.857 53.0057 119.893 52.9848C119.929 52.9639 119.969 52.9503 120.011 52.9449C120.052 52.9394 120.095 52.9422 120.135 52.9529C120.175 52.9637 120.213 52.9824 120.246 53.0078C120.313 53.0592 120.357 53.1351 120.368 53.2187C120.38 53.3023 120.357 53.3869 120.306 53.4538L119.014 55.1347C118.985 55.1735 118.946 55.2048 118.902 55.2263C118.858 55.2479 118.81 55.259 118.761 55.2589Z" fill="white"/>
<path d="M120.707 67.4539C122.392 67.4539 123.758 66.0901 123.758 64.4077C123.758 62.7254 122.392 61.3616 120.707 61.3616C119.021 61.3616 117.655 62.7254 117.655 64.4077C117.655 66.0901 119.021 67.4539 120.707 67.4539Z" fill="#C17B3A"/>
<path d="M120.405 65.5699C120.336 65.57 120.269 65.5479 120.214 65.5068L120.211 65.5042L119.494 64.9561C119.46 64.9307 119.432 64.8991 119.411 64.8629C119.39 64.8267 119.377 64.7868 119.371 64.7453C119.365 64.7038 119.368 64.6617 119.379 64.6213C119.39 64.5808 119.408 64.5429 119.434 64.5097C119.459 64.4765 119.491 64.4487 119.527 64.4277C119.564 64.4068 119.604 64.3933 119.645 64.3878C119.687 64.3824 119.729 64.3852 119.77 64.396C119.81 64.4069 119.848 64.4257 119.881 64.4512L120.346 64.8067L121.443 63.3777C121.469 63.3446 121.501 63.3167 121.537 63.2958C121.573 63.2749 121.613 63.2614 121.654 63.2559C121.696 63.2504 121.738 63.2532 121.778 63.264C121.819 63.2748 121.857 63.2934 121.89 63.3188C121.957 63.3702 122.001 63.4462 122.012 63.5298C122.023 63.6133 122 63.6979 121.949 63.7649L120.658 65.4458C120.628 65.4845 120.59 65.5158 120.546 65.5374C120.502 65.5589 120.454 65.57 120.405 65.5699Z" fill="white"/>
<path d="M150.131 89.8432C150.1 89.8432 150.08 89.8424 150.073 89.842L146.285 89.8424V89.2848H150.087C150.175 89.2879 151.971 89.3385 153.625 87.3339C156.092 84.3463 158.117 76.9503 153.76 58.6823C147.902 34.1185 152.788 12.4177 155.16 4.22782C155.277 3.82264 155.298 3.39586 155.221 2.98122C155.145 2.56658 154.972 2.17543 154.718 1.83868C154.464 1.50193 154.135 1.22881 153.757 1.04089C153.379 0.852971 152.962 0.75541 152.54 0.75591H95.9624C95.5323 0.756486 95.1083 0.858307 94.725 1.05311C94.3416 1.24791 94.0097 1.53021 93.7561 1.87709C92.7511 3.25736 91.3718 5.90898 90.5087 10.7036L89.959 10.605C90.8408 5.70626 92.2649 2.97662 93.3043 1.54924C93.6098 1.13127 94.0097 0.79111 94.4715 0.556372C94.9334 0.321634 95.4442 0.198936 95.9624 0.198244H152.54C153.049 0.197755 153.551 0.315432 154.006 0.541979C154.462 0.768526 154.858 1.09774 155.165 1.5036C155.471 1.90946 155.678 2.38085 155.771 2.88054C155.863 3.38022 155.838 3.89451 155.697 4.38276C153.337 12.5301 148.476 34.1183 154.303 58.5533C158.721 77.0781 156.597 84.6343 154.038 87.7112C152.35 89.7405 150.489 89.8432 150.131 89.8432Z" fill="#E6E6E6"/>
<path d="M139.937 100.021C139.906 100.021 139.886 100.02 139.879 100.02L136.09 100.02V99.4623H139.892C139.981 99.465 141.776 99.516 143.431 97.5114C145.897 94.5238 147.922 87.1278 143.566 68.8598C137.708 44.296 142.593 22.5952 144.966 14.4053C145.083 14.0001 145.104 13.5734 145.027 13.1587C144.95 12.7441 144.778 12.3529 144.524 12.0162C144.27 11.6794 143.941 11.4063 143.563 11.2184C143.184 11.0305 142.768 10.9329 142.345 10.9334H85.7681C85.338 10.934 84.914 11.0358 84.5307 11.2306C84.1474 11.4254 83.8154 11.7077 83.5618 12.0546C82.5568 13.4349 81.1775 16.0865 80.3144 20.8811L79.7646 20.7825C80.6465 15.8837 82.0706 13.1541 83.11 11.7267C83.4155 11.3088 83.8154 10.9686 84.2772 10.7339C84.7391 10.4991 85.2499 10.3764 85.7681 10.3757H142.345C142.854 10.3752 143.356 10.4929 143.812 10.7195C144.268 10.946 144.664 11.2752 144.97 11.6811C145.277 12.087 145.484 12.5584 145.576 13.058C145.669 13.5577 145.644 14.072 145.503 14.5603C143.142 22.7076 138.282 44.2958 144.109 68.7308C148.527 87.2556 146.403 94.8118 143.844 97.8886C142.155 99.9179 140.295 100.021 139.937 100.021Z" fill="#CCCCCC"/>
<path d="M133.914 78.909C128.086 54.4742 132.947 32.8843 135.309 24.7386C135.449 24.2503 135.474 23.7361 135.382 23.2365C135.289 22.7369 135.082 22.2656 134.776 21.8598C134.47 21.454 134.073 21.1247 133.618 20.8979C133.162 20.6712 132.66 20.5532 132.152 20.5532H75.573C75.055 20.5537 74.5444 20.6762 74.0827 20.9108C73.621 21.1453 73.2212 21.4853 72.9158 21.903C70.6319 25.0385 65.8928 35.4363 71.186 64.2064C74.0167 79.598 73.9745 90.0918 73.0497 97.0049C72.5309 100.897 71.7305 103.653 71.0051 105.511L70.9278 105.708C70.775 106.084 70.6953 106.486 70.693 106.892C70.6877 107.35 70.7797 107.804 70.963 108.224C71.1462 108.644 71.4166 109.021 71.7563 109.329C71.9778 109.536 72.2285 109.71 72.5004 109.844C72.7261 109.959 72.9649 110.047 73.2117 110.105C73.4629 110.166 73.7206 110.197 73.9792 110.196H129.685C129.692 110.196 129.71 110.198 129.743 110.198C130.1 110.198 131.962 110.095 133.649 108.066C136.208 104.989 138.332 97.4337 133.914 78.909ZM133.236 107.689C131.581 109.694 129.786 109.643 129.699 109.641H73.9792C73.5331 109.64 73.0939 109.531 72.6998 109.322C72.3057 109.114 71.9689 108.812 71.7187 108.443C71.4986 108.124 71.3508 107.761 71.2856 107.38C71.2203 106.998 71.2392 106.607 71.3408 106.233C71.3674 106.125 71.402 106.018 71.4441 105.915C72.2726 103.789 72.8867 101.586 73.2773 99.3389C74.6012 92.1329 74.8476 81.0134 71.7352 64.1056C66.4821 35.5488 71.1273 25.308 73.3665 22.2311C73.6206 21.8847 73.9526 21.6029 74.3359 21.4083C74.7192 21.2137 75.143 21.1119 75.573 21.111H132.152C132.574 21.1107 132.99 21.2083 133.368 21.3962C133.746 21.5841 134.075 21.8571 134.329 22.1937C134.583 22.5303 134.755 22.9212 134.832 23.3356C134.909 23.75 134.888 24.1765 134.771 24.5816C132.398 32.7718 127.513 54.4742 133.372 79.0379C137.729 97.3048 135.703 104.701 133.236 107.689Z" fill="#3F3D56"/>
<path d="M107.036 47.1601H77.8857C77.2931 47.1601 76.7248 46.9251 76.3058 46.5068C75.8868 46.0885 75.6514 45.5212 75.6514 44.9297C75.6514 44.3381 75.8868 43.7708 76.3058 43.3525C76.7248 42.9342 77.2931 42.6992 77.8857 42.6992H107.036C107.628 42.6992 108.196 42.9342 108.615 43.3525C109.034 43.7708 109.27 44.3381 109.27 44.9297C109.27 45.5212 109.034 46.0885 108.615 46.5068C108.196 46.9251 107.628 47.1601 107.036 47.1601Z" fill="#CCCCCC"/>
<path d="M107.036 56.768H77.8857C77.2931 56.768 76.7248 56.533 76.3058 56.1147C75.8868 55.6965 75.6514 55.1291 75.6514 54.5376C75.6514 53.946 75.8868 53.3787 76.3058 52.9604C76.7248 52.5421 77.2931 52.3071 77.8857 52.3071H107.036C107.628 52.3071 108.196 52.5421 108.615 52.9604C109.034 53.3787 109.27 53.946 109.27 54.5376C109.27 55.1291 109.034 55.6965 108.615 56.1147C108.196 56.533 107.628 56.768 107.036 56.768Z" fill="#CCCCCC"/>
<path d="M109.384 66.6103H80.2343C79.6417 66.6103 79.0734 66.3753 78.6544 65.957C78.2354 65.5387 78 64.9714 78 64.3799C78 63.7883 78.2354 63.221 78.6544 62.8027C79.0734 62.3844 79.6417 62.1494 80.2343 62.1494H109.384C109.977 62.1494 110.545 62.3844 110.964 62.8027C111.383 63.221 111.618 63.7883 111.618 64.3799C111.618 64.9714 111.383 65.5387 110.964 65.957C110.545 66.3753 109.977 66.6103 109.384 66.6103Z" fill="#CCCCCC"/>
<path d="M111.027 76.9213H81.8769C81.2843 76.9213 80.716 76.6863 80.297 76.2681C79.878 75.8498 79.6426 75.2824 79.6426 74.6909C79.6426 74.0993 79.878 73.532 80.297 73.1137C80.716 72.6954 81.2843 72.4604 81.8769 72.4604H111.027C111.619 72.4604 112.188 72.6954 112.607 73.1137C113.026 73.532 113.261 74.0993 113.261 74.6909C113.261 75.2824 113.026 75.8498 112.607 76.2681C112.188 76.6863 111.619 76.9213 111.027 76.9213Z" fill="#CCCCCC"/>
<path d="M111.039 29.8398H90.0921C89.7985 29.8401 89.5077 29.7826 89.2363 29.6707C88.965 29.5587 88.7184 29.3945 88.5107 29.1873C88.303 28.9802 88.1382 28.7342 88.0258 28.4634C87.9133 28.1927 87.8555 27.9025 87.8555 27.6094C87.8555 27.3163 87.9133 27.026 88.0258 26.7553C88.1382 26.4845 88.303 26.2385 88.5107 26.0314C88.7184 25.8242 88.965 25.66 89.2363 25.548C89.5077 25.4361 89.7985 25.3786 90.0921 25.3789H111.039C111.631 25.3789 112.2 25.6139 112.619 26.0322C113.038 26.4505 113.273 27.0178 113.273 27.6094C113.273 28.2009 113.038 28.7682 112.619 29.1865C112.2 29.6048 111.631 29.8398 111.039 29.8398Z" fill="#C17B3A"/>
<path d="M122.585 77.7371C124.27 77.7371 125.636 76.3733 125.636 74.6909C125.636 73.0086 124.27 71.6448 122.585 71.6448C120.899 71.6448 119.533 73.0086 119.533 74.6909C119.533 76.3733 120.899 77.7371 122.585 77.7371Z" fill="#CCCCCC"/>
<path d="M112.435 86.9983H83.2851C82.6925 86.9983 82.1242 86.7633 81.7052 86.345C81.2862 85.9267 81.0508 85.3594 81.0508 84.7678C81.0508 84.1763 81.2862 83.6089 81.7052 83.1906C82.1242 82.7723 82.6925 82.5374 83.2851 82.5374H112.435C113.028 82.5374 113.596 82.7723 114.015 83.1906C114.434 83.6089 114.669 84.1763 114.669 84.7678C114.669 85.3594 114.434 85.9267 114.015 86.345C113.596 86.7633 113.028 86.9983 112.435 86.9983Z" fill="#CCCCCC"/>
<path d="M123.993 87.8135C125.678 87.8135 127.044 86.4497 127.044 84.7674C127.044 83.085 125.678 81.7212 123.993 81.7212C122.308 81.7212 120.941 83.085 120.941 84.7674C120.941 86.4497 122.308 87.8135 123.993 87.8135Z" fill="#CCCCCC"/>
</svg>
