<svg width="157" height="111" viewBox="0 0 157 111" fill="none" xmlns="http://www.w3.org/2000/svg">
<path d="M76.0031 109.712C75.7627 109.712 75.5265 109.635 75.3174 109.489L35.6738 81.9629C35.3515 81.7385 35.1149 81.3663 35.0158 80.9279C34.9167 80.4896 34.9632 80.0208 35.1452 79.6245L66.3696 11.7959C66.4599 11.5997 66.5807 11.4272 66.7253 11.2884C66.8698 11.1496 67.0352 11.0471 67.212 10.9868C67.3888 10.9266 67.5735 10.9096 67.7557 10.9371C67.9378 10.9645 68.1137 11.0357 68.2735 11.1467L107.917 38.673C108.239 38.8973 108.476 39.2695 108.575 39.7078C108.674 40.1461 108.628 40.6149 108.446 41.0112L77.2213 108.84C77.1314 109.036 77.0107 109.209 76.8661 109.348C76.7215 109.487 76.5559 109.589 76.3789 109.649C76.2565 109.691 76.1301 109.712 76.0031 109.712Z" fill="#E6E6E6"/>
<path d="M65.2638 14.4535L65.1045 14.7996L107.002 43.8911L107.162 43.545L65.2638 14.4535Z" fill="white"/>
<path d="M62.3966 20.6828L62.2373 21.0288L104.135 50.1203L104.294 49.7742L62.3966 20.6828Z" fill="white"/>
<path d="M59.5284 26.9118L59.3691 27.2578L101.267 56.3493L101.426 56.0032L59.5284 26.9118Z" fill="white"/>
<path d="M56.6613 33.141L56.502 33.4871L98.3998 62.5786L98.5591 62.2325L56.6613 33.141Z" fill="white"/>
<path d="M53.7941 39.3703L53.6348 39.7163L95.5326 68.8078L95.6919 68.4617L53.7941 39.3703Z" fill="white"/>
<path d="M50.9259 45.5995L50.7666 45.9456L92.6644 75.037L92.8237 74.691L50.9259 45.5995Z" fill="white"/>
<path d="M48.0587 51.8283L47.8994 52.1743L89.7972 81.2658L89.9565 80.9198L48.0587 51.8283Z" fill="white"/>
<path d="M45.1906 58.0575L45.0312 58.4036L86.9291 87.4951L87.0884 87.149L45.1906 58.0575Z" fill="white"/>
<path d="M42.3234 64.2867L42.1641 64.6328L84.0619 93.7243L84.2212 93.3782L42.3234 64.2867Z" fill="white"/>
<path d="M39.4562 70.5158L39.2969 70.8618L81.1947 99.9533L81.354 99.6073L39.4562 70.5158Z" fill="white"/>
<path d="M36.588 76.745L36.4287 77.0911L78.3265 106.183L78.4858 105.836L36.588 76.745Z" fill="white"/>
<path d="M72.3156 99.3956C72.0752 99.3954 71.839 99.3186 71.6299 99.1728L31.9863 71.6465C31.664 71.4221 31.4274 71.0499 31.3283 70.6115C31.2292 70.1732 31.2757 69.7044 31.4577 69.3081L62.6821 1.47948C62.7724 1.28328 62.8932 1.11085 63.0378 0.972028C63.1823 0.83321 63.3477 0.730728 63.5245 0.670439C63.7013 0.610151 63.8861 0.593236 64.0682 0.620661C64.2503 0.648086 64.4262 0.719315 64.586 0.830275L104.23 28.3566C104.552 28.5809 104.788 28.9531 104.888 29.3914C104.987 29.8297 104.94 30.2985 104.758 30.6948L73.5338 98.5233C73.4439 98.7199 73.3232 98.8926 73.1786 99.0315C73.034 99.1704 72.8684 99.2727 72.6914 99.3325C72.569 99.3743 72.4426 99.3955 72.3156 99.3956Z" fill="#F2F2F2"/>
<path d="M61.5763 4.1371L61.417 4.48315L103.315 33.5746L103.474 33.2286L61.5763 4.1371Z" fill="white"/>
<path d="M58.7091 10.3661L58.5498 10.7122L100.448 39.8037L100.607 39.4576L58.7091 10.3661Z" fill="white"/>
<path d="M55.8409 16.5953L55.6816 16.9414L97.5795 46.0329L97.7388 45.6868L55.8409 16.5953Z" fill="white"/>
<path d="M52.9738 22.8246L52.8145 23.1707L94.7123 52.2621L94.8716 51.9161L52.9738 22.8246Z" fill="white"/>
<path d="M50.1066 29.0538L49.9473 29.3999L91.8451 58.4914L92.0044 58.1453L50.1066 29.0538Z" fill="white"/>
<path d="M47.2384 35.2826L47.0791 35.6287L88.9769 64.7202L89.1362 64.3741L47.2384 35.2826Z" fill="white"/>
<path d="M44.3712 41.5119L44.2119 41.8579L86.1097 70.9494L86.269 70.6033L44.3712 41.5119Z" fill="white"/>
<path d="M41.5031 47.7411L41.3438 48.0872L83.2416 77.1787L83.4009 76.8326L41.5031 47.7411Z" fill="white"/>
<path d="M38.6359 53.9701L38.4766 54.3162L80.3744 83.4077L80.5337 83.0616L38.6359 53.9701Z" fill="white"/>
<path d="M35.7677 60.1994L35.6084 60.5454L77.5062 89.6369L77.6655 89.2908L35.7677 60.1994Z" fill="white"/>
<path d="M32.9005 66.4286L32.7412 66.7747L74.639 95.8662L74.7983 95.5201L32.9005 66.4286Z" fill="white"/>
<path d="M68.3646 0.198242H5.00781V108.396H68.3646C68.5921 108.396 68.8104 108.285 68.9713 108.087C69.1322 107.889 69.2227 107.621 69.2227 107.342V1.25211C69.2227 0.97261 69.1322 0.70456 68.9713 0.506922C68.8104 0.309284 68.5921 0.198248 68.3646 0.198242ZM8.58325 105.41C8.2721 105.41 7.96794 105.296 7.70923 105.084C7.45051 104.872 7.24887 104.57 7.1298 104.217C7.01073 103.864 6.97958 103.475 7.04028 103.101C7.10098 102.726 7.25081 102.382 7.47083 102.111C7.69084 101.841 7.97116 101.657 8.27633 101.583C8.5815 101.508 8.89782 101.546 9.18528 101.693C9.47274 101.839 9.71844 102.086 9.89131 102.404C10.0642 102.722 10.1564 103.095 10.1564 103.478C10.1564 103.731 10.1157 103.983 10.0367 104.217C9.95763 104.451 9.84175 104.664 9.69566 104.844C9.54958 105.023 9.37615 105.166 9.18528 105.263C8.99441 105.36 8.78984 105.41 8.58325 105.41ZM8.58325 95.5735C8.2721 95.5735 7.96794 95.4602 7.70923 95.2479C7.45052 95.0356 7.24888 94.7339 7.12981 94.3808C7.01074 94.0278 6.97958 93.6393 7.04028 93.2645C7.10099 92.8897 7.25082 92.5455 7.47083 92.2753C7.69085 92.005 7.97116 91.821 8.27633 91.7465C8.5815 91.6719 8.89782 91.7102 9.18528 91.8564C9.47274 92.0027 9.71844 92.2503 9.89131 92.568C10.0642 92.8858 10.1564 93.2593 10.1564 93.6414C10.1564 93.8952 10.1158 94.1464 10.0367 94.3808C9.95763 94.6152 9.84175 94.8282 9.69567 95.0076C9.54958 95.1871 9.37615 95.3294 9.18528 95.4265C8.99441 95.5236 8.78984 95.5735 8.58325 95.5735ZM8.58325 85.7374C8.2721 85.7374 7.96794 85.6241 7.70923 85.4118C7.45052 85.1995 7.24888 84.8977 7.12981 84.5447C7.01074 84.1917 6.97958 83.8032 7.04028 83.4284C7.10099 83.0536 7.25082 82.7093 7.47083 82.4391C7.69085 82.1689 7.97116 81.9849 8.27633 81.9103C8.5815 81.8358 8.89782 81.8741 9.18528 82.0203C9.47274 82.1665 9.71844 82.4142 9.89131 82.7319C10.0642 83.0496 10.1564 83.4232 10.1564 83.8053C10.1564 84.0591 10.1157 84.3103 10.0367 84.5447C9.95763 84.7791 9.84175 84.9921 9.69566 85.1715C9.54958 85.3509 9.37615 85.4933 9.18528 85.5903C8.99441 85.6874 8.78984 85.7374 8.58325 85.7374ZM8.58325 75.9013C8.2721 75.9013 7.96794 75.788 7.70923 75.5757C7.45052 75.3634 7.24888 75.0616 7.12981 74.7086C7.01074 74.3555 6.97958 73.9671 7.04028 73.5923C7.10099 73.2175 7.25082 72.8732 7.47083 72.603C7.69085 72.3328 7.97116 72.1488 8.27633 72.0742C8.5815 71.9997 8.89782 72.0379 9.18528 72.1842C9.47274 72.3304 9.71844 72.578 9.89131 72.8958C10.0642 73.2135 10.1564 73.5871 10.1564 73.9692C10.1564 74.2229 10.1157 74.4742 10.0367 74.7086C9.95763 74.943 9.84175 75.156 9.69566 75.3354C9.54958 75.5148 9.37615 75.6571 9.18528 75.7542C8.99441 75.8513 8.78984 75.9013 8.58325 75.9013ZM8.58325 66.0652C8.2721 66.0652 7.96794 65.9518 7.70923 65.7395C7.45052 65.5272 7.24888 65.2255 7.12981 64.8725C7.01074 64.5194 6.97958 64.1309 7.04028 63.7561C7.10099 63.3813 7.25082 63.0371 7.47083 62.7669C7.69085 62.4967 7.97116 62.3126 8.27633 62.2381C8.5815 62.1635 8.89782 62.2018 9.18528 62.348C9.47274 62.4943 9.71844 62.7419 9.89131 63.0596C10.0642 63.3774 10.1564 63.7509 10.1564 64.1331C10.1564 64.3868 10.1157 64.638 10.0367 64.8725C9.95763 65.1069 9.84175 65.3199 9.69566 65.4993C9.54958 65.6787 9.37615 65.821 9.18528 65.9181C8.99441 66.0152 8.78984 66.0652 8.58325 66.0652ZM8.58325 56.229C8.2721 56.229 7.96794 56.1157 7.70923 55.9034C7.45052 55.6911 7.24888 55.3894 7.12981 55.0363C7.01074 54.6833 6.97958 54.2948 7.04028 53.92C7.10099 53.5452 7.25082 53.2009 7.47083 52.9307C7.69085 52.6605 7.97116 52.4765 8.27633 52.402C8.5815 52.3274 8.89782 52.3657 9.18528 52.5119C9.47274 52.6582 9.71844 52.9058 9.89131 53.2235C10.0642 53.5413 10.1564 53.9148 10.1564 54.2969C10.1564 54.5507 10.1157 54.8019 10.0367 55.0363C9.95763 55.2707 9.84175 55.4837 9.69566 55.6631C9.54958 55.8426 9.37615 55.9849 9.18528 56.082C8.99441 56.1791 8.78984 56.229 8.58325 56.229ZM8.58325 46.3929C8.2721 46.3929 7.96794 46.2796 7.70923 46.0673C7.45052 45.855 7.24888 45.5532 7.12981 45.2002C7.01074 44.8472 6.97958 44.4587 7.04028 44.0839C7.10099 43.7091 7.25082 43.3648 7.47083 43.0946C7.69085 42.8244 7.97116 42.6404 8.27633 42.5658C8.5815 42.4913 8.89782 42.5296 9.18528 42.6758C9.47274 42.822 9.71844 43.0697 9.89131 43.3874C10.0642 43.7051 10.1564 44.0787 10.1564 44.4608C10.1564 44.7145 10.1157 44.9658 10.0367 45.2002C9.95763 45.4346 9.84175 45.6476 9.69566 45.827C9.54958 46.0064 9.37615 46.1487 9.18528 46.2458C8.99441 46.3429 8.78984 46.3929 8.58325 46.3929ZM8.58325 36.5568C8.2721 36.5568 7.96794 36.4435 7.70923 36.2312C7.45052 36.0189 7.24888 35.7171 7.12981 35.3641C7.01074 35.011 6.97958 34.6225 7.04028 34.2478C7.10099 33.873 7.25082 33.5287 7.47083 33.2585C7.69085 32.9883 7.97116 32.8043 8.27633 32.7297C8.5815 32.6552 8.89782 32.6934 9.18528 32.8397C9.47274 32.9859 9.71844 33.2335 9.89131 33.5513C10.0642 33.869 10.1564 34.2426 10.1564 34.6247C10.1564 34.8784 10.1157 35.1297 10.0367 35.3641C9.95763 35.5985 9.84175 35.8115 9.69566 35.9909C9.54958 36.1703 9.37615 36.3126 9.18528 36.4097C8.99441 36.5068 8.78984 36.5568 8.58325 36.5568ZM8.58325 26.7207C8.2721 26.7207 7.96794 26.6073 7.70923 26.395C7.45052 26.1827 7.24888 25.881 7.12981 25.5279C7.01074 25.1749 6.97958 24.7864 7.04028 24.4116C7.10099 24.0368 7.25082 23.6926 7.47083 23.4224C7.69085 23.1522 7.97116 22.9681 8.27633 22.8936C8.5815 22.819 8.89782 22.8573 9.18528 23.0035C9.47274 23.1498 9.71844 23.3974 9.89131 23.7151C10.0642 24.0329 10.1564 24.4064 10.1564 24.7886C10.1564 25.0423 10.1157 25.2935 10.0367 25.5279C9.95763 25.7624 9.84175 25.9753 9.69566 26.1548C9.54958 26.3342 9.37615 26.4765 9.18528 26.5736C8.99441 26.6707 8.78984 26.7207 8.58325 26.7207ZM8.58325 16.8845C8.2721 16.8845 7.96794 16.7712 7.70923 16.5589C7.45051 16.3466 7.24887 16.0449 7.1298 15.6918C7.01073 15.3388 6.97958 14.9503 7.04028 14.5755C7.10098 14.2007 7.25081 13.8564 7.47083 13.5862C7.69084 13.316 7.97116 13.132 8.27633 13.0575C8.5815 12.9829 8.89782 13.0212 9.18528 13.1674C9.47274 13.3136 9.71844 13.5613 9.89131 13.879C10.0642 14.1967 10.1564 14.5703 10.1564 14.9524C10.1564 15.2062 10.1157 15.4574 10.0367 15.6918C9.95763 15.9262 9.84175 16.1392 9.69566 16.3186C9.54958 16.498 9.37615 16.6404 9.18528 16.7375C8.99441 16.8346 8.78984 16.8845 8.58325 16.8845ZM8.58325 7.0484C8.2721 7.0484 7.96794 6.93509 7.70923 6.72279C7.45051 6.51049 7.24887 6.20874 7.1298 5.85569C7.01073 5.50265 6.97958 5.11416 7.04028 4.73937C7.10098 4.36458 7.25081 4.02032 7.47083 3.75011C7.69084 3.4799 7.97116 3.29588 8.27633 3.22133C8.5815 3.14678 8.89782 3.18504 9.18528 3.33128C9.47274 3.47751 9.71844 3.72516 9.89131 4.04289C10.0642 4.36062 10.1564 4.73417 10.1564 5.11631C10.1564 5.37003 10.1157 5.62127 10.0367 5.85569C9.95763 6.0901 9.84175 6.30309 9.69566 6.48251C9.54958 6.66192 9.37615 6.80424 9.18528 6.90133C8.99441 6.99843 8.78984 7.0484 8.58325 7.0484Z" fill="#3F3D56"/>
<path d="M5.00786 6.17003C4.58334 6.17003 0.860352 6.14541 0.860352 5.2918C0.860352 4.43819 4.58334 4.41357 5.00786 4.41357V4.76486C2.81506 4.76486 1.39321 5.06633 1.16423 5.2918C1.39321 5.51727 2.81506 5.81873 5.00786 5.81873C7.19577 5.81873 8.61615 5.51855 8.84992 5.29335C8.73867 5.19686 8.28422 4.99463 7.06527 4.86522L7.08989 4.5153C9.15537 4.73451 9.15537 5.1394 9.15537 5.2918C9.15537 6.14541 5.43237 6.17003 5.00786 6.17003Z" fill="#2F2E41"/>
<path d="M5.00786 15.8307C4.58334 15.8307 0.860352 15.806 0.860352 14.9524C0.860352 14.0988 4.58334 14.0742 5.00786 14.0742V14.4255C2.81506 14.4255 1.39321 14.727 1.16423 14.9524C1.39321 15.1779 2.81506 15.4794 5.00786 15.4794C7.19577 15.4794 8.61615 15.1792 8.84992 14.954C8.73867 14.8575 8.28422 14.6553 7.06527 14.5259L7.08989 14.1759C9.15537 14.3952 9.15537 14.8001 9.15537 14.9525C9.15537 15.8061 5.43237 15.8307 5.00786 15.8307Z" fill="#2F2E41"/>
<path d="M5.00786 25.6668C4.58334 25.6668 0.860352 25.6422 0.860352 24.7886C0.860352 23.935 4.58334 23.9104 5.00786 23.9104V24.2617C2.81506 24.2617 1.39321 24.5631 1.16423 24.7886C1.39321 25.0141 2.81506 25.3156 5.00786 25.3156C7.19577 25.3156 8.61615 25.0154 8.84992 24.7902C8.73867 24.6937 8.28422 24.4915 7.06527 24.362L7.08989 24.0121C9.15537 24.2313 9.15537 24.6362 9.15537 24.7886C9.15537 25.6422 5.43237 25.6668 5.00786 25.6668Z" fill="#2F2E41"/>
<path d="M5.00786 35.5028C4.58334 35.5028 0.860352 35.4782 0.860352 34.6246C0.860352 33.771 4.58334 33.7463 5.00786 33.7463V34.0976C2.81506 34.0976 1.39321 34.3991 1.16423 34.6246C1.39321 34.85 2.81506 35.1515 5.00786 35.1515C7.19577 35.1515 8.61615 34.8513 8.84992 34.6261C8.73867 34.5296 8.28422 34.3274 7.06527 34.198L7.08989 33.8481C9.15537 34.0673 9.15537 34.4722 9.15537 34.6246C9.15537 35.4782 5.43237 35.5028 5.00786 35.5028Z" fill="#2F2E41"/>
<path d="M5.00786 45.3392C4.58334 45.3392 0.860352 45.3146 0.860352 44.461C0.860352 43.6074 4.58334 43.5828 5.00786 43.5828V43.9341C2.81506 43.9341 1.39321 44.2355 1.16423 44.461C1.39321 44.6865 2.81506 44.9879 5.00786 44.9879C7.19577 44.9879 8.61615 44.6877 8.84992 44.4625C8.73867 44.3661 8.28422 44.1638 7.06527 44.0344L7.08989 43.6845C9.15537 43.9037 9.15537 44.3086 9.15537 44.461C9.15537 45.3146 5.43237 45.3392 5.00786 45.3392Z" fill="#2F2E41"/>
<path d="M5.00786 55.1751C4.58334 55.1751 0.860352 55.1505 0.860352 54.2969C0.860352 53.4433 4.58334 53.4187 5.00786 53.4187V53.77C2.81506 53.77 1.39321 54.0715 1.16423 54.2969C1.39321 54.5224 2.81506 54.8239 5.00786 54.8239C7.19577 54.8239 8.61615 54.5237 8.84992 54.2985C8.73867 54.202 8.28422 53.9998 7.06527 53.8703L7.08989 53.5204C9.15537 53.7396 9.15537 54.1445 9.15537 54.2969C9.15537 55.1505 5.43237 55.1751 5.00786 55.1751Z" fill="#2F2E41"/>
<path d="M5.00786 65.0113C4.58334 65.0113 0.860352 64.9867 0.860352 64.1331C0.860352 63.2795 4.58334 63.2549 5.00786 63.2549V63.6062C2.81506 63.6062 1.39321 63.9076 1.16423 64.1331C1.39321 64.3586 2.81506 64.6601 5.00786 64.6601C7.19577 64.6601 8.61615 64.3599 8.84992 64.1347C8.73867 64.0382 8.28422 63.8359 7.06527 63.7065L7.08989 63.3566C9.15537 63.5758 9.15537 63.9807 9.15537 64.1331C9.15537 64.9867 5.43237 65.0113 5.00786 65.0113Z" fill="#2F2E41"/>
<path d="M5.00786 74.8473C4.58334 74.8473 0.860352 74.8227 0.860352 73.969C0.860352 73.1154 4.58334 73.0908 5.00786 73.0908V73.4421C2.81506 73.4421 1.39321 73.7436 1.16423 73.969C1.39321 74.1945 2.81506 74.496 5.00786 74.496C7.19577 74.496 8.61615 74.1958 8.84992 73.9706C8.73867 73.8741 8.28422 73.6719 7.06527 73.5425L7.08989 73.1925C9.15537 73.4118 9.15537 73.8166 9.15537 73.969C9.15537 74.8227 5.43237 74.8473 5.00786 74.8473Z" fill="#2F2E41"/>
<path d="M5.00786 84.6837C4.58334 84.6837 0.860352 84.6591 0.860352 83.8055C0.860352 82.9519 4.58334 82.9272 5.00786 82.9272V83.2785C2.81506 83.2785 1.39321 83.58 1.16423 83.8055C1.39321 84.031 2.81506 84.3324 5.00786 84.3324C7.19577 84.3324 8.61615 84.0322 8.84992 83.807C8.73867 83.7105 8.28422 83.5083 7.06527 83.3789L7.08989 83.029C9.15537 83.2482 9.15537 83.6531 9.15537 83.8055C9.15537 84.6591 5.43237 84.6837 5.00786 84.6837Z" fill="#2F2E41"/>
<path d="M5.00786 94.5196C4.58334 94.5196 0.860352 94.495 0.860352 93.6414C0.860352 92.7878 4.58334 92.7632 5.00786 92.7632V93.1145C2.81506 93.1145 1.39321 93.4159 1.16423 93.6414C1.39321 93.8669 2.81506 94.1683 5.00786 94.1683C7.19577 94.1683 8.61615 93.8682 8.84992 93.643C8.73867 93.5465 8.28422 93.3442 7.06527 93.2148L7.08989 92.8649C9.15537 93.0841 9.15537 93.489 9.15537 93.6414C9.15537 94.495 5.43237 94.5196 5.00786 94.5196Z" fill="#2F2E41"/>
<path d="M5.00786 104.356C4.58334 104.356 0.860352 104.331 0.860352 103.477C0.860352 102.624 4.58334 102.599 5.00786 102.599V102.95C2.81506 102.95 1.39321 103.252 1.16423 103.477C1.39321 103.703 2.81506 104.004 5.00786 104.004C7.19577 104.004 8.61615 103.704 8.84992 103.479C8.73867 103.382 8.28422 103.18 7.06527 103.051L7.08989 102.701C9.15537 102.92 9.15537 103.325 9.15537 103.477C9.15537 104.331 5.43237 104.356 5.00786 104.356Z" fill="#2F2E41"/>
<path d="M55.4218 41.5627H23.9579C23.7115 41.5623 23.4752 41.442 23.3009 41.2279C23.1266 41.0139 23.0286 40.7237 23.0283 40.421V25.3155C23.0286 25.0128 23.1266 24.7226 23.3009 24.5086C23.4752 24.2946 23.7115 24.1742 23.9579 24.1738H55.4218C55.6682 24.1742 55.9045 24.2946 56.0788 24.5086C56.2531 24.7226 56.3511 25.0128 56.3514 25.3155V40.421C56.3511 40.7237 56.2531 41.0139 56.0788 41.2279C55.9045 41.442 55.6682 41.5624 55.4218 41.5627Z" fill="white"/>
<path d="M43.6948 29.3553H35.6858C35.4961 29.3553 35.3143 29.2628 35.1801 29.0981C35.046 28.9334 34.9707 28.71 34.9707 28.4771C34.9707 28.2442 35.046 28.0208 35.1801 27.8561C35.3143 27.6914 35.4961 27.5989 35.6858 27.5989H43.6948C43.8844 27.5989 44.0663 27.6914 44.2004 27.8561C44.3345 28.0208 44.4099 28.2442 44.4099 28.4771C44.4099 28.71 44.3345 28.9334 44.2004 29.0981C44.0663 29.2628 43.8844 29.3553 43.6948 29.3553Z" fill="#C17B3A"/>
<path d="M48.1283 33.7467H31.2522C31.0625 33.7467 30.8807 33.6542 30.7466 33.4895C30.6124 33.3248 30.5371 33.1014 30.5371 32.8685C30.5371 32.6355 30.6124 32.4122 30.7466 32.2475C30.8807 32.0828 31.0625 31.9902 31.2522 31.9902H48.1283C48.3179 31.9902 48.4998 32.0828 48.6339 32.2475C48.768 32.4122 48.8434 32.6355 48.8434 32.8685C48.8434 33.1014 48.768 33.3248 48.6339 33.4895C48.4998 33.6542 48.3179 33.7467 48.1283 33.7467Z" fill="#C17B3A"/>
<path d="M48.1283 38.1375H31.2522C31.0625 38.1375 30.8807 38.045 30.7466 37.8803C30.6124 37.7156 30.5371 37.4922 30.5371 37.2593C30.5371 37.0264 30.6124 36.803 30.7466 36.6383C30.8807 36.4736 31.0625 36.3811 31.2522 36.3811H48.1283C48.3179 36.3811 48.4998 36.4736 48.6339 36.6383C48.768 36.803 48.8434 37.0264 48.8434 37.2593C48.8434 37.4922 48.768 37.7156 48.6339 37.8803C48.4998 38.045 48.3179 38.1375 48.1283 38.1375Z" fill="#C17B3A"/>
<path d="M129.859 31.4179C130.306 31.418 130.744 31.263 131.122 30.9709C131.5 30.6788 131.804 30.2614 131.997 29.7668C132.191 29.2722 132.267 28.7205 132.216 28.1752C132.166 27.6299 131.991 27.1133 131.712 26.6848C130.543 24.8917 127.986 25.1664 126.962 23.2441C126.095 21.6152 126.896 19.3783 128.051 18.0456C130.311 15.4367 133.93 14.7956 136.699 16.5135C139.468 18.2314 141.195 22.1895 140.827 25.9724C140.686 27.4132 140.361 29.1619 141.272 30.0868C142.08 30.9076 143.274 30.4417 144.289 30.1185C145.794 29.6525 147.364 29.5919 148.89 29.9408C150.417 30.2898 151.863 31.0401 153.131 32.1402C155.287 34.0381 156.859 37.1033 156.86 40.3612C156.861 43.6191 155.054 46.9022 152.469 47.6316C149.935 48.3467 147.322 46.6083 145.53 44.295C143.737 41.9817 142.506 39.1045 140.872 36.6201C139.238 34.1357 136.978 31.9474 134.378 31.8899C132.871 31.8565 131.222 32.5076 129.944 31.5286" fill="#2F2E41"/>
<path d="M130.976 32.7152C133.756 32.7152 136.009 29.9482 136.009 26.5351C136.009 23.1219 133.756 20.355 130.976 20.355C128.197 20.355 125.944 23.1219 125.944 26.5351C125.944 29.9482 128.197 32.7152 130.976 32.7152Z" fill="#FFB8B8"/>
<path d="M120.272 67.5326C120.183 67.1791 120.159 66.806 120.2 66.4396C120.242 66.0732 120.348 65.7224 120.512 65.4119C120.675 65.1014 120.892 64.8388 121.148 64.6425C121.403 64.4462 121.69 64.3211 121.989 64.2759L123.526 55.4846L126.192 58.8185L124.324 66.6558C124.352 67.2776 124.194 67.8906 123.879 68.3787C123.564 68.8669 123.114 69.1962 122.615 69.3043C122.116 69.4124 121.601 69.2917 121.169 68.9652C120.738 68.6386 120.418 68.1289 120.272 67.5326Z" fill="#FFB8B8"/>
<path d="M146.12 105.717L143.651 106.285L136.209 76.2647L141.492 75.425L146.12 105.717Z" fill="#FFB8B8"/>
<path d="M141.755 105.826L146.516 104.729L147.078 108.41L139.319 110.198C139.245 109.715 139.25 109.218 139.332 108.737C139.415 108.255 139.573 107.799 139.8 107.393C140.026 106.987 140.315 106.639 140.65 106.37C140.986 106.102 141.361 105.917 141.755 105.826Z" fill="#2F2E41"/>
<path d="M129.942 107.333L127.43 107.333L127.055 79.532L132.401 79.5322L129.942 107.333Z" fill="#FFB8B8"/>
<path d="M125.636 106.452H130.48V110.198H122.586C122.586 109.706 122.665 109.219 122.818 108.764C122.971 108.31 123.196 107.897 123.479 107.549C123.762 107.201 124.099 106.925 124.469 106.737C124.839 106.549 125.235 106.452 125.636 106.452Z" fill="#2F2E41"/>
<path d="M125.899 83.3158L126.13 69.729C126.112 69.5378 124.298 48.9533 123.621 43.6936C122.934 38.3489 126.485 35.6083 126.521 35.5813C126.68 35.5013 126.823 35.4336 126.967 35.3686C128.646 34.5881 130.471 34.407 132.231 34.8462C133.991 35.2854 135.613 36.3269 136.912 37.8505C138.256 39.3738 139.228 41.3272 139.718 43.4913C140.208 45.6554 140.197 47.9445 139.687 50.1015L138.434 55.4268C144.851 69.6737 146.167 75.8045 146.18 75.8647L146.184 75.8831L146.183 75.9023C145.953 81.5525 126.825 83.2374 126.011 83.3065L125.899 83.3158Z" fill="#C17B3A"/>
<path d="M124.407 41.1523L120.072 62.1665L127.829 63.2873L124.407 41.1523Z" fill="#C17B3A"/>
<path d="M134.885 58.5221C134.938 58.158 135.056 57.8126 135.229 57.5102C135.403 57.2078 135.628 56.9558 135.89 56.772C136.151 56.5882 136.442 56.477 136.742 56.4462C137.042 56.4154 137.344 56.4659 137.627 56.594L142.273 49.6453L143.399 54.1088L138.814 60.0231C138.607 60.5918 138.238 61.0476 137.775 61.3042C137.313 61.5608 136.791 61.6003 136.307 61.4153C135.822 61.2303 135.41 60.8336 135.148 60.3004C134.886 59.7671 134.793 59.1344 134.885 58.5221Z" fill="#FFB8B8"/>
<path d="M140.955 58.5392L136.91 55.3256L140.76 50.3197L130.322 46.4183L133.008 36.8103L136.311 37.3898L144.709 45.0293C145.776 46.008 146.489 47.4621 146.693 49.0791C146.897 50.6961 146.577 52.3469 145.801 53.6768L145.783 53.7007L140.955 58.5392Z" fill="#C17B3A"/>
<path d="M126.446 23.0225C128.612 24.6458 131.053 25.6337 133.58 25.9092L132.828 24.8027C133.375 25.0513 133.951 25.1918 134.535 25.2189C135.117 25.2078 135.728 24.9323 136.058 24.343C136.206 24.0501 136.294 23.7177 136.314 23.3743C136.334 23.0308 136.286 22.6864 136.175 22.3704C135.946 21.7402 135.589 21.1925 135.139 20.7794C134.341 20.0041 133.399 19.4833 132.397 19.2634C131.396 19.0436 130.365 19.1315 129.398 19.5193C128.734 19.7628 128.14 20.231 127.683 20.8701C127.25 21.5267 126.305 22.1172 126.526 22.9173L126.446 23.0225Z" fill="#2F2E41"/>
</svg>
