<svg width="251" height="251" viewBox="0 0 251 251" fill="none" xmlns="http://www.w3.org/2000/svg">
<path d="M247.359 214.579L235.039 224.708L244.83 210.036C237.116 197.543 224.5 186.746 224.5 186.746C224.5 186.746 198.326 209.141 198.326 226.746C198.326 244.351 210.045 250.497 224.5 250.497C238.955 250.497 250.674 244.351 250.674 226.746C250.674 222.828 249.375 218.672 247.359 214.579Z" fill="#F2F2F2"/>
<path d="M231.871 225.257V226.124C231.813 236.211 229.908 244.081 226.171 249.622C226.118 249.704 226.06 249.781 226.007 249.863L225.589 249.635L225.189 249.412C229.336 243.428 230.803 234.969 230.856 226.172C230.861 225.888 230.865 225.6 230.861 225.312C230.846 221.588 230.591 217.82 230.182 214.16C230.153 213.877 230.12 213.589 230.086 213.301C229.519 208.473 228.701 203.859 227.864 199.851C227.806 199.567 227.744 199.284 227.681 199.005C226.233 192.226 224.757 187.316 224.42 186.229C224.381 186.096 224.357 186.023 224.353 186.006L224.809 185.89L224.814 185.885L225.276 185.769C225.281 185.786 225.363 186.031 225.497 186.487C226.012 188.188 227.349 192.806 228.662 198.897C228.72 199.172 228.783 199.456 228.84 199.739C229.523 202.991 230.192 206.626 230.721 210.44C230.856 211.398 230.976 212.343 231.082 213.275C231.12 213.563 231.154 213.851 231.183 214.135C231.625 218.091 231.855 221.798 231.871 225.257Z" fill="white"/>
<path d="M228.663 198.897C228.34 198.936 228.013 198.975 227.681 199.005C226.78 199.087 225.875 199.129 224.968 199.129C221.107 199.134 217.294 198.365 213.809 196.878C213.607 197.106 213.405 197.334 213.198 197.565C216.864 199.163 220.89 199.992 224.968 199.988C225.936 199.988 226.902 199.942 227.864 199.851C228.191 199.821 228.518 199.782 228.841 199.739C231.501 199.398 234.088 198.699 236.513 197.664C236.306 197.428 236.104 197.196 235.906 196.968C233.611 197.926 231.17 198.576 228.663 198.897Z" fill="white"/>
<path d="M231.082 213.276C230.75 213.293 230.418 213.301 230.086 213.301C229.985 213.306 229.879 213.306 229.778 213.306C225.594 213.306 221.472 212.402 217.764 210.672C214.055 208.942 210.87 206.436 208.48 203.369C208.287 203.623 208.095 203.876 207.907 204.134C210.399 207.237 213.682 209.766 217.485 211.51C221.289 213.255 225.503 214.165 229.779 214.165C229.913 214.165 230.048 214.165 230.183 214.16C230.519 214.156 230.851 214.148 231.183 214.135C236.319 213.9 241.27 212.349 245.445 209.667C245.291 209.414 245.137 209.16 244.978 208.907C240.921 211.54 236.091 213.058 231.082 213.276Z" fill="white"/>
<path d="M231.871 225.257C231.534 225.282 231.197 225.299 230.861 225.312C230.5 225.325 230.139 225.334 229.778 225.334C224.156 225.328 218.687 223.696 214.19 220.682C209.693 217.668 206.411 213.434 204.834 208.615C204.617 208.962 204.401 209.306 204.194 209.654C205.971 214.463 209.399 218.649 213.992 221.618C218.585 224.587 224.109 226.188 229.778 226.193C230.139 226.193 230.5 226.189 230.856 226.172C231.197 226.163 231.534 226.146 231.871 226.124C238.672 225.649 245.016 222.884 249.62 218.388C249.519 218.07 249.403 217.756 249.288 217.438C244.842 221.968 238.594 224.772 231.871 225.257Z" fill="white"/>
<path d="M203.055 54.6027L69.0529 39.3448C68.6919 39.3035 68.3283 39.2824 67.9644 39.2817C67.6057 39.2812 67.2473 39.3014 66.8915 39.3423C66.5363 39.383 66.1845 39.4445 65.8383 39.5263C65.488 39.6099 65.1441 39.7135 64.8088 39.8366C64.4803 39.957 64.1603 40.0952 63.8505 40.2503C63.5366 40.4065 63.2332 40.5792 62.9421 40.7674C62.6442 40.9605 62.3589 41.1685 62.0874 41.3905C61.8072 41.6189 61.5409 41.8606 61.2896 42.1145C61.0317 42.3759 60.789 42.6489 60.5623 42.9325C60.3334 43.2197 60.1186 43.5184 59.9179 43.8287C59.7172 44.14 59.5309 44.4637 59.3592 44.7998C59.1874 45.1359 59.0307 45.4834 58.889 45.8423C58.7423 46.2133 58.6138 46.5925 58.5034 46.98C58.393 47.3674 58.3007 47.7617 58.2266 48.1626C58.154 48.5632 58.0985 48.9703 58.0599 49.384C58.0213 49.7977 58.002 50.2164 58.002 50.6401C58.0035 51.0634 58.0228 51.4854 58.0599 51.9059C58.0969 52.3265 58.1525 52.7437 58.2266 53.1574C58.3015 53.5728 58.3941 53.9841 58.5045 54.3912C58.6149 54.7983 58.7435 55.2008 58.8901 55.5986C59.0318 55.983 59.1885 56.3586 59.3603 56.7254C59.5321 57.0926 59.7183 57.4497 59.919 57.7969C60.1198 58.144 60.3346 58.4812 60.5635 58.8083C60.792 59.1369 61.0344 59.453 61.2907 59.7567C61.547 60.0604 61.813 60.3502 62.0886 60.626C62.3642 60.9001 62.6491 61.1586 62.9432 61.4016C63.2374 61.6447 63.5402 61.8717 63.8517 62.0827C64.1598 62.2915 64.4796 62.4862 64.8099 62.666C65.1426 62.8472 65.4863 63.0118 65.8394 63.1588C66.182 63.3014 66.5337 63.4259 66.8926 63.5316C67.2442 63.6353 67.6025 63.7197 67.9655 63.7845C68.325 63.8485 68.6885 63.8925 69.0541 63.9164L203.056 72.6705C203.446 72.6958 203.838 72.6608 204.214 72.567C204.406 72.5194 204.593 72.4579 204.773 72.383C204.961 72.3047 205.143 72.214 205.316 72.1114C205.491 72.0076 205.658 71.8936 205.817 71.7702C205.984 71.6407 206.141 71.5025 206.29 71.3565C206.446 71.2021 206.594 71.0406 206.731 70.8725C206.874 70.6994 207.011 70.515 207.142 70.3192C207.273 70.1234 207.397 69.9191 207.514 69.7064C207.631 69.4937 207.741 69.2727 207.842 69.0435C207.945 68.8145 208.039 68.5777 208.126 68.3329C208.213 68.0882 208.292 67.8362 208.364 67.5769C208.439 67.3087 208.504 67.0357 208.558 66.7578C208.613 66.48 208.659 66.198 208.698 65.9118C208.735 65.6257 208.763 65.3358 208.782 65.0421C208.8 64.7483 208.809 64.4513 208.809 64.1511C208.808 63.8512 208.799 63.5526 208.782 63.2554C208.764 62.9583 208.736 62.6634 208.698 62.3707C208.66 62.078 208.614 61.7877 208.558 61.4999C208.503 61.212 208.438 60.9273 208.364 60.6456C208.292 60.3733 208.213 60.1071 208.126 59.8472C208.04 59.5907 207.946 59.338 207.842 59.0891C207.739 58.8402 207.63 58.5989 207.514 58.3651C207.398 58.1318 207.274 57.9053 207.142 57.6857C207.01 57.4661 206.873 57.2571 206.731 57.0589C206.589 56.8607 206.442 56.6728 206.29 56.4953C206.137 56.3177 205.98 56.1516 205.817 55.9968C205.659 55.8451 205.491 55.7011 205.316 55.5655C205.144 55.4326 204.962 55.3095 204.773 55.1968C204.595 55.0904 204.408 54.9953 204.214 54.9124C204.029 54.8331 203.838 54.7667 203.641 54.7138C203.45 54.6625 203.254 54.6253 203.055 54.6027Z" fill="#3D3C50"/>
<path d="M203.055 89.0149L69.0529 86.1486C68.326 86.1325 67.5998 86.1987 66.8915 86.3456C66.5342 86.4199 66.1824 86.514 65.8382 86.6274C65.4863 86.7433 65.1425 86.878 64.8088 87.0308C64.4792 87.1816 64.1593 87.3487 63.8505 87.5313C63.5358 87.7175 63.2326 87.9186 62.9421 88.1338C62.6439 88.3547 62.3587 88.589 62.0874 88.836C61.8114 89.087 61.5455 89.3538 61.2896 89.6365C61.0336 89.9198 60.7912 90.2151 60.5623 90.5223C60.3334 90.8294 60.1186 91.148 59.9179 91.4779C59.7172 91.8078 59.5309 92.1488 59.3591 92.5007C59.1874 92.8527 59.0307 93.2147 58.889 93.5867C58.7423 93.9717 58.6138 94.363 58.5034 94.7605C58.393 95.158 58.3007 95.5606 58.2266 95.9685C58.154 96.3763 58.0984 96.7888 58.0598 97.2059C58.0212 97.6231 58.002 98.0435 58.002 98.4672C58.0035 98.8908 58.0228 99.3111 58.0598 99.7279C58.0969 100.145 58.1525 100.557 58.2266 100.964C58.3015 101.37 58.3941 101.771 58.5045 102.168C58.6149 102.564 58.7434 102.955 58.8901 103.339C59.0318 103.712 59.1885 104.074 59.3603 104.425C59.5321 104.776 59.7183 105.116 59.919 105.445C60.1198 105.774 60.3346 106.091 60.5635 106.397C60.792 106.702 61.0344 106.995 61.2907 107.276C61.547 107.557 61.813 107.823 62.0886 108.072C62.3598 108.317 62.6451 108.55 62.9432 108.77C63.2338 108.983 63.537 109.182 63.8517 109.367C64.1605 109.548 64.4804 109.713 64.8099 109.862C65.1438 110.013 65.4876 110.145 65.8394 110.259C66.1837 110.371 66.5355 110.463 66.8926 110.535C67.2462 110.607 67.6046 110.659 67.9655 110.69C68.3273 110.721 68.6908 110.732 69.0541 110.722L203.055 107.081C203.252 107.075 203.448 107.055 203.641 107.02C203.837 106.985 204.028 106.935 204.214 106.872C204.407 106.806 204.594 106.727 204.773 106.636C204.962 106.54 205.143 106.432 205.316 106.314C205.491 106.194 205.659 106.064 205.817 105.926C205.984 105.782 206.141 105.629 206.29 105.469C206.442 105.307 206.589 105.132 206.731 104.944C206.874 104.757 207.011 104.56 207.142 104.353C207.273 104.145 207.397 103.929 207.514 103.706C207.631 103.483 207.741 103.252 207.842 103.013C207.945 102.771 208.039 102.524 208.126 102.273C208.213 102.022 208.292 101.764 208.364 101.497C208.439 101.225 208.504 100.947 208.558 100.664C208.613 100.381 208.659 100.095 208.698 99.8054C208.735 99.5148 208.763 99.2218 208.782 98.9264C208.8 98.6309 208.809 98.3331 208.809 98.0328C208.808 97.7353 208.799 97.4381 208.782 97.1413C208.764 96.8445 208.736 96.5514 208.698 96.2622C208.66 95.9719 208.614 95.686 208.558 95.4043C208.503 95.1227 208.438 94.844 208.364 94.5682C208.292 94.302 208.212 94.0428 208.126 93.7904C208.039 93.5381 207.944 93.293 207.842 93.0551C207.741 92.8173 207.632 92.5868 207.515 92.3637C207.398 92.1407 207.274 91.9257 207.142 91.7189C207.011 91.5117 206.874 91.3152 206.732 91.1294C206.59 90.9436 206.443 90.7693 206.29 90.6066C206.142 90.4477 205.984 90.2959 205.818 90.1521C205.659 90.015 205.492 89.8866 205.316 89.7673C205.144 89.6501 204.963 89.5437 204.774 89.4488C204.594 89.3589 204.407 89.2815 204.214 89.2171C204.028 89.1547 203.836 89.1061 203.641 89.0718C203.448 89.0381 203.252 89.0191 203.055 89.0149Z" fill="#E4E4E4"/>
<path d="M203.055 121.276L69.0529 130.028C68.6874 130.052 68.3238 130.096 67.9644 130.16C67.6013 130.225 67.243 130.309 66.8915 130.413C66.5325 130.519 66.1809 130.643 65.8383 130.786C65.4851 130.933 65.1414 131.097 64.8088 131.279C64.4785 131.458 64.1586 131.653 63.8505 131.862C63.5386 132.075 63.2358 132.302 62.9421 132.543C62.6483 132.785 62.3634 133.044 62.0874 133.319C61.8114 133.593 61.5455 133.883 61.2896 134.188C61.0336 134.494 60.7912 134.81 60.5623 135.137C60.3334 135.464 60.1186 135.802 59.9179 136.149C59.7172 136.496 59.5309 136.853 59.3592 137.22C59.1874 137.587 59.0307 137.963 58.889 138.347C58.7423 138.744 58.6138 139.147 58.5034 139.554C58.393 139.962 58.3007 140.373 58.2266 140.787C58.154 141.201 58.0985 141.618 58.0599 142.039C58.0213 142.459 58.002 142.881 58.002 143.304C58.0035 143.728 58.0228 144.147 58.0599 144.561C58.0969 144.974 58.1525 145.382 58.2266 145.782C58.3015 146.184 58.3941 146.579 58.5045 146.966C58.6149 147.352 58.7435 147.732 58.8901 148.103C59.0318 148.462 59.1885 148.81 59.3603 149.146C59.5321 149.482 59.7183 149.806 59.919 150.117C60.1198 150.428 60.3346 150.727 60.5635 151.013C60.7901 151.297 61.0328 151.57 61.2907 151.831C61.542 152.085 61.8084 152.327 62.0886 152.555C62.36 152.777 62.6454 152.985 62.9432 153.178C63.2344 153.366 63.5377 153.539 63.8517 153.695C64.1614 153.85 64.4814 153.989 64.8099 154.109C65.1453 154.232 65.4891 154.336 65.8394 154.419C66.1856 154.501 66.5374 154.563 66.8926 154.603C67.2484 154.644 67.6068 154.664 67.9655 154.664C68.3295 154.663 68.6931 154.642 69.0541 154.601L203.055 139.347C203.254 139.324 203.45 139.287 203.641 139.235C203.838 139.182 204.029 139.116 204.214 139.037C204.408 138.954 204.595 138.859 204.773 138.752C204.962 138.64 205.144 138.517 205.316 138.384C205.491 138.248 205.659 138.104 205.817 137.952C205.978 137.797 206.135 137.631 206.29 137.454C206.442 137.277 206.589 137.089 206.731 136.89C206.874 136.692 207.011 136.483 207.142 136.264C207.273 136.046 207.397 135.819 207.514 135.584C207.631 135.349 207.741 135.108 207.842 134.86C207.945 134.612 208.039 134.357 208.126 134.097C208.213 133.837 208.292 133.571 208.364 133.299C208.439 133.017 208.504 132.732 208.558 132.444C208.613 132.156 208.659 131.866 208.698 131.573C208.735 131.281 208.763 130.986 208.782 130.689C208.8 130.391 208.809 130.093 208.809 129.792C208.808 129.494 208.798 129.198 208.781 128.904C208.764 128.61 208.736 128.32 208.697 128.034C208.66 127.747 208.614 127.465 208.558 127.187C208.503 126.909 208.438 126.636 208.364 126.368C208.292 126.108 208.213 125.856 208.126 125.612C208.04 125.367 207.946 125.13 207.843 124.901C207.74 124.672 207.631 124.451 207.515 124.238C207.397 124.027 207.272 123.823 207.141 123.627C207.009 123.43 206.872 123.246 206.73 123.074C206.593 122.905 206.445 122.744 206.288 122.59C206.14 122.443 205.982 122.305 205.816 122.176C205.657 122.052 205.49 121.938 205.315 121.835C205.142 121.732 204.96 121.641 204.772 121.563C204.592 121.488 204.405 121.427 204.213 121.379C203.837 121.285 203.445 121.25 203.055 121.276Z" fill="#E4E4E4"/>
<path d="M130.016 122.879C130.865 124.14 132.203 125.078 133.775 125.516C135.347 125.953 137.045 125.86 138.545 125.254C140.046 124.648 141.245 123.571 141.915 122.227C142.585 120.883 142.679 119.367 142.179 117.965L168.15 70.3135L155.719 63.583L133.29 114.199C133.204 114.228 133.12 114.26 133.037 114.292C132.953 114.325 132.871 114.359 132.788 114.394C132.706 114.43 132.624 114.467 132.542 114.506C132.461 114.546 132.381 114.587 132.3 114.63C130.773 115.454 129.674 116.785 129.246 118.332C128.817 119.879 129.094 121.514 130.016 122.879L130.016 122.879Z" fill="#9E616A"/>
<path d="M163.193 88.6881L144.743 84.4648C144.743 84.4648 145.345 83.2487 146.324 81.2339C147.303 79.2191 148.671 76.4096 150.21 73.2198C151.749 70.03 153.456 66.4658 155.123 62.9428C156.791 59.4197 158.413 55.9389 159.778 52.9218C161.144 49.9046 162.696 48.0977 164.256 47.085C165.546 46.2089 167.172 45.8229 168.779 46.0109C170.029 46.1771 171.223 46.5831 172.28 47.2009C172.78 47.479 173.251 47.7978 173.685 48.1534L177.963 55.1011L163.193 88.6881Z" fill="#CCCCCC"/>
<path d="M15.5379 84.9146C15.0911 84.944 14.6465 84.9958 14.2062 85.0697C13.7631 85.1438 13.3249 85.2398 12.8936 85.3572C12.4558 85.4767 12.0255 85.6172 11.6047 85.7781C11.1741 85.9428 10.7533 86.1275 10.3442 86.3315C9.94395 86.5324 9.55273 86.751 9.17058 86.9871C8.78843 87.2233 8.41728 87.477 8.05714 87.7483C7.69738 88.019 7.34824 88.3075 7.00971 88.614C6.67118 88.9204 6.34502 89.2436 6.0312 89.5835C5.71738 89.9235 5.41995 90.2756 5.13893 90.64C4.85791 91.0044 4.59427 91.3798 4.34801 91.7663C4.10405 92.1534 3.87591 92.551 3.66361 92.9592C3.45131 93.3674 3.25831 93.785 3.08461 94.2122C2.90357 94.6552 2.74512 95.1028 2.60924 95.5551C2.47336 96.0074 2.36007 96.4635 2.26936 96.9234C2.17826 97.3833 2.10994 97.8462 2.0644 98.3123C2.01885 98.7784 1.99608 99.2464 1.99609 99.7163C1.99609 100.186 2.01886 100.65 2.0644 101.108C2.10993 101.566 2.17825 102.016 2.26936 102.46C2.36007 102.904 2.47337 103.339 2.60924 103.767C2.74511 104.195 2.903 104.614 3.08288 105.024C3.25812 105.421 3.45112 105.804 3.66188 106.174C3.87021 106.54 4.099 106.897 4.34742 107.243C4.59195 107.583 4.85596 107.911 5.13836 108.226C5.41807 108.539 5.71609 108.839 6.03119 109.124C6.34107 109.404 6.66773 109.67 7.00971 109.918C7.3446 110.162 7.69447 110.389 8.05771 110.597C8.77456 111.009 9.54194 111.347 10.3448 111.603C11.1678 111.865 12.0231 112.039 12.8924 112.12C13.3285 112.16 13.7668 112.177 14.2051 112.171C14.6504 112.166 15.095 112.138 15.5368 112.087C15.9825 112.036 16.4248 111.964 16.8615 111.869C17.2996 111.775 17.7316 111.659 18.1556 111.522C18.5845 111.384 19.0048 111.226 19.415 111.048C19.8329 110.867 20.2403 110.667 20.6355 110.449C21.0204 110.235 21.3952 110.005 21.76 109.76C22.1247 109.514 22.4781 109.252 22.8201 108.975C23.1621 108.697 23.4924 108.404 23.8108 108.096C24.1293 107.787 24.4354 107.464 24.7291 107.125C25.0248 106.787 25.3031 106.439 25.5641 106.08C25.825 105.722 26.0693 105.354 26.2971 104.976C26.5248 104.599 26.7356 104.213 26.9294 103.818C27.1231 103.422 27.2997 103.019 27.4592 102.607C27.6244 102.181 27.7689 101.752 27.8928 101.318C28.0168 100.885 28.1202 100.449 28.2032 100.009C28.2858 99.5691 28.3479 99.127 28.3896 98.6826C28.4313 98.2382 28.4522 97.792 28.4522 97.3438C28.4518 96.8957 28.4309 96.453 28.3896 96.0159C28.3483 95.5787 28.2862 95.1478 28.2032 94.7231C28.1206 94.2991 28.0171 93.8812 27.8928 93.4696C27.7686 93.058 27.624 92.6541 27.4592 92.258C27.299 91.8747 27.1224 91.5029 26.9294 91.1426C26.7337 90.7834 26.522 90.4349 26.2942 90.097C25.8434 89.4293 25.3191 88.8035 24.7291 88.2287C24.4396 87.946 24.1339 87.6769 23.8131 87.4225C23.4973 87.1729 23.1666 86.9387 22.8225 86.7208C22.4816 86.5051 22.1277 86.3064 21.7623 86.1256C21.3971 85.945 21.021 85.7827 20.6355 85.6396C19.8397 85.3435 19.0075 85.1326 18.1562 85.0113C17.7278 84.9503 17.2957 84.9117 16.8621 84.8959C16.4205 84.88 15.9782 84.8865 15.5374 84.9156" fill="#E4E4E4"/>
<path d="M15.5379 133.523C15.0911 133.552 14.6465 133.604 14.2062 133.678C13.7631 133.752 13.3249 133.848 12.8936 133.966C12.4558 134.085 12.0255 134.226 11.6047 134.387C11.1741 134.551 10.7533 134.736 10.3442 134.94C9.94395 135.141 9.55273 135.359 9.17058 135.596C8.78843 135.832 8.41728 136.085 8.05714 136.357C7.69738 136.627 7.34824 136.916 7.00971 137.222C6.67118 137.529 6.34502 137.852 6.0312 138.192C5.71738 138.532 5.41995 138.884 5.13893 139.248C4.85791 139.613 4.59427 139.988 4.34801 140.375C4.10405 140.762 3.87591 141.159 3.66361 141.568C3.45131 141.976 3.25831 142.393 3.08461 142.821C2.90357 143.264 2.74512 143.711 2.60924 144.164C2.47336 144.616 2.36007 145.072 2.26936 145.532C2.17826 145.992 2.10994 146.455 2.0644 146.921C2.01885 147.387 1.99608 147.855 1.99609 148.325C1.99609 148.795 2.01886 149.258 2.0644 149.716C2.10993 150.174 2.17825 150.625 2.26936 151.068C2.36007 151.512 2.47337 151.948 2.60924 152.376C2.74511 152.804 2.903 153.223 3.08288 153.633C3.25812 154.029 3.45112 154.412 3.66188 154.782C3.87021 155.149 4.099 155.506 4.34742 155.852C4.59195 156.191 4.85596 156.519 5.13836 156.834C5.41807 157.147 5.71609 157.447 6.03119 157.732C6.34107 158.013 6.66773 158.278 7.00971 158.527C7.3446 158.77 7.69447 158.997 8.05771 159.206C8.77456 159.618 9.54194 159.955 10.3448 160.211C11.1678 160.474 12.0231 160.647 12.8924 160.728C13.3285 160.768 13.7668 160.786 14.2051 160.78C14.6504 160.774 15.095 160.746 15.5368 160.696C15.9825 160.645 16.4248 160.572 16.8615 160.478C17.2996 160.383 17.7316 160.267 18.1556 160.131C18.5845 159.993 19.0048 159.834 19.415 159.657C19.8329 159.476 20.2403 159.276 20.6355 159.058C21.0204 158.843 21.3952 158.613 21.76 158.368C22.1247 158.123 22.4781 157.861 22.8201 157.583C23.1621 157.305 23.4924 157.012 23.8108 156.704C24.1293 156.396 24.4354 156.072 24.7291 155.734C25.0248 155.396 25.3031 155.047 25.5641 154.689C25.825 154.33 26.0693 153.962 26.2971 153.585C26.5248 153.207 26.7356 152.821 26.9294 152.426C27.1231 152.031 27.2997 151.627 27.4592 151.216C27.6244 150.79 27.7689 150.36 27.8928 149.927C28.0168 149.493 28.1202 149.057 28.2032 148.617C28.2858 148.177 28.3479 147.735 28.3896 147.291C28.4313 146.847 28.4522 146.4 28.4522 145.952C28.4518 145.504 28.4309 145.061 28.3896 144.624C28.3483 144.187 28.2862 143.756 28.2032 143.331C28.1206 142.907 28.0171 142.49 27.8928 142.078C27.7686 141.666 27.624 141.263 27.4592 140.866C27.299 140.483 27.1224 140.111 26.9294 139.751C26.7337 139.392 26.522 139.043 26.2942 138.705C25.8434 138.038 25.3191 137.412 24.7291 136.837C24.4396 136.554 24.1339 136.285 23.8131 136.031C23.4973 135.781 23.1666 135.547 22.8225 135.329C22.4816 135.114 22.1277 134.915 21.7623 134.734C21.3971 134.553 21.021 134.391 20.6355 134.248C19.8397 133.952 19.0075 133.741 18.1562 133.62C17.7278 133.559 17.2957 133.52 16.8621 133.504C16.4205 133.488 15.9782 133.495 15.5374 133.524" fill="#E4E4E4"/>
<path d="M15.5402 32.2565C15.0958 32.2468 14.6512 32.2598 14.2085 32.2953C13.7675 32.3306 13.3293 32.3886 12.8958 32.469C12.4599 32.5504 12.0296 32.6539 11.607 32.7793C11.1778 32.9061 10.757 33.0544 10.3465 33.2235C9.94463 33.3888 9.55287 33.5729 9.17281 33.7752C8.78901 33.9795 8.41736 34.2014 8.05938 34.4402C7.69561 34.6828 7.34584 34.9417 7.01138 35.2159C6.6713 35.4948 6.34456 35.7904 6.03112 36.1027C5.7173 36.4154 5.41987 36.7419 5.13885 37.0821C4.85783 37.4224 4.59419 37.775 4.34793 38.1401C4.10281 38.51 3.87409 38.8891 3.6618 39.2772C3.4495 39.6654 3.2565 40.0663 3.08279 40.48C2.90292 40.9065 2.74503 41.34 2.60916 41.7806C2.47328 42.2211 2.35998 42.6674 2.26928 43.1194C2.17818 43.5727 2.10986 44.0298 2.06431 44.4907C2.01876 44.9516 1.996 45.417 1.99601 45.8869C1.99601 46.3561 2.01878 46.8215 2.06431 47.2831C2.10985 47.7447 2.17817 48.2013 2.26928 48.6529C2.35999 49.1045 2.47328 49.5501 2.60916 49.9897C2.74503 50.4292 2.90291 50.8619 3.08279 51.2876C3.25804 51.6989 3.45103 52.0988 3.6618 52.4873C3.8741 52.8744 4.10338 53.25 4.34963 53.6141C4.59588 53.9781 4.85954 54.3293 5.14057 54.6674C5.4212 55.0067 5.71861 55.3314 6.03282 55.6417C6.34704 55.9519 6.67321 56.245 7.01135 56.5208C7.34405 56.7939 7.6921 57.0517 8.05413 57.2933C8.41217 57.5299 8.78383 57.7497 9.16757 57.9516C9.5477 58.1517 9.93947 58.3336 10.3412 58.4966C10.7519 58.6633 11.1727 58.8092 11.6017 58.9336C12.446 59.1776 13.3189 59.3337 14.2032 59.399C15.0887 59.4646 15.9797 59.4404 16.8591 59.3271C17.2951 59.2708 17.7272 59.1924 18.1532 59.0923C18.5803 58.9918 19.0008 58.8699 19.4126 58.7273C19.8292 58.583 20.2366 58.4185 20.6331 58.2344C21.0197 58.0551 21.3958 57.8582 21.7599 57.6444C22.126 57.4293 22.4799 57.1978 22.82 56.951C23.162 56.7028 23.4923 56.4384 23.8107 56.1577C24.1292 55.8771 24.4353 55.5803 24.729 55.2673C25.0247 54.9543 25.303 54.6299 25.564 54.2941C25.8249 53.9583 26.0692 53.6115 26.297 53.2536C26.5255 52.8958 26.7363 52.5278 26.9293 52.1496C27.1223 51.7714 27.2989 51.3841 27.4591 50.9877C27.6243 50.5761 27.7688 50.1589 27.8927 49.7363C28.0167 49.3136 28.1201 48.8861 28.2031 48.4538C28.2857 48.0198 28.3478 47.5824 28.3895 47.1414C28.4312 46.7005 28.4521 46.256 28.4521 45.8078C28.4517 45.36 28.4308 44.9156 28.3895 44.4747C28.3482 44.0338 28.2861 43.5975 28.2031 43.1659C28.1205 42.7339 28.017 42.3068 27.8927 41.8845C27.7685 41.4622 27.6239 41.0457 27.4591 40.6352C27.2989 40.2384 27.1223 39.8514 26.9293 39.4742C26.7363 39.0971 26.5245 38.7298 26.2941 38.3723C26.0664 38.0179 25.822 37.6732 25.561 37.3381C25.3001 37.003 25.0228 36.6803 24.729 36.37C24.4372 36.0601 24.1319 35.7655 23.813 35.4863C23.4942 35.2071 23.1639 34.9445 22.8223 34.6987C22.4824 34.4533 22.1287 34.2235 21.7628 34.0099C21.3987 33.7982 21.0226 33.6033 20.636 33.4261C20.2394 33.2443 19.832 33.082 19.4155 32.9401C19.0035 32.7997 18.5831 32.6803 18.1561 32.5822C17.7299 32.4845 17.2979 32.4085 16.862 32.3547C16.4228 32.3006 15.9805 32.2689 15.5372 32.2595M15.5372 30.9657C17.4823 31.0133 19.3899 31.4543 21.1166 32.2554C22.8324 33.0567 24.3533 34.154 25.5912 35.4837C26.8851 36.8695 27.8928 38.4497 28.5673 40.1506C30.0117 43.8116 30.0117 47.8035 28.5673 51.4645C27.8921 53.1703 26.8846 54.756 25.5912 56.1485C24.3531 57.4845 22.8324 58.5896 21.116 59.4005C19.3916 60.2113 17.4843 60.6633 15.5367 60.7228C13.5771 60.7802 11.629 60.4334 9.84386 59.7093C8.04168 58.972 6.42943 57.9103 5.10814 56.5906C3.70506 55.1931 2.60692 53.5736 1.87033 51.8156C0.274995 47.9885 0.274995 43.7765 1.87033 39.9495C2.60765 38.1862 3.70557 36.5607 5.10814 35.1559C6.42902 33.8288 8.04086 32.758 9.84386 32.0098C11.6276 31.2755 13.5767 30.9175 15.5402 30.9637L15.5372 30.9657Z" fill="#3D3C50"/>
<path d="M15.5389 49.5014L10.978 41.0156L12.0608 40.3857L15.8174 47.3569L31.5907 30.7991L32.5455 31.7076L15.5389 49.5014Z" fill="#3D3C50"/>
<path d="M181.527 217.033L170.236 216.994L173.877 243.342L181.527 243.376V217.033Z" fill="#9E616A"/>
<path d="M183.478 250.006L158.825 249.89V249.612C158.824 249.046 158.886 248.483 159.009 247.928C159.251 246.835 159.734 245.795 160.43 244.87C161.137 243.932 162.043 243.127 163.097 242.5C164.136 241.883 165.303 241.456 166.528 241.244C167.15 241.137 167.781 241.086 168.414 241.089L183.478 241.155V250.006Z" fill="#2F2E41"/>
<path d="M145.375 216.908L134.117 216.869L137.746 243.181L145.375 243.215V216.908Z" fill="#9E616A"/>
<path d="M147.321 249.835L122.733 249.719V249.441C122.733 248.877 122.794 248.314 122.917 247.761C123.159 246.669 123.64 245.63 124.334 244.706C125.039 243.769 125.943 242.965 126.994 242.339C128.031 241.723 129.195 241.297 130.418 241.086C131.037 240.979 131.667 240.927 132.299 240.931L147.321 240.996V249.835Z" fill="#2F2E41"/>
<path d="M144.897 109.216L125.965 172.314L132.894 232.799L148.238 233.177L144.897 178.563L164.039 151.308L168.19 233.549L182.108 232.67L189.851 161.959C192.481 156.438 194.409 150.671 195.601 144.766C196.537 140.131 196.992 135.428 196.961 130.719C196.945 127.548 196.672 124.382 196.144 121.247C195.956 120.078 195.7 118.919 195.379 117.774L189.735 112.663L144.897 109.216Z" fill="#B8CCFF"/>
<path d="M169.98 119.769C166.797 119.769 163.809 119.678 161.1 119.498C158.333 119.328 155.581 119.004 152.859 118.529C150.541 118.142 148.284 117.507 146.137 116.639C144.408 115.972 142.905 114.912 141.777 113.565L141.647 113.398L146.822 83.3214L152.402 49.5039C152.77 47.2661 154.045 45.2269 155.987 43.7747C157.929 42.3225 160.4 41.5586 162.932 41.6284L180.408 42.1067C181.719 42.1426 183.008 42.4131 184.199 42.9022C185.39 43.3913 186.46 44.089 187.343 44.954C188.227 45.8191 188.907 46.8337 189.344 47.9379C189.78 49.0421 189.964 50.2133 189.885 51.3821L187.59 85.0139L196.053 118.188L195.454 118.263C195.212 118.291 194.284 118.401 192.829 118.547C190.927 118.738 188.986 118.91 187.058 119.058C184.331 119.268 181.662 119.433 179.126 119.549C175.91 119.696 172.827 119.766 169.98 119.769Z" fill="#CDAA8B"/>
<path d="M160.282 35.6522C160.278 35.6522 160.273 35.6522 160.268 35.6522C159.902 35.652 159.539 35.5873 159.2 35.4618C158.861 35.3363 158.554 35.1525 158.295 34.9208C158.035 34.6891 157.83 34.4141 157.69 34.1115C157.55 33.8089 157.478 33.4846 157.478 33.1572V19.2418C157.475 16.7487 158.034 14.2806 159.121 11.9841C161.249 7.50278 165.231 3.9277 170.238 2.00394C173.404 0.790965 176.858 0.298283 180.29 0.570006C183.722 0.84173 187.025 1.86937 189.903 3.56093C192.782 5.25248 195.145 7.55512 196.782 10.2627C198.42 12.9702 199.279 15.9981 199.285 19.0753V33.0119C199.285 33.3473 199.21 33.6793 199.064 33.9882C198.777 34.5907 198.24 35.0709 197.566 35.3285C197.22 35.4603 196.849 35.5288 196.473 35.5297L160.28 35.6522H160.282Z" fill="#2F2E41"/>
<path d="M187.82 14.4694C189.278 16.8474 189.914 19.558 189.648 22.2588C189.382 24.9595 188.226 27.5293 186.326 29.6435C184.425 31.7578 181.866 33.3216 178.971 34.1376C176.076 34.9536 172.975 34.9851 170.06 34.2281C168.13 33.7328 166.329 32.9002 164.762 31.7788C163.194 30.6573 161.892 29.2693 160.929 27.695C159.475 25.3179 158.841 22.6095 159.108 19.9113C159.375 17.213 160.53 14.6456 162.428 12.5329C164.326 10.4202 166.882 8.85674 169.774 8.03962C172.666 7.22249 175.764 7.18832 178.677 7.9414C180.609 8.43495 182.412 9.26617 183.982 10.3869C185.551 11.5076 186.856 12.8954 187.82 14.4699V14.4694Z" fill="#9E616A"/>
<path d="M152.537 20.3742C152.535 18.4025 152.976 16.4505 153.836 14.6343C155.519 11.0907 158.668 8.26386 162.627 6.74324C164.658 5.96591 166.844 5.56144 169.054 5.55388L172.173 5.53992C172.208 5.53974 172.243 5.53966 172.278 5.53968C174.437 5.54086 176.575 5.9219 178.57 6.66103C180.564 7.40016 182.376 8.48292 183.902 9.84747C185.428 11.212 186.638 12.8316 187.463 14.6139C188.289 16.3961 188.713 18.306 188.711 20.2346V20.5133L182.114 20.5371L179.865 14.9244L179.415 20.548L176.007 20.5614L174.873 17.7297L174.646 20.565L152.54 20.6535L152.537 20.3742Z" fill="#2F2E41"/>
<path d="M125.977 49.6479C124.962 49.8697 124.013 50.2852 123.195 50.8658C122.555 51.3177 122.009 51.8652 121.579 52.484C120.731 53.7087 120.358 55.1482 120.516 56.581C120.596 57.3048 120.816 58.0107 121.166 58.6674C121.597 59.4858 122.218 60.2132 122.988 60.8014C123.757 61.3897 124.658 61.8255 125.629 62.0801C126.601 62.3347 127.623 62.4023 128.626 62.2783C129.629 62.1544 130.592 61.8418 131.45 61.3612C131.513 61.3248 131.576 61.2878 131.638 61.2502C131.7 61.2127 131.761 61.1744 131.821 61.1353C131.881 61.0961 131.94 61.0563 131.998 61.016C132.056 60.9756 132.114 60.9346 132.171 60.8931L168.575 72.4643C169.695 72.8201 170.914 72.8413 172.049 72.5248C173.184 72.2083 174.173 71.5711 174.867 70.7092L183.497 60.0371L173.063 53.7618L167.587 59.3172L134.272 53.3984C134.235 53.3213 134.198 53.2446 134.159 53.1683C134.12 53.092 134.079 53.016 134.037 52.9403C133.994 52.8649 133.95 52.7898 133.904 52.7152C133.858 52.6405 133.81 52.5664 133.759 52.4929C132.964 51.346 131.783 50.453 130.385 49.942C128.988 49.4309 127.445 49.328 125.977 49.6479Z" fill="#9E616A"/>
<path d="M168.175 55.8136C169.264 54.5998 170.786 53.0239 172.333 51.4609C173.88 49.8979 175.45 48.3487 176.634 47.1898C177.818 46.0309 178.615 45.2628 178.615 45.2628C179.708 43.7868 181.339 42.6942 183.232 42.1707C185.125 41.6471 187.162 41.7248 188.998 42.3906C190.834 43.0564 192.355 44.2692 193.303 45.823C194.251 47.3769 194.568 49.1759 194.199 50.9146C193.988 51.9155 193.553 52.8681 192.92 53.7149C192.92 53.7149 191.732 55.1028 189.939 57.1746C188.146 59.2463 185.748 62.0042 183.328 64.7459C180.909 67.4877 178.466 70.2153 176.582 72.2287C174.699 74.2421 173.373 75.5428 173.186 75.4314L166.616 57.9881C166.429 57.8767 167.086 57.0274 168.175 55.8136Z" fill="#CCCCCC"/>
<path d="M172.075 35.2138C171.971 35.6637 172.011 36.1304 172.19 36.5609C172.28 36.7812 172.404 36.9892 172.559 37.1788C172.691 37.3404 172.844 37.4874 173.015 37.6168C173.521 37.9989 174.163 38.2073 174.826 38.2048C174.867 38.2044 174.909 38.2034 174.95 38.2017C174.991 38.2 175.033 38.1974 175.074 38.1939C175.116 38.1908 175.157 38.1867 175.198 38.1815C175.24 38.1763 175.281 38.1705 175.323 38.1639L177.664 37.7839L180.889 31.6303V37.2667L191.535 35.5551V11.6362L173.688 11.7128L174.13 12.1704C175.594 13.706 176.556 15.5726 176.909 17.5649C177.255 19.5828 177.211 21.6387 176.78 23.6435C176.361 25.6721 175.725 27.66 174.88 29.5799C174.141 31.2808 173.294 32.9422 172.342 34.556C172.219 34.7631 172.129 34.9845 172.075 35.2138Z" fill="#2F2E41"/>
</svg>
