<svg width="251" height="251" viewBox="0 0 251 251" fill="none" xmlns="http://www.w3.org/2000/svg">
<path d="M245.994 250.497H246.756C246.842 250.378 246.924 250.257 247.005 250.136C248.742 247.543 249.918 244.454 250.425 241.154C251.042 237.037 250.562 232.785 249.058 229.028C248.638 227.975 248.144 226.969 247.581 226.023C247.38 226.075 247.183 226.135 246.989 226.207C248.471 228.62 249.468 231.43 249.898 234.407C250.282 237.196 250.155 240.056 249.525 242.777C248.895 245.498 247.779 248.012 246.258 250.136C246.172 250.257 246.084 250.378 245.994 250.497Z" fill="white"/>
<path d="M87.3953 146.119H33.8755L33.3081 125.897C33.2835 125.02 33.4139 124.147 33.6901 123.339C33.9663 122.53 34.3818 121.804 34.9081 121.212C35.4344 120.619 36.0589 120.174 36.7386 119.906C37.4183 119.639 38.1372 119.555 38.8457 119.662L69.9906 124.349H69.9944C74.6117 124.364 79.0359 126.628 82.2975 130.644C85.5591 134.661 87.3923 140.102 87.3953 145.776V146.119Z" fill="#3D3C50"/>
<path d="M63.5416 74.3875H26.2141C25.7176 74.3873 25.2261 74.5073 24.7674 74.7407C24.3087 74.9741 23.892 75.3163 23.5409 75.7477C23.1899 76.1791 22.9115 76.6912 22.7215 77.2549C22.5316 77.8185 22.4339 78.4227 22.4341 79.0327V124.905C22.4339 125.515 22.5316 126.119 22.7215 126.683C22.9115 127.246 23.1899 127.759 23.5409 128.19C23.892 128.621 24.3087 128.964 24.7674 129.197C25.2261 129.43 25.7176 129.55 26.2141 129.55H63.5416C64.038 129.55 64.5296 129.43 64.9883 129.197C65.447 128.964 65.8637 128.621 66.2148 128.19C66.5658 127.759 66.8442 127.247 67.0341 126.683C67.224 126.119 67.3217 125.515 67.3216 124.905V79.0327C67.3217 78.4227 67.224 77.8185 67.0341 77.2549C66.8442 76.6912 66.5658 76.179 66.2148 75.7476C65.8637 75.3163 65.447 74.9741 64.9883 74.7407C64.5296 74.5073 64.038 74.3873 63.5416 74.3875Z" fill="#CCCCCC"/>
<path d="M55.1349 108.689L37.511 112.907C36.4656 113.155 35.3826 112.884 34.4996 112.153C33.6167 111.422 33.0058 110.29 32.8011 109.005L31.4463 100.456C31.244 99.1714 31.4646 97.8405 32.0597 96.7554C32.6548 95.6703 33.5759 94.9197 34.6209 94.6681L52.2448 90.4504C53.2902 90.2017 54.3732 90.4728 55.2562 91.2042C56.1391 91.9356 56.75 93.0675 56.9547 94.3516L58.3094 102.901C58.5118 104.186 58.2912 105.517 57.6961 106.602C57.101 107.687 56.1799 108.437 55.1349 108.689Z" fill="#3F3D56"/>
<path d="M51.6087 98.5886L38.1589 101.807C37.9128 101.866 37.6579 101.803 37.4501 101.63C37.2422 101.458 37.0985 101.192 37.0506 100.889C37.0027 100.587 37.0545 100.274 37.1946 100.018C37.3347 99.7629 37.5516 99.5864 37.7976 99.5275L51.2474 96.3088C51.4934 96.2499 51.7484 96.3135 51.9562 96.4857C52.1641 96.6578 52.3077 96.9244 52.3556 97.2267C52.4035 97.529 52.3518 97.8424 52.2117 98.0978C52.0716 98.3532 51.8547 98.5297 51.6087 98.5886Z" fill="white"/>
<path d="M48.9946 103.355L42.0378 105.02C41.7917 105.079 41.5368 105.016 41.3289 104.843C41.1211 104.671 40.9774 104.405 40.9295 104.102C40.8816 103.8 40.9334 103.487 41.0735 103.231C41.2136 102.976 41.4305 102.799 41.6765 102.74L48.6333 101.076C48.7551 101.046 48.8804 101.047 49.002 101.077C49.1236 101.108 49.2392 101.167 49.3421 101.253C49.445 101.338 49.5333 101.447 49.6018 101.574C49.6703 101.701 49.7178 101.844 49.7415 101.994C49.7653 102.143 49.7647 102.297 49.74 102.447C49.7153 102.596 49.6669 102.738 49.5976 102.865C49.5282 102.991 49.4392 103.099 49.3358 103.184C49.2323 103.268 49.1164 103.326 48.9946 103.355Z" fill="white"/>
<path d="M67.3216 79.0328V85.1297H22.4341V79.0328C22.4339 78.4227 22.5316 77.8185 22.7215 77.2549C22.9115 76.6912 23.1899 76.1791 23.5409 75.7477C23.892 75.3163 24.3087 74.9741 24.7674 74.7407C25.2261 74.5073 25.7176 74.3873 26.2141 74.3875H63.5416C64.038 74.3873 64.5296 74.5073 64.9883 74.7407C65.447 74.9741 65.8637 75.3163 66.2147 75.7477C66.5658 76.1791 66.8442 76.6912 67.0341 77.2549C67.224 77.8185 67.3217 78.4227 67.3216 79.0328Z" fill="#B3B3B3"/>
<path d="M156.957 87.0388C156.698 86.0108 156.259 85.0651 155.67 84.2684C155.081 83.4717 154.358 82.8432 153.55 82.4274C152.742 82.0116 151.87 81.8185 150.995 81.8616C150.12 81.9048 149.263 82.1832 148.485 82.6773L97.1315 60.0347L94.8696 75.8004L146.06 93.0999C146.822 94.6511 148.021 95.8048 149.429 96.3425C150.837 96.8803 152.356 96.7646 153.699 96.0175C155.043 95.2704 156.116 93.9437 156.717 92.2889C157.317 90.6341 157.403 88.766 156.957 87.0388Z" fill="#FFB8B8"/>
<path opacity="0.2" d="M156.957 87.0388C156.698 86.0108 156.259 85.0651 155.67 84.2684C155.081 83.4717 154.358 82.8432 153.55 82.4274C152.742 82.0116 151.87 81.8185 150.995 81.8616C150.12 81.9048 149.263 82.1832 148.485 82.6773L97.1315 60.0347L94.8696 75.8004L146.06 93.0999C146.822 94.6511 148.021 95.8048 149.429 96.3425C150.837 96.8803 152.356 96.7646 153.699 96.0175C155.043 95.2704 156.116 93.9437 156.717 92.2889C157.317 90.6341 157.403 88.766 156.957 87.0388Z" fill="black"/>
<path d="M106.247 62.9075L101.397 78.4766C101.259 78.9196 101.045 79.3208 100.77 79.653C100.494 79.9851 100.164 80.2404 99.8005 80.4014C99.4375 80.5624 99.0504 80.6254 98.6658 80.586C98.2812 80.5466 97.9079 80.4058 97.5716 80.1732L85.7858 72.0212C83.9457 71.1407 82.4649 69.3994 81.6678 67.1791C80.8708 64.9589 80.8227 62.4409 81.534 60.1771C82.2453 57.9133 83.658 56.0885 85.4624 55.1027C87.2668 54.1169 89.3156 54.0506 91.1598 54.9183L104.321 58.5054C104.697 58.6082 105.052 58.8096 105.359 59.0959C105.667 59.3822 105.921 59.7467 106.104 60.1645C106.287 60.5822 106.394 61.0435 106.419 61.5168C106.443 61.9902 106.385 62.4645 106.247 62.9075Z" fill="#CDAA8B"/>
<path d="M161 101.455L142.599 111.734L145.015 122.911C149.68 144.495 150.918 166.981 148.661 189.14L162.115 192.593L173.267 157.646L169.364 117.901L161 101.455Z" fill="#3D3C50"/>
<path d="M197.104 153.191C185.014 153.191 175.162 163.992 174.684 177.518H219.525C219.047 163.992 209.195 153.191 197.104 153.191Z" fill="#3F3D56"/>
<path d="M187.693 155.522C187.064 94.4672 158.769 100.084 158.769 100.084C158.769 100.084 159.299 119.088 159.553 119.679C177.583 161.603 147.826 210.752 109.948 201.71C109.234 201.54 108.548 201.367 107.89 201.191C103.09 199.96 98.8527 196.528 96.0391 191.594C93.2254 186.659 92.0468 180.593 92.7432 174.629C96.4745 137.807 77.916 138.458 77.916 138.458H50.7792L36.6866 122.872C36.1891 122.321 35.5896 121.929 34.9403 121.73C34.2911 121.53 33.612 121.529 32.9623 121.727C32.3127 121.924 31.7123 122.314 31.2136 122.863C30.715 123.411 30.3333 124.101 30.1019 124.873L28.2889 130.921C28.2889 130.921 1.52368 134.347 3.75411 166.554H12.0289C12.009 167.469 12.0388 168.384 12.1182 169.295L73.8739 168.678C77.4938 168.641 80.6892 172.246 80.7041 176.695C80.7078 177.778 80.5337 178.851 80.1922 179.849C79.8507 180.848 79.3489 181.751 78.7167 182.506C78.0845 183.261 77.3349 183.851 76.5128 184.241C75.6908 184.632 74.813 184.814 73.9322 184.778L63.9759 184.37C60.909 201.159 68.4367 212.466 76.7312 219.575C84.5405 226.172 93.8071 229.669 103.283 229.597H130.331C165.461 229.597 171.594 193.278 171.594 193.278C189.995 183.685 187.693 155.522 187.693 155.522Z" fill="#3F3D56"/>
<path d="M195.431 249.469C212.754 249.469 226.797 232.212 226.797 210.924C226.797 189.636 212.754 172.378 195.431 172.378C178.109 172.378 164.066 189.636 164.066 210.924C164.066 232.212 178.109 249.469 195.431 249.469Z" fill="#3F3D56"/>
<path d="M195.432 220.371C199.678 220.371 203.12 216.142 203.12 210.924C203.12 205.706 199.678 201.477 195.432 201.477C191.186 201.477 187.745 205.706 187.745 210.924C187.745 216.142 191.186 220.371 195.432 220.371Z" fill="white"/>
<path d="M37.071 249.469C57.0113 249.469 73.1761 229.604 73.1761 205.099C73.1761 180.594 57.0113 160.729 37.071 160.729C17.1307 160.729 0.96582 180.594 0.96582 205.099C0.96582 229.604 17.1307 249.469 37.071 249.469Z" fill="#3F3D56"/>
<path d="M37.071 215.974C41.9583 215.974 45.9203 211.106 45.9203 205.099C45.9203 199.093 41.9583 194.224 37.071 194.224C32.1836 194.224 28.2217 199.093 28.2217 205.099C28.2217 211.106 32.1836 215.974 37.071 215.974Z" fill="white"/>
<path d="M142.651 114.771L136.03 92.6716C135.685 91.5199 135.528 90.2959 135.568 89.0695C135.608 87.8432 135.844 86.6385 136.263 85.5243C136.681 84.41 137.275 83.4081 138.009 82.5756C138.742 81.7431 139.602 81.0964 140.54 80.6724L159.521 72.0853C161.17 71.339 162.922 70.9993 164.678 71.0853C166.434 71.1714 168.159 71.6817 169.754 72.587C171.35 73.4922 172.784 74.7749 173.976 76.3615C175.168 77.9482 176.094 79.8079 176.702 81.8344C177.249 83.6533 177.529 85.5775 177.528 87.5169C177.52 89.9794 177.067 92.409 176.2 94.6291C175.333 96.8493 174.075 98.8041 172.516 100.352C171.39 101.462 170.124 102.339 168.769 102.948L142.651 114.771Z" fill="#3F3D56"/>
<path d="M177.249 87.5168C177.247 89.9291 176.806 92.3103 175.956 94.4853C175.107 96.6602 173.872 98.5734 172.342 100.084C169.994 99.3232 167.809 97.943 165.939 96.0394C164.069 94.1358 162.559 91.7547 161.514 89.0614C160.468 86.3682 159.913 83.4274 159.886 80.4436C159.859 77.4599 160.361 74.5046 161.357 71.7834C163.269 71.2723 165.251 71.294 167.156 71.8471C169.061 72.4002 170.84 73.4705 172.365 74.9795C173.889 76.4885 175.119 78.3978 175.964 80.5673C176.809 82.7369 177.248 85.1115 177.249 87.5168Z" fill="#3D3C50"/>
<path d="M8.49353 171.008C12.805 171.008 16.3001 165.792 16.3001 159.359C16.3001 152.925 12.805 147.709 8.49353 147.709C4.18211 147.709 0.687012 152.925 0.687012 159.359C0.687012 165.792 4.18211 171.008 8.49353 171.008Z" fill="#3D3C50"/>
<path d="M111.685 200.594H118.521L121.774 178.805L111.684 178.806L111.685 200.594Z" fill="#FFB8B8"/>
<path d="M109.942 197.852L123.405 197.851H123.405C124.532 197.851 125.648 198.124 126.689 198.653C127.729 199.183 128.675 199.96 129.472 200.939C130.269 201.918 130.901 203.08 131.332 204.359C131.763 205.639 131.985 207.01 131.985 208.394V208.737L109.942 208.738L109.942 197.852Z" fill="#2F2E41"/>
<path d="M119.62 191.652C119.541 191.652 119.461 191.647 119.38 191.638L109.92 190.791C109.537 190.748 109.168 190.596 108.84 190.35C108.513 190.103 108.235 189.767 108.03 189.368C107.825 188.969 107.697 188.517 107.656 188.047C107.616 187.578 107.663 187.103 107.796 186.66L120.457 151.702C120.547 151.39 120.584 151.059 120.566 150.729C120.547 150.399 120.472 150.077 120.347 149.784C120.223 149.487 120.049 149.226 119.836 149.019C119.624 148.811 119.378 148.661 119.115 148.578C113.161 146.665 97.8852 141.573 84.6619 135.614C78.9966 133.061 75.4285 129.372 74.0568 124.649C72.2484 118.422 74.9237 112.743 75.0385 112.505L75.1283 112.318L87.5711 113.708L101.06 115.118L130.621 134.598C133.098 136.245 134.98 138.977 135.891 142.251C136.802 145.526 136.676 149.102 135.538 152.267L121.91 189.824C121.713 190.368 121.392 190.83 120.985 191.154C120.579 191.479 120.105 191.652 119.62 191.652Z" fill="#B8CCFF"/>
<path d="M89.7345 44.5461C97.2983 44.5461 103.43 37.0109 103.43 27.7156C103.43 18.4204 97.2983 10.8851 89.7345 10.8851C82.1707 10.8851 76.0391 18.4204 76.0391 27.7156C76.0391 37.0109 82.1707 44.5461 89.7345 44.5461Z" fill="#FFB8B8"/>
<path d="M107.782 202.65H114.618L117.871 180.861L107.781 180.862L107.782 202.65Z" fill="#FFB8B8"/>
<path d="M106.038 199.907L119.501 199.907H119.501C120.628 199.907 121.744 200.179 122.785 200.709C123.826 201.239 124.771 202.016 125.568 202.995C126.365 203.974 126.997 205.136 127.428 206.415C127.859 207.695 128.081 209.066 128.081 210.45V210.793L106.039 210.794L106.038 199.907Z" fill="#2F2E41"/>
<path d="M115.717 193.707C115.637 193.707 115.557 193.703 115.477 193.693L106.016 192.847C105.634 192.803 105.264 192.652 104.937 192.405C104.609 192.159 104.332 191.823 104.127 191.423C103.922 191.024 103.794 190.572 103.753 190.103C103.712 189.633 103.76 189.159 103.892 188.715L116.554 153.757C116.644 153.446 116.681 153.114 116.662 152.784C116.643 152.454 116.569 152.133 116.444 151.839C116.32 151.543 116.145 151.282 115.933 151.074C115.72 150.866 115.474 150.716 115.211 150.634C109.257 148.721 93.9819 143.628 80.7586 137.67C75.0933 135.117 71.5252 131.428 70.1535 126.705C68.3451 120.478 71.0204 114.799 71.1352 114.561L71.2249 114.374L83.6678 115.764L97.157 117.174L126.718 136.654C129.195 138.3 131.076 141.033 131.987 144.307C132.899 147.581 132.773 151.157 131.635 154.323L118.007 191.88C117.809 192.424 117.488 192.886 117.082 193.21C116.676 193.534 116.201 193.707 115.717 193.707Z" fill="#B8CCFF"/>
<path d="M93.9586 54.0899L79.4608 47.9226C79.4608 47.9226 70.3595 56.5157 74.7317 77.8329C77.0143 88.8334 76.3494 100.445 72.8358 110.944C72.4128 112.243 71.9251 113.509 71.3755 114.735C71.3755 114.735 87.5461 138.719 102.602 120.902L96.7467 86.2967C96.7467 86.2967 105.947 63.3408 93.9586 54.0899Z" fill="#CDAA8B"/>
<path d="M91.4346 45.1186C89.4854 41.5331 87.9471 36.5614 90.0932 33.15C92.2116 29.7826 96.3898 30.2787 99.6342 28.7886C104.153 26.7132 106.774 20.1892 105.956 14.3465C105.139 8.5038 101.323 3.66038 96.776 1.67861C92.2294 -0.303164 87.1024 0.341354 82.65 2.62348C77.1691 5.43281 72.4675 10.8673 70.4959 17.7513C68.5244 24.6353 69.5783 32.9009 73.6683 38.1921C78.0532 43.8649 84.9351 45.3767 91.3014 45.2849" fill="#2F2E41"/>
<path d="M78.6957 14.534C76.2395 16.9912 72.4921 15.8998 69.8556 13.7433C67.219 11.5868 65.0796 8.51601 62.2269 6.82521C57.1977 3.8444 51.1173 5.82595 46.2226 9.12773C41.328 12.4295 36.9891 16.991 31.8189 19.5821C26.6487 22.1731 20.0512 22.3012 16.1362 17.4087C15.1728 20.8389 15.0941 24.551 15.9107 28.0383C16.7274 31.5255 18.3996 34.6183 20.6994 36.8945C22.9991 39.1707 25.8144 40.5195 28.7609 40.7568C31.7075 40.9942 34.6419 40.1086 37.1637 38.2208C42.8287 33.9802 45.9578 25.0888 52.3117 22.7483C55.8277 21.4531 59.6031 22.4962 63.1567 23.6261C66.7102 24.756 70.4155 25.9768 74.0017 25.0149C77.5878 24.0531 80.9423 20.0927 80.486 15.6169L78.6957 14.534Z" fill="#2F2E41"/>
<path d="M156.276 86.3535C155.916 85.3727 155.385 84.5009 154.721 83.7995C154.056 83.0981 153.275 82.5843 152.432 82.2941C151.589 82.0039 150.704 81.9445 149.84 82.12C148.976 82.2955 148.154 82.7017 147.431 83.31L94.1964 68.627L93.5347 84.6152L146.071 94.0207C146.983 95.4444 148.288 96.4077 149.739 96.7278C151.19 97.0479 152.687 96.7028 153.945 95.7577C155.203 94.8126 156.135 93.3333 156.564 91.6001C156.994 89.8668 156.892 88.0001 156.276 86.3535Z" fill="#FFB8B8"/>
<path d="M103.53 70.0955L100.28 86.281C100.188 86.7415 100.016 87.1721 99.7757 87.5435C99.5356 87.9149 99.2332 88.2184 98.8891 88.4332C98.5449 88.648 98.1672 88.7692 97.7815 88.7884C97.3959 88.8076 97.0114 88.7245 96.6542 88.5446L84.1401 82.242C82.2244 81.6486 80.5785 80.1455 79.5636 78.0626C78.5486 75.9796 78.2475 73.4869 78.7263 71.1315C79.2051 68.776 80.4248 66.7502 82.1176 65.4985C83.8104 64.2468 85.8381 63.8715 87.7558 64.4549L101.176 66.019C101.56 66.064 101.932 66.2101 102.266 66.4476C102.601 66.6851 102.889 67.0082 103.112 67.3951C103.336 67.7819 103.489 68.2234 103.561 68.6894C103.633 69.1554 103.622 69.635 103.53 70.0955Z" fill="#CDAA8B"/>
<path d="M150.126 99.0567C152.282 99.0567 154.029 96.9091 154.029 94.2599C154.029 91.6107 152.282 89.4631 150.126 89.4631C147.97 89.4631 146.223 91.6107 146.223 94.2599C146.223 96.9091 147.97 99.0567 150.126 99.0567Z" fill="#3D3C50"/>
</svg>
