<svg width="179" height="69" viewBox="0 0 179 69" fill="none" xmlns="http://www.w3.org/2000/svg">
<path d="M98.811 18.7821L101.112 19.1331C100.098 21.4341 98.538 23.6961 96.12 25.5681C95.73 25.0611 94.95 24.3201 94.404 24.0861C96.588 22.5261 98.031 20.5371 98.811 18.7821ZM99.162 19.9911H111.174V21.7461H98.031L99.162 19.9911ZM117.453 17.3781H129.582V19.5621H116.244L117.453 17.3781ZM110.082 19.9911H112.617C112.617 19.9911 112.617 20.6541 112.578 21.0051C112.305 25.8801 111.993 27.7911 111.369 28.5321C110.862 29.0391 110.316 29.2731 109.497 29.3121C108.873 29.3511 107.625 29.3901 106.377 29.2731C106.338 28.6881 106.104 27.8301 105.792 27.2841C106.962 27.4011 107.937 27.4011 108.327 27.4011C108.717 27.4011 108.99 27.4011 109.224 27.0891C109.614 26.6211 109.848 24.9441 110.082 20.3811V19.9911ZM117.921 14.3361L120.456 15.0381C118.974 18.3141 116.556 21.4731 114.099 23.5791C113.709 23.0721 112.734 22.0971 112.188 21.6681C114.528 19.8741 116.673 17.1441 117.921 14.3361ZM125.019 18.3921L127.593 18.8211C125.565 24.5151 120.3 27.5961 114.177 29.4681C113.865 28.9221 113.046 27.9081 112.539 27.4401C118.467 25.9191 123.303 23.1891 125.019 18.3921ZM117.336 19.0941C119.715 23.1111 124.785 26.2701 130.44 27.5181C129.855 28.0251 129.114 29.0391 128.724 29.7021C122.913 28.1421 117.804 24.5541 115.113 19.8741L117.336 19.0941ZM97.953 23.0331H100.098V28.8831H97.953V23.0331ZM98.928 23.0331H107.235V27.7131H98.967V26.2701H105.051V24.5151H98.928V23.0331ZM101.736 34.0701H124.668V35.7471H101.736V34.0701ZM101.853 37.7361H124.785V39.4131H101.853V37.7361ZM101.736 41.4021H126.891V43.3521H101.736V41.4021ZM100.02 30.1311H126.111V32.0811H102.828V43.3521H100.02V30.1311ZM111.954 30.9111H114.762V42.2991H111.954V30.9111ZM125.955 41.4021H128.802C128.802 41.4021 128.763 42.1041 128.685 42.4941C128.217 46.7451 127.749 48.5781 126.93 49.3581C126.345 49.9041 125.721 50.0991 124.824 50.1381C124.005 50.2161 122.445 50.1771 120.807 50.0991C120.768 49.4361 120.495 48.5001 120.144 47.8761C121.626 48.0321 122.991 48.0321 123.576 48.0321C124.044 48.0321 124.395 47.9931 124.629 47.7201C125.175 47.2131 125.604 45.6531 125.955 41.7531V41.4021ZM99.279 43.8591L101.619 45.0291C100.722 46.6671 99.435 48.8121 98.148 50.2161L95.652 48.8511C97.017 47.5641 98.421 45.4191 99.279 43.8591ZM104.349 44.9511L106.728 44.5611C107.313 46.0431 107.781 48.0711 107.898 49.3581L105.363 49.8651C105.285 48.5001 104.856 46.5111 104.349 44.9511ZM110.862 45.0291L113.085 44.4051C113.943 45.6921 114.801 47.4471 115.152 48.6171L112.812 49.3581C112.5 48.1491 111.642 46.3161 110.862 45.0291ZM117.219 44.7561L119.208 43.8981C120.261 44.8731 121.392 46.1991 121.899 47.1351L119.793 48.1881C119.286 47.2131 118.194 45.7701 117.219 44.7561ZM95.418 15.7401H101.97V17.6511H95.418V15.7401ZM100.722 14.2971H103.101V18.8601H100.722V14.2971ZM105.987 14.2971H108.405V19.2891H105.987V14.2971ZM106.845 15.7401H113.709V17.6511H106.845V15.7401ZM148.575 46.7841H170.142V48.9291H148.575V46.7841ZM146.781 40.7391H172.014V50.1381H169.011V42.8841H149.667V50.1771H146.781V40.7391ZM142.881 17.0271H175.836V19.2891H142.881V17.0271ZM145.65 21.9411H173.223V24.1251H145.65V21.9411ZM141.672 36.2151H176.889V38.5551H141.672V36.2151ZM157.701 14.2191H160.665V22.8771H157.701V14.2191ZM150.252 33.6801L152.904 32.9391C153.684 33.9921 154.347 35.4351 154.659 36.4101L151.851 37.2681C151.656 36.2541 150.954 34.7331 150.252 33.6801ZM165.345 32.7441L168.465 33.4071C167.646 34.8891 166.71 36.2931 166.008 37.2681L163.512 36.6051C164.175 35.5131 164.994 33.8751 165.345 32.7441ZM150.252 28.1421V31.2621H168.27V28.1421H150.252ZM147.483 26.1141H171.195V33.2511H147.483V26.1141Z" fill="black"/>
<g clip-path="url(#clip0_294_241)">
<path d="M66.7453 13.8843L34.3162 0.158691L0 14.6823V30.9274L2.73833 32.0867V54.9056L33.7119 68.015L65.2617 54.6618V31.8188L68 30.6604V14.4153L66.7453 13.8843ZM31.9422 62.8014L6.8498 52.1815V32.7774L31.9422 43.3974V62.8014ZM31.9422 40.0488L6.8498 29.4278V29.3626L4.11148 28.2032V19.2736L31.9423 31.0539V40.0488H31.9422ZM33.484 28.3578L5.86208 16.6658L34.3162 4.62345L61.9371 16.3144L33.484 28.3578ZM61.1502 51.9375L35.0258 62.9941V43.3974L61.1502 32.3388V51.9375ZM63.8885 27.8318L35.0258 40.0488V31.0539L63.8885 18.838V27.8318Z" fill="#C17B3A"/>
</g>
<defs>
<clipPath id="clip0_294_241">
<rect width="68" height="68" fill="white" transform="translate(0 0.0869141)"/>
</clipPath>
</defs>
</svg>
